OFF
642 1280 0
-3.5461673736572266 -1.3882904052734375 -0.13916110992431641
-3.3639640808105469 -1.4262819290161133 0.14314651489257812
-3.6896371841430664 -0.84829425811767578 -0.012352943420410156
-3.1649036407470703 1.5020313262939453 -0.37998294830322266
-3.4828891754150391 1.0500249862670898 -0.23662376403808594
-3.1628227233886719 1.5606346130371094 -0.00075054168701171875
3.5224609375 -1.6868200302124023 -0.082327842712402344
3.8467435836791992 -1.1983451843261719 0.28215312957763672
3.5320520401000977 -1.7444944381713867 0.20483684539794922
3.4112873077392578 1.5955028533935547 0.022032737731933594
3.5429096221923828 1.4194269180297852 0.33505535125732422
3.6963720321655273 1.0430517196655273 0.18742752075195312
-1.5139255523681641 0.11698150634765625 1.1748580932617188
-1.5668458938598633 -0.44689369201660156 1.0957307815551758
-0.90573024749755859 -0.25758266448974609 0.95262432098388672
1.5791463851928711 0.28132343292236328 1.2297534942626953
1.0108804702758789 0.10416412353515625 0.91289138793945312
1.5037527084350586 -0.39627361297607422 1.0950288772583008
-1.6446933746337891 -0.25667667388916016 -0.82618999481201172
-1.4540805816650391 0.38916015625 -0.69435501098632812
-1.0599098205566406 -0.051418304443359375 -0.37668228149414062
1.4595050811767578 -0.52790260314941406 -0.80077552795410156
1.0200939178466797 -0.233306884765625 -0.46305179595947266
1.5234193801879883 0.20077896118164062 -0.78518009185791016
0.1384429931640625 -3.5405044555664062 0.95503520965576172
-0.40920734405517578 -3.5511407852172852 1.006474494934082
-0.16829013824462891 -3.7112512588500977 0.67132949829101562
0.35882759094238281 -3.2973794937133789 -0.63547229766845703
-0.10133266448974609 -3.6125669479370117 -0.36270904541015625
-0.2663116455078125 -3.5295286178588867 -0.66001605987548828
0.63572883605957031 3.6494922637939453 0.51690673828125
0.20643901824951172 3.7474813461303711 0.35656547546386719
-0.037312507629394531 3.5428009033203125 0.69568920135498047
0.73078823089599609 3.6735763549804688 -0.91943740844726562
-0.044660568237304688 3.7065420150756836 -0.88785552978515625
0.25990486145019531 3.8942508697509766 -0.68967342376708984
-2.3135776519775391 -1.9937419891357422 1.3270969390869141
-2.3895721435546875 -2.287841796875 1.0309724807739258
-2.0814247131347656 -2.4576807022094727 1.122838020324707
2.1252593994140625 -2.0742664337158203 1.1296348571777344
1.9514331817626953 -2.6470918655395508 1.0362625122070312
2.4129619598388672 -2.4428958892822266 0.88380622863769531
-1.8659496307373047 2.4511795043945312 0.80526924133300781
-2.2590570449829102 1.99578857421875 0.75193023681640625
-1.9939250946044922 1.9725131988525391 0.94081687927246094
1.8162059783935547 2.3258981704711914 1.0534477233886719
1.9231128692626953 1.9678955078125 1.3843841552734375
2.266148567199707 1.9556884765625 1.1504573822021484
-2.0102062225341797 -2.3568563461303711 -0.91009235382080078
-2.6190509796142578 -1.9939184188842773 -0.84168529510498047
-2.1974029541015625 -1.8451471328735352 -0.97615242004394531
2.1244068145751953 -2.7590084075927734 -0.84869480133056641
2.3299160003662109 -2.0839138031005859 -1.0877971649169922
2.5463733673095703 -2.4770851135253906 -1.0114154815673828
-1.7019815444946289 2.5897865295410156 -1.2720203399658203
-1.6475667953491211 2.143280029296875 -1.1488094329833984
-2.0234413146972656 2.2190179824829102 -1.1650867462158203
1.7288942337036133 2.4511594772338867 -0.85124874114990234
2.3772029876708984 2.1435537338256836 -0.70679664611816406
2.1472225189208984 1.9135732650756836 -0.76190376281738281
-3.7187967300415039 -0.3264923095703125 0.29834747314453125
-3.5491905212402344 -0.96203041076660156 0.60922622680664062
-3.7032508850097656 -0.41110610961914062 0.56883144378662109
-3.5621147155761719 -0.33075428009033203 -0.6175689697265625
-3.5886344909667969 -0.91770458221435547 -0.56602287292480469
-3.6787929534912109 -0.31911182403564453 -0.46679878234863281
-2.8676691055297852 -2.2981185913085938 -0.28131389617919922
-2.5544958114624023 -2.5892648696899414 -0.10353279113769531
-2.8369817733764648 -2.1988105773925781 0.074036598205566406
-3.4009275436401367 1.0061359405517578 0.446319580078125
-3.6165084838867188 0.72883701324462891 0.3673858642578125
-3.5610904693603516 0.49837875366210938 0.63380241394042969
-2.2742576599121094 2.8482847213745117 -0.28194522857666016
-2.5816202163696289 2.4501447677612305 -0.41662693023681641
-2.6367464065551758 2.2333850860595703 -0.11324119567871094
-3.202763557434082 1.1062231063842773 -0.72898387908935547
-3.2833671569824219 0.62111854553222656 -0.76520061492919922
-3.5584821701049805 0.7210540771484375 -0.44163608551025391
3.5466184616088867 -1.2848958969116211 0.78874588012695312
3.6681728363037109 -0.75489330291748047 0.53297710418701172
3.5002365112304688 -0.6157379150390625 0.64396476745605469
2.8528642654418945 -2.7651786804199219 -0.0428924560546875
2.9827041625976562 -2.446868896484375 -0.22649383544921875
3.1184406280517578 -2.4023447036743164 0.13715362548828125
3.6692523956298828 -1.0457677841186523 -0.42346286773681641
3.6859273910522461 -0.58911609649658203 -0.6282806396484375
3.8020086288452148 -0.59393501281738281 -0.41499614715576172
3.6601924896240234 0.40222644805908203 0.52408123016357422
3.3488559722900391 0.9001922607421875 0.61887168884277344
3.4112825393676758 0.42306041717529297 0.67762374877929688
3.6728973388671875 0.40852451324462891 -0.50664520263671875
3.5543975830078125 0.88534355163574219 -0.390472412109375
3.8155527114868164 0.38616466522216797 -0.27556705474853516
2.8097934722900391 2.3766679763793945 0.005352020263671875
2.5244579315185547 2.7350540161132812 0.13486194610595703
2.8598041534423828 2.3220958709716797 0.24060821533203125
-0.33185291290283203 -0.95795631408691406 0.92726421356201172
-1.0334863662719727 -1.2860603332519531 0.96145057678222656
-0.63198471069335938 -1.4834003448486328 1.0538301467895508
-0.60208606719970703 1.3066921234130859 0.97570228576660156
-1.052464485168457 1.0053806304931641 1.0021133422851562
-0.40646266937255859 0.73993492126464844 0.76671123504638672
-2.4467649459838867 0.29740142822265625 1.203923225402832
-2.8492012023925781 -0.15727710723876953 1.2064151763916016
-2.59271240234375 -0.48224449157714844 1.3060102462768555
0.95139694213867188 -1.1835193634033203 0.92679119110107422
0.55684089660644531 -0.82550621032714844 0.74039077758789062
0.60880470275878906 -1.4693183898925781 1.0128612518310547
2.6002988815307617 -0.22086811065673828 1.1860818862915039
2.3575248718261719 0.33879375457763672 1.2552976608276367
2.2510461807250977 -0.37907028198242188 1.2267513275146484
1.101409912109375 1.1443662643432617 1.2913875579833984
0.5590972900390625 1.2896556854248047 0.96805191040039062
0.63780593872070312 0.87955570220947266 0.81786441802978516
-0.20433139801025391 0.66313934326171875 -0.24964809417724609
-0.86021614074707031 1.1250114440917969 -0.37088871002197266
-0.30852317810058594 1.2798690795898438 -0.45314884185791016
-0.70595455169677734 -1.3972234725952148 -0.56338214874267578
-1.1239166259765625 -1.1365022659301758 -0.82266807556152344
-0.70417594909667969 -0.76719856262207031 -0.40064334869384766
-2.4958477020263672 -0.24697113037109375 -1.0767135620117188
-2.8830528259277344 -0.008983612060546875 -1.2165842056274414
-2.4690999984741211 0.19569206237792969 -1.1116704940795898
0.99320793151855469 1.091517448425293 -0.6820526123046875
0.60595989227294922 0.63754653930664062 -0.44152736663818359
0.485443115234375 1.2202434539794922 -0.61514091491699219
2.8335046768188477 -0.09525299072265625 -1.0185737609863281
2.3498802185058594 -0.38615798950195312 -1.058680534362793
2.4559173583984375 0.21306419372558594 -0.96341037750244141
0.96378326416015625 -1.3350362777709961 -0.79322910308837891
0.34964752197265625 -1.3975715637207031 -0.63223171234130859
0.37959003448486328 -0.88716030120849609 -0.52647590637207031
-0.9376220703125 -3.69976806640625 0.35765171051025391
-1.2195730209350586 -3.5066986083984375 0.70769882202148438
-1.4376096725463867 -3.5780239105224609 0.36575698852539062
1.1762094497680664 -3.6143960952758789 0.29304218292236328
0.93360519409179688 -3.5601491928100586 0.65151214599609375
0.73102474212646484 -3.6753263473510742 0.41994762420654297
0.093293190002441406 -3.0047512054443359 1.3296222686767578
-0.085942268371582031 -2.7181854248046875 1.3766441345214844
-0.38211917877197266 -2.9669332504272461 1.3787574768066406
-1.1529884338378906 -3.645390510559082 -0.49798297882080078
-0.91132831573486328 -3.7753229141235352 -0.21378898620605469
-1.4321718215942383 -3.69293212890625 -0.16410160064697266
0.050676345825195312 -2.7645359039306641 -1.0437679290771484
0.42437267303466797 -2.9733037948608398 -0.98502731323242188
-0.43193531036376953 -2.9686374664306641 -1.0022792816162109
1.0090570449829102 -3.4241046905517578 -0.28403949737548828
1.2263517379760742 -3.6130828857421875 -0.16397571563720703
0.66813755035400391 -3.6124992370605469 -0.17972755432128906
-0.87241935729980469 3.587397575378418 0.4419708251953125
-0.57792091369628906 3.8012723922729492 0.23131656646728516
-1.0610542297363281 3.6393661499023438 0.15212726593017578
0.10530281066894531 2.7773704528808594 1.0105714797973633
0.57757377624511719 3.0840587615966797 0.95556926727294922
0.095669746398925781 3.1135272979736328 0.82444477081298828
1.4498195648193359 3.6838912963867188 0.30660820007324219
1.6916494369506836 3.7563304901123047 0.049785614013671875
1.076655387878418 3.9035234451293945 0.11403274536132812
-0.60304450988769531 3.8596363067626953 -0.34133625030517578
-0.82494640350341797 3.5896568298339844 -0.63232231140136719
-0.97867107391357422 3.6609420776367188 -0.29616165161132812
1.6710491180419922 3.8086767196655273 -0.44637680053710938
1.5069618225097656 3.8062925338745117 -0.66541290283203125
1.1878519058227539 3.9694423675537109 -0.42721748352050781
0.64310550689697266 3.0255298614501953 -0.9266204833984375
0.32818794250488281 2.7022809982299805 -0.96483612060546875
-0.010778427124023438 2.9746952056884766 -1.0459651947021484
-1.9856243133544922 -3.0551223754882812 0.64214420318603516
-2.3260269165039062 -2.7071304321289062 0.47482585906982422
-2.1083869934082031 -3.1201744079589844 0.33252334594726562
-1.0710563659667969 -2.1735239028930664 1.3485403060913086
-1.471013069152832 -2.0355930328369141 1.3121223449707031
-1.2935352325439453 -2.5006656646728516 1.2834444046020508
-2.9700489044189453 -1.3438444137573242 1.2292051315307617
-3.2489795684814453 -0.88297462463378906 1.1010446548461914
-3.0636558532714844 -1.5853853225708008 0.99920845031738281
2.4827251434326172 -2.9574127197265625 0.50282478332519531
2.0522546768188477 -3.1526012420654297 0.65886306762695312
2.1329746246337891 -3.1990537643432617 0.39041709899902344
2.9932355880737305 -0.98041152954101562 0.96837615966796875
2.728703498840332 -1.3838739395141602 1.0758295059204102
3.0141935348510742 -1.5803318023681641 0.90274333953857422
1.2790069580078125 -2.2294425964355469 1.2158060073852539
0.70726394653320312 -2.3399505615234375 1.2930631637573242
1.1341876983642578 -2.6419038772583008 1.2590436935424805
-2.7188901901245117 0.9104156494140625 0.97240924835205078
-2.8046493530273438 1.1357536315917969 0.7530670166015625
-3.0464839935302734 0.66972446441650391 0.81194114685058594
-0.53549671173095703 2.3249588012695312 1.0758152008056641
-0.978973388671875 2.4344139099121094 0.94789505004882812
-1.302520751953125 1.9409694671630859 1.0465383529663086
-1.6508121490478516 3.0590419769287109 0.49966335296630859
-1.8196096420288086 3.0590000152587891 0.27468681335449219
-2.1743059158325195 2.5848102569580078 0.23725605010986328
3.0462474822998047 1.3860931396484375 1.0322580337524414
2.8386325836181641 1.0418119430541992 1.1455230712890625
2.9485054016113281 0.60487651824951172 0.98200321197509766
1.9900083541870117 2.9443511962890625 0.49995613098144531
1.8030538558959961 2.812077522277832 0.67946815490722656
2.2772216796875 2.5679197311401367 0.54197502136230469
1.0128107070922852 2.5062665939331055 1.2277078628540039
0.80961322784423828 2.0813789367675781 1.3048915863037109
1.258152961730957 1.9476461410522461 1.3491554260253906
-2.995121955871582 -1.08856201171875 -0.96154022216796875
-3.3091554641723633 -1.2614955902099609 -0.7824859619140625
-3.2374629974365234 -0.70535659790039062 -0.97664260864257812
-0.91911792755126953 -2.1063613891601562 -1.1439189910888672
-1.0305519104003906 -2.5822935104370117 -1.1434917449951172
-1.4388713836669922 -2.0213279724121094 -1.0751142501831055
-1.9072427749633789 -2.9780607223510742 -0.78200244903564453
-2.0375537872314453 -3.1118202209472656 -0.53317928314208984
-2.3897781372070312 -2.7076196670532227 -0.66331768035888672
3.0020809173583984 -1.4047698974609375 -0.86192989349365234
2.6588497161865234 -1.3199901580810547 -1.1229152679443359
2.9107980728149414 -0.94644260406494141 -0.97554492950439453
2.1986007690429688 -3.2136316299438477 -0.29197883605957031
2.0588788986206055 -3.065220832824707 -0.46492576599121094
2.5454654693603516 -2.7640132904052734 -0.52234649658203125
1.1685791015625 -2.4726228713989258 -1.0706844329833984
0.83551788330078125 -2.2084264755249023 -0.98188209533691406
1.4658699035644531 -2.1400108337402344 -1.0665006637573242
-2.535247802734375 1.4666061401367188 -1.1703634262084961
-2.1854543685913086 1.2539958953857422 -1.2859392166137695
-2.6302080154418945 1.0440349578857422 -1.1749610900878906
-1.9821071624755859 3.285252571105957 -0.56514072418212891
-1.7949666976928711 3.2157840728759766 -0.86896324157714844
-2.2383499145507812 2.9694194793701172 -0.86165618896484375
-0.97363662719726562 2.4853496551513672 -1.1137275695800781
-0.69649314880371094 2.3142213821411133 -1.0229244232177734
-0.92952823638916016 1.9257841110229492 -0.93480300903320312
2.7146272659301758 0.97921848297119141 -0.85799694061279297
3.1196556091308594 1.2792339324951172 -0.77231693267822266
3.1017065048217773 0.70486164093017578 -0.85161781311035156
0.91107845306396484 2.0876131057739258 -0.83742332458496094
1.1880092620849609 2.3106918334960938 -0.99783229827880859
1.3264369964599609 1.8542861938476562 -0.78566455841064453
2.0425271987915039 2.9392061233520508 -0.66750049591064453
2.2232389450073242 2.9519758224487305 -0.33125114440917969
2.4199657440185547 2.635833740234375 -0.34967613220214844
-3.7892551422119141 -0.426177978515625 -0.17829704284667969
-3.7735824584960938 -0.32769680023193359 0.11229991912841797
-3.6180095672607422 -1.4185085296630859 -0.40018844604492188
-3.2146224975585938 -2.0031604766845703 -0.27209377288818359
-3.0228185653686523 -1.8892192840576172 0.2847747802734375
-3.3612766265869141 -1.3276100158691406 0.39020156860351562
-2.9067611694335938 1.9367971420288086 0.0089321136474609375
-3.0366964340209961 1.4776287078857422 0.37225246429443359
-2.7785158157348633 2.1614542007446289 -0.62343215942382812
-2.985443115234375 1.6585893630981445 -0.60003185272216797
-3.7574787139892578 0.58318614959716797 -0.15222263336181641
-3.69207763671875 0.67990493774414062 0.075692176818847656
3.3286685943603516 -2.1363668441772461 0.30246353149414062
3.5541362762451172 -1.7026996612548828 0.58342075347900391
3.238306999206543 -1.9053030014038086 -0.4241790771484375
3.6272449493408203 -1.3908662796020508 -0.27840137481689453
3.8235931396484375 -0.54546546936035156 -0.089705467224121094
3.807591438293457 -0.63293647766113281 0.24741077423095703
3.8267421722412109 0.49611473083496094 0.018808364868164062
3.8073244094848633 0.46718692779541016 0.39325141906738281
3.4014730453491211 1.4363851547241211 -0.20811748504638672
3.0690174102783203 1.9576282501220703 -0.18774127960205078
3.0915765762329102 1.9541158676147461 0.46654415130615234
3.5028514862060547 1.4007596969604492 0.59009647369384766
-0.39827919006347656 0.15048789978027344 0.62628650665283203
-0.30825710296630859 -0.3770904541015625 0.65097618103027344
-1.4275312423706055 0.66899204254150391 1.0810136795043945
-1.9778728485107422 0.54886913299560547 1.1879959106445312
-2.2256345748901367 -0.57820320129394531 1.1817684173583984
-1.5232181549072266 -1.005915641784668 0.96810817718505859
1.9416770935058594 -0.76048374176025391 1.2612409591674805
1.4996337890625 -1.1532068252563477 1.0077667236328125
2.0440607070922852 0.70698928833007812 1.2694473266601562
1.5386762619018555 0.94950675964355469 1.3689441680908203
0.66038131713867188 0.49966526031494141 0.64555454254150391
0.74086284637451172 -0.35122013092041016 0.6517791748046875
-0.52929115295410156 -0.29344654083251953 -0.21725082397460938
-0.61433315277099609 0.33965206146240234 -0.19222450256347656
-1.7537260055541992 -0.97165489196777344 -1.0710382461547852
-2.0858545303344727 -0.53168964385986328 -1.1097192764282227
-2.006866455078125 0.49744224548339844 -0.93248844146728516
-1.5003232955932617 1.0258922576904297 -0.75334453582763672
2.0946922302246094 0.57517719268798828 -0.81243038177490234
1.5249967575073242 0.83871555328369141 -0.82396411895751953
1.9123411178588867 -0.67175388336181641 -1.0313034057617188
1.3885488510131836 -1.1307964324951172 -0.91248416900634766
0.42318344116210938 -0.44185352325439453 -0.31415081024169922
0.60304164886474609 0.12084388732910156 -0.26932716369628906
0.17507457733154297 -3.7655038833618164 0.35329723358154297
-0.36018657684326172 -3.7803153991699219 0.36778640747070312
0.78171920776367188 -3.3949861526489258 0.86372184753417969
0.51527595520019531 -3.3135709762573242 1.2097501754760742
-0.58153343200683594 -3.2852630615234375 1.1992368698120117
-0.84030818939208984 -3.4605541229248047 0.8904266357421875
-0.5845489501953125 -3.2559833526611328 -0.89612865447998047
-1.0434989929199219 -3.5749807357788086 -0.78241252899169922
0.6304931640625 -3.117497444152832 -0.84016895294189453
0.90525436401367188 -3.2476129531860352 -0.58724403381347656
0.082866668701171875 -3.7294931411743164 -0.14420700073242188
-0.4703216552734375 -3.7763338088989258 -0.16994285583496094
-0.37279605865478516 3.1912593841552734 0.79120159149169922
-0.76790904998779297 3.4559926986694336 0.68769264221191406
0.83822536468505859 3.3187589645385742 0.80088233947753906
1.1261157989501953 3.6274967193603516 0.49499702453613281
0.30446338653564453 4.0124835968017578 -1.1444091796875e-05
-0.13589668273925781 3.8730916976928711 0.24051666259765625
0.59232997894287109 4.01348876953125 -0.46251487731933594
-0.15864849090576172 3.9937496185302734 -0.46311759948730469
1.2714824676513672 3.6605310440063477 -0.90778923034667969
0.86902713775634766 3.3395395278930664 -0.92877864837646484
-0.19854450225830078 3.3172369003295898 -1.0100002288818359
-0.59552764892578125 3.4775915145874023 -0.91779804229736328
-1.5088529586791992 -2.7214908599853516 1.189727783203125
-1.7780742645263672 -2.8962745666503906 0.97663402557373047
-1.9130544662475586 -1.6469917297363281 1.2971162796020508
-2.4641475677490234 -1.3193387985229492 1.2223443984985352
-2.8070411682128906 -1.9734468460083008 0.81530094146728516
-2.5932435989379883 -2.439946174621582 0.68969345092773438
2.9346837997436523 -2.0516757965087891 0.86847782135009766
2.7645483016967773 -2.5268669128417969 0.71386241912841797
2.3974199295043945 -1.6152105331420898 1.1415328979492188
1.775691032409668 -1.9060239791870117 1.1686468124389648
1.3895797729492188 -2.8552818298339844 1.091949462890625
1.7435464859008789 -3.0108547210693359 0.95199775695800781
-1.6532354354858398 1.6833419799804688 1.0658855438232422
-2.0837917327880859 1.355900764465332 0.92821025848388672
-1.2970132827758789 2.6623296737670898 0.86775970458984375
-1.5892362594604492 2.8899784088134766 0.72593975067138672
-2.3428306579589844 2.186284065246582 0.40949249267578125
-2.5269575119018555 1.6068496704101562 0.56555366516113281
2.5037155151367188 2.1390628814697266 0.82341766357421875
2.8691349029541016 1.8289241790771484 1.0478696823120117
1.6262302398681641 2.7268028259277344 0.93209362030029297
1.3007335662841797 2.5465145111083984 1.1312923431396484
1.8498239517211914 1.6944417953491211 1.6037139892578125
2.4192295074462891 1.4338693618774414 1.3696479797363281
-1.9621963500976562 -1.6321258544921875 -1.1281957626342773
-2.6394157409667969 -1.384368896484375 -1.0122690200805664
-1.4534778594970703 -2.7120628356933594 -0.96355915069580078
-1.6719036102294922 -2.8998231887817383 -0.90441131591796875
-2.7922334671020508 -2.23583984375 -0.79339981079101562
-3.0651025772094727 -1.7517604827880859 -0.74401283264160156
2.8657016754150391 -2.2613029479980469 -0.79205989837646484
3.0078210830688477 -1.7716751098632812 -0.85671329498291016
1.8049964904785156 -3.0853662490844727 -0.70990276336669922
1.5714845657348633 -2.7776756286621094 -0.9046173095703125
1.9417266845703125 -2.0207901000976562 -1.1799192428588867
2.3220767974853516 -1.3783588409423828 -1.1520233154296875
-2.2503719329833984 2.5864639282226562 -1.024724006652832
-2.4918441772460938 1.934086799621582 -1.1124248504638672
-1.4318332672119141 3.0949335098266602 -1.0428199768066406
-1.3029537200927734 2.7228689193725586 -1.2238044738769531
-1.3453359603881836 1.6982698440551758 -1.0317230224609375
-1.8071422576904297 1.6793384552001953 -1.1893396377563477
1.9337530136108398 1.6619453430175781 -0.79353904724121094
2.4528303146362305 1.4386434555053711 -0.84732723236083984
1.360346794128418 2.6820755004882812 -1.0216255187988281
1.670074462890625 2.8636865615844727 -0.87249851226806641
2.6187534332275391 2.2778558731079102 -0.52331638336181641
3.0285177230834961 1.7718849182128906 -0.56186580657958984
-3.597163200378418 -0.10785961151123047 0.73470306396484375
-3.5449333190917969 -0.59966659545898438 0.90442752838134766
-3.7420454025268555 0.31708717346191406 0.27666664123535156
-3.3038873672485352 -1.5285177230834961 0.71962451934814453
-3.7579860687255859 0.18798446655273438 -0.34032058715820312
-3.4472999572753906 0.23652362823486328 -0.78223896026611328
-3.3853178024291992 -0.25586223602294922 -0.95098686218261719
-3.5030097961425781 -1.4526157379150391 -0.65322494506835938
-2.7934761047363281 -2.1909685134887695 0.44578170776367188
-2.8993549346923828 -2.3044071197509766 -0.60803890228271484
-2.2798652648925781 -2.9623279571533203 -0.2718353271484375
-2.3382530212402344 -2.9267377853393555 -0.014413833618164062
-3.3662109375 0.40642547607421875 0.71745204925537109
-2.8980579376220703 1.3539962768554688 0.53675174713134766
-2.4616193771362305 2.1869945526123047 0.20550918579101562
-2.0291233062744141 3.0052223205566406 -0.008510589599609375
-2.0433435440063477 3.1109495162963867 -0.30679130554199219
-2.5464439392089844 2.4178066253662109 -0.744903564453125
-2.9106607437133789 1.5318517684936523 -0.90061092376708984
-3.0343790054321289 0.73996639251708984 -1.1496152877807617
3.2053365707397461 -0.57771492004394531 0.87390708923339844
3.4145679473876953 -0.16143321990966797 0.71193218231201172
3.2855491638183594 -1.634307861328125 0.79975223541259766
3.8015975952148438 -0.068125724792480469 0.26644134521484375
2.9531164169311523 -2.5368480682373047 0.46422386169433594
2.3740882873535156 -3.0982742309570312 0.16065406799316406
2.5312728881835938 -3.0674533843994141 -0.055768966674804688
2.9936962127685547 -2.3149280548095703 -0.58610248565673828
3.8493318557739258 -0.071245193481445312 -0.12542438507080078
3.3854427337646484 -1.3519201278686523 -0.60422039031982422
3.3623495101928711 -0.58957862854003906 -0.74200344085693359
3.6143798828125 -0.090334892272949219 -0.61849117279052734
3.2125711441040039 0.31480503082275391 0.89051628112792969
3.2482147216796875 1.4476938247680664 0.80112171173095703
3.3774290084838867 0.36600303649902344 -0.77456092834472656
3.3413009643554688 1.2292070388793945 -0.49085140228271484
2.6578569412231445 2.2254314422607422 0.48532867431640625
2.8615665435791016 2.2314968109130859 -0.31952857971191406
2.3291435241699219 2.9806728363037109 -0.10634708404541016
2.1280479431152344 3.082366943359375 0.30354595184326172
-0.014780044555664062 -1.50537109375 1.2093639373779297
-0.67187213897705078 -1.8129329681396484 1.3321495056152344
0.23104286193847656 -0.6018218994140625 0.65058231353759766
-1.6204710006713867 -1.3927688598632812 1.1095676422119141
0.1539459228515625 0.35097408294677734 0.52969741821289062
-0.058706283569335938 1.3204994201660156 0.9360198974609375
-0.43638992309570312 1.8268260955810547 0.99125385284423828
-1.3988914489746094 1.2430839538574219 1.0464143753051758
-2.626988410949707 -1.0000457763671875 1.2679281234741211
-2.3532390594482422 0.90424633026123047 1.0309228897094727
-3.0593490600585938 0.20467662811279297 1.0178775787353516
-3.2686862945556641 -0.30357933044433594 1.0749998092651367
0.44536781311035156 -1.8617801666259766 1.2009363174438477
1.454279899597168 -1.6101207733154297 1.1331081390380859
2.294036865234375 -1.0920791625976562 1.1496686935424805
2.9014797210693359 -0.54010009765625 1.1202354431152344
2.8344850540161133 0.12577247619628906 1.106719970703125
2.4364433288574219 0.98955249786376953 1.2582483291625977
1.5239906311035156 1.4932470321655273 1.5263843536376953
0.42196941375732422 1.651275634765625 1.0502758026123047
-0.024698257446289062 1.5209550857543945 -0.60206508636474609
-0.32849025726318359 1.9785490036010742 -0.73525714874267578
0.12257671356201172 0.21480178833007812 -0.089047431945800781
-1.1882209777832031 1.4363155364990234 -0.79335689544677734
-0.10661220550537109 -0.67946434020996094 -0.39063739776611328
-0.17770767211914062 -1.5850248336791992 -0.68893814086914062
-0.76445770263671875 -1.8655014038085938 -0.90477943420410156
-1.6506471633911133 -1.4395561218261719 -1.0981578826904297
-2.1020669937133789 0.82357597351074219 -1.1838769912719727
-2.4439973831176758 -0.86623477935791016 -1.0888080596923828
-3.1415157318115234 -0.21489143371582031 -1.1645612716674805
-2.9350070953369141 0.47819042205810547 -1.2655878067016602
0.56519412994384766 1.6846446990966797 -0.75235557556152344
1.501683235168457 1.2812509536743164 -0.76888179779052734
2.3594532012939453 0.95894432067871094 -0.86991977691650391
3.0938825607299805 0.32415962219238281 -0.99169158935546875
3.1092119216918945 -0.49050521850585938 -0.93764495849609375
2.2181215286254883 -0.91672801971435547 -1.1630373001098633
1.4743709564208984 -1.6173496246337891 -1.0115528106689453
0.40185260772705078 -1.8990631103515625 -0.78531455993652344
-1.6321258544921875 -3.6507377624511719 0.031705856323242188
-1.8707895278930664 -3.4066562652587891 0.24117851257324219
-0.60577774047851562 -3.796177864074707 0.13193511962890625
-1.441009521484375 -3.2340574264526367 0.85240936279296875
0.32514286041259766 -3.7608051300048828 0.070949554443359375
1.4546346664428711 -3.5752887725830078 0.080410003662109375
1.7179946899414062 -3.4368925094604492 0.21138668060302734
1.4155445098876953 -3.248260498046875 0.78840541839599609
-0.86671352386474609 -2.9594593048095703 1.2650337219238281
0.74452877044677734 -3.042851448059082 1.2580852508544922
0.1125030517578125 -2.3176841735839844 1.3820428848266602
-0.45357990264892578 -2.3080329895019531 1.2887744903564453
-1.8964786529541016 -3.3574657440185547 -0.31536102294921875
-1.4664344787597656 -3.3498020172119141 -0.79017066955566406
-1.0075387954711914 -2.9396286010742188 -1.0323715209960938
-0.27612400054931641 -2.4522323608398438 -1.0211029052734375
0.29221439361572266 -2.3968801498413086 -1.0190162658691406
1.0776510238647461 -2.8557491302490234 -0.99495029449462891
1.3914270401000977 -3.2485361099243164 -0.51341629028320312
1.7927131652832031 -3.4482975006103516 -0.16378116607666016
-1.6710786819458008 3.3511075973510742 0.10052871704101562
-1.3279533386230469 3.5705547332763672 -0.12286663055419922
-1.234074592590332 3.3084554672241211 0.63555335998535156
-0.23782730102539062 3.9077301025390625 -0.11497306823730469
-0.62780284881591797 2.8748970031738281 0.87281227111816406
-0.0062894821166992188 2.3524379730224609 1.0135688781738281
0.44553661346435547 2.350865364074707 1.0858345031738281
0.97611427307128906 2.8549118041992188 0.95261955261230469
0.72225856781005859 4.0358619689941406 -0.10857772827148438
1.5005207061767578 3.2605800628662109 0.56009387969970703
2.0403003692626953 3.4366664886474609 0.22160720825195312
1.850987434387207 3.8253965377807617 -0.17321300506591797
-1.4778385162353516 3.4429779052734375 -0.46177196502685547
-1.1056613922119141 3.3567008972167969 -0.91918468475341797
2.0298891067504883 3.4602155685424805 -0.35651779174804688
1.7294960021972656 3.2710971832275391 -0.85092353820800781
-0.55793380737304688 2.9314546585083008 -1.1060476303100586
1.0671052932739258 2.8868122100830078 -0.95389366149902344
0.47748565673828125 2.3857173919677734 -0.85468101501464844
-0.12239837646484375 2.4478912353515625 -0.95773983001708984
-3.6752147674560547 -0.80743503570556641 -0.33660316467285156
-3.1556968688964844 -1.8809318542480469 -0.026018142700195312
-3.6368818283081055 -0.8792877197265625 0.25842475891113281
-2.9200315475463867 2.0712032318115234 -0.323333740234375
-3.3221015930175781 1.0816926956176758 -0.4889373779296875
-3.4158897399902344 1.1401338577270508 0.17494869232177734
3.2582664489746094 -2.0848770141601562 -0.11011314392089844
3.7708501815795898 -1.0901288986206055 -0.056245803833007812
3.7546663284301758 -1.234004020690918 0.51810264587402344
3.6387195587158203 0.94382762908935547 -0.15891361236572266
3.1400680541992188 1.9842691421508789 0.16805744171142578
3.5808172225952148 0.90241718292236328 0.42480850219726562
-0.78175258636474609 0.44775295257568359 0.87499904632568359
-2.1263532638549805 -0.037219047546386719 1.3099212646484375
-0.87873268127441406 -0.75018692016601562 0.99761581420898438
1.9516773223876953 0.037276268005371094 1.3077583312988281
1.1087741851806641 0.65589523315429688 1.1061391830444336
1.147944450378418 -0.66132640838623047 0.81386661529541016
-1.3270740509033203 -0.69923496246337891 -0.62554740905761719
-2.1112022399902344 0.0058164596557617188 -0.92645072937011719
-1.004241943359375 0.73595905303955078 -0.38741111755371094
1.9990520477294922 -0.071857452392578125 -0.94791126251220703
0.93546390533447266 -0.78662109375 -0.58022594451904297
1.0306262969970703 0.44369411468505859 -0.63745594024658203
0.40979957580566406 -3.6621761322021484 0.61724758148193359
-0.14093780517578125 -3.2974319458007812 1.2332639694213867
-0.71732521057128906 -3.7334957122802734 0.70051860809326172
-0.036457061767578125 -3.1237888336181641 -0.93379592895507812
0.55760574340820312 -3.4619646072387695 -0.373077392578125
-0.64906120300292969 -3.6453409194946289 -0.52757167816162109
0.35452461242675781 3.3648805618286133 0.75725078582763672
0.80249786376953125 3.8724784851074219 0.24182224273681641
-0.41135215759277344 3.7161493301391602 0.52054786682128906
0.94396305084228516 3.9670047760009766 -0.6938934326171875
0.26202583312988281 3.3136968612670898 -0.96790504455566406
-0.38787555694580078 3.8150062561035156 -0.69923782348632812
-1.7820663452148438 -2.240178108215332 1.2879734039306641
-2.7212610244750977 -1.7790985107421875 1.1339302062988281
-2.2188320159912109 -2.7847452163696289 0.79311466217041016
2.6057033538818359 -1.9306869506835938 1.0611534118652344
1.7107563018798828 -2.4857568740844727 1.1519260406494141
2.3226776123046875 -2.7669963836669922 0.80912017822265625
-1.4191675186157227 2.3466005325317383 0.97298717498779297
-2.0379199981689453 2.5771446228027344 0.51039600372314453
-2.3810863494873047 1.4156265258789062 0.80655479431152344
2.0988655090332031 2.359344482421875 0.79631423950195312
1.5123586654663086 2.1643648147583008 1.342259407043457
2.6926946640014648 1.5465507507324219 1.2747516632080078
-1.6161594390869141 -2.2828330993652344 -0.98247241973876953
-2.2655134201049805 -2.5330429077148438 -0.84328079223632812
-2.911956787109375 -1.5373544692993164 -0.82868194580078125
2.3856801986694336 -2.8223590850830078 -0.72108936309814453
1.7745342254638672 -2.4937992095947266 -1.0003547668457031
2.6717386245727539 -1.8102712631225586 -1.0800399780273438
-1.9400424957275391 2.9342975616455078 -1.1775417327880859
-1.2403602600097656 2.2345180511474609 -1.1150178909301758
-2.1133527755737305 1.7666234970092773 -1.159031867980957
1.5323829650878906 2.101689338684082 -0.81969356536865234
2.1517181396484375 2.4874296188354492 -0.67652320861816406
2.7810478210449219 1.5140676498413086 -0.76183795928955078
-3.709716796875 0.061262130737304688 0.48002243041992188
-3.3888740539550781 -1.1653289794921875 0.87552356719970703
-3.5680522918701172 0.31937217712402344 -0.51177597045898438
-3.4419546127319336 -0.71009349822998047 -0.83515071868896484
-2.541996955871582 -2.684361457824707 -0.42393970489501953
-2.5277481079101562 -2.6420574188232422 0.21597194671630859
-3.1483135223388672 0.87932395935058594 0.63460063934326172
-2.3454179763793945 2.5330753326416016 -0.037512779235839844
-2.3299989700317383 2.8405895233154297 -0.60685348510742188
-3.0086135864257812 1.126251220703125 -0.93082809448242188
3.2523221969604492 -1.0473918914794922 0.83950424194335938
3.590672492980957 -0.069251060485839844 0.47461605072021484
2.7966709136962891 -2.8093948364257812 0.27227497100830078
2.6259803771972656 -2.8683128356933594 -0.2765045166015625
3.3642377853393555 -0.95915603637695312 -0.76877784729003906
3.8551101684570312 -0.035818099975585938 -0.43146610260009766
3.1902170181274414 0.86310958862304688 0.8986358642578125
3.3861808776855469 0.79577159881591797 -0.73776531219482422
2.5339803695678711 2.6590061187744141 -0.16087818145751953
2.4942188262939453 2.6312294006347656 0.32999515533447266
0.13650894165039062 -1.1373729705810547 0.95967197418212891
-1.2037439346313477 -1.7015914916992188 1.1173629760742188
0.0031785964965820312 0.93432044982910156 0.76254940032958984
-0.97966098785400391 1.7527446746826172 1.092376708984375
-2.7289562225341797 0.54996395111083984 1.1867733001708984
-3.0118141174316406 -0.78421592712402344 1.1803712844848633
1.0162763595581055 -1.892848014831543 1.1417551040649414
2.6302566528320312 -0.90141963958740234 1.127070426940918
2.6502170562744141 0.52509975433349609 1.1452255249023438
0.93228530883789062 1.6270437240600586 1.3144769668579102
0.14649772644042969 0.87116050720214844 -0.41219520568847656
-0.68438434600830078 1.5467338562011719 -0.62467098236083984
-0.18767738342285156 -1.0990943908691406 -0.4302825927734375
-1.1969490051269531 -1.6039934158325195 -0.94275760650634766
-2.8521871566772461 -0.60937976837158203 -1.1273822784423828
-2.5029373168945312 0.72528171539306641 -1.2860212326049805
1.0375089645385742 1.6358356475830078 -0.64085102081298828
2.6948528289794922 0.49229907989501953 -1.0006694793701172
2.5745019912719727 -0.72042274475097656 -1.0653467178344727
0.95849800109863281 -1.8401765823364258 -0.9121856689453125
-1.0575275421142578 -3.7371368408203125 0.13275241851806641
-1.6985454559326172 -3.3538379669189453 0.56807136535644531
0.76740264892578125 -3.6486597061157227 0.10569667816162109
1.4891576766967773 -3.423466682434082 0.51714229583740234
0.44337081909179688 -2.7146224975585938 1.4096050262451172
-0.80075836181640625 -2.5489978790283203 1.2877655029296875
-1.6260576248168945 -3.4475984573364258 -0.47937202453613281
-0.51380348205566406 -2.6695232391357422 -1.1403322219848633
0.71375751495361328 -2.7136068344116211 -1.0442724227905273
1.5277595520019531 -3.4132671356201172 -0.33331298828125
-1.3037481307983398 3.5121374130249023 0.32045936584472656
-0.75850391387939453 3.6984882354736328 -0.068152427673339844
-0.35998725891113281 2.6994667053222656 0.98761940002441406
0.63714885711669922 2.6061267852783203 1.1023054122924805
1.7689418792724609 3.3685054779052734 0.36266803741455078
1.2606945037841797 3.9460039138793945 -0.11361122131347656
-1.2719316482543945 3.444645881652832 -0.68146324157714844
1.8796958923339844 3.4338054656982422 -0.58516883850097656
0.80090713500976562 2.6703090667724609 -0.89990234375
-0.30092620849609375 2.7535495758056641 -1.1236057281494141
-3.8509178161621094 0.12393665313720703 -0.060523033142089844
-3.3259677886962891 -1.8730373382568359 -0.55732536315917969
-3.0189123153686523 -1.8365230560302734 0.54776382446289062
-2.6987056732177734 1.7716102600097656 0.30117034912109375
-2.69122314453125 1.9490604400634766 -0.91589164733886719
3.1779155731201172 -2.1024627685546875 0.59357738494873047
3.1614589691162109 -1.7437591552734375 -0.61316108703613281
3.8390769958496094 0.0690765380859375 0.10586166381835938
3.1359281539916992 1.7533502578735352 -0.37124443054199219
3.0708751678466797 1.8412380218505859 0.75547599792480469
0.31289100646972656 -0.081695556640625 0.53498649597167969
-1.9184446334838867 1.0564870834350586 1.08966064453125
-2.1852521896362305 -1.0073585510253906 1.169774055480957
1.9490032196044922 -1.4050655364990234 1.2449464797973633
1.9967784881591797 1.1429920196533203 1.4489097595214844
-0.03086090087890625 -0.27093124389648438 -0.11355113983154297
-2.2150850296020508 -1.2475404739379883 -1.1452903747558594
-1.7481517791748047 1.2738761901855469 -1.0635976791381836
1.9826574325561523 1.1349239349365234 -0.83489894866943359
1.9173736572265625 -1.3877973556518555 -1.0988836288452148
-0.006793975830078125 -3.7368793487548828 0.13096141815185547
1.1548376083374023 -3.1925573348999023 1.0022068023681641
-1.1701126098632812 -3.1399822235107422 1.0924072265625
-1.1163120269775391 -3.2255630493164062 -0.88501071929931641
1.2560052871704102 -3.1045150756835938 -0.78977870941162109
-1.0651283264160156 3.0703163146972656 0.72444248199462891
1.2398443222045898 3.0948038101196289 0.77619457244873047
0.21061325073242188 4.0445060729980469 -0.30453395843505859
1.3273525238037109 3.3004865646362305 -0.97832107543945312
-0.79616641998291016 3.1185054779052734 -1.066497802734375
-3.4113540649414062 -0.0097408294677734375 0.93556308746337891
-3.281489372253418 0.18459129333496094 -1.0633373260498047
-1.998682975769043 -3.2646036148071289 -0.051733970642089844
-1.7114391326904297 3.3120594024658203 -0.21813488006591797
3.0559406280517578 -0.18137836456298828 0.97661399841308594
2.0257511138916016 -3.3019905090332031 0.003704071044921875
3.2911415100097656 0.014983177185058594 -0.86777687072753906
2.1767396926879883 3.2706718444824219 -0.057120323181152344
-0.11346435546875 -1.9936227798461914 1.2972621917724609
0.087503433227539062 1.8710355758666992 1.0439577102661133
0.21166229248046875 2.0371608734130859 -0.71777915954589844
-0.17515945434570312 -2.0425853729248047 -0.77251720428466797
3 0 1 2
3 3 4 5
3 6 7 8
3 9 10 11
3 12 13 14
3 15 16 17
3 18 19 20
3 21 22 23
3 24 25 26
3 27 28 29
3 30 31 32
3 33 34 35
3 36 37 38
3 39 40 41
3 42 43 44
3 45 46 47
3 48 49 50
3 51 52 53
3 54 55 56
3 57 58 59
3 60 61 62
3 63 64 65
3 66 67 68
3 69 70 71
3 72 73 74
3 75 76 77
3 78 79 80
3 81 82 83
3 84 85 86
3 87 88 89
3 90 91 92
3 93 94 95
3 96 97 98
3 99 100 101
3 102 103 104
3 105 106 107
3 108 109 110
3 111 112 113
3 114 115 116
3 117 118 119
3 120 121 122
3 123 124 125
3 126 127 128
3 129 130 131
3 132 133 134
3 135 136 137
3 138 139 140
3 141 142 143
3 144 145 146
3 147 148 149
3 150 151 152
3 153 154 155
3 156 157 158
3 159 160 161
3 162 163 164
3 165 166 167
3 168 169 170
3 171 172 173
3 174 175 176
3 177 178 179
3 180 181 182
3 183 184 185
3 186 187 188
3 189 190 191
3 192 193 194
3 195 196 197
3 198 199 200
3 201 202 203
3 204 205 206
3 207 208 209
3 210 211 212
3 213 214 215
3 216 217 218
3 219 220 221
3 222 223 224
3 225 226 227
3 228 229 230
3 231 232 233
3 234 235 236
3 237 238 239
3 240 2 241
3 242 243 0
3 1 244 245
3 246 5 247
3 248 249 3
3 4 250 251
3 252 8 253
3 254 255 6
3 7 256 257
3 258 11 259
3 260 261 9
3 10 262 263
3 264 14 265
3 266 267 12
3 13 268 269
3 270 17 271
3 272 273 15
3 16 274 275
3 276 20 277
3 278 279 18
3 19 280 281
3 282 23 283
3 284 285 21
3 22 286 287
3 288 26 289
3 290 291 24
3 25 292 293
3 294 29 295
3 296 297 27
3 28 298 299
3 300 32 301
3 302 303 30
3 31 304 305
3 306 35 307
3 308 309 33
3 34 310 311
3 312 38 313
3 314 315 36
3 37 316 317
3 318 41 319
3 320 321 39
3 40 322 323
3 324 44 325
3 326 327 42
3 43 328 329
3 330 47 331
3 332 333 45
3 46 334 335
3 336 50 337
3 338 339 48
3 49 340 341
3 342 53 343
3 344 345 51
3 52 346 347
3 348 56 349
3 350 351 54
3 55 352 353
3 354 59 355
3 356 357 57
3 58 358 359
3 360 62 361
3 362 241 60
3 61 245 363
3 364 65 240
3 365 366 63
3 64 367 242
3 244 68 368
3 243 369 66
3 67 370 371
3 372 71 360
3 373 247 69
3 70 251 362
3 374 74 246
3 375 376 72
3 73 377 248
3 250 77 364
3 249 378 75
3 76 379 365
3 380 80 381
3 382 253 78
3 79 257 383
3 384 83 252
3 385 386 81
3 82 387 254
3 256 86 388
3 255 389 84
3 85 390 391
3 381 89 392
3 383 259 87
3 88 263 393
3 388 92 258
3 391 394 90
3 91 395 260
3 262 95 396
3 261 397 93
3 94 398 399
3 400 98 401
3 402 265 96
3 97 269 403
3 404 101 264
3 405 406 99
3 100 407 266
3 268 104 408
3 267 409 102
3 103 410 411
3 412 107 400
3 413 271 105
3 106 275 402
3 414 110 270
3 415 416 108
3 109 417 272
3 274 113 404
3 273 418 111
3 112 419 405
3 420 116 421
3 422 277 114
3 115 281 423
3 424 119 276
3 425 426 117
3 118 427 278
3 280 122 428
3 279 429 120
3 121 430 431
3 432 125 420
3 433 283 123
3 124 287 422
3 434 128 282
3 435 436 126
3 127 437 284
3 286 131 424
3 285 438 129
3 130 439 425
3 440 134 441
3 442 289 132
3 133 293 443
3 444 137 288
3 445 446 135
3 136 447 290
3 292 140 448
3 291 449 138
3 139 450 451
3 452 143 440
3 453 295 141
3 142 299 442
3 454 146 294
3 455 456 144
3 145 457 296
3 298 149 444
3 297 458 147
3 148 459 445
3 460 152 461
3 462 301 150
3 151 305 463
3 464 155 300
3 465 466 153
3 154 467 302
3 304 158 468
3 303 469 156
3 157 470 471
3 461 161 472
3 463 307 159
3 160 311 473
3 468 164 306
3 471 474 162
3 163 475 308
3 310 167 476
3 309 477 165
3 166 478 479
3 441 170 371
3 443 313 168
3 169 317 368
3 448 173 312
3 451 401 171
3 172 403 314
3 316 176 363
3 315 408 174
3 175 411 361
3 385 179 446
3 384 319 177
3 178 323 447
3 382 182 318
3 380 415 180
3 181 414 320
3 322 185 449
3 321 413 183
3 184 412 450
3 410 188 372
3 409 325 186
3 187 329 373
3 407 191 324
3 406 465 189
3 190 464 326
3 328 194 374
3 327 462 192
3 193 460 375
3 392 197 416
3 393 331 195
3 196 335 417
3 396 200 330
3 399 470 198
3 199 469 332
3 334 203 418
3 333 467 201
3 202 466 419
3 430 206 366
3 429 337 204
3 205 341 367
3 427 209 336
3 426 455 207
3 208 454 338
3 340 212 369
3 339 453 210
3 211 452 370
3 390 215 436
3 389 343 213
3 214 347 437
3 387 218 342
3 386 459 216
3 217 458 344
3 346 221 438
3 345 457 219
3 220 456 439
3 379 224 431
3 378 349 222
3 223 353 428
3 377 227 348
3 376 472 225
3 226 473 350
3 352 230 423
3 351 476 228
3 229 479 421
3 435 233 394
3 434 355 231
3 232 359 395
3 433 236 354
3 432 478 234
3 235 477 356
3 358 239 397
3 357 475 237
3 238 474 398
3 480 0 2
3 0 481 1
3 2 1 482
3 483 3 5
3 3 484 4
3 5 4 485
3 486 6 8
3 6 487 7
3 8 7 488
3 489 9 11
3 9 490 10
3 11 10 491
3 492 12 14
3 12 493 13
3 14 13 494
3 495 15 17
3 15 496 16
3 17 16 497
3 498 18 20
3 18 499 19
3 20 19 500
3 501 21 23
3 21 502 22
3 23 22 503
3 504 24 26
3 24 505 25
3 26 25 506
3 507 27 29
3 27 508 28
3 29 28 509
3 510 30 32
3 30 511 31
3 32 31 512
3 513 33 35
3 33 514 34
3 35 34 515
3 516 36 38
3 36 517 37
3 38 37 518
3 519 39 41
3 39 520 40
3 41 40 521
3 522 42 44
3 42 523 43
3 44 43 524
3 525 45 47
3 45 526 46
3 47 46 527
3 528 48 50
3 48 529 49
3 50 49 530
3 531 51 53
3 51 532 52
3 53 52 533
3 534 54 56
3 54 535 55
3 56 55 536
3 537 57 59
3 57 538 58
3 59 58 539
3 540 60 62
3 60 482 61
3 62 61 541
3 542 63 65
3 63 543 64
3 65 64 480
3 481 66 68
3 66 544 67
3 68 67 545
3 546 69 71
3 69 485 70
3 71 70 540
3 547 72 74
3 72 548 73
3 74 73 483
3 484 75 77
3 75 549 76
3 77 76 542
3 550 78 80
3 78 488 79
3 80 79 551
3 552 81 83
3 81 553 82
3 83 82 486
3 487 84 86
3 84 554 85
3 86 85 555
3 551 87 89
3 87 491 88
3 89 88 556
3 555 90 92
3 90 557 91
3 92 91 489
3 490 93 95
3 93 558 94
3 95 94 559
3 560 96 98
3 96 494 97
3 98 97 561
3 562 99 101
3 99 563 100
3 101 100 492
3 493 102 104
3 102 564 103
3 104 103 565
3 566 105 107
3 105 497 106
3 107 106 560
3 567 108 110
3 108 568 109
3 110 109 495
3 496 111 113
3 111 569 112
3 113 112 562
3 570 114 116
3 114 500 115
3 116 115 571
3 572 117 119
3 117 573 118
3 119 118 498
3 499 120 122
3 120 574 121
3 122 121 575
3 576 123 125
3 123 503 124
3 125 124 570
3 577 126 128
3 126 578 127
3 128 127 501
3 502 129 131
3 129 579 130
3 131 130 572
3 580 132 134
3 132 506 133
3 134 133 581
3 582 135 137
3 135 583 136
3 137 136 504
3 505 138 140
3 138 584 139
3 140 139 585
3 586 141 143
3 141 509 142
3 143 142 580
3 587 144 146
3 144 588 145
3 146 145 507
3 508 147 149
3 147 589 148
3 149 148 582
3 590 150 152
3 150 512 151
3 152 151 591
3 592 153 155
3 153 593 154
3 155 154 510
3 511 156 158
3 156 594 157
3 158 157 595
3 591 159 161
3 159 515 160
3 161 160 596
3 595 162 164
3 162 597 163
3 164 163 513
3 514 165 167
3 165 598 166
3 167 166 599
3 581 168 170
3 168 518 169
3 170 169 545
3 585 171 173
3 171 561 172
3 173 172 516
3 517 174 176
3 174 565 175
3 176 175 541
3 552 177 179
3 177 521 178
3 179 178 583
3 550 180 182
3 180 567 181
3 182 181 519
3 520 183 185
3 183 566 184
3 185 184 584
3 564 186 188
3 186 524 187
3 188 187 546
3 563 189 191
3 189 592 190
3 191 190 522
3 523 192 194
3 192 590 193
3 194 193 547
3 556 195 197
3 195 527 196
3 197 196 568
3 559 198 200
3 198 594 199
3 200 199 525
3 526 201 203
3 201 593 202
3 203 202 569
3 574 204 206
3 204 530 205
3 206 205 543
3 573 207 209
3 207 587 208
3 209 208 528
3 529 210 212
3 210 586 211
3 212 211 544
3 554 213 215
3 213 533 214
3 215 214 578
3 553 216 218
3 216 589 217
3 218 217 531
3 532 219 221
3 219 588 220
3 221 220 579
3 549 222 224
3 222 536 223
3 224 223 575
3 548 225 227
3 225 596 226
3 227 226 534
3 535 228 230
3 228 599 229
3 230 229 571
3 577 231 233
3 231 539 232
3 233 232 557
3 576 234 236
3 234 598 235
3 236 235 537
3 538 237 239
3 237 597 238
3 239 238 558
3 600 240 241
3 240 480 2
3 241 2 482
3 480 242 0
3 242 601 243
3 0 243 481
3 482 1 245
3 1 481 244
3 245 244 602
3 603 246 247
3 246 483 5
3 247 5 485
3 483 248 3
3 248 604 249
3 3 249 484
3 485 4 251
3 4 484 250
3 251 250 600
3 605 252 253
3 252 486 8
3 253 8 488
3 486 254 6
3 254 606 255
3 6 255 487
3 488 7 257
3 7 487 256
3 257 256 607
3 607 258 259
3 258 489 11
3 259 11 491
3 489 260 9
3 260 608 261
3 9 261 490
3 491 10 263
3 10 490 262
3 263 262 609
3 610 264 265
3 264 492 14
3 265 14 494
3 492 266 12
3 266 611 267
3 12 267 493
3 494 13 269
3 13 493 268
3 269 268 612
3 613 270 271
3 270 495 17
3 271 17 497
3 495 272 15
3 272 614 273
3 15 273 496
3 497 16 275
3 16 496 274
3 275 274 610
3 615 276 277
3 276 498 20
3 277 20 500
3 498 278 18
3 278 616 279
3 18 279 499
3 500 19 281
3 19 499 280
3 281 280 617
3 618 282 283
3 282 501 23
3 283 23 503
3 501 284 21
3 284 619 285
3 21 285 502
3 503 22 287
3 22 502 286
3 287 286 615
3 620 288 289
3 288 504 26
3 289 26 506
3 504 290 24
3 290 621 291
3 24 291 505
3 506 25 293
3 25 505 292
3 293 292 622
3 623 294 295
3 294 507 29
3 295 29 509
3 507 296 27
3 296 624 297
3 27 297 508
3 509 28 299
3 28 508 298
3 299 298 620
3 625 300 301
3 300 510 32
3 301 32 512
3 510 302 30
3 302 626 303
3 30 303 511
3 512 31 305
3 31 511 304
3 305 304 627
3 627 306 307
3 306 513 35
3 307 35 515
3 513 308 33
3 308 628 309
3 33 309 514
3 515 34 311
3 34 514 310
3 311 310 629
3 622 312 313
3 312 516 38
3 313 38 518
3 516 314 36
3 314 612 315
3 36 315 517
3 518 37 317
3 37 517 316
3 317 316 602
3 605 318 319
3 318 519 41
3 319 41 521
3 519 320 39
3 320 613 321
3 39 321 520
3 521 40 323
3 40 520 322
3 323 322 621
3 611 324 325
3 324 522 44
3 325 44 524
3 522 326 42
3 326 625 327
3 42 327 523
3 524 43 329
3 43 523 328
3 329 328 603
3 609 330 331
3 330 525 47
3 331 47 527
3 525 332 45
3 332 626 333
3 45 333 526
3 527 46 335
3 46 526 334
3 335 334 614
3 616 336 337
3 336 528 50
3 337 50 530
3 528 338 48
3 338 623 339
3 48 339 529
3 530 49 341
3 49 529 340
3 341 340 601
3 606 342 343
3 342 531 53
3 343 53 533
3 531 344 51
3 344 624 345
3 51 345 532
3 533 52 347
3 52 532 346
3 347 346 619
3 604 348 349
3 348 534 56
3 349 56 536
3 534 350 54
3 350 629 351
3 54 351 535
3 536 55 353
3 55 535 352
3 353 352 617
3 618 354 355
3 354 537 59
3 355 59 539
3 537 356 57
3 356 628 357
3 57 357 538
3 539 58 359
3 58 538 358
3 359 358 608
3 630 360 361
3 360 540 62
3 361 62 541
3 540 362 60
3 362 600 241
3 60 241 482
3 541 61 363
3 61 482 245
3 363 245 602
3 600 364 240
3 364 542 65
3 240 65 480
3 542 365 63
3 365 631 366
3 63 366 543
3 480 64 242
3 64 543 367
3 242 367 601
3 602 244 368
3 244 481 68
3 368 68 545
3 481 243 66
3 243 601 369
3 66 369 544
3 545 67 371
3 67 544 370
3 371 370 632
3 630 372 360
3 372 546 71
3 360 71 540
3 546 373 69
3 373 603 247
3 69 247 485
3 540 70 362
3 70 485 251
3 362 251 600
3 603 374 246
3 374 547 74
3 246 74 483
3 547 375 72
3 375 633 376
3 72 376 548
3 483 73 248
3 73 548 377
3 248 377 604
3 600 250 364
3 250 484 77
3 364 77 542
3 484 249 75
3 249 604 378
3 75 378 549
3 542 76 365
3 76 549 379
3 365 379 631
3 634 380 381
3 380 550 80
3 381 80 551
3 550 382 78
3 382 605 253
3 78 253 488
3 551 79 383
3 79 488 257
3 383 257 607
3 605 384 252
3 384 552 83
3 252 83 486
3 552 385 81
3 385 635 386
3 81 386 553
3 486 82 254
3 82 553 387
3 254 387 606
3 607 256 388
3 256 487 86
3 388 86 555
3 487 255 84
3 255 606 389
3 84 389 554
3 555 85 391
3 85 554 390
3 391 390 636
3 634 381 392
3 381 551 89
3 392 89 556
3 551 383 87
3 383 607 259
3 87 259 491
3 556 88 393
3 88 491 263
3 393 263 609
3 607 388 258
3 388 555 92
3 258 92 489
3 555 391 90
3 391 636 394
3 90 394 557
3 489 91 260
3 91 557 395
3 260 395 608
3 609 262 396
3 262 490 95
3 396 95 559
3 490 261 93
3 261 608 397
3 93 397 558
3 559 94 399
3 94 558 398
3 399 398 637
3 638 400 401
3 400 560 98
3 401 98 561
3 560 402 96
3 402 610 265
3 96 265 494
3 561 97 403
3 97 494 269
3 403 269 612
3 610 404 264
3 404 562 101
3 264 101 492
3 562 405 99
3 405 639 406
3 99 406 563
3 492 100 266
3 100 563 407
3 266 407 611
3 612 268 408
3 268 493 104
3 408 104 565
3 493 267 102
3 267 611 409
3 102 409 564
3 565 103 411
3 103 564 410
3 411 410 630
3 638 412 400
3 412 566 107
3 400 107 560
3 566 413 105
3 413 613 271
3 105 271 497
3 560 106 402
3 106 497 275
3 402 275 610
3 613 414 270
3 414 567 110
3 270 110 495
3 567 415 108
3 415 634 416
3 108 416 568
3 495 109 272
3 109 568 417
3 272 417 614
3 610 274 404
3 274 496 113
3 404 113 562
3 496 273 111
3 273 614 418
3 111 418 569
3 562 112 405
3 112 569 419
3 405 419 639
3 640 420 421
3 420 570 116
3 421 116 571
3 570 422 114
3 422 615 277
3 114 277 500
3 571 115 423
3 115 500 281
3 423 281 617
3 615 424 276
3 424 572 119
3 276 119 498
3 572 425 117
3 425 641 426
3 117 426 573
3 498 118 278
3 118 573 427
3 278 427 616
3 617 280 428
3 280 499 122
3 428 122 575
3 499 279 120
3 279 616 429
3 120 429 574
3 575 121 431
3 121 574 430
3 431 430 631
3 640 432 420
3 432 576 125
3 420 125 570
3 576 433 123
3 433 618 283
3 123 283 503
3 570 124 422
3 124 503 287
3 422 287 615
3 618 434 282
3 434 577 128
3 282 128 501
3 577 435 126
3 435 636 436
3 126 436 578
3 501 127 284
3 127 578 437
3 284 437 619
3 615 286 424
3 286 502 131
3 424 131 572
3 502 285 129
3 285 619 438
3 129 438 579
3 572 130 425
3 130 579 439
3 425 439 641
3 632 440 441
3 440 580 134
3 441 134 581
3 580 442 132
3 442 620 289
3 132 289 506
3 581 133 443
3 133 506 293
3 443 293 622
3 620 444 288
3 444 582 137
3 288 137 504
3 582 445 135
3 445 635 446
3 135 446 583
3 504 136 290
3 136 583 447
3 290 447 621
3 622 292 448
3 292 505 140
3 448 140 585
3 505 291 138
3 291 621 449
3 138 449 584
3 585 139 451
3 139 584 450
3 451 450 638
3 632 452 440
3 452 586 143
3 440 143 580
3 586 453 141
3 453 623 295
3 141 295 509
3 580 142 442
3 142 509 299
3 442 299 620
3 623 454 294
3 454 587 146
3 294 146 507
3 587 455 144
3 455 641 456
3 144 456 588
3 507 145 296
3 145 588 457
3 296 457 624
3 620 298 444
3 298 508 149
3 444 149 582
3 508 297 147
3 297 624 458
3 147 458 589
3 582 148 445
3 148 589 459
3 445 459 635
3 633 460 461
3 460 590 152
3 461 152 591
3 590 462 150
3 462 625 301
3 150 301 512
3 591 151 463
3 151 512 305
3 463 305 627
3 625 464 300
3 464 592 155
3 300 155 510
3 592 465 153
3 465 639 466
3 153 466 593
3 510 154 302
3 154 593 467
3 302 467 626
3 627 304 468
3 304 511 158
3 468 158 595
3 511 303 156
3 303 626 469
3 156 469 594
3 595 157 471
3 157 594 470
3 471 470 637
3 633 461 472
3 461 591 161
3 472 161 596
3 591 463 159
3 463 627 307
3 159 307 515
3 596 160 473
3 160 515 311
3 473 311 629
3 627 468 306
3 468 595 164
3 306 164 513
3 595 471 162
3 471 637 474
3 162 474 597
3 513 163 308
3 163 597 475
3 308 475 628
3 629 310 476
3 310 514 167
3 476 167 599
3 514 309 165
3 309 628 477
3 165 477 598
3 599 166 479
3 166 598 478
3 479 478 640
3 632 441 371
3 441 581 170
3 371 170 545
3 581 443 168
3 443 622 313
3 168 313 518
3 545 169 368
3 169 518 317
3 368 317 602
3 622 448 312
3 448 585 173
3 312 173 516
3 585 451 171
3 451 638 401
3 171 401 561
3 516 172 314
3 172 561 403
3 314 403 612
3 602 316 363
3 316 517 176
3 363 176 541
3 517 315 174
3 315 612 408
3 174 408 565
3 541 175 361
3 175 565 411
3 361 411 630
3 635 385 446
3 385 552 179
3 446 179 583
3 552 384 177
3 384 605 319
3 177 319 521
3 583 178 447
3 178 521 323
3 447 323 621
3 605 382 318
3 382 550 182
3 318 182 519
3 550 380 180
3 380 634 415
3 180 415 567
3 519 181 320
3 181 567 414
3 320 414 613
3 621 322 449
3 322 520 185
3 449 185 584
3 520 321 183
3 321 613 413
3 183 413 566
3 584 184 450
3 184 566 412
3 450 412 638
3 630 410 372
3 410 564 188
3 372 188 546
3 564 409 186
3 409 611 325
3 186 325 524
3 546 187 373
3 187 524 329
3 373 329 603
3 611 407 324
3 407 563 191
3 324 191 522
3 563 406 189
3 406 639 465
3 189 465 592
3 522 190 326
3 190 592 464
3 326 464 625
3 603 328 374
3 328 523 194
3 374 194 547
3 523 327 192
3 327 625 462
3 192 462 590
3 547 193 375
3 193 590 460
3 375 460 633
3 634 392 416
3 392 556 197
3 416 197 568
3 556 393 195
3 393 609 331
3 195 331 527
3 568 196 417
3 196 527 335
3 417 335 614
3 609 396 330
3 396 559 200
3 330 200 525
3 559 399 198
3 399 637 470
3 198 470 594
3 525 199 332
3 199 594 469
3 332 469 626
3 614 334 418
3 334 526 203
3 418 203 569
3 526 333 201
3 333 626 467
3 201 467 593
3 569 202 419
3 202 593 466
3 419 466 639
3 631 430 366
3 430 574 206
3 366 206 543
3 574 429 204
3 429 616 337
3 204 337 530
3 543 205 367
3 205 530 341
3 367 341 601
3 616 427 336
3 427 573 209
3 336 209 528
3 573 426 207
3 426 641 455
3 207 455 587
3 528 208 338
3 208 587 454
3 338 454 623
3 601 340 369
3 340 529 212
3 369 212 544
3 529 339 210
3 339 623 453
3 210 453 586
3 544 211 370
3 211 586 452
3 370 452 632
3 636 390 436
3 390 554 215
3 436 215 578
3 554 389 213
3 389 606 343
3 213 343 533
3 578 214 437
3 214 533 347
3 437 347 619
3 606 387 342
3 387 553 218
3 342 218 531
3 553 386 216
3 386 635 459
3 216 459 589
3 531 217 344
3 217 589 458
3 344 458 624
3 619 346 438
3 346 532 221
3 438 221 579
3 532 345 219
3 345 624 457
3 219 457 588
3 579 220 439
3 220 588 456
3 439 456 641
3 631 379 431
3 379 549 224
3 431 224 575
3 549 378 222
3 378 604 349
3 222 349 536
3 575 223 428
3 223 536 353
3 428 353 617
3 604 377 348
3 377 548 227
3 348 227 534
3 548 376 225
3 376 633 472
3 225 472 596
3 534 226 350
3 226 596 473
3 350 473 629
3 617 352 423
3 352 535 230
3 423 230 571
3 535 351 228
3 351 629 476
3 228 476 599
3 571 229 421
3 229 599 479
3 421 479 640
3 636 435 394
3 435 577 233
3 394 233 557
3 577 434 231
3 434 618 355
3 231 355 539
3 557 232 395
3 232 539 359
3 395 359 608
3 618 433 354
3 433 576 236
3 354 236 537
3 576 432 234
3 432 640 478
3 234 478 598
3 537 235 356
3 235 598 477
3 356 477 628
3 608 358 397
3 358 538 239
3 397 239 558
3 538 357 237
3 357 628 475
3 237 475 597
3 558 238 398
3 238 597 474
3 398 474 637
