OFF
642 1280 0
-3.6344366073608398 -1.5405483245849609 -0.12866783142089844
-3.6178741455078125 -1.5708656311035156 0.13599014282226562
-3.8498563766479492 -1.0956525802612305 0.015919685363769531
-3.5764293670654297 1.6363916397094727 -0.30872535705566406
-3.7653732299804688 1.0513515472412109 -0.080573081970214844
-3.6040334701538086 1.5159854888916016 -0.024542808532714844
3.4793214797973633 -1.7978963851928711 -0.4178009033203125
3.8329143524169922 -1.2466831207275391 -0.30559444427490234
3.5364933013916016 -1.7669801712036133 -0.13202857971191406
3.8385095596313477 1.4434633255004883 -0.15690231323242188
3.7421150207519531 1.5002546310424805 0.036455154418945312
3.9133453369140625 0.80510902404785156 -0.10825061798095703
-1.6181297302246094 0.29313087463378906 0.72800731658935547
-1.616114616394043 -0.24584197998046875 0.8123016357421875
-1.0704803466796875 -0.036742210388183594 0.50322914123535156
1.5603370666503906 0.28204154968261719 0.76184177398681641
0.8917694091796875 0.24778652191162109 0.47643852233886719
1.3254718780517578 -0.17351531982421875 0.62756633758544922
-1.4048433303833008 -0.44652652740478516 -1.0362606048583984
-1.7238254547119141 0.25230884552001953 -1.1225366592407227
-1.1493091583251953 0.037856101989746094 -0.82404994964599609
1.6392269134521484 -0.21817588806152344 -0.73600292205810547
1.0119419097900391 0.061510086059570312 -0.81234931945800781
1.6983060836791992 0.31735134124755859 -0.77710342407226562
0.33533096313476562 -3.4155426025390625 0.88739681243896484
-0.13725852966308594 -3.4637107849121094 0.75755405426025391
0.15980720520019531 -3.6620445251464844 0.69403076171875
0.33522129058837891 -3.5311365127563477 -0.54405975341796875
-0.063742637634277344 -3.6723709106445312 -0.3966827392578125
-0.26519107818603516 -3.4836368560791016 -0.61239147186279297
0.36891460418701172 3.5538291931152344 0.62806224822998047
0.067081451416015625 3.7615833282470703 0.46461105346679688
-0.33283138275146484 3.5503911972045898 0.69684791564941406
0.5437774658203125 3.5587348937988281 -0.57588958740234375
-0.23279380798339844 3.4832706451416016 -0.55450630187988281
0.068903923034667969 3.7630577087402344 -0.46492576599121094
-2.2938232421875 -1.8845376968383789 1.1603240966796875
-2.6383895874023438 -2.0280284881591797 0.99851322174072266
-2.0136127471923828 -2.4077005386352539 1.0644912719726562
2.179718017578125 -1.9161052703857422 0.69815254211425781
2.2312726974487305 -2.4880895614624023 0.60912132263183594
2.6107711791992188 -2.0570211410522461 0.66911888122558594
-2.2046842575073242 2.45263671875 0.84537029266357422
-2.7910261154174805 2.1584548950195312 0.73084354400634766
-2.3677177429199219 2.0787038803100586 0.94349479675292969
2.0420923233032227 2.5339593887329102 0.97979927062988281
2.2925405502319336 1.8041038513183594 0.99997615814208984
2.4905099868774414 2.1055030822753906 0.91663932800292969
-2.0302524566650391 -2.3597898483276367 -0.98822593688964844
-2.6334266662597656 -1.9895057678222656 -0.77091598510742188
-2.2207784652709961 -1.9408483505249023 -1.0847558975219727
2.0365447998046875 -2.423396110534668 -1.1558570861816406
2.1912403106689453 -1.9378871917724609 -1.1387739181518555
2.6004314422607422 -2.1410236358642578 -1.04864501953125
-1.8999834060668945 2.3631649017333984 -1.1439781188964844
-2.2096986770629883 1.8798456192016602 -1.2966642379760742
-2.6115274429321289 2.0373554229736328 -1.1702079772949219
2.2581720352172852 2.3686437606811523 -0.63701629638671875
2.7748880386352539 2.0021724700927734 -0.74450492858886719
2.5516109466552734 1.8355112075805664 -0.92443180084228516
-3.9044094085693359 -0.34651279449462891 0.32646369934082031
-3.7295312881469727 -1.07415771484375 0.516510009765625
-3.7639646530151367 -0.62345314025878906 0.56857776641845703
-3.6813125610351562 -0.44927787780761719 -0.73301410675048828
-3.6542205810546875 -0.94585704803466797 -0.61590576171875
-3.8933773040771484 -0.52416324615478516 -0.36870384216308594
-3.0958843231201172 -2.3859443664550781 -0.073353767395019531
-2.7406196594238281 -2.7717618942260742 0.12756919860839844
-2.9281387329101562 -2.4957332611083984 0.22197055816650391
-3.5963325500488281 1.0676803588867188 0.54759788513183594
-3.7292499542236328 0.55321407318115234 0.47008514404296875
-3.5988788604736328 0.55184650421142578 0.75709342956542969
-2.5744705200195312 2.7982368469238281 -0.24962806701660156
-3.1181497573852539 2.2799472808837891 -0.46695137023925781
-2.9994945526123047 2.4767026901245117 -0.093023300170898438
-3.687230110168457 0.94488620758056641 -0.59088706970214844
-3.7668027877807617 0.388214111328125 -0.57468509674072266
-3.8935146331787109 0.482940673828125 -0.3225860595703125
3.618443489074707 -1.2008514404296875 0.23433876037597656
3.8006172180175781 -0.75997734069824219 0.28480911254882812
3.4721670150756836 -0.54031944274902344 0.58042526245117188
2.6948356628417969 -2.9137153625488281 -0.31653404235839844
2.9593448638916016 -2.5227327346801758 -0.43035411834716797
2.9228458404541016 -2.5474166870117188 -0.03509521484375
3.588770866394043 -1.2520771026611328 -0.95270824432373047
3.7110614776611328 -0.65729904174804688 -0.94309520721435547
3.8578996658325195 -0.74279594421386719 -0.72585582733154297
3.7947349548339844 0.23062992095947266 0.23813343048095703
3.6172780990600586 0.82638454437255859 0.35759449005126953
3.4939355850219727 0.46531772613525391 0.47267627716064453
3.7568283081054688 0.46398639678955078 -0.80517578125
3.8417167663574219 0.84178352355957031 -0.65329456329345703
3.9601631164550781 0.19878005981445312 -0.56958484649658203
3.3085460662841797 2.3959941864013672 -0.069242477416992188
2.7767333984375 2.692108154296875 0.20471858978271484
3.2495632171630859 2.3821783065795898 0.22677516937255859
-0.66774082183837891 -0.79110336303710938 0.69215297698974609
-1.2895393371582031 -1.0271377563476562 0.79641532897949219
-0.64983367919921875 -1.27459716796875 0.8233795166015625
-0.67171573638916016 1.5772476196289062 0.59261417388916016
-1.0732097625732422 1.1494922637939453 0.72666645050048828
-0.77041816711425781 1.024444580078125 0.48406505584716797
-2.4841890335083008 0.15138721466064453 1.0875301361083984
-2.9678306579589844 0.018986701965332031 1.1081504821777344
-2.681854248046875 -0.38869857788085938 1.1157302856445312
0.85875701904296875 -1.0930070877075195 0.54422092437744141
0.36935710906982422 -0.65187454223632812 0.46870040893554688
0.32661056518554688 -1.1424322128295898 0.64109230041503906
2.6597728729248047 -0.046260833740234375 0.90650272369384766
2.339808464050293 0.29572200775146484 0.98559665679931641
2.3370170593261719 -0.33459281921386719 0.7908935546875
0.94240188598632812 1.3510074615478516 0.71219062805175781
0.37971210479736328 1.5210590362548828 0.68716239929199219
0.326873779296875 1.0579710006713867 0.49707603454589844
-0.59876632690429688 0.70643997192382812 -0.85919952392578125
-1.0261125564575195 1.1668777465820312 -1.0336799621582031
-0.45534229278564453 1.2766704559326172 -0.95323657989501953
-0.40799713134765625 -1.450047492980957 -0.81047725677490234
-0.92837333679199219 -1.381617546081543 -0.90480613708496094
-0.5284423828125 -0.83252525329589844 -0.67202377319335938
-2.2418479919433594 -0.44043350219726562 -1.0338048934936523
-2.7071552276611328 -0.01572418212890625 -1.0160617828369141
-2.4641666412353516 0.29455471038818359 -1.0649070739746094
1.1640701293945312 1.1443471908569336 -0.8736572265625
0.51290607452392578 0.81329822540283203 -0.82223701477050781
0.62686920166015625 1.4013214111328125 -0.84129810333251953
2.8712949752807617 -0.13658905029296875 -1.2728271484375
2.4772176742553711 -0.20549488067626953 -1.1229343414306641
2.6370477676391602 0.36682891845703125 -1.2240800857543945
1.078155517578125 -1.0309114456176758 -0.8487548828125
0.50829982757568359 -1.3026399612426758 -0.93715476989746094
0.57659816741943359 -0.79337596893310547 -0.70427227020263672
-0.85376358032226562 -3.6113576889038086 0.38759708404541016
-1.0887489318847656 -3.4556636810302734 0.55627250671386719
-1.3844728469848633 -3.4488182067871094 0.42869281768798828
1.4573574066162109 -3.5132560729980469 0.39598655700683594
1.2213134765625 -3.4619731903076172 0.55856704711914062
1.0420284271240234 -3.7671337127685547 0.37667942047119141
0.29491424560546875 -2.7316093444824219 1.0918645858764648
0.037769317626953125 -2.3928680419921875 1.2015657424926758
-0.18902778625488281 -2.7852783203125 1.1599016189575195
-1.0723018646240234 -3.570399284362793 -0.25174713134765625
-0.78847217559814453 -3.7766866683959961 0.056882858276367188
-1.3404474258422852 -3.5498790740966797 -0.07410430908203125
0.074573516845703125 -2.7593593597412109 -1.0903759002685547
0.35776615142822266 -3.0189313888549805 -1.042877197265625
-0.25895977020263672 -3.0921554565429688 -0.99366664886474609
1.1624412536621094 -3.5093460083007812 -0.39247894287109375
1.2621908187866211 -3.6784706115722656 -0.18127059936523438
0.76111793518066406 -3.7986698150634766 -0.031464576721191406
-1.1534824371337891 3.6164484024047852 0.37334346771240234
-0.80327606201171875 3.9314184188842773 0.19005775451660156
-1.4547061920166016 3.5985393524169922 0.11474800109863281
0.030811309814453125 2.7376708984375 1.0501308441162109
0.38870143890380859 3.1054277420043945 0.93642425537109375
-0.22852134704589844 3.0573244094848633 0.94993209838867188
1.3906288146972656 3.5886907577514648 0.53070163726806641
1.5582914352416992 3.7118568420410156 0.25267314910888672
1.0073766708374023 3.7400398254394531 0.27939796447753906
-0.88518238067626953 3.7996463775634766 -0.31045436859130859
-1.0706014633178711 3.5682764053344727 -0.50423622131347656
-1.4805192947387695 3.4248123168945312 -0.42389774322509766
1.5632658004760742 3.6202259063720703 -0.20047569274902344
1.3418359756469727 3.5721588134765625 -0.43719768524169922
1.0090732574462891 3.7900915145874023 -0.072721481323242188
0.56577682495117188 2.8954238891601562 -0.89628219604492188
0.22113513946533203 2.6277246475219727 -1.0786666870117188
-0.0090999603271484375 3.0129070281982422 -0.87781715393066406
-2.0847978591918945 -2.7358684539794922 0.86675262451171875
-2.5631399154663086 -2.6180629730224609 0.67319488525390625
-2.2855072021484375 -2.9010534286499023 0.63101768493652344
-0.63738155364990234 -2.0133399963378906 1.2165374755859375
-1.3501615524291992 -1.9796209335327148 1.2125988006591797
-1.0871543884277344 -2.3692150115966797 1.2514972686767578
-2.7471885681152344 -0.96969795227050781 1.1462297439575195
-3.1540908813476562 -0.86823081970214844 0.99838733673095703
-3.008331298828125 -1.2703447341918945 0.96807575225830078
2.5890016555786133 -2.7852439880371094 0.27191734313964844
1.9913263320922852 -3.0452241897583008 0.51868915557861328
2.2688655853271484 -3.0317535400390625 0.26759624481201172
2.9902019500732422 -0.97580337524414062 0.72077655792236328
2.6054296493530273 -1.0840320587158203 0.83059501647949219
2.9896602630615234 -1.3721847534179688 0.67501449584960938
1.5125942230224609 -2.0780982971191406 0.73987674713134766
0.94757652282714844 -1.8784866333007812 0.786529541015625
1.0695724487304688 -2.3154535293579102 0.94281673431396484
-2.8893852233886719 1.2486381530761719 0.98974132537841797
-3.1802949905395508 1.5109405517578125 0.76105022430419922
-3.1800098419189453 0.95532417297363281 1.0302543640136719
-1.0358705520629883 2.3306789398193359 0.91842269897460938
-1.2942113876342773 2.6164779663085938 0.93824291229248047
-1.4918746948242188 2.0134963989257812 0.94099235534667969
-2.1154537200927734 2.9622726440429688 0.51592254638671875
-2.326594352722168 3.0131731033325195 0.13943386077880859
-2.519831657409668 2.7195730209350586 0.41943454742431641
3.0545597076416016 1.2103652954101562 0.59557056427001953
2.6820182800292969 1.1227312088012695 0.89535427093505859
3.0600490570068359 0.75234889984130859 0.77048110961914062
2.3725290298461914 3.0338077545166016 0.63374614715576172
2.0885009765625 3.0821151733398438 0.83395767211914062
2.6557025909423828 2.6602039337158203 0.76317882537841797
1.2284965515136719 2.5976781845092773 1.0608148574829102
0.88817024230957031 2.2331581115722656 1.0625181198120117
1.3185615539550781 2.1152286529541016 0.97850513458251953
-2.6862220764160156 -1.1514568328857422 -1.1718873977661133
-2.9873685836791992 -1.3888158798217773 -1.0307025909423828
-2.9828701019287109 -0.88145828247070312 -1.1017017364501953
-0.80807113647460938 -2.4002323150634766 -1.1369552612304688
-1.1863117218017578 -2.6394186019897461 -1.1117582321166992
-1.2203750610351562 -2.0158729553222656 -1.1638202667236328
-2.0168170928955078 -2.962646484375 -0.54463386535644531
-2.1571331024169922 -2.9784736633300781 -0.18726158142089844
-2.4730167388916016 -2.6886720657348633 -0.44420051574707031
3.2110052108764648 -1.4553451538085938 -1.1389589309692383
2.7909984588623047 -1.2579841613769531 -1.3048973083496094
3.1358814239501953 -0.88721084594726562 -1.2729625701904297
2.0787830352783203 -3.2019100189208984 -0.56283378601074219
1.8949050903320312 -3.2181224822998047 -0.74923419952392578
2.5104179382324219 -2.9184904098510742 -0.83072280883789062
1.1224088668823242 -2.3469562530517578 -1.1711158752441406
0.75008296966552734 -2.0787801742553711 -1.0618467330932617
1.2809858322143555 -1.9000463485717773 -1.0248470306396484
-3.1642570495605469 1.2295551300048828 -1.1124467849731445
-2.8247928619384766 1.0690183639526367 -1.2525730133056641
-3.1766605377197266 0.66716289520263672 -1.0744895935058594
-2.1080341339111328 2.8528766632080078 -0.69287109375
-1.9155187606811523 2.7619342803955078 -1.0036096572875977
-2.4794921875 2.6037626266479492 -0.87366962432861328
-0.80046272277832031 2.5425729751586914 -1.21044921875
-0.63354110717773438 2.2246818542480469 -1.1813430786132812
-1.2717609405517578 2.0472650527954102 -1.2591972351074219
2.9744434356689453 0.99886417388916016 -1.1595916748046875
3.3312969207763672 1.2014341354370117 -0.78353595733642578
3.2837734222412109 0.68558883666992188 -1.0706319808959961
0.98381805419921875 2.1288280487060547 -1.0750274658203125
1.3995809555053711 2.3970203399658203 -0.96077060699462891
1.6134624481201172 1.9012088775634766 -0.89361572265625
2.203577995300293 2.86669921875 -0.55063915252685547
2.4080877304077148 2.9385356903076172 -0.30951213836669922
2.8164548873901367 2.587310791015625 -0.32928848266601562
-3.9674854278564453 -0.65446281433105469 -0.14702129364013672
-3.9313068389892578 -0.44745826721191406 0.071900367736816406
-3.5344982147216797 -1.3978157043457031 -0.42561531066894531
-3.3647394180297852 -1.8931608200073242 -0.24804496765136719
-3.2260904312133789 -2.096470832824707 0.30350494384765625
-3.5296440124511719 -1.5687837600708008 0.48966884613037109
-3.2909412384033203 2.1470575332641602 -0.028566360473632812
-3.5597600936889648 1.4892787933349609 0.24987316131591797
-3.3098306655883789 1.9917716979980469 -0.61825752258300781
-3.5072956085205078 1.3646106719970703 -0.55860328674316406
-3.9264678955078125 0.52127456665039062 -0.10603904724121094
-3.8429527282714844 0.62527370452880859 0.17974185943603516
3.2006254196166992 -2.24261474609375 -0.0034236907958984375
3.6063747406005859 -1.5761098861694336 0.097866058349609375
3.1754179000854492 -2.303919792175293 -0.68848037719726562
3.4621829986572266 -1.7168054580688477 -0.67927837371826172
3.8740949630737305 -0.90024852752685547 -0.49539279937744141
3.9334955215454102 -0.76341915130615234 -0.015058517456054688
3.9856700897216797 0.23578548431396484 -0.28876304626464844
3.9534330368041992 0.23353290557861328 0.046442985534667969
3.7730379104614258 1.4299783706665039 -0.41869354248046875
3.5603523254394531 2.0891494750976562 -0.26805019378662109
3.3825349807739258 2.0168018341064453 0.25674915313720703
3.6286582946777344 1.3748464584350586 0.26075363159179688
-0.73470878601074219 0.39440822601318359 0.35089588165283203
-0.51466464996337891 -0.22944259643554688 0.33115863800048828
-1.6206855773925781 0.79495811462402344 0.9275360107421875
-2.1422004699707031 0.58674144744873047 0.97540664672851562
-2.2408218383789062 -0.58560943603515625 0.98449134826660156
-1.6167612075805664 -0.82484054565429688 0.80790805816650391
1.7631072998046875 -0.47942829132080078 0.75049877166748047
1.3557415008544922 -0.89515781402587891 0.64817333221435547
1.8732986450195312 0.66689777374267578 1.0011281967163086
1.3703908920288086 0.89811229705810547 0.80322456359863281
0.19147300720214844 0.58275413513183594 0.43556976318359375
0.32953834533691406 -0.076707839965820312 0.36903190612792969
-0.46788978576660156 -0.36979484558105469 -0.53762435913085938
-0.70393180847167969 0.24799728393554688 -0.71604442596435547
-1.3063106536865234 -1.1086635589599609 -1.0093603134155273
-1.7725830078125 -0.69508743286132812 -1.1640195846557617
-2.1272068023681641 0.69494533538818359 -1.2717170715332031
-1.6192407608032227 0.94045734405517578 -1.1441717147827148
2.2365169525146484 0.61557197570800781 -1.0288162231445312
1.7395801544189453 0.9057769775390625 -0.88797378540039062
2.0975418090820312 -0.61668014526367188 -0.96940135955810547
1.5427398681640625 -0.81837940216064453 -0.86338233947753906
0.47453880310058594 -0.29348564147949219 -0.74905681610107422
0.60061359405517578 0.34918785095214844 -0.80644607543945312
0.43279933929443359 -3.8001575469970703 0.40087509155273438
-0.14070415496826172 -3.8058395385742188 0.51861095428466797
0.96315765380859375 -3.1460380554199219 0.87486171722412109
0.54112625122070312 -2.9676322937011719 1.0083942413330078
-0.45531272888183594 -3.1285953521728516 0.98668766021728516
-0.79202842712402344 -3.281428337097168 0.81896591186523438
-0.67596340179443359 -3.289616584777832 -0.73944759368896484
-0.95541477203369141 -3.4304771423339844 -0.47959327697753906
0.61870098114013672 -3.1880645751953125 -0.83005809783935547
0.92212486267089844 -3.4546098709106445 -0.64192485809326172
0.32466793060302734 -3.8095760345458984 -0.10966777801513672
-0.21048259735107422 -3.8663454055786133 -0.079389572143554688
-0.61821937561035156 3.2692394256591797 0.87292194366455078
-1.0169906616210938 3.4432306289672852 0.53372001647949219
0.75419902801513672 3.330596923828125 0.80593490600585938
1.0415554046630859 3.4613723754882812 0.66244125366210938
0.23728370666503906 3.8573036193847656 0.24521160125732422
-0.31436252593994141 4.0056724548339844 0.20850563049316406
0.51924037933349609 3.7840118408203125 -0.25672817230224609
-0.22025203704833984 3.9635028839111328 -0.24917316436767578
1.1502590179443359 3.2669925689697266 -0.60113239288330078
0.69259071350097656 3.1236515045166016 -0.73835372924804688
-0.36291027069091797 3.2019691467285156 -0.74978256225585938
-0.89842605590820312 3.336822509765625 -0.65719032287597656
-1.3720922470092773 -2.6457395553588867 1.1836128234863281
-1.6950702667236328 -2.7622480392456055 1.0063505172729492
-1.9358158111572266 -1.6614618301391602 1.1780509948730469
-2.5225639343261719 -1.3223228454589844 1.1868782043457031
-3.1651973724365234 -1.6631460189819336 0.90946006774902344
-2.8830204010009766 -2.1663961410522461 0.71944904327392578
3.0249156951904297 -1.7898025512695312 0.65241622924804688
2.7772092819213867 -2.2782783508300781 0.50561428070068359
2.1876020431518555 -1.3751039505004883 0.77666473388671875
1.776031494140625 -1.6552038192749023 0.75151920318603516
1.5958089828491211 -2.5592927932739258 0.84419822692871094
1.8421869277954102 -2.9165515899658203 0.72506523132324219
-1.8907585144042969 1.8058586120605469 1.0028839111328125
-2.4965229034423828 1.5027999877929688 0.94172477722167969
-1.5028886795043945 2.8354396820068359 0.91946601867675781
-1.8860092163085938 2.9100418090820312 0.78774547576904297
-2.9299068450927734 2.339777946472168 0.44315719604492188
-3.1787834167480469 1.8505525588989258 0.50551986694335938
2.7619237899780273 2.2884597778320312 0.73046875
3.0363712310791016 1.7708225250244141 0.59839248657226562
1.6889858245849609 3.0444068908691406 0.85781955718994141
1.6058940887451172 2.6159067153930664 0.95840740203857422
1.7871742248535156 1.7688779830932617 1.0186176300048828
2.379150390625 1.4051246643066406 0.94571495056152344
-1.6732378005981445 -1.8571901321411133 -1.16265869140625
-2.2113122940063477 -1.4758796691894531 -1.0670852661132812
-1.4701967239379883 -2.7781867980957031 -0.94751930236816406
-1.8389253616333008 -2.8928689956665039 -0.76494407653808594
-2.8624610900878906 -2.2400789260864258 -0.53923606872558594
-3.0890159606933594 -1.7136459350585938 -0.85130882263183594
2.6692686080932617 -2.4853219985961914 -1.0282487869262695
3.0217914581298828 -1.7791357040405273 -1.0897760391235352
1.7323455810546875 -3.0177116394042969 -1.0347795486450195
1.3998355865478516 -2.7202272415161133 -1.0919418334960938
1.849940299987793 -1.8020000457763672 -1.0310573577880859
2.3830900192260742 -1.4152603149414062 -1.3123874664306641
-2.8407936096191406 2.1364078521728516 -1.0048179626464844
-3.1386518478393555 1.6263580322265625 -1.1266336441040039
-1.563939094543457 2.7187643051147461 -1.1324167251586914
-1.0941801071166992 2.6902751922607422 -1.1365976333618164
-1.6934843063354492 1.7284049987792969 -1.2234640121459961
-2.3278913497924805 1.4244318008422852 -1.2962818145751953
2.0561723709106445 1.7106504440307617 -1.0574579238891602
2.6819553375244141 1.3903999328613281 -1.1191501617431641
1.6512651443481445 2.6346817016601562 -0.88794803619384766
1.8786592483520508 2.8356180191040039 -0.73363876342773438
2.9428253173828125 2.2958354949951172 -0.53488254547119141
3.1830368041992188 1.640110969543457 -0.64183712005615234
-3.6606922149658203 -0.15440273284912109 0.86501789093017578
-3.5534420013427734 -0.64329624176025391 0.75769424438476562
-3.8663434982299805 0.12848186492919922 0.23940944671630859
-3.4581766128540039 -1.4589242935180664 0.77001476287841797
-4.0022273063659668 -0.059882164001464844 -0.27930545806884766
-3.5202703475952148 0.016184806823730469 -0.85047149658203125
-3.3199453353881836 -0.57037353515625 -0.88771629333496094
-3.293543815612793 -1.39923095703125 -0.7049102783203125
-2.8794717788696289 -2.4151010513305664 0.46895217895507812
-2.9180831909179688 -2.4113054275512695 -0.29800224304199219
-2.2268104553222656 -3.019963264465332 0.047482490539550781
-2.3741607666015625 -2.9514436721801758 0.3528594970703125
-3.4062833786010742 0.59026527404785156 0.91908359527587891
-3.4315090179443359 1.6207389831542969 0.458770751953125
-2.8983068466186523 2.6115751266479492 0.21337509155273438
-2.1934900283813477 3.0685443878173828 -0.16168880462646484
-2.3596553802490234 2.8582353591918945 -0.47604751586914062
-2.9411602020263672 2.3602237701416016 -0.74980068206787109
-3.3913192749023438 1.3619403839111328 -0.84651279449462891
-3.4765625 0.43744564056396484 -0.80133533477783203
3.1845569610595703 -0.60974407196044922 0.69972419738769531
3.5140371322631836 -0.029544830322265625 0.60779857635498047
3.3826131820678711 -1.5222387313842773 0.42908191680908203
3.9019088745117188 -0.16205692291259766 0.17882537841796875
2.7862634658813477 -2.4411745071411133 0.24706935882568359
2.3651704788208008 -3.0650177001953125 -0.010382652282714844
2.4256095886230469 -3.1381072998046875 -0.44574546813964844
2.8668680191040039 -2.5464019775390625 -0.7753753662109375
3.9880819320678711 -0.31741142272949219 -0.30739688873291016
3.3363828659057617 -1.6703023910522461 -0.90651607513427734
3.519627571105957 -0.56787109375 -1.1456737518310547
3.7997932434082031 -0.087511062622070312 -0.89433193206787109
3.3668699264526367 0.43498992919921875 0.64236259460449219
3.2795610427856445 1.4432945251464844 0.48647117614746094
3.5417118072509766 0.17863655090332031 -1.0367307662963867
3.6509761810302734 1.3365402221679688 -0.61537551879882812
3.07659912109375 2.3073205947875977 0.52282333374023438
3.2542905807495117 2.360661506652832 -0.40842342376708984
2.4383821487426758 2.9135875701904297 0.043202400207519531
2.4217348098754883 2.9527902603149414 0.40007972717285156
-0.16040134429931641 -1.3439931869506836 0.89827442169189453
-0.53983020782470703 -1.6401529312133789 1.1055812835693359
-0.087522506713867188 -0.50291061401367188 0.38530635833740234
-1.6695270538330078 -1.4537992477416992 1.0510063171386719
-0.33235359191894531 0.69256973266601562 0.362091064453125
-0.228790283203125 1.6249504089355469 0.75678825378417969
-0.64027786254882812 2.0927467346191406 0.80188941955566406
-1.5930805206298828 1.3356666564941406 0.9090576171875
-2.4245281219482422 -0.84099292755126953 1.1552324295043945
-2.5368995666503906 0.90809249877929688 0.97565555572509766
-3.1657257080078125 0.28832149505615234 1.0641012191772461
-3.3410253524780273 -0.42440414428710938 0.97418975830078125
0.50548171997070312 -1.5586261749267578 0.79920387268066406
1.3699569702148438 -1.4150600433349609 0.72214031219482422
2.1988372802734375 -0.76914691925048828 0.75629043579101562
2.9818687438964844 -0.33673286437988281 0.85926723480224609
2.9592142105102539 0.36351776123046875 0.86466503143310547
2.3281641006469727 0.85997962951660156 0.99498367309570312
1.5056562423706055 1.5052757263183594 0.84878921508789062
0.48216724395751953 1.9905605316162109 0.91961956024169922
-0.0097522735595703125 1.4262371063232422 -0.90907573699951172
-0.44459342956542969 1.8228721618652344 -1.1160182952880859
0.0048627853393554688 0.50400543212890625 -0.7028961181640625
-1.4396352767944336 1.418269157409668 -1.2125759124755859
0.043976783752441406 -0.48335456848144531 -0.64742088317871094
0.036852836608886719 -1.5757684707641602 -0.93621158599853516
-0.47731781005859375 -1.9744691848754883 -1.1431427001953125
-1.4384517669677734 -1.522979736328125 -1.0454111099243164
-2.4921579360961914 0.889862060546875 -1.2554683685302734
-2.1715097427368164 -1.0447587966918945 -1.142277717590332
-2.9120616912841797 -0.43267345428466797 -1.0288791656494141
-3.0563840866088867 0.26820182800292969 -0.93554973602294922
0.40434551239013672 1.8251962661743164 -1.0585432052612305
1.6729259490966797 1.3750085830688477 -1.0036067962646484
2.5487823486328125 0.96029090881347656 -1.2554378509521484
3.193516731262207 0.16982173919677734 -1.1025028228759766
3.1283025741577148 -0.42590141296386719 -1.2711400985717773
2.4237985610961914 -0.94704055786132812 -1.2128734588623047
1.6407985687255859 -1.336644172668457 -1.017730712890625
0.59972667694091797 -1.8083972930908203 -1.053009033203125
-1.5938825607299805 -3.4497480392456055 0.20630359649658203
-1.9404926300048828 -3.2701702117919922 0.43277263641357422
-0.43664169311523438 -3.8351879119873047 0.26632881164550781
-1.3372383117675781 -3.1495885848999023 0.87549591064453125
0.43387031555175781 -3.8672142028808594 0.17804336547851562
1.677581787109375 -3.5685653686523438 0.015110969543457031
1.8298406600952148 -3.3293972015380859 0.19823265075683594
1.3389186859130859 -3.1593647003173828 0.80458164215087891
-0.73014259338378906 -2.8919792175292969 1.1578311920166016
1.0248641967773438 -2.5959882736206055 1.0396728515625
0.56158828735351562 -2.1205434799194336 1.0803403854370117
-0.10005378723144531 -2.1430912017822266 1.2647218704223633
-1.687164306640625 -3.257781982421875 -0.14405345916748047
-1.5082359313964844 -3.110870361328125 -0.55338382720947266
-0.81854152679443359 -3.078369140625 -0.96519756317138672
-0.30199813842773438 -2.4662246704101562 -1.1443767547607422
0.33828830718994141 -2.2614994049072266 -1.0560541152954102
0.99571800231933594 -2.7911062240600586 -1.022221565246582
1.495305061340332 -3.3698406219482422 -0.71845149993896484
1.7711410522460938 -3.4657630920410156 -0.22570991516113281
-1.8558578491210938 3.3002872467041016 0.15271377563476562
-1.5607404708862305 3.430877685546875 -0.19670963287353516
-1.4901790618896484 3.1940698623657227 0.63962936401367188
-0.54529666900634766 3.9849348068237305 -0.084420204162597656
-0.80183601379394531 2.9287757873535156 0.935943603515625
-0.33100795745849609 2.4507102966308594 0.95234870910644531
0.31379890441894531 2.3725318908691406 1.142913818359375
0.78082275390625 3.011652946472168 0.98183345794677734
0.5509490966796875 3.8787975311279297 0.074099540710449219
1.5053071975708008 3.3449974060058594 0.75117683410644531
1.9760398864746094 3.4124679565429688 0.36341094970703125
1.8640193939208984 3.5438156127929688 0.021321296691894531
-1.854034423828125 3.0921964645385742 -0.49611282348632812
-1.3760576248168945 3.0922203063964844 -0.84168910980224609
2.1840591430664062 3.2029170989990234 -0.19496440887451172
1.6246852874755859 3.2098255157470703 -0.62150764465332031
-0.65878200531005859 3.0024032592773438 -1.0285463333129883
1.0900173187255859 2.8154430389404297 -0.82654571533203125
0.51894187927246094 2.3749752044677734 -1.1534547805786133
-0.15488815307617188 2.4143171310424805 -1.1412258148193359
-3.7751197814941406 -1.0045490264892578 -0.3727569580078125
-3.3117961883544922 -2.0434703826904297 0.013462066650390625
-3.8400478363037109 -1.0305013656616211 0.26304149627685547
-3.3590793609619141 1.9776458740234375 -0.27455615997314453
-3.7417078018188477 1.0392923355102539 -0.34925651550292969
-3.6489992141723633 0.98662948608398438 0.28387260437011719
3.2117891311645508 -2.2063846588134766 -0.27451610565185547
3.7171878814697266 -1.2243242263793945 -0.65366840362548828
3.8904237747192383 -1.2317705154418945 -0.030630111694335938
3.9180307388305664 0.7644195556640625 -0.3907623291015625
3.5808038711547852 2.0709304809570312 0.025233268737792969
3.807642936706543 0.80926513671875 0.18045234680175781
-1.1390457153320312 0.63527584075927734 0.661041259765625
-2.1767063140869141 0.0050144195556640625 0.95393753051757812
-1.0236015319824219 -0.58411121368408203 0.57047462463378906
2.0162038803100586 0.0486297607421875 0.84470462799072266
0.86513805389404297 0.80447292327880859 0.55819892883300781
0.84729480743408203 -0.50492572784423828 0.35215663909912109
-0.90385246276855469 -0.59769535064697266 -0.78820896148681641
-2.0762968063354492 -0.068820953369140625 -1.2136611938476562
-1.1458673477172852 0.55540943145751953 -0.99593257904052734
2.1951160430908203 0.022223472595214844 -0.98913955688476562
1.0070571899414062 -0.52308750152587891 -0.79167461395263672
1.1059627532958984 0.71871566772460938 -0.74948787689208984
0.78860664367675781 -3.5104055404663086 0.72157573699951172
0.033123016357421875 -3.0966405868530273 1.0090932846069336
-0.51720333099365234 -3.5742588043212891 0.62362480163574219
0.07928466796875 -3.3369894027709961 -0.9013671875
0.58097648620605469 -3.6945037841796875 -0.29594993591308594
-0.58419704437255859 -3.6728925704956055 -0.22210693359375
0.11356258392333984 3.3265552520751953 0.82385826110839844
0.70966243743896484 3.6595897674560547 0.38865852355957031
-0.59263801574707031 3.726165771484375 0.42142295837402344
1.0189590454101562 3.6538076400756836 -0.40562343597412109
0.26221275329589844 3.2364501953125 -0.66339397430419922
-0.53143978118896484 3.7132282257080078 -0.42354679107666016
-1.6165714263916016 -2.2520179748535156 1.2197780609130859
-2.806793212890625 -1.5396146774291992 1.071197509765625
-2.5009212493896484 -2.3971614837646484 0.91192817687988281
2.5950384140014648 -1.4857673645019531 0.76503753662109375
1.9007186889648438 -2.2309656143188477 0.71881771087646484
2.4578227996826172 -2.7636146545410156 0.46157360076904297
-1.8263206481933594 2.2671031951904297 0.93521022796630859
-2.4653511047363281 2.5693130493164062 0.68136310577392578
-2.8622150421142578 1.7654304504394531 0.84908580780029297
2.3380918502807617 2.6706914901733398 0.91463279724121094
1.8247051239013672 2.1770248413085938 1.0029621124267578
2.8494720458984375 1.5454330444335938 0.71427822113037109
-1.6096124649047852 -2.2560329437255859 -1.0774774551391602
-2.4328775405883789 -2.4521980285644531 -0.73061656951904297
-2.6115436553955078 -1.5803146362304688 -1.0440492630004883
2.1657886505126953 -2.8241958618164062 -1.0528974533081055
1.6652965545654297 -2.2423210144042969 -1.0766077041625977
2.7172222137451172 -1.6430826187133789 -1.2234420776367188
-2.3358097076416016 2.3703556060791016 -1.0107383728027344
-1.4757452011108398 2.2742414474487305 -1.1605262756347656
-2.6938648223876953 1.4847774505615234 -1.3231573104858398
1.9172420501708984 2.2148122787475586 -0.83359432220458984
2.5100698471069336 2.5625171661376953 -0.52027988433837891
2.9882841110229492 1.3651828765869141 -0.90871524810791016
-3.7292509078979492 0.021233558654785156 0.60506629943847656
-3.4744443893432617 -1.1286859512329102 0.77320194244384766
-3.8197250366210938 -0.11729240417480469 -0.49070930480957031
-3.318821907043457 -0.94140815734863281 -0.89457893371582031
-2.6209812164306641 -2.7907323837280273 -0.14695072174072266
-2.6549911499023438 -2.6744461059570312 0.40172004699707031
-3.4584732055664062 1.1743927001953125 0.8012542724609375
-2.582611083984375 2.8560152053833008 0.046686172485351562
-2.8131790161132812 2.530548095703125 -0.59302997589111328
-3.4738311767578125 0.96223735809326172 -0.88446235656738281
3.335789680480957 -1.1506004333496094 0.46316623687744141
3.6666040420532227 -0.21683883666992188 0.36694717407226562
2.6602210998535156 -2.8613128662109375 -0.11076927185058594
2.6800212860107422 -2.8543977737426758 -0.64350032806396484
3.3617687225341797 -1.087895393371582 -1.1529855728149414
3.9221096038818359 -0.18421745300292969 -0.63416004180908203
3.3329658508300781 0.89444828033447266 0.53122138977050781
3.527400016784668 0.8270111083984375 -0.87976360321044922
2.8787384033203125 2.6243400573730469 -0.089333534240722656
2.7601737976074219 2.6843023300170898 0.49190998077392578
-0.18941402435302734 -0.95067119598388672 0.67801761627197266
-1.1668300628662109 -1.513031005859375 1.0029983520507812
-0.16656494140625 1.1915140151977539 0.48002719879150391
-1.1215410232543945 1.7150735855102539 0.8209075927734375
-2.8106956481933594 0.47855854034423828 1.0706558227539062
-3.0521125793457031 -0.56140995025634766 1.0676507949829102
1.0674571990966797 -1.5960245132446289 0.6907806396484375
2.6592330932617188 -0.66035842895507812 0.80673789978027344
2.7318687438964844 0.53204059600830078 0.91918849945068359
0.95240020751953125 1.8484172821044922 0.84354019165039062
0.088720321655273438 0.98368549346923828 -0.76066684722900391
-0.93360328674316406 1.7783594131469727 -1.2231569290161133
0.021016120910644531 -0.99263763427734375 -0.66128921508789062
-0.87389469146728516 -1.8017501831054688 -1.0541658401489258
-2.5902595520019531 -0.64264106750488281 -1.2327308654785156
-2.8526716232299805 0.49823284149169922 -1.2220268249511719
1.123469352722168 1.6693916320800781 -0.92026329040527344
2.9763641357421875 0.48569011688232422 -1.2589035034179688
2.7303781509399414 -0.64306735992431641 -1.2615213394165039
1.0934257507324219 -1.5007486343383789 -0.98450756072998047
-1.0816593170166016 -3.6127796173095703 0.24842166900634766
-1.7166519165039062 -3.1522636413574219 0.67772483825683594
1.2217655181884766 -3.7637844085693359 0.15347003936767578
1.6569509506225586 -3.273198127746582 0.53668880462646484
0.69738674163818359 -2.4447669982910156 1.0508956909179688
-0.61383152008056641 -2.5310516357421875 1.2281951904296875
-1.6805086135864258 -3.1348772048950195 -0.33763504028320312
-0.53709888458251953 -2.8135480880737305 -1.104522705078125
0.69764518737792969 -2.604212760925293 -1.0867547988891602
1.6327714920043945 -3.5033349990844727 -0.42251110076904297
-1.6587724685668945 3.2942419052124023 0.41028213500976562
-1.1082468032836914 3.7620859146118164 -0.065636634826660156
-0.62617778778076172 2.6750736236572266 0.98717498779296875
0.56029605865478516 2.6934747695922852 1.077794075012207
1.9345464706420898 3.3775854110717773 0.64858245849609375
1.3156576156616211 3.8290185928344727 0.077257156372070312
-1.6305446624755859 3.0461263656616211 -0.74389076232910156
1.8596687316894531 3.2710399627685547 -0.44400596618652344
0.85073375701904297 2.6678466796875 -1.0110702514648438
-0.33342266082763672 2.7720708847045898 -1.1188898086547852
-3.9562921524047852 0.042920112609863281 -0.066196441650390625
-3.279240608215332 -1.7136383056640625 -0.53112888336181641
-3.2032680511474609 -1.9881696701049805 0.60277557373046875
-3.2491912841796875 2.1790313720703125 0.21198654174804688
-3.2003040313720703 1.8819160461425781 -0.87641620635986328
3.2557296752929688 -1.9925251007080078 0.28819561004638672
3.1524238586425781 -2.089752197265625 -0.93713283538818359
4.0131034851074219 -0.36347007751464844 -0.083708763122558594
3.4255161285400391 1.9254083633422852 -0.57177352905273438
3.2093429565429688 1.9160852432250977 0.47063350677490234
-0.16691207885742188 0.23477458953857422 0.34384059906005859
-2.090428352355957 1.2092514038085938 0.99687385559082031
-2.0437488555908203 -1.1040163040161133 0.96656513214111328
1.8155956268310547 -1.123347282409668 0.81288433074951172
1.9432735443115234 1.231903076171875 1.0054864883422852
-0.020415306091308594 0.09085845947265625 -0.65384674072265625
-1.8115453720092773 -1.29571533203125 -1.1358413696289062
-2.021575927734375 1.2527904510498047 -1.2801990509033203
2.2380342483520508 1.1825180053710938 -0.99182033538818359
2.0048179626464844 -1.2068881988525391 -1.0763998031616211
-0.011284828186035156 -3.8769979476928711 0.23598766326904297
1.2675504684448242 -2.8816080093383789 0.94545364379882812
-1.0599794387817383 -3.0419073104858398 1.0094680786132812
-1.1818161010742188 -3.1072483062744141 -0.75397396087646484
1.1518383026123047 -3.2178754806518555 -0.9090118408203125
-1.1151027679443359 3.1025180816650391 0.85894298553466797
1.2865753173828125 2.9971742630004883 0.91554546356201172
0.00074863433837890625 3.9941511154174805 -0.0056962966918945312
1.3795652389526367 2.9253387451171875 -0.76891326904296875
-1.0435276031494141 3.0521488189697266 -0.94578361511230469
-3.4146938323974609 -0.0847320556640625 0.96157264709472656
-3.2190208435058594 -0.19652080535888672 -0.97026157379150391
-1.9119224548339844 -3.2633581161499023 0.20116424560546875
-1.8964166641235352 3.1516304016113281 -0.23311901092529297
3.1834268569946289 -0.0034685134887695312 0.79683399200439453
2.0416107177734375 -3.32476806640625 -0.053845405578613281
3.4187192916870117 -0.15212345123291016 -1.1491718292236328
2.1907482147216797 3.2098617553710938 0.11604118347167969
0.10645294189453125 -1.7176876068115234 1.1307649612426758
-0.060687065124511719 2.0486354827880859 0.88209629058837891
-0.049653053283691406 2.0426273345947266 -1.1715507507324219
0.11173152923583984 -1.9784832000732422 -1.1160478591918945
3 0 1 2
3 3 4 5
3 6 7 8
3 9 10 11
3 12 13 14
3 15 16 17
3 18 19 20
3 21 22 23
3 24 25 26
3 27 28 29
3 30 31 32
3 33 34 35
3 36 37 38
3 39 40 41
3 42 43 44
3 45 46 47
3 48 49 50
3 51 52 53
3 54 55 56
3 57 58 59
3 60 61 62
3 63 64 65
3 66 67 68
3 69 70 71
3 72 73 74
3 75 76 77
3 78 79 80
3 81 82 83
3 84 85 86
3 87 88 89
3 90 91 92
3 93 94 95
3 96 97 98
3 99 100 101
3 102 103 104
3 105 106 107
3 108 109 110
3 111 112 113
3 114 115 116
3 117 118 119
3 120 121 122
3 123 124 125
3 126 127 128
3 129 130 131
3 132 133 134
3 135 136 137
3 138 139 140
3 141 142 143
3 144 145 146
3 147 148 149
3 150 151 152
3 153 154 155
3 156 157 158
3 159 160 161
3 162 163 164
3 165 166 167
3 168 169 170
3 171 172 173
3 174 175 176
3 177 178 179
3 180 181 182
3 183 184 185
3 186 187 188
3 189 190 191
3 192 193 194
3 195 196 197
3 198 199 200
3 201 202 203
3 204 205 206
3 207 208 209
3 210 211 212
3 213 214 215
3 216 217 218
3 219 220 221
3 222 223 224
3 225 226 227
3 228 229 230
3 231 232 233
3 234 235 236
3 237 238 239
3 240 2 241
3 242 243 0
3 1 244 245
3 246 5 247
3 248 249 3
3 4 250 251
3 252 8 253
3 254 255 6
3 7 256 257
3 258 11 259
3 260 261 9
3 10 262 263
3 264 14 265
3 266 267 12
3 13 268 269
3 270 17 271
3 272 273 15
3 16 274 275
3 276 20 277
3 278 279 18
3 19 280 281
3 282 23 283
3 284 285 21
3 22 286 287
3 288 26 289
3 290 291 24
3 25 292 293
3 294 29 295
3 296 297 27
3 28 298 299
3 300 32 301
3 302 303 30
3 31 304 305
3 306 35 307
3 308 309 33
3 34 310 311
3 312 38 313
3 314 315 36
3 37 316 317
3 318 41 319
3 320 321 39
3 40 322 323
3 324 44 325
3 326 327 42
3 43 328 329
3 330 47 331
3 332 333 45
3 46 334 335
3 336 50 337
3 338 339 48
3 49 340 341
3 342 53 343
3 344 345 51
3 52 346 347
3 348 56 349
3 350 351 54
3 55 352 353
3 354 59 355
3 356 357 57
3 58 358 359
3 360 62 361
3 362 241 60
3 61 245 363
3 364 65 240
3 365 366 63
3 64 367 242
3 244 68 368
3 243 369 66
3 67 370 371
3 372 71 360
3 373 247 69
3 70 251 362
3 374 74 246
3 375 376 72
3 73 377 248
3 250 77 364
3 249 378 75
3 76 379 365
3 380 80 381
3 382 253 78
3 79 257 383
3 384 83 252
3 385 386 81
3 82 387 254
3 256 86 388
3 255 389 84
3 85 390 391
3 381 89 392
3 383 259 87
3 88 263 393
3 388 92 258
3 391 394 90
3 91 395 260
3 262 95 396
3 261 397 93
3 94 398 399
3 400 98 401
3 402 265 96
3 97 269 403
3 404 101 264
3 405 406 99
3 100 407 266
3 268 104 408
3 267 409 102
3 103 410 411
3 412 107 400
3 413 271 105
3 106 275 402
3 414 110 270
3 415 416 108
3 109 417 272
3 274 113 404
3 273 418 111
3 112 419 405
3 420 116 421
3 422 277 114
3 115 281 423
3 424 119 276
3 425 426 117
3 118 427 278
3 280 122 428
3 279 429 120
3 121 430 431
3 432 125 420
3 433 283 123
3 124 287 422
3 434 128 282
3 435 436 126
3 127 437 284
3 286 131 424
3 285 438 129
3 130 439 425
3 440 134 441
3 442 289 132
3 133 293 443
3 444 137 288
3 445 446 135
3 136 447 290
3 292 140 448
3 291 449 138
3 139 450 451
3 452 143 440
3 453 295 141
3 142 299 442
3 454 146 294
3 455 456 144
3 145 457 296
3 298 149 444
3 297 458 147
3 148 459 445
3 460 152 461
3 462 301 150
3 151 305 463
3 464 155 300
3 465 466 153
3 154 467 302
3 304 158 468
3 303 469 156
3 157 470 471
3 461 161 472
3 463 307 159
3 160 311 473
3 468 164 306
3 471 474 162
3 163 475 308
3 310 167 476
3 309 477 165
3 166 478 479
3 441 170 371
3 443 313 168
3 169 317 368
3 448 173 312
3 451 401 171
3 172 403 314
3 316 176 363
3 315 408 174
3 175 411 361
3 385 179 446
3 384 319 177
3 178 323 447
3 382 182 318
3 380 415 180
3 181 414 320
3 322 185 449
3 321 413 183
3 184 412 450
3 410 188 372
3 409 325 186
3 187 329 373
3 407 191 324
3 406 465 189
3 190 464 326
3 328 194 374
3 327 462 192
3 193 460 375
3 392 197 416
3 393 331 195
3 196 335 417
3 396 200 330
3 399 470 198
3 199 469 332
3 334 203 418
3 333 467 201
3 202 466 419
3 430 206 366
3 429 337 204
3 205 341 367
3 427 209 336
3 426 455 207
3 208 454 338
3 340 212 369
3 339 453 210
3 211 452 370
3 390 215 436
3 389 343 213
3 214 347 437
3 387 218 342
3 386 459 216
3 217 458 344
3 346 221 438
3 345 457 219
3 220 456 439
3 379 224 431
3 378 349 222
3 223 353 428
3 377 227 348
3 376 472 225
3 226 473 350
3 352 230 423
3 351 476 228
3 229 479 421
3 435 233 394
3 434 355 231
3 232 359 395
3 433 236 354
3 432 478 234
3 235 477 356
3 358 239 397
3 357 475 237
3 238 474 398
3 480 0 2
3 0 481 1
3 2 1 482
3 483 3 5
3 3 484 4
3 5 4 485
3 486 6 8
3 6 487 7
3 8 7 488
3 489 9 11
3 9 490 10
3 11 10 491
3 492 12 14
3 12 493 13
3 14 13 494
3 495 15 17
3 15 496 16
3 17 16 497
3 498 18 20
3 18 499 19
3 20 19 500
3 501 21 23
3 21 502 22
3 23 22 503
3 504 24 26
3 24 505 25
3 26 25 506
3 507 27 29
3 27 508 28
3 29 28 509
3 510 30 32
3 30 511 31
3 32 31 512
3 513 33 35
3 33 514 34
3 35 34 515
3 516 36 38
3 36 517 37
3 38 37 518
3 519 39 41
3 39 520 40
3 41 40 521
3 522 42 44
3 42 523 43
3 44 43 524
3 525 45 47
3 45 526 46
3 47 46 527
3 528 48 50
3 48 529 49
3 50 49 530
3 531 51 53
3 51 532 52
3 53 52 533
3 534 54 56
3 54 535 55
3 56 55 536
3 537 57 59
3 57 538 58
3 59 58 539
3 540 60 62
3 60 482 61
3 62 61 541
3 542 63 65
3 63 543 64
3 65 64 480
3 481 66 68
3 66 544 67
3 68 67 545
3 546 69 71
3 69 485 70
3 71 70 540
3 547 72 74
3 72 548 73
3 74 73 483
3 484 75 77
3 75 549 76
3 77 76 542
3 550 78 80
3 78 488 79
3 80 79 551
3 552 81 83
3 81 553 82
3 83 82 486
3 487 84 86
3 84 554 85
3 86 85 555
3 551 87 89
3 87 491 88
3 89 88 556
3 555 90 92
3 90 557 91
3 92 91 489
3 490 93 95
3 93 558 94
3 95 94 559
3 560 96 98
3 96 494 97
3 98 97 561
3 562 99 101
3 99 563 100
3 101 100 492
3 493 102 104
3 102 564 103
3 104 103 565
3 566 105 107
3 105 497 106
3 107 106 560
3 567 108 110
3 108 568 109
3 110 109 495
3 496 111 113
3 111 569 112
3 113 112 562
3 570 114 116
3 114 500 115
3 116 115 571
3 572 117 119
3 117 573 118
3 119 118 498
3 499 120 122
3 120 574 121
3 122 121 575
3 576 123 125
3 123 503 124
3 125 124 570
3 577 126 128
3 126 578 127
3 128 127 501
3 502 129 131
3 129 579 130
3 131 130 572
3 580 132 134
3 132 506 133
3 134 133 581
3 582 135 137
3 135 583 136
3 137 136 504
3 505 138 140
3 138 584 139
3 140 139 585
3 586 141 143
3 141 509 142
3 143 142 580
3 587 144 146
3 144 588 145
3 146 145 507
3 508 147 149
3 147 589 148
3 149 148 582
3 590 150 152
3 150 512 151
3 152 151 591
3 592 153 155
3 153 593 154
3 155 154 510
3 511 156 158
3 156 594 157
3 158 157 595
3 591 159 161
3 159 515 160
3 161 160 596
3 595 162 164
3 162 597 163
3 164 163 513
3 514 165 167
3 165 598 166
3 167 166 599
3 581 168 170
3 168 518 169
3 170 169 545
3 585 171 173
3 171 561 172
3 173 172 516
3 517 174 176
3 174 565 175
3 176 175 541
3 552 177 179
3 177 521 178
3 179 178 583
3 550 180 182
3 180 567 181
3 182 181 519
3 520 183 185
3 183 566 184
3 185 184 584
3 564 186 188
3 186 524 187
3 188 187 546
3 563 189 191
3 189 592 190
3 191 190 522
3 523 192 194
3 192 590 193
3 194 193 547
3 556 195 197
3 195 527 196
3 197 196 568
3 559 198 200
3 198 594 199
3 200 199 525
3 526 201 203
3 201 593 202
3 203 202 569
3 574 204 206
3 204 530 205
3 206 205 543
3 573 207 209
3 207 587 208
3 209 208 528
3 529 210 212
3 210 586 211
3 212 211 544
3 554 213 215
3 213 533 214
3 215 214 578
3 553 216 218
3 216 589 217
3 218 217 531
3 532 219 221
3 219 588 220
3 221 220 579
3 549 222 224
3 222 536 223
3 224 223 575
3 548 225 227
3 225 596 226
3 227 226 534
3 535 228 230
3 228 599 229
3 230 229 571
3 577 231 233
3 231 539 232
3 233 232 557
3 576 234 236
3 234 598 235
3 236 235 537
3 538 237 239
3 237 597 238
3 239 238 558
3 600 240 241
3 240 480 2
3 241 2 482
3 480 242 0
3 242 601 243
3 0 243 481
3 482 1 245
3 1 481 244
3 245 244 602
3 603 246 247
3 246 483 5
3 247 5 485
3 483 248 3
3 248 604 249
3 3 249 484
3 485 4 251
3 4 484 250
3 251 250 600
3 605 252 253
3 252 486 8
3 253 8 488
3 486 254 6
3 254 606 255
3 6 255 487
3 488 7 257
3 7 487 256
3 257 256 607
3 607 258 259
3 258 489 11
3 259 11 491
3 489 260 9
3 260 608 261
3 9 261 490
3 491 10 263
3 10 490 262
3 263 262 609
3 610 264 265
3 264 492 14
3 265 14 494
3 492 266 12
3 266 611 267
3 12 267 493
3 494 13 269
3 13 493 268
3 269 268 612
3 613 270 271
3 270 495 17
3 271 17 497
3 495 272 15
3 272 614 273
3 15 273 496
3 497 16 275
3 16 496 274
3 275 274 610
3 615 276 277
3 276 498 20
3 277 20 500
3 498 278 18
3 278 616 279
3 18 279 499
3 500 19 281
3 19 499 280
3 281 280 617
3 618 282 283
3 282 501 23
3 283 23 503
3 501 284 21
3 284 619 285
3 21 285 502
3 503 22 287
3 22 502 286
3 287 286 615
3 620 288 289
3 288 504 26
3 289 26 506
3 504 290 24
3 290 621 291
3 24 291 505
3 506 25 293
3 25 505 292
3 293 292 622
3 623 294 295
3 294 507 29
3 295 29 509
3 507 296 27
3 296 624 297
3 27 297 508
3 509 28 299
3 28 508 298
3 299 298 620
3 625 300 301
3 300 510 32
3 301 32 512
3 510 302 30
3 302 626 303
3 30 303 511
3 512 31 305
3 31 511 304
3 305 304 627
3 627 306 307
3 306 513 35
3 307 35 515
3 513 308 33
3 308 628 309
3 33 309 514
3 515 34 311
3 34 514 310
3 311 310 629
3 622 312 313
3 312 516 38
3 313 38 518
3 516 314 36
3 314 612 315
3 36 315 517
3 518 37 317
3 37 517 316
3 317 316 602
3 605 318 319
3 318 519 41
3 319 41 521
3 519 320 39
3 320 613 321
3 39 321 520
3 521 40 323
3 40 520 322
3 323 322 621
3 611 324 325
3 324 522 44
3 325 44 524
3 522 326 42
3 326 625 327
3 42 327 523
3 524 43 329
3 43 523 328
3 329 328 603
3 609 330 331
3 330 525 47
3 331 47 527
3 525 332 45
3 332 626 333
3 45 333 526
3 527 46 335
3 46 526 334
3 335 334 614
3 616 336 337
3 336 528 50
3 337 50 530
3 528 338 48
3 338 623 339
3 48 339 529
3 530 49 341
3 49 529 340
3 341 340 601
3 606 342 343
3 342 531 53
3 343 53 533
3 531 344 51
3 344 624 345
3 51 345 532
3 533 52 347
3 52 532 346
3 347 346 619
3 604 348 349
3 348 534 56
3 349 56 536
3 534 350 54
3 350 629 351
3 54 351 535
3 536 55 353
3 55 535 352
3 353 352 617
3 618 354 355
3 354 537 59
3 355 59 539
3 537 356 57
3 356 628 357
3 57 357 538
3 539 58 359
3 58 538 358
3 359 358 608
3 630 360 361
3 360 540 62
3 361 62 541
3 540 362 60
3 362 600 241
3 60 241 482
3 541 61 363
3 61 482 245
3 363 245 602
3 600 364 240
3 364 542 65
3 240 65 480
3 542 365 63
3 365 631 366
3 63 366 543
3 480 64 242
3 64 543 367
3 242 367 601
3 602 244 368
3 244 481 68
3 368 68 545
3 481 243 66
3 243 601 369
3 66 369 544
3 545 67 371
3 67 544 370
3 371 370 632
3 630 372 360
3 372 546 71
3 360 71 540
3 546 373 69
3 373 603 247
3 69 247 485
3 540 70 362
3 70 485 251
3 362 251 600
3 603 374 246
3 374 547 74
3 246 74 483
3 547 375 72
3 375 633 376
3 72 376 548
3 483 73 248
3 73 548 377
3 248 377 604
3 600 250 364
3 250 484 77
3 364 77 542
3 484 249 75
3 249 604 378
3 75 378 549
3 542 76 365
3 76 549 379
3 365 379 631
3 634 380 381
3 380 550 80
3 381 80 551
3 550 382 78
3 382 605 253
3 78 253 488
3 551 79 383
3 79 488 257
3 383 257 607
3 605 384 252
3 384 552 83
3 252 83 486
3 552 385 81
3 385 635 386
3 81 386 553
3 486 82 254
3 82 553 387
3 254 387 606
3 607 256 388
3 256 487 86
3 388 86 555
3 487 255 84
3 255 606 389
3 84 389 554
3 555 85 391
3 85 554 390
3 391 390 636
3 634 381 392
3 381 551 89
3 392 89 556
3 551 383 87
3 383 607 259
3 87 259 491
3 556 88 393
3 88 491 263
3 393 263 609
3 607 388 258
3 388 555 92
3 258 92 489
3 555 391 90
3 391 636 394
3 90 394 557
3 489 91 260
3 91 557 395
3 260 395 608
3 609 262 396
3 262 490 95
3 396 95 559
3 490 261 93
3 261 608 397
3 93 397 558
3 559 94 399
3 94 558 398
3 399 398 637
3 638 400 401
3 400 560 98
3 401 98 561
3 560 402 96
3 402 610 265
3 96 265 494
3 561 97 403
3 97 494 269
3 403 269 612
3 610 404 264
3 404 562 101
3 264 101 492
3 562 405 99
3 405 639 406
3 99 406 563
3 492 100 266
3 100 563 407
3 266 407 611
3 612 268 408
3 268 493 104
3 408 104 565
3 493 267 102
3 267 611 409
3 102 409 564
3 565 103 411
3 103 564 410
3 411 410 630
3 638 412 400
3 412 566 107
3 400 107 560
3 566 413 105
3 413 613 271
3 105 271 497
3 560 106 402
3 106 497 275
3 402 275 610
3 613 414 270
3 414 567 110
3 270 110 495
3 567 415 108
3 415 634 416
3 108 416 568
3 495 109 272
3 109 568 417
3 272 417 614
3 610 274 404
3 274 496 113
3 404 113 562
3 496 273 111
3 273 614 418
3 111 418 569
3 562 112 405
3 112 569 419
3 405 419 639
3 640 420 421
3 420 570 116
3 421 116 571
3 570 422 114
3 422 615 277
3 114 277 500
3 571 115 423
3 115 500 281
3 423 281 617
3 615 424 276
3 424 572 119
3 276 119 498
3 572 425 117
3 425 641 426
3 117 426 573
3 498 118 278
3 118 573 427
3 278 427 616
3 617 280 428
3 280 499 122
3 428 122 575
3 499 279 120
3 279 616 429
3 120 429 574
3 575 121 431
3 121 574 430
3 431 430 631
3 640 432 420
3 432 576 125
3 420 125 570
3 576 433 123
3 433 618 283
3 123 283 503
3 570 124 422
3 124 503 287
3 422 287 615
3 618 434 282
3 434 577 128
3 282 128 501
3 577 435 126
3 435 636 436
3 126 436 578
3 501 127 284
3 127 578 437
3 284 437 619
3 615 286 424
3 286 502 131
3 424 131 572
3 502 285 129
3 285 619 438
3 129 438 579
3 572 130 425
3 130 579 439
3 425 439 641
3 632 440 441
3 440 580 134
3 441 134 581
3 580 442 132
3 442 620 289
3 132 289 506
3 581 133 443
3 133 506 293
3 443 293 622
3 620 444 288
3 444 582 137
3 288 137 504
3 582 445 135
3 445 635 446
3 135 446 583
3 504 136 290
3 136 583 447
3 290 447 621
3 622 292 448
3 292 505 140
3 448 140 585
3 505 291 138
3 291 621 449
3 138 449 584
3 585 139 451
3 139 584 450
3 451 450 638
3 632 452 440
3 452 586 143
3 440 143 580
3 586 453 141
3 453 623 295
3 141 295 509
3 580 142 442
3 142 509 299
3 442 299 620
3 623 454 294
3 454 587 146
3 294 146 507
3 587 455 144
3 455 641 456
3 144 456 588
3 507 145 296
3 145 588 457
3 296 457 624
3 620 298 444
3 298 508 149
3 444 149 582
3 508 297 147
3 297 624 458
3 147 458 589
3 582 148 445
3 148 589 459
3 445 459 635
3 633 460 461
3 460 590 152
3 461 152 591
3 590 462 150
3 462 625 301
3 150 301 512
3 591 151 463
3 151 512 305
3 463 305 627
3 625 464 300
3 464 592 155
3 300 155 510
3 592 465 153
3 465 639 466
3 153 466 593
3 510 154 302
3 154 593 467
3 302 467 626
3 627 304 468
3 304 511 158
3 468 158 595
3 511 303 156
3 303 626 469
3 156 469 594
3 595 157 471
3 157 594 470
3 471 470 637
3 633 461 472
3 461 591 161
3 472 161 596
3 591 463 159
3 463 627 307
3 159 307 515
3 596 160 473
3 160 515 311
3 473 311 629
3 627 468 306
3 468 595 164
3 306 164 513
3 595 471 162
3 471 637 474
3 162 474 597
3 513 163 308
3 163 597 475
3 308 475 628
3 629 310 476
3 310 514 167
3 476 167 599
3 514 309 165
3 309 628 477
3 165 477 598
3 599 166 479
3 166 598 478
3 479 478 640
3 632 441 371
3 441 581 170
3 371 170 545
3 581 443 168
3 443 622 313
3 168 313 518
3 545 169 368
3 169 518 317
3 368 317 602
3 622 448 312
3 448 585 173
3 312 173 516
3 585 451 171
3 451 638 401
3 171 401 561
3 516 172 314
3 172 561 403
3 314 403 612
3 602 316 363
3 316 517 176
3 363 176 541
3 517 315 174
3 315 612 408
3 174 408 565
3 541 175 361
3 175 565 411
3 361 411 630
3 635 385 446
3 385 552 179
3 446 179 583
3 552 384 177
3 384 605 319
3 177 319 521
3 583 178 447
3 178 521 323
3 447 323 621
3 605 382 318
3 382 550 182
3 318 182 519
3 550 380 180
3 380 634 415
3 180 415 567
3 519 181 320
3 181 567 414
3 320 414 613
3 621 322 449
3 322 520 185
3 449 185 584
3 520 321 183
3 321 613 413
3 183 413 566
3 584 184 450
3 184 566 412
3 450 412 638
3 630 410 372
3 410 564 188
3 372 188 546
3 564 409 186
3 409 611 325
3 186 325 524
3 546 187 373
3 187 524 329
3 373 329 603
3 611 407 324
3 407 563 191
3 324 191 522
3 563 406 189
3 406 639 465
3 189 465 592
3 522 190 326
3 190 592 464
3 326 464 625
3 603 328 374
3 328 523 194
3 374 194 547
3 523 327 192
3 327 625 462
3 192 462 590
3 547 193 375
3 193 590 460
3 375 460 633
3 634 392 416
3 392 556 197
3 416 197 568
3 556 393 195
3 393 609 331
3 195 331 527
3 568 196 417
3 196 527 335
3 417 335 614
3 609 396 330
3 396 559 200
3 330 200 525
3 559 399 198
3 399 637 470
3 198 470 594
3 525 199 332
3 199 594 469
3 332 469 626
3 614 334 418
3 334 526 203
3 418 203 569
3 526 333 201
3 333 626 467
3 201 467 593
3 569 202 419
3 202 593 466
3 419 466 639
3 631 430 366
3 430 574 206
3 366 206 543
3 574 429 204
3 429 616 337
3 204 337 530
3 543 205 367
3 205 530 341
3 367 341 601
3 616 427 336
3 427 573 209
3 336 209 528
3 573 426 207
3 426 641 455
3 207 455 587
3 528 208 338
3 208 587 454
3 338 454 623
3 601 340 369
3 340 529 212
3 369 212 544
3 529 339 210
3 339 623 453
3 210 453 586
3 544 211 370
3 211 586 452
3 370 452 632
3 636 390 436
3 390 554 215
3 436 215 578
3 554 389 213
3 389 606 343
3 213 343 533
3 578 214 437
3 214 533 347
3 437 347 619
3 606 387 342
3 387 553 218
3 342 218 531
3 553 386 216
3 386 635 459
3 216 459 589
3 531 217 344
3 217 589 458
3 344 458 624
3 619 346 438
3 346 532 221
3 438 221 579
3 532 345 219
3 345 624 457
3 219 457 588
3 579 220 439
3 220 588 456
3 439 456 641
3 631 379 431
3 379 549 224
3 431 224 575
3 549 378 222
3 378 604 349
3 222 349 536
3 575 223 428
3 223 536 353
3 428 353 617
3 604 377 348
3 377 548 227
3 348 227 534
3 548 376 225
3 376 633 472
3 225 472 596
3 534 226 350
3 226 596 473
3 350 473 629
3 617 352 423
3 352 535 230
3 423 230 571
3 535 351 228
3 351 629 476
3 228 476 599
3 571 229 421
3 229 599 479
3 421 479 640
3 636 435 394
3 435 577 233
3 394 233 557
3 577 434 231
3 434 618 355
3 231 355 539
3 557 232 395
3 232 539 359
3 395 359 608
3 618 433 354
3 433 576 236
3 354 236 537
3 576 432 234
3 432 640 478
3 234 478 598
3 537 235 356
3 235 598 477
3 356 477 628
3 608 358 397
3 358 538 239
3 397 239 558
3 538 357 237
3 357 628 475
3 237 475 597
3 558 238 398
3 238 597 474
3 398 474 637
