OFF
642 1280 0
-3.5702140595953225 -1.5626610955235307 -0.15941766386441358
-3.5702140220630483 -1.5626610796870626 0.15941791851025222
-3.7691792637217336 -1.0417763307216621 2.0375329867761138e-08
-3.5702140595953225 1.5626610955235289 -0.15941766386441358
-3.7691792335505632 1.0417764391165214 1.5015488052938508e-07
-3.5702139578767387 1.5626611759368494 0.1594180451527798
3.5702140595948659 -1.5626610955238966 -0.15941766386611711
3.7691792335496039 -1.0417764391162443 1.0942574313332898e-07
3.5702139578749428 -1.5626611759354816 0.15941804515066593
3.5702140595948642 1.5626610955238966 -0.15941766386611889
3.5702140220635101 1.5626610796866878 0.15941791850854692
3.7691792637217336 1.0417763307216621 -2.0353809304651804e-08
-1.5622518123095244 0.32184202607466261 0.73383001651037105
-1.5622518103242164 -0.32184215423705353 0.73383002783112872
-1.0414520900052189 1.4441781104324036e-12 0.46234109240633181
1.5622518123095244 0.32184202607466261 0.73383001651037283
1.0414521898915439 -6.2780044274290958e-08 0.46234113349695605
1.5622519043408811 -0.32184221799048274 0.73383007805231948
-1.5622518123095244 -0.32184202607466261 -0.73383001651037283
-1.5622518103242164 0.32184215423705353 -0.73383002783112872
-1.0414520900052189 -1.4441781104324036e-12 -0.46234109240633181
1.5622518123095244 -0.32184202607466261 -0.73383001651037105
1.0414521898911637 6.2780042497934119e-08 -0.46234113349788153
1.5622519043398206 0.32184221799026602 -0.7338300780545719
0.32191757804650223 -3.5701282973251729 0.78048283628504755
-0.32191770796757169 -3.570128291088702 0.78048283058930323
-1.106670310946356e-12 -3.7691356986662097 0.52107682770582819
0.32191757804666388 -3.5701282973270079 -0.78048283628673865
-6.0350705766154533e-08 -3.7691356050376026 -0.52107699793838513
-0.32191776976420527 -3.5701281580136506 -0.78048296885735091
0.3219175780466621 3.5701282973270079 0.78048283628673865
-6.0350705766154533e-08 3.7691356050376026 0.52107699793838513
-0.32191776976420527 3.5701281580136506 0.78048296885735091
0.3219175780466621 3.5701282973270079 -0.78048283628673865
-0.32191770796757346 3.570128291088702 -0.78048283058930323
-1.106670310946356e-12 3.7691356986662097 -0.52107682770582819
-2.2063038216149753 -2.0073616529647715 1.1302854447325323
-2.5283221621122998 -2.2064117435419579 0.97846352197611708
-2.0074295593534526 -2.5282839774910038 1.0506036061902755
2.2063038216146271 -2.0073616529644553 1.1302854447300774
2.0074296957694173 -2.5282839442197265 1.0506035786656653
2.5283222925099142 -2.2064117053739825 0.97846347518423116
-2.0074296905784834 2.5282837914568397 1.0506036356756816
-2.5283221583027871 2.2064116030870444 0.97846358310400205
-2.2063036565253746 2.0073613717260965 1.1302855045832967
2.0074296905784834 2.5282837914568397 1.0506036356756816
2.2063038122340775 2.0073614928994168 1.1302854668000304
2.5283222925019331 2.2064117053674259 0.97846347519381993
-2.0074296905784834 -2.5282837914568397 -1.0506036356756816
-2.5283221583027871 -2.2064116030870444 -0.97846358310400205
-2.2063036565253746 -2.0073613717260965 -1.1302855045832967
2.0074296905784834 -2.5282837914568397 -1.0506036356756816
2.2063038122340775 -2.0073614928994168 -1.1302854668000304
2.5283222925019331 -2.2064117053674259 -0.97846347519381993
-2.0074296905784834 2.5282837914568397 -1.0506036356756816
-2.2063038122340775 2.0073614928994168 -1.1302854668000322
-2.5283222925019331 2.2064117053674259 -0.97846347519381993
2.0074296905784834 2.5282837914568397 -1.0506036356756816
2.5283221583027871 2.2064116030870444 -0.97846358310400205
2.2063036565253746 2.0073613717260965 -1.1302855045832967
-3.7790472129361774 -0.51928084450723944 0.42948996494265934
-3.5829215199008075 -1.0326800890533896 0.58995944545148227
-3.6144213521212372 -0.51482813568328112 0.70143584715748197
-3.6144215711941925 -0.51482831635820858 -0.70143553601516828
-3.5829216537298088 -1.0326801294066073 -0.58995922326327488
-3.7790473833834106 -0.51928077581231413 -0.42948960798852553
-3.0509854079525258 -2.4254443897519824 -0.15712284636267704
-2.7487184611055184 -2.7814667115211336 1.3181111313542715e-07
-3.0509854447358826 -2.425444244891354 0.15712323303038644
-3.5829216114063307 1.0326799928567603 0.5899593477295717
-3.7790472798586325 0.5192807452367294 0.42948984692710113
-3.614421352128085 0.51482813568342856 0.70143584714875828
-2.7487185565609842 2.7814666169129385 0
-3.0509854765175497 2.4254442709335589 -0.15712297469983838
-3.0509854447385294 2.4254442448919136 0.15712323301519149
-3.5829216114063307 1.0326799928567603 -0.5899593477295717
-3.6144215090419074 0.51482817437215544 -0.70143564080075294
-3.7790473833790816 0.5192807758098219 -0.42948960799889235
3.5829216114042985 -1.0326799928561794 0.58995934772823944
3.7790472798563712 -0.51928074523641854 0.4294898469260815
3.614421352126131 -0.51482813568314967 0.70143584714722351
2.7487185565609842 -2.7814666169129385 1.7763568394002505e-15
3.0509854765175497 -2.4254442709335589 -0.1571229746998366
3.0509854447365967 -2.4254442448903752 0.15712323301480247
3.5829216114063307 -1.0326799928567603 -0.5899593477295717
3.6144215090419074 -0.51482817437215544 -0.70143564080075294
3.7790473833790816 -0.5192807758098219 -0.42948960799889235
3.7790472129361774 0.51928084450723944 0.42948996494265934
3.5829215199008075 1.0326800890533896 0.58995944545148227
3.6144213521212372 0.51482813568328112 0.70143584715748197
3.6144215711941925 0.51482831635820858 -0.70143553601516828
3.5829216537298088 1.0326801294066073 -0.58995922326327488
3.7790473833834106 0.51928077581231413 -0.42948960798852553
3.0509854079525258 2.4254443897519824 -0.15712284636267881
2.7487184611055184 2.7814667115211336 1.3181111135907031e-07
3.0509854447358826 2.425444244891354 0.15712323303038644
-0.51912258631416819 -0.86049659404552692 0.44648952947991738
-1.032420915130194 -1.1777579425004632 0.71897074017525853
-0.51469785281178382 -1.4004705435698011 0.68082206645132182
-0.51469800906159868 1.4004703400701395 0.68082200007078697
-1.0324209409091196 1.1777578087988321 0.71897069953256043
-0.51912250803546911 0.8604963965261625 0.44648944461527407
-2.4250227793201873 0.31725009815509786 1.0991770683716258
-2.7811109330697086 -5.8952251080768292e-08 1.1471226519704789
-2.4250226131730432 -0.31725029194747556 1.0991770351750603
1.0324208154157848 -1.1777578864997924 0.71897068812592124
0.51912248465897193 -0.86049653225716938 0.44648948694883295
0.51469785281363833 -1.4004705435710214 0.6808220664494069
2.7811107537393323 0 1.1471226517084077
2.4250226084703073 0.31725016124583227 1.099177030200174
2.4250226131609693 -0.31725029195210475 1.0991770351697951
1.0324208154150707 1.17775788649897 0.71897068812817011
0.51469788011998396 1.4004704134305115 0.68082201199047532
0.51912250803848714 0.86049639652433996 0.44648944461526519
-0.51912258631416819 0.86049659404552692 -0.44648952947991738
-1.0324209151301957 1.1777579425004632 -0.71897074017525853
-0.51469785281178559 1.4004705435698011 -0.68082206645132182
-0.51469800906159868 -1.4004703400701395 -0.68082200007078697
-1.0324209409091214 -1.1777578087988321 -0.71897069953256221
-0.51912250803546911 -0.8604963965261625 -0.44648944461527407
-2.4250227793201873 -0.31725009815509786 -1.0991770683716258
-2.7811109330697086 5.8952251080768292e-08 -1.1471226519704789
-2.4250226131730432 0.31725029194747556 -1.0991770351750603
1.0324208154150707 1.17775788649897 -0.71897068812817011
0.51912248465849054 0.86049653225636469 -0.44648948695115109
0.51469785281326352 1.40047054357 -0.68082206645165755
2.7811107537393323 0 -1.1471226517084077
2.4250226084703073 -0.31725016124583227 -1.099177030200174
2.4250226131603991 0.31725029195203192 -1.0991770351722288
1.0324208154150707 -1.17775788649897 -0.71897068812817011
0.51469788011998396 -1.4004704134305115 -0.68082201199047532
0.51912250803848714 -0.86049639652433996 -0.44648944461526519
-0.86076545169694185 -3.7790661480783747 0.25775804887872589
-1.1780596517299582 -3.5829329924663611 0.51647936543615813
-1.4008487776434766 -3.6144820363208581 0.25553531701172005
1.4008485479668309 -3.6144820442520018 0.25553560260064501
1.1780595003048564 -3.5829330209648997 0.51647940289436356
0.86076524686740008 -3.7790662390873209 0.25775788649724163
0.31727809707519583 -3.0507309520786823 1.1108899785651847
-7.2781933369014951e-08 -2.7483552843783698 1.1462945340566364
-0.31727829815837083 -3.0507311443307508 1.1108899202880735
-1.1780596071261282 -3.5829331069183539 -0.51647918920689051
-0.8607653941877853 -3.7790662147513387 -0.25775785208787383
-1.4008487776447769 -3.6144820363248549 -0.25553531699578258
0 -2.7483554796679126 -1.1462945384012038
0.31727816630218264 -3.0507311434251658 -1.1108899242540762
-0.31727829816080444 -3.0507311443483296 -1.1108899202831886
1.1780596071261282 -3.5829331069183539 -0.51647918920689051
1.4008486354817418 -3.6144820774233981 -0.25553536580420833
0.86076524686884603 -3.7790662390943996 -0.25775788647973918
-1.1780596071261282 3.5829331069183539 0.51647918920689051
-0.86076539418778708 3.7790662147513387 0.25775785208787383
-1.4008487776447769 3.6144820363248549 0.25553531699578258
0 2.7483554796679126 1.1462945384012038
0.31727816630218264 3.0507311434251658 1.1108899242540762
-0.31727829816080444 3.0507311443483296 1.1108899202831886
1.1780596071261282 3.5829331069183539 0.51647918920689051
1.4008486354817418 3.6144820774233981 0.25553536580420833
0.86076524686884426 3.7790662390943996 0.25775788647973918
-0.86076545169694363 3.7790661480783747 -0.25775804887872589
-1.1780596517299582 3.5829329924663611 -0.51647936543615813
-1.4008487776434766 3.6144820363208581 -0.25553531701172005
1.4008485479676995 3.6144820442542578 -0.25553560260128272
1.1780595003055438 3.5829330209669923 -0.51647940289554839
0.86076524686793832 3.7790662390896763 -0.25775788649788112
0.31727809707526156 3.0507309520793413 -1.1108899785675952
-7.278193514537179e-08 2.7483552843783698 -1.1462945340566364
-0.31727829815837083 3.0507311443307508 -1.1108899202880735
-2.0182566404365563 -3.0636308859471342 0.67799720734909741
-2.5316689216510238 -2.7463449318567186 0.57959254748266531
-2.233862575031285 -3.099630715103169 0.4154724939738994
-0.83287283464025919 -2.2334728864906044 1.0819403283847357
-1.3533913430645015 -2.0179375206488182 1.0949636704834411
-1.1573773593409165 -2.5313818462472746 1.1471457813689376
-2.74611598834937 -1.15741365383432 1.1307912576219543
-3.0994530427478058 -0.83297252902369578 1.0593636674245559
-3.063540644088345 -1.3535661791519402 0.98269275665445299
2.5316688038898256 -2.7463449824931896 0.57959261652941585
2.0182565112052409 -3.063630922419037 0.67799726214762046
2.2338625750267518 -3.0996307151002842 0.41547249397914676
3.0994528908521648 -0.83297260806806861 1.0593637228004038
2.7461158289241538 -1.157413732536396 1.1307912792748418
3.0635406440761006 -1.3535661791456928 0.98269275666017641
1.3533911933979006 -2.0179375437940106 1.0949636544991357
0.83287268886008903 -2.233472919326644 1.0819403225344235
1.1573773593408117 -2.5313818462438249 1.1471457813664472
-2.74611598834937 1.15741365383432 1.1307912576219543
-3.0635406305478021 1.3535660247228183 0.9826928038855911
-3.0994530223313923 0.83297237076289221 1.0593636944540048
-0.83287283464025919 2.2334728864906044 1.081940328384734
-1.1573773703082662 2.5313816889030143 1.1471457817792388
-1.3533913604495122 2.0179373689166802 1.0949636422358786
-2.0182566404365563 3.0636308859471342 0.67799720734909563
-2.2338626110404647 3.0996305937251698 0.41547267295600498
-2.5316689402140913 2.7463447849006233 0.57959270283983955
3.0635404777012312 1.3535659466122869 0.98269291216958443
2.7461158091672253 1.1574135645344299 1.1307912948652241
3.0994530223166592 0.83297237075889008 1.0593636944607319
2.2338625358414923 3.0996305192573779 0.41547291421874455
2.0182565336782279 3.0636307696295901 0.67799741680608783
2.5316689402087427 2.7463447848936386 0.57959270285407705
1.1573772414954497 2.5313815542814595 1.1471457819121404
0.83287270701363347 2.2334727597433783 1.0819402842532178
1.3533913604491996 2.0179373689051481 1.0949636422335054
-2.74611598834937 -1.1574136538343218 -1.1307912576219543
-3.0635406305478021 -1.3535660247228183 -0.9826928038855911
-3.0994530223313923 -0.83297237076289399 -1.0593636944540048
-0.83287283464025919 -2.2334728864906044 -1.081940328384734
-1.1573773703082662 -2.5313816889030143 -1.1471457817792388
-1.3533913604495122 -2.0179373689166802 -1.0949636422358786
-2.0182566404365563 -3.0636308859471342 -0.67799720734909563
-2.2338626110404647 -3.0996305937251698 -0.41547267295600498
-2.5316689402140913 -2.7463447849006233 -0.57959270283983955
3.0635404777012312 -1.3535659466122851 -0.98269291216958443
2.7461158091672253 -1.1574135645344299 -1.1307912948652241
3.0994530223166592 -0.83297237075889008 -1.0593636944607319
2.2338625358414923 -3.0996305192573779 -0.41547291421874455
2.0182565336782279 -3.0636307696295901 -0.67799741680608783
2.5316689402087427 -2.7463447848936386 -0.57959270285407705
1.1573772414954497 -2.5313815542814595 -1.1471457819121404
0.83287270701363347 -2.2334727597433783 -1.0819402842532178
1.3533913604491996 -2.0179373689051481 -1.0949636422335054
-3.0635404777012312 1.3535659466122851 -0.98269291216958443
-2.7461158091672253 1.1574135645344299 -1.1307912948652241
-3.0994530223166592 0.8329723707588883 -1.0593636944607319
-2.2338625358414923 3.0996305192573779 -0.41547291421874633
-2.0182565336782279 3.0636307696295901 -0.6779974168060896
-2.5316689402087427 2.7463447848936386 -0.57959270285407882
-1.1573772414954497 2.5313815542814595 -1.1471457819121404
-0.83287270701363347 2.2334727597433783 -1.0819402842532178
-1.3533913604492014 2.0179373689051481 -1.0949636422335054
2.74611598834937 1.15741365383432 -1.1307912576219543
3.0635406305478021 1.3535660247228183 -0.9826928038855911
3.0994530223313923 0.83297237076289221 -1.0593636944540048
0.83287283464025919 2.2334728864906044 -1.0819403283847357
1.1573773703082662 2.5313816889030143 -1.1471457817792388
1.3533913604495122 2.0179373689166802 -1.0949636422358786
2.0182566404365563 3.0636308859471342 -0.67799720734909741
2.2338626110404647 3.0996305937251698 -0.41547267295600676
2.5316689402140913 2.7463447849006233 -0.57959270283983955
-3.862351330400223 -0.52037482674973035 -0.15925559766172626
-3.8623512923441616 -0.52037482103072641 0.15925585338768578
-3.4842490970453497 -1.510174385761518 -0.4661918872701154
-3.2855026950025863 -2.0305487818200678 -0.30405732578516442
-3.2855027184486278 -2.0305486689890007 0.30405744819736924
-3.4842490968714195 -1.5101742594354164 0.46619199465176386
-3.2855027184449224 2.03054866899123 0.30405744820371261
-3.4842490968684316 1.5101742594339118 0.46619199465880357
-3.2855027184537953 2.0305486689928713 -0.30405744817703528
-3.4842490968811859 1.5101742594381875 -0.46619199463057903
-3.8623513304007098 0.52037482675370761 -0.15925559765494235
-3.8623512923449592 0.52037482103081167 0.15925585338236381
3.2855027184428849 -2.0305486689899901 0.30405744820296121
3.4842490968663604 -1.5101742594330041 0.46619199465773242
3.2855027184537953 -2.0305486689928713 -0.30405744817703528
3.4842490968811859 -1.5101742594381875 -0.46619199463057726
3.8623513304005268 -0.52037482675312674 -0.15925559765666364
3.8623512923426908 -0.52037482103106747 0.15925585338027126
3.8623513304000419 0.52037482674914948 -0.15925559766344755
3.8623512923443428 0.52037482103131616 0.15925585338596449
3.4842490970453497 1.510174385761518 -0.4661918872701154
3.2855026950025863 2.0305487818200678 -0.3040573257851662
3.2855027184486278 2.0305486689890007 0.30405744819736746
3.4842490968714195 1.5101742594354164 0.46619199465176209
-0.520195841442602 0.3215048273371881 0.30359619419651729
-0.52019583651325618 -0.32150495544672708 0.30359620979615265
-1.5098108807424371 0.93311726470528633 0.82558306258612646
-2.0301263006355548 0.61160537370577828 0.98679039585005235
-2.0301261881421944 -0.61160543352426799 0.98679036055082747
-1.5098107688733773 -0.933117327426217 0.825583032818896
2.0301261881428569 -0.61160543352434438 0.98679036054839919
1.5098107688753029 -0.93311732742503928 0.82558303281662582
2.0301261881411179 0.61160543352630192 0.98679036055065694
1.5098107688738445 0.93311732742826159 0.82558303281957812
0.5201958414403034 0.32150482733847419 0.30359619419615314
0.52019583651370915 -0.32150495544726709 0.30359620979374036
-0.520195841442602 -0.3215048273371881 -0.30359619419651729
-0.52019583651325618 0.32150495544672708 -0.30359620979615265
-1.5098108807424371 -0.93311726470528633 -0.82558306258612646
-2.0301263006355548 -0.61160537370577828 -0.98679039585005235
-2.0301261881421944 0.61160543352426799 -0.98679036055082747
-1.5098107688733773 0.933117327426217 -0.82558303281889778
2.0301261881419848 0.61160543352407615 -0.986790360550728
1.5098107688743934 0.93311732742449216 -0.82558303281888712
2.0301261881411179 -0.61160543352630192 -0.98679036055065694
1.5098107688738445 -0.93311732742826159 -0.82558303281957812
0.52019584144030162 -0.32150482733847419 -0.30359619419615314
0.52019583651314782 0.3215049554469509 -0.3035962097961562
0.3216048703054657 -3.8623429362063586 0.25830385809893741
-0.32160500043594453 -3.8623429280961954 0.25830385119020249
0.9333215326236548 -3.4841967975218076 0.75510419943052298
0.61170880830715468 -3.2853618567825968 0.98747724571906481
-0.61170889788803429 -3.285362003057994 0.98747714229350159
-0.93332161266370761 -3.4841969101538375 0.75510405414584447
-0.61170889789034177 -3.2853620030493982 -0.98747714229867789
-0.93332161266825509 -3.4841969101568271 -0.75510405414129345
0.61170889788604832 -3.2853620030573296 -0.98747714229416061
0.93332161266516067 -3.4841969101602572 -0.75510405413844595
0.32160487030315998 -3.8623429362057475 -0.25830385811151046
-0.3216050004334754 -3.8623429280950106 -0.25830385119530952
-0.61170889789034177 3.2853620030493982 0.98747714229867789
-0.93332161266825509 3.4841969101568271 0.75510405414129345
0.61170889788604832 3.2853620030573296 0.98747714229416061
0.93332161266516067 3.4841969101602572 0.75510405413844595
0.32160487030315998 3.8623429362057475 0.25830385811151046
-0.3216050004334754 3.8623429280950106 0.25830385119530952
0.32160487030564866 3.8623429362087656 -0.25830385809958578
-0.32160500043594453 3.8623429280961954 -0.25830385119020249
0.93332153262412909 3.4841967975236141 -0.75510419943218565
0.61170880830740337 3.2853618567839291 -0.98747724572116624
-0.61170889788803429 3.285362003057994 -0.98747714229350159
-0.93332161266370761 3.4841969101538375 -0.75510405414584447
-1.4536135667013852 -2.7649344089044465 1.0933547823203913
-1.7752624032699327 -2.9637934604472491 0.90490334848659337
-1.8315018514293158 -1.7750466706056542 1.1229168983690325
-2.3518622300543885 -1.4535312447681452 1.1468257762363177
-2.9638057140525227 -1.8317357209021186 0.87978215253725622
-2.7650804558543101 -2.352115502422107 0.72750612720295393
2.9638057140550362 -1.8317357209008431 0.879782152532675
2.7650804558553563 -2.3521155024228957 0.72750612719750762
2.3518620935665311 -1.4535312845172879 1.1468257747217887
1.8315017206866244 -1.7750467172124758 1.1229168880542257
1.4536135667036127 -2.7649344089040433 1.0933547823174941
1.7752624032674618 -2.9637934604447107 0.9049033484861333
-1.8315018514070029 1.7750466705888357 1.1229168983644549
-2.3518622300488357 1.4535312447555224 1.146825776236156
-1.453613566694516 2.7649344088939554 1.0933547823248073
-1.775262403270963 2.9637934604419627 0.90490334848975884
-2.7650804595161578 2.3521153723557582 0.7275062236917833
-2.9638057042694523 1.8317355785655387 0.87978222583774723
2.7650804595241958 2.3521153723614319 0.72750622368010376
2.9638057042717936 1.8317355785614371 0.87978222583792132
1.7752622969875826 2.9637933421676248 0.90490347188820941
1.4536134416272599 2.7649342654835785 1.0933548478638073
1.831501851419107 1.7750466705984262 1.1229168983669915
2.351862230043686 1.453531244763699 1.1468257762361471
-1.8315018514070029 -1.7750466705888357 -1.1229168983644549
-2.3518622300488357 -1.4535312447555224 -1.146825776236156
-1.453613566694516 -2.7649344088939554 -1.0933547823248073
-1.775262403270963 -2.9637934604419627 -0.90490334848975884
-2.7650804595161578 -2.3521153723557582 -0.7275062236917833
-2.9638057042694523 -1.8317355785655405 -0.87978222583774723
2.7650804595241958 -2.3521153723614319 -0.72750622368010376
2.9638057042717936 -1.8317355785614353 -0.87978222583792132
1.7752622969875826 -2.9637933421676248 -0.90490347188820941
1.4536134416272599 -2.7649342654835785 -1.0933548478638073
1.831501851419107 -1.7750466705984245 -1.1229168983669915
2.351862230043686 -1.453531244763699 -1.1468257762361471
-2.7650804595241958 2.3521153723614319 -0.72750622368010376
-2.9638057042717936 1.8317355785614353 -0.87978222583792309
-1.7752622969875826 2.9637933421676248 -0.90490347188820941
-1.4536134416272599 2.7649342654835785 -1.0933548478638073
-1.831501851419107 1.7750466705984245 -1.1229168983669915
-2.351862230043686 1.4535312447636972 -1.1468257762361471
1.8315018514070029 1.7750466705888357 -1.1229168983644549
2.3518622300488357 1.4535312447555224 -1.146825776236156
1.453613566694516 2.7649344088939554 -1.0933547823248073
1.775262403270963 2.9637934604419627 -0.90490334848975884
2.7650804595161578 2.3521153723557582 -0.7275062236917833
2.9638057042694523 1.8317355785655387 -0.87978222583774723
-3.5781804331716955 0 0.78752615492469502
-3.3821674609219912 -0.51303562356051202 0.9319748871201039
-3.873096830667123 -3.0855318300382351e-12 0.26785352708976262
-3.3000424602058285 -1.5000861333739905 0.73381759837421434
-3.8730968306801241 0 -0.26785352704420973
-3.5781804331873595 -3.4088287748090806e-12 -0.78752615490838096
-3.3821674609393533 -0.51303562356529042 -0.93197488710693044
-3.3000424602105216 -1.5000861333719353 -0.7338175983701376
-2.9666820125789872 -2.3729698931879497 0.46304607578673185
-2.9666820125868174 -2.3729698931940177 -0.46304607576587919
-2.4074629507787293 -3.0652172048622379 -0.15701150731853453
-2.4074629262144249 -3.06521717421845 0.15701176642785697
-3.3821674609198258 0.51303562355963805 0.93197488712177723
-3.3000424602042688 1.5000861333681517 0.73381759837873339
-2.9666820125758981 2.3729698931836634 0.46304607579745571
-2.40746295077874 3.0652172048613604 0.15701150732307134
-2.4074629262164109 3.0652171742117869 -0.15701176645454318
-2.9666820125828188 2.3729698931894561 -0.46304607577845935
-3.3000424601954954 1.5000861333633058 -0.73381759839056748
-3.3821674609328767 0.51303562356300247 -0.93197488711189713
3.3821675698033591 -0.51303552226990767 0.93197481820762462
3.5781805207824195 1.025679861044182e-07 0.78752606364503208
3.3000424602078624 -1.5000861333710986 0.73381759836954252
3.873096830667123 3.0837554731988348e-12 0.26785352708976262
2.966682012574438 -2.3729698931878289 0.46304607578851531
2.4074629507777772 -3.0652172048616038 0.15701150730898306
2.4074629262164109 -3.0652171742117869 -0.15701176645454318
2.9666820125828188 -2.3729698931894561 -0.46304607577845935
3.8730968306801241 0 -0.26785352704420973
3.3000424601954954 -1.5000861333633058 -0.73381759839056748
3.3821675698222649 -0.51303552226921845 -0.9319748181969949
3.5781805207980106 1.0257144111847083e-07 -0.78752606362878375
3.3821674609221652 0.51303562355979437 0.93197488712005416
3.3000424601917153 1.5000861333654143 0.73381759839362992
3.3821674609416927 0.51303562356544496 -0.9319748871052056
3.3000424602105216 1.5000861333719353 -0.7338175983701376
2.9666820125758981 2.3729698931836634 0.46304607579745571
2.9666820125868174 2.3729698931940177 -0.46304607576588097
2.4074629507787293 3.0652172048622379 -0.15701150731853453
2.4074629262120339 3.065217174213906 0.15701176646115478
1.7763568394002505e-15 -1.5769007245846698 0.72447857590588072
-0.5129448368347429 -1.8939736162402401 0.9166776713972471
2.2648549702353193e-12 -0.5392718682520794 0.28385924343756308
-1.4997973522176515 -1.4662692854239339 0.97717545358232094
0 0.53927186826105356 0.28385924344083868
3.1654678878112463e-12 1.5769007245875937 0.7244785759073018
-0.51294483683291858 1.8939736162425529 0.91667767139802692
-1.4997973522167065 1.4662692854244881 0.97717545358220903
-2.3726107422930607 -0.92698070901532326 1.1222884246011819
-2.3726107422986171 0.92698070901993468 1.1222884246022833
-3.0649751114749897 0.3170641027914094 1.1068563989959568
-3.0649751121305577 -0.31706423497296043 1.106856394147103
0.51294483683522074 -1.8939736162406824 0.91667767139475842
1.4997973522166888 -1.4662692854192603 0.97717545357802749
2.3726107422831912 -0.92698070900742024 1.1222884245967073
3.0649751114658041 -0.31706410279125485 1.1068563989962072
3.0649751121194875 0.31706423496681779 1.106856394150773
2.3726107422788214 0.92698070900928364 1.122288424598672
1.4997973522181951 1.4662692854215624 0.97717545358180402
0.51294483683010483 1.8939736162375347 0.91667767139561462
0 1.5769007245846698 -0.72447857590588072
-0.51294483683053649 1.8939736162365541 -0.91667767139524692
2.2648549702353193e-12 0.53927186825183782 -0.28385924343853297
-1.4997973522179677 1.4662692854214896 -0.97717545358171876
0 -0.53927186826105356 -0.28385924344083868
3.1654678878112463e-12 -1.5769007245875937 -0.7244785759073018
-0.51294483683292036 -1.8939736162425529 -0.91667767139802692
-1.4997973522167065 -1.4662692854244881 -0.97717545358220903
-2.3726107422791909 0.92698070900843099 -1.1222884245986826
-2.3726107422986171 -0.92698070901993468 -1.1222884246022833
-3.0649751114749915 -0.3170641027914094 -1.1068563989959568
-3.06497511212973 0.31706423497024439 -1.1068563941474565
0.5129448368347429 1.8939736162402401 -0.9166776713972471
1.4997973522181933 1.4662692854215624 -0.97717545358180402
2.3726107422930607 0.92698070901532326 -1.1222884246011819
3.0649751114648467 0.31706410278812847 -1.1068563989992359
3.0649751121260422 -0.31706423496906133 -1.1068563941486484
2.3726107422788214 -0.92698070900928364 -1.122288424598672
1.4997973522181933 -1.4662692854215624 -0.97717545358180402
0.51294483683010483 -1.8939736162375347 -0.91667767139561462
-1.5773249890576242 -3.5782755604396463 1.7763568394002505e-15
-1.8944051899962844 -3.3822967061060663 0.25463842140462667
-0.53946470993763285 -3.8731108979986431 1.389999226830696e-11
-1.4665560962379214 -3.300042253065449 0.75019836499956227
0.53946470992864803 -3.8731108979999416 1.7763568394002505e-15
1.5773249890490852 -3.5782755604423997 1.8250290167998173e-11
1.8944051899937584 -3.3822967061036877 0.25463842140762161
1.466556096230768 -3.3000422530612106 0.75019836500370118
-0.92705170145126914 -2.9664707745508938 1.0986334933944981
0.92705170144865434 -2.9664707745319507 1.0986334933976867
0.3170336922344692 -2.4070336383912991 1.0944404127600862
-0.3170338231816956 -2.4070336424364456 1.094440417519138
-1.8944051900012582 -3.3822967061019487 -0.25463842140928428
-1.4665560962372162 -3.3000422530730216 -0.75019836499174097
-0.92705170145172922 -2.966470774543339 -1.0986334933966742
-0.31703369222953981 -2.4070336384006232 -1.0944404127649729
0.31703382317790485 -2.4070336424419416 -1.0944404175204703
0.92705170144607685 -2.9664707745271475 -1.0986334934019482
1.4665560962324182 -3.3000422530635998 -0.75019836500419856
1.894405189994389 -3.3822967060994813 -0.25463842143174986
-1.894405145339741 3.3822967886235382 0.25463821795295161
-1.5773249200827131 3.5782755914939184 -2.1310988884692961e-07
-1.4665560962372179 3.3000422530730216 0.75019836499174097
-0.53946470993763285 3.8731108979986431 -1.389999226830696e-11
-0.92705170145172922 2.966470774543339 1.0986334933966742
-0.31703369222953981 2.4070336384006232 1.0944404127649729
0.31703382317790485 2.4070336424419416 1.0944404175204703
0.92705170144607685 2.9664707745271475 1.0986334934019482
0.53946470992864803 3.8731108979999416 0
1.4665560962324182 3.3000422530635998 0.75019836500419856
1.8944051453328576 3.3822967886210815 0.25463821797544384
1.5773249200745951 3.5782755914975706 -2.1312815512430916e-07
-1.8944051899983929 3.3822967060945501 -0.25463842144122317
-1.4665560962331234 3.3000422530560289 -0.75019836501201986
1.8944051899970447 3.3822967060979394 -0.25463842143190618
1.4665560962346973 3.3000422530629834 -0.75019836500377046
-0.92705170144725457 2.9664707745277958 -1.0986334934016497
0.92705170144933291 2.9664707745250958 -1.0986334934022501
0.31703369223306943 2.4070336383912991 -1.0944404127626317
-0.31703382318125684 2.4070336424328111 -1.0944404175181734
-3.7190904872495096 -1.0279329679320455 -0.3158750920011677
-3.3264717009419265 -2.0558687187545548 3.6322944652056322e-11
-3.719090487233613 -1.0279329679246398 0.31587509205645681
-3.3264717009425766 2.0558687187534854 2.5645263690421416e-11
-3.7190904872494919 1.0279329679305871 -0.31587509200247688
-3.7190904872326627 1.0279329679239755 0.31587509205995268
3.326471700941724 -2.055868718752965 2.5647040047260816e-11
3.7190904872485007 -1.0279329679302815 -0.31587509200579156
3.7190904872313553 -1.027932967923638 0.31587509205589193
3.7190904872485167 1.0279329679317399 -0.31587509200448238
3.3264717009419265 2.0558687187545548 3.6322944652056322e-11
3.719090487234606 1.0279329679249454 0.31587509205314035
-1.0276282214664878 0.63511377918515066 0.53897574797321646
-2.0554175283565179 7.0219385861491901e-12 0.9589716161305919
-1.0276282214678201 -0.63511377917725653 0.53897574797192682
2.0554175283505227 2.6840751843337785e-12 0.9589716161281121
1.0276282214670793 0.63511377918336009 0.53897574797303527
1.0276282214713 -0.63511377917366119 0.53897574796970815
-1.0276282214664896 -0.63511377918515066 -0.53897574797321646
-2.0554175283565179 -7.0219385861491901e-12 -0.9589716161305919
-1.0276282214678218 0.63511377917725653 -0.53897574797192682
2.0554175283505227 -2.6840751843337785e-12 -0.9589716161281121
1.0276282214670793 -0.63511377918336009 -0.53897574797303527
1.0276282214704189 0.63511377917313894 -0.53897574797198899
0.63528932751823497 -3.7190639560040566 0.51407391230186228
-1.1848300118799671e-12 -3.3263086974703384 0.99721263213253586
-0.63528932752254441 -3.7190639560070604 0.51407391230036836
6.9988459472369868e-13 -3.3263086974795897 -0.99721263212678224
0.63528932751922085 -3.7190639560117766 -0.51407391229283661
-0.63528932752434564 -3.7190639560082026 -0.51407391229776778
6.9988459472369868e-13 3.3263086974795897 0.99721263212678224
0.63528932751922085 3.7190639560117766 0.51407391229283661
-0.63528932752434564 3.7190639560082026 0.51407391229776778
0.63528932751859202 3.719063956006222 -0.51407391230306132
-1.1866063687193673e-12 3.3263086974703384 -0.99721263213253586
-0.63528932752254441 3.7190639560070604 -0.51407391230036836
-1.6630400970086363 -2.2982640733905626 1.146348656164248
-2.6909786856681226 -1.6631185272800018 1.0787605430681104
-2.2984658561627249 -2.6910891098639986 0.8282550865977516
2.6909786856604043 -1.6631185272751239 1.0787605430689524
1.6630400970094605 -2.2982640733893476 1.1463486561617717
2.2984658561617017 -2.6910891098638672 0.82825508659502489
-1.6630400969863626 2.2982640733733231 1.1463486561658609
-2.2984658561539497 2.6910891098483951 0.82825508661458258
-2.6909786856461206 1.6631185272647393 1.0787605430784275
2.2984658561495319 2.6910891098449365 0.82825508661985836
1.6630400969883858 2.2982640733608566 1.1463486561663814
2.6909786856440565 1.6631185272673115 1.0787605430785696
-1.6630400969863626 -2.2982640733733231 -1.1463486561658591
-2.2984658561539497 -2.6910891098483951 -0.82825508661458258
-2.6909786856461206 -1.6631185272647393 -1.0787605430784275
2.2984658561495319 -2.6910891098449365 -0.82825508661985836
1.6630400969883858 -2.2982640733608566 -1.1463486561663814
2.6909786856440565 -1.6631185272673115 -1.0787605430785696
-2.2984658561495319 2.6910891098449365 -0.82825508661985836
-1.6630400969883858 2.2982640733608566 -1.1463486561663814
-2.6909786856440565 1.6631185272673115 -1.0787605430785696
1.6630400969863608 2.2982640733733231 -1.1463486561658609
2.2984658561539497 2.6910891098483951 -0.82825508661458258
2.6909786856461206 1.6631185272647393 -1.0787605430784275
-3.7616121381372167 -5.6488147492927965e-13 0.53465812016868419
-3.3733608785554416 -1.0162737029944982 0.84385756667004053
-3.7616121381565364 -3.730349362740526e-13 -0.53465812013517322
-3.3733608785687839 -1.0162737029948072 -0.8438575666580217
-2.7130152265846235 -2.7453427590289152 -0.31226924923356414
-2.7130152265759087 -2.7453427590222113 0.31226924926830968
-3.3733608785547382 1.01627370299299 0.84385756667106548
-2.7130152265771077 2.7453427590256538 0.31226924925777588
-2.7130152265788698 2.7453427590192536 -0.31226924926845001
-3.3733608785538571 1.0162737029926099 -0.84385756667195366
3.3733608785552889 -1.0162737029919349 0.84385756666743106
3.7616121381418939 1.5312195955630159e-12 0.53465812016057157
2.7130152265757168 -2.7453427590274426 0.31226924924843935
2.7130152265788698 -2.7453427590192536 -0.31226924926845001
3.3733608785573317 -1.0162737029922564 -0.84385756666893741
3.7616121381612153 1.3393730569077889e-12 -0.5346581201270606
3.3733608785425258 1.0162737029930842 0.84385756668196521
3.3733608785687839 1.0162737029948072 -0.84385756665802347
2.7130152265846235 2.7453427590289152 -0.31226924923356414
2.7130152265708496 2.7453427590181754 0.31226924928880528
1.9806378759312793e-12 -1.0682754269988095 0.47422410028944739
-1.0160771273830811 -1.6963319759044015 0.92371918208277748
2.1529444893531036e-12 1.068275427001101 0.47422410029151507
-1.0160771273751639 1.6963319759037496 0.92371918208080039
-2.7450241431136728 0.62803975463694606 1.1469679527602175
-2.7450241431141755 -0.62803975463567241 1.1469679527602139
1.0160771273835234 -1.6963319759011988 0.9237191820789441
2.745024143092877 -0.62803975462693451 1.1469679527588053
2.7450241430959252 0.62803975462843908 1.1469679527611483
1.0160771273795035 1.6963319758968094 0.92371918207914128
1.978861519091879e-12 1.0682754269984152 -0.47422410029036577
-1.0160771273801519 1.696331975897019 -0.92371918207936332
2.1529444893531036e-12 -1.068275427001101 -0.47422410029151507
-1.0160771273751639 -1.6963319759037496 -0.92371918208080039
-2.7450241431136728 -0.62803975463694606 -1.1469679527602175
-2.745024143102885 0.62803975462848527 -1.1469679527608321
1.0160771273792779 1.6963319759015327 -0.9237191820808679
2.7450241431019897 0.62803975463290662 -1.1469679527608054
2.7450241430959252 -0.62803975462843908 -1.1469679527611483
1.0160771273795035 -1.6963319758968094 -0.92371918207914128
-1.0686118972356891 -3.7616590461974955 1.3640644169754523e-11
-1.6967045453537093 -3.3734299723445176 0.50818083041830064
1.068611897233998 -3.7616590461969466 1.3985257396598172e-11
1.6967045453479983 -3.3734299723363002 0.50818083043199636
0.62803228545601364 -2.712675434669185 1.1471544496757833
-0.62803228545334377 -2.7126754346839981 1.1471544496784691
-1.6967045453521568 -3.3734299723455727 -0.50818083041783524
-0.62803228545120326 -2.7126754346852362 -1.1471544496784851
0.62803228545025647 -2.7126754346740558 -1.1471544496783448
1.6967045453467939 -3.3734299723391725 -0.50818083043352935
-1.6967045453563507 3.3734299723517349 0.50818083040357109
-1.0686118972339251 3.7616590461980088 -2.2930990439817833e-11
-0.62803228545120326 2.7126754346852362 1.1471544496784851
0.62803228545025647 2.7126754346740558 1.1471544496783448
1.6967045453509861 3.3734299723453347 0.50818083041926343
1.0686118972325129 3.761659046198421 -2.3273827309822082e-11
-1.6967045453483465 3.3734299723367602 -0.50818083043633422
1.6967045453493128 3.3734299723369112 -0.5081808304352311
0.62803228545315015 2.712675434666064 -1.1471544496782453
-0.62803228545017475 2.7126754346681157 -1.147154449678272
-3.9105000000025001 0 2.0271784251235658e-11
-3.1636133266359323 -1.9552204334182051 -0.60524801609047074
-3.163613326635236 -1.9552204334179386 0.60524801609160228
-3.1636133266311219 1.9552204334142971 0.60524801609994228
-3.1636133266311255 1.9552204334142989 -0.6052480160999405
3.163613326633449 -1.9552204334168355 0.60524801609024159
3.1636133266311255 -1.9552204334142989 -0.6052480160999405
3.9105000000025001 0 2.0271784251235658e-11
3.1636133266359323 1.9552204334182051 -0.60524801609047074
3.1636133266311237 1.9552204334142971 0.60524801609994228
0 4.2650327714000014e-12 0.21289902000249938
-1.954872461253224 1.2081785786200872 1.0546212634620922
-1.9548724612519841 -1.2081785786168577 1.0546212634612342
1.9548724612471204 -1.2081785786105659 1.054621263456287
1.9548724612519841 1.208178578616856 1.0546212634612342
0 -4.2650327714000014e-12 -0.21289902000249938
-1.954872461253224 -1.2081785786200872 -1.0546212634620922
-1.9548724612519841 1.208178578616856 -1.0546212634612342
1.9548724612519841 1.208178578616856 -1.0546212634612342
1.9548724612519841 -1.208178578616856 -1.0546212634612342
-2.4176216584237409e-12 -3.9105000000025001 0
1.2083586167515019 -3.1635230270235244 0.95739165938683257
-1.2083586167539302 -3.1635230270358914 0.9573916593812406
-1.2083586167539302 -3.1635230270358896 -0.9573916593812406
1.2083586167502354 -3.1635230270231851 -0.95739165939041015
-1.2083586167539302 3.1635230270358896 0.9573916593812406
1.2083586167502354 3.1635230270231851 0.95739165939041015
-2.4176216584237409e-12 3.9105000000025001 0
1.2083586167520117 3.1635230270248549 -0.95739165938888604
-1.2083586167502354 3.1635230270231851 -0.95739165939041193
-3.326303754770997 -4.6895820560166612e-13 0.99721566613697732
-3.3263037547710006 4.6718184876226587e-13 -0.99721566613697554
-2.0558715327882844 -3.3264699745565736 1.227284940341633e-11
-2.0558715327878581 3.3264699745568365 -3.3478997352176521e-11
3.3263037547814296 3.6060043839825084e-13 0.99721566613065704
2.0558715327882844 -3.3264699745565736 -1.227284940341633e-11
3.3263037547814331 -5.7553961596568115e-13 -0.99721566613065349
2.0558715327878581 3.3264699745568365 -8.9297458316650591e-12
4.2099657093785936e-13 -2.0554170156969498 0.95897140373171297
-4.1922021409845911e-13 2.0554170156969498 0.95897140373171297
4.1922021409845911e-13 2.055417015696948 -0.95897140373171297
-4.1922021409845911e-13 -2.0554170156969498 -0.95897140373171297
3 0 1 2
3 3 4 5
3 6 7 8
3 9 10 11
3 12 13 14
3 15 16 17
3 18 19 20
3 21 22 23
3 24 25 26
3 27 28 29
3 30 31 32
3 33 34 35
3 36 37 38
3 39 40 41
3 42 43 44
3 45 46 47
3 48 49 50
3 51 52 53
3 54 55 56
3 57 58 59
3 60 61 62
3 63 64 65
3 66 67 68
3 69 70 71
3 72 73 74
3 75 76 77
3 78 79 80
3 81 82 83
3 84 85 86
3 87 88 89
3 90 91 92
3 93 94 95
3 96 97 98
3 99 100 101
3 102 103 104
3 105 106 107
3 108 109 110
3 111 112 113
3 114 115 116
3 117 118 119
3 120 121 122
3 123 124 125
3 126 127 128
3 129 130 131
3 132 133 134
3 135 136 137
3 138 139 140
3 141 142 143
3 144 145 146
3 147 148 149
3 150 151 152
3 153 154 155
3 156 157 158
3 159 160 161
3 162 163 164
3 165 166 167
3 168 169 170
3 171 172 173
3 174 175 176
3 177 178 179
3 180 181 182
3 183 184 185
3 186 187 188
3 189 190 191
3 192 193 194
3 195 196 197
3 198 199 200
3 201 202 203
3 204 205 206
3 207 208 209
3 210 211 212
3 213 214 215
3 216 217 218
3 219 220 221
3 222 223 224
3 225 226 227
3 228 229 230
3 231 232 233
3 234 235 236
3 237 238 239
3 240 2 241
3 242 243 0
3 1 244 245
3 246 5 247
3 248 249 3
3 4 250 251
3 252 8 253
3 254 255 6
3 7 256 257
3 258 11 259
3 260 261 9
3 10 262 263
3 264 14 265
3 266 267 12
3 13 268 269
3 270 17 271
3 272 273 15
3 16 274 275
3 276 20 277
3 278 279 18
3 19 280 281
3 282 23 283
3 284 285 21
3 22 286 287
3 288 26 289
3 290 291 24
3 25 292 293
3 294 29 295
3 296 297 27
3 28 298 299
3 300 32 301
3 302 303 30
3 31 304 305
3 306 35 307
3 308 309 33
3 34 310 311
3 312 38 313
3 314 315 36
3 37 316 317
3 318 41 319
3 320 321 39
3 40 322 323
3 324 44 325
3 326 327 42
3 43 328 329
3 330 47 331
3 332 333 45
3 46 334 335
3 336 50 337
3 338 339 48
3 49 340 341
3 342 53 343
3 344 345 51
3 52 346 347
3 348 56 349
3 350 351 54
3 55 352 353
3 354 59 355
3 356 357 57
3 58 358 359
3 360 62 361
3 362 241 60
3 61 245 363
3 364 65 240
3 365 366 63
3 64 367 242
3 244 68 368
3 243 369 66
3 67 370 371
3 372 71 360
3 373 247 69
3 70 251 362
3 374 74 246
3 375 376 72
3 73 377 248
3 250 77 364
3 249 378 75
3 76 379 365
3 380 80 381
3 382 253 78
3 79 257 383
3 384 83 252
3 385 386 81
3 82 387 254
3 256 86 388
3 255 389 84
3 85 390 391
3 381 89 392
3 383 259 87
3 88 263 393
3 388 92 258
3 391 394 90
3 91 395 260
3 262 95 396
3 261 397 93
3 94 398 399
3 400 98 401
3 402 265 96
3 97 269 403
3 404 101 264
3 405 406 99
3 100 407 266
3 268 104 408
3 267 409 102
3 103 410 411
3 412 107 400
3 413 271 105
3 106 275 402
3 414 110 270
3 415 416 108
3 109 417 272
3 274 113 404
3 273 418 111
3 112 419 405
3 420 116 421
3 422 277 114
3 115 281 423
3 424 119 276
3 425 426 117
3 118 427 278
3 280 122 428
3 279 429 120
3 121 430 431
3 432 125 420
3 433 283 123
3 124 287 422
3 434 128 282
3 435 436 126
3 127 437 284
3 286 131 424
3 285 438 129
3 130 439 425
3 440 134 441
3 442 289 132
3 133 293 443
3 444 137 288
3 445 446 135
3 136 447 290
3 292 140 448
3 291 449 138
3 139 450 451
3 452 143 440
3 453 295 141
3 142 299 442
3 454 146 294
3 455 456 144
3 145 457 296
3 298 149 444
3 297 458 147
3 148 459 445
3 460 152 461
3 462 301 150
3 151 305 463
3 464 155 300
3 465 466 153
3 154 467 302
3 304 158 468
3 303 469 156
3 157 470 471
3 461 161 472
3 463 307 159
3 160 311 473
3 468 164 306
3 471 474 162
3 163 475 308
3 310 167 476
3 309 477 165
3 166 478 479
3 441 170 371
3 443 313 168
3 169 317 368
3 448 173 312
3 451 401 171
3 172 403 314
3 316 176 363
3 315 408 174
3 175 411 361
3 385 179 446
3 384 319 177
3 178 323 447
3 382 182 318
3 380 415 180
3 181 414 320
3 322 185 449
3 321 413 183
3 184 412 450
3 410 188 372
3 409 325 186
3 187 329 373
3 407 191 324
3 406 465 189
3 190 464 326
3 328 194 374
3 327 462 192
3 193 460 375
3 392 197 416
3 393 331 195
3 196 335 417
3 396 200 330
3 399 470 198
3 199 469 332
3 334 203 418
3 333 467 201
3 202 466 419
3 430 206 366
3 429 337 204
3 205 341 367
3 427 209 336
3 426 455 207
3 208 454 338
3 340 212 369
3 339 453 210
3 211 452 370
3 390 215 436
3 389 343 213
3 214 347 437
3 387 218 342
3 386 459 216
3 217 458 344
3 346 221 438
3 345 457 219
3 220 456 439
3 379 224 431
3 378 349 222
3 223 353 428
3 377 227 348
3 376 472 225
3 226 473 350
3 352 230 423
3 351 476 228
3 229 479 421
3 435 233 394
3 434 355 231
3 232 359 395
3 433 236 354
3 432 478 234
3 235 477 356
3 358 239 397
3 357 475 237
3 238 474 398
3 480 0 2
3 0 481 1
3 2 1 482
3 483 3 5
3 3 484 4
3 5 4 485
3 486 6 8
3 6 487 7
3 8 7 488
3 489 9 11
3 9 490 10
3 11 10 491
3 492 12 14
3 12 493 13
3 14 13 494
3 495 15 17
3 15 496 16
3 17 16 497
3 498 18 20
3 18 499 19
3 20 19 500
3 501 21 23
3 21 502 22
3 23 22 503
3 504 24 26
3 24 505 25
3 26 25 506
3 507 27 29
3 27 508 28
3 29 28 509
3 510 30 32
3 30 511 31
3 32 31 512
3 513 33 35
3 33 514 34
3 35 34 515
3 516 36 38
3 36 517 37
3 38 37 518
3 519 39 41
3 39 520 40
3 41 40 521
3 522 42 44
3 42 523 43
3 44 43 524
3 525 45 47
3 45 526 46
3 47 46 527
3 528 48 50
3 48 529 49
3 50 49 530
3 531 51 53
3 51 532 52
3 53 52 533
3 534 54 56
3 54 535 55
3 56 55 536
3 537 57 59
3 57 538 58
3 59 58 539
3 540 60 62
3 60 482 61
3 62 61 541
3 542 63 65
3 63 543 64
3 65 64 480
3 481 66 68
3 66 544 67
3 68 67 545
3 546 69 71
3 69 485 70
3 71 70 540
3 547 72 74
3 72 548 73
3 74 73 483
3 484 75 77
3 75 549 76
3 77 76 542
3 550 78 80
3 78 488 79
3 80 79 551
3 552 81 83
3 81 553 82
3 83 82 486
3 487 84 86
3 84 554 85
3 86 85 555
3 551 87 89
3 87 491 88
3 89 88 556
3 555 90 92
3 90 557 91
3 92 91 489
3 490 93 95
3 93 558 94
3 95 94 559
3 560 96 98
3 96 494 97
3 98 97 561
3 562 99 101
3 99 563 100
3 101 100 492
3 493 102 104
3 102 564 103
3 104 103 565
3 566 105 107
3 105 497 106
3 107 106 560
3 567 108 110
3 108 568 109
3 110 109 495
3 496 111 113
3 111 569 112
3 113 112 562
3 570 114 116
3 114 500 115
3 116 115 571
3 572 117 119
3 117 573 118
3 119 118 498
3 499 120 122
3 120 574 121
3 122 121 575
3 576 123 125
3 123 503 124
3 125 124 570
3 577 126 128
3 126 578 127
3 128 127 501
3 502 129 131
3 129 579 130
3 131 130 572
3 580 132 134
3 132 506 133
3 134 133 581
3 582 135 137
3 135 583 136
3 137 136 504
3 505 138 140
3 138 584 139
3 140 139 585
3 586 141 143
3 141 509 142
3 143 142 580
3 587 144 146
3 144 588 145
3 146 145 507
3 508 147 149
3 147 589 148
3 149 148 582
3 590 150 152
3 150 512 151
3 152 151 591
3 592 153 155
3 153 593 154
3 155 154 510
3 511 156 158
3 156 594 157
3 158 157 595
3 591 159 161
3 159 515 160
3 161 160 596
3 595 162 164
3 162 597 163
3 164 163 513
3 514 165 167
3 165 598 166
3 167 166 599
3 581 168 170
3 168 518 169
3 170 169 545
3 585 171 173
3 171 561 172
3 173 172 516
3 517 174 176
3 174 565 175
3 176 175 541
3 552 177 179
3 177 521 178
3 179 178 583
3 550 180 182
3 180 567 181
3 182 181 519
3 520 183 185
3 183 566 184
3 185 184 584
3 564 186 188
3 186 524 187
3 188 187 546
3 563 189 191
3 189 592 190
3 191 190 522
3 523 192 194
3 192 590 193
3 194 193 547
3 556 195 197
3 195 527 196
3 197 196 568
3 559 198 200
3 198 594 199
3 200 199 525
3 526 201 203
3 201 593 202
3 203 202 569
3 574 204 206
3 204 530 205
3 206 205 543
3 573 207 209
3 207 587 208
3 209 208 528
3 529 210 212
3 210 586 211
3 212 211 544
3 554 213 215
3 213 533 214
3 215 214 578
3 553 216 218
3 216 589 217
3 218 217 531
3 532 219 221
3 219 588 220
3 221 220 579
3 549 222 224
3 222 536 223
3 224 223 575
3 548 225 227
3 225 596 226
3 227 226 534
3 535 228 230
3 228 599 229
3 230 229 571
3 577 231 233
3 231 539 232
3 233 232 557
3 576 234 236
3 234 598 235
3 236 235 537
3 538 237 239
3 237 597 238
3 239 238 558
3 600 240 241
3 240 480 2
3 241 2 482
3 480 242 0
3 242 601 243
3 0 243 481
3 482 1 245
3 1 481 244
3 245 244 602
3 603 246 247
3 246 483 5
3 247 5 485
3 483 248 3
3 248 604 249
3 3 249 484
3 485 4 251
3 4 484 250
3 251 250 600
3 605 252 253
3 252 486 8
3 253 8 488
3 486 254 6
3 254 606 255
3 6 255 487
3 488 7 257
3 7 487 256
3 257 256 607
3 607 258 259
3 258 489 11
3 259 11 491
3 489 260 9
3 260 608 261
3 9 261 490
3 491 10 263
3 10 490 262
3 263 262 609
3 610 264 265
3 264 492 14
3 265 14 494
3 492 266 12
3 266 611 267
3 12 267 493
3 494 13 269
3 13 493 268
3 269 268 612
3 613 270 271
3 270 495 17
3 271 17 497
3 495 272 15
3 272 614 273
3 15 273 496
3 497 16 275
3 16 496 274
3 275 274 610
3 615 276 277
3 276 498 20
3 277 20 500
3 498 278 18
3 278 616 279
3 18 279 499
3 500 19 281
3 19 499 280
3 281 280 617
3 618 282 283
3 282 501 23
3 283 23 503
3 501 284 21
3 284 619 285
3 21 285 502
3 503 22 287
3 22 502 286
3 287 286 615
3 620 288 289
3 288 504 26
3 289 26 506
3 504 290 24
3 290 621 291
3 24 291 505
3 506 25 293
3 25 505 292
3 293 292 622
3 623 294 295
3 294 507 29
3 295 29 509
3 507 296 27
3 296 624 297
3 27 297 508
3 509 28 299
3 28 508 298
3 299 298 620
3 625 300 301
3 300 510 32
3 301 32 512
3 510 302 30
3 302 626 303
3 30 303 511
3 512 31 305
3 31 511 304
3 305 304 627
3 627 306 307
3 306 513 35
3 307 35 515
3 513 308 33
3 308 628 309
3 33 309 514
3 515 34 311
3 34 514 310
3 311 310 629
3 622 312 313
3 312 516 38
3 313 38 518
3 516 314 36
3 314 612 315
3 36 315 517
3 518 37 317
3 37 517 316
3 317 316 602
3 605 318 319
3 318 519 41
3 319 41 521
3 519 320 39
3 320 613 321
3 39 321 520
3 521 40 323
3 40 520 322
3 323 322 621
3 611 324 325
3 324 522 44
3 325 44 524
3 522 326 42
3 326 625 327
3 42 327 523
3 524 43 329
3 43 523 328
3 329 328 603
3 609 330 331
3 330 525 47
3 331 47 527
3 525 332 45
3 332 626 333
3 45 333 526
3 527 46 335
3 46 526 334
3 335 334 614
3 616 336 337
3 336 528 50
3 337 50 530
3 528 338 48
3 338 623 339
3 48 339 529
3 530 49 341
3 49 529 340
3 341 340 601
3 606 342 343
3 342 531 53
3 343 53 533
3 531 344 51
3 344 624 345
3 51 345 532
3 533 52 347
3 52 532 346
3 347 346 619
3 604 348 349
3 348 534 56
3 349 56 536
3 534 350 54
3 350 629 351
3 54 351 535
3 536 55 353
3 55 535 352
3 353 352 617
3 618 354 355
3 354 537 59
3 355 59 539
3 537 356 57
3 356 628 357
3 57 357 538
3 539 58 359
3 58 538 358
3 359 358 608
3 630 360 361
3 360 540 62
3 361 62 541
3 540 362 60
3 362 600 241
3 60 241 482
3 541 61 363
3 61 482 245
3 363 245 602
3 600 364 240
3 364 542 65
3 240 65 480
3 542 365 63
3 365 631 366
3 63 366 543
3 480 64 242
3 64 543 367
3 242 367 601
3 602 244 368
3 244 481 68
3 368 68 545
3 481 243 66
3 243 601 369
3 66 369 544
3 545 67 371
3 67 544 370
3 371 370 632
3 630 372 360
3 372 546 71
3 360 71 540
3 546 373 69
3 373 603 247
3 69 247 485
3 540 70 362
3 70 485 251
3 362 251 600
3 603 374 246
3 374 547 74
3 246 74 483
3 547 375 72
3 375 633 376
3 72 376 548
3 483 73 248
3 73 548 377
3 248 377 604
3 600 250 364
3 250 484 77
3 364 77 542
3 484 249 75
3 249 604 378
3 75 378 549
3 542 76 365
3 76 549 379
3 365 379 631
3 634 380 381
3 380 550 80
3 381 80 551
3 550 382 78
3 382 605 253
3 78 253 488
3 551 79 383
3 79 488 257
3 383 257 607
3 605 384 252
3 384 552 83
3 252 83 486
3 552 385 81
3 385 635 386
3 81 386 553
3 486 82 254
3 82 553 387
3 254 387 606
3 607 256 388
3 256 487 86
3 388 86 555
3 487 255 84
3 255 606 389
3 84 389 554
3 555 85 391
3 85 554 390
3 391 390 636
3 634 381 392
3 381 551 89
3 392 89 556
3 551 383 87
3 383 607 259
3 87 259 491
3 556 88 393
3 88 491 263
3 393 263 609
3 607 388 258
3 388 555 92
3 258 92 489
3 555 391 90
3 391 636 394
3 90 394 557
3 489 91 260
3 91 557 395
3 260 395 608
3 609 262 396
3 262 490 95
3 396 95 559
3 490 261 93
3 261 608 397
3 93 397 558
3 559 94 399
3 94 558 398
3 399 398 637
3 638 400 401
3 400 560 98
3 401 98 561
3 560 402 96
3 402 610 265
3 96 265 494
3 561 97 403
3 97 494 269
3 403 269 612
3 610 404 264
3 404 562 101
3 264 101 492
3 562 405 99
3 405 639 406
3 99 406 563
3 492 100 266
3 100 563 407
3 266 407 611
3 612 268 408
3 268 493 104
3 408 104 565
3 493 267 102
3 267 611 409
3 102 409 564
3 565 103 411
3 103 564 410
3 411 410 630
3 638 412 400
3 412 566 107
3 400 107 560
3 566 413 105
3 413 613 271
3 105 271 497
3 560 106 402
3 106 497 275
3 402 275 610
3 613 414 270
3 414 567 110
3 270 110 495
3 567 415 108
3 415 634 416
3 108 416 568
3 495 109 272
3 109 568 417
3 272 417 614
3 610 274 404
3 274 496 113
3 404 113 562
3 496 273 111
3 273 614 418
3 111 418 569
3 562 112 405
3 112 569 419
3 405 419 639
3 640 420 421
3 420 570 116
3 421 116 571
3 570 422 114
3 422 615 277
3 114 277 500
3 571 115 423
3 115 500 281
3 423 281 617
3 615 424 276
3 424 572 119
3 276 119 498
3 572 425 117
3 425 641 426
3 117 426 573
3 498 118 278
3 118 573 427
3 278 427 616
3 617 280 428
3 280 499 122
3 428 122 575
3 499 279 120
3 279 616 429
3 120 429 574
3 575 121 431
3 121 574 430
3 431 430 631
3 640 432 420
3 432 576 125
3 420 125 570
3 576 433 123
3 433 618 283
3 123 283 503
3 570 124 422
3 124 503 287
3 422 287 615
3 618 434 282
3 434 577 128
3 282 128 501
3 577 435 126
3 435 636 436
3 126 436 578
3 501 127 284
3 127 578 437
3 284 437 619
3 615 286 424
3 286 502 131
3 424 131 572
3 502 285 129
3 285 619 438
3 129 438 579
3 572 130 425
3 130 579 439
3 425 439 641
3 632 440 441
3 440 580 134
3 441 134 581
3 580 442 132
3 442 620 289
3 132 289 506
3 581 133 443
3 133 506 293
3 443 293 622
3 620 444 288
3 444 582 137
3 288 137 504
3 582 445 135
3 445 635 446
3 135 446 583
3 504 136 290
3 136 583 447
3 290 447 621
3 622 292 448
3 292 505 140
3 448 140 585
3 505 291 138
3 291 621 449
3 138 449 584
3 585 139 451
3 139 584 450
3 451 450 638
3 632 452 440
3 452 586 143
3 440 143 580
3 586 453 141
3 453 623 295
3 141 295 509
3 580 142 442
3 142 509 299
3 442 299 620
3 623 454 294
3 454 587 146
3 294 146 507
3 587 455 144
3 455 641 456
3 144 456 588
3 507 145 296
3 145 588 457
3 296 457 624
3 620 298 444
3 298 508 149
3 444 149 582
3 508 297 147
3 297 624 458
3 147 458 589
3 582 148 445
3 148 589 459
3 445 459 635
3 633 460 461
3 460 590 152
3 461 152 591
3 590 462 150
3 462 625 301
3 150 301 512
3 591 151 463
3 151 512 305
3 463 305 627
3 625 464 300
3 464 592 155
3 300 155 510
3 592 465 153
3 465 639 466
3 153 466 593
3 510 154 302
3 154 593 467
3 302 467 626
3 627 304 468
3 304 511 158
3 468 158 595
3 511 303 156
3 303 626 469
3 156 469 594
3 595 157 471
3 157 594 470
3 471 470 637
3 633 461 472
3 461 591 161
3 472 161 596
3 591 463 159
3 463 627 307
3 159 307 515
3 596 160 473
3 160 515 311
3 473 311 629
3 627 468 306
3 468 595 164
3 306 164 513
3 595 471 162
3 471 637 474
3 162 474 597
3 513 163 308
3 163 597 475
3 308 475 628
3 629 310 476
3 310 514 167
3 476 167 599
3 514 309 165
3 309 628 477
3 165 477 598
3 599 166 479
3 166 598 478
3 479 478 640
3 632 441 371
3 441 581 170
3 371 170 545
3 581 443 168
3 443 622 313
3 168 313 518
3 545 169 368
3 169 518 317
3 368 317 602
3 622 448 312
3 448 585 173
3 312 173 516
3 585 451 171
3 451 638 401
3 171 401 561
3 516 172 314
3 172 561 403
3 314 403 612
3 602 316 363
3 316 517 176
3 363 176 541
3 517 315 174
3 315 612 408
3 174 408 565
3 541 175 361
3 175 565 411
3 361 411 630
3 635 385 446
3 385 552 179
3 446 179 583
3 552 384 177
3 384 605 319
3 177 319 521
3 583 178 447
3 178 521 323
3 447 323 621
3 605 382 318
3 382 550 182
3 318 182 519
3 550 380 180
3 380 634 415
3 180 415 567
3 519 181 320
3 181 567 414
3 320 414 613
3 621 322 449
3 322 520 185
3 449 185 584
3 520 321 183
3 321 613 413
3 183 413 566
3 584 184 450
3 184 566 412
3 450 412 638
3 630 410 372
3 410 564 188
3 372 188 546
3 564 409 186
3 409 611 325
3 186 325 524
3 546 187 373
3 187 524 329
3 373 329 603
3 611 407 324
3 407 563 191
3 324 191 522
3 563 406 189
3 406 639 465
3 189 465 592
3 522 190 326
3 190 592 464
3 326 464 625
3 603 328 374
3 328 523 194
3 374 194 547
3 523 327 192
3 327 625 462
3 192 462 590
3 547 193 375
3 193 590 460
3 375 460 633
3 634 392 416
3 392 556 197
3 416 197 568
3 556 393 195
3 393 609 331
3 195 331 527
3 568 196 417
3 196 527 335
3 417 335 614
3 609 396 330
3 396 559 200
3 330 200 525
3 559 399 198
3 399 637 470
3 198 470 594
3 525 199 332
3 199 594 469
3 332 469 626
3 614 334 418
3 334 526 203
3 418 203 569
3 526 333 201
3 333 626 467
3 201 467 593
3 569 202 419
3 202 593 466
3 419 466 639
3 631 430 366
3 430 574 206
3 366 206 543
3 574 429 204
3 429 616 337
3 204 337 530
3 543 205 367
3 205 530 341
3 367 341 601
3 616 427 336
3 427 573 209
3 336 209 528
3 573 426 207
3 426 641 455
3 207 455 587
3 528 208 338
3 208 587 454
3 338 454 623
3 601 340 369
3 340 529 212
3 369 212 544
3 529 339 210
3 339 623 453
3 210 453 586
3 544 211 370
3 211 586 452
3 370 452 632
3 636 390 436
3 390 554 215
3 436 215 578
3 554 389 213
3 389 606 343
3 213 343 533
3 578 214 437
3 214 533 347
3 437 347 619
3 606 387 342
3 387 553 218
3 342 218 531
3 553 386 216
3 386 635 459
3 216 459 589
3 531 217 344
3 217 589 458
3 344 458 624
3 619 346 438
3 346 532 221
3 438 221 579
3 532 345 219
3 345 624 457
3 219 457 588
3 579 220 439
3 220 588 456
3 439 456 641
3 631 379 431
3 379 549 224
3 431 224 575
3 549 378 222
3 378 604 349
3 222 349 536
3 575 223 428
3 223 536 353
3 428 353 617
3 604 377 348
3 377 548 227
3 348 227 534
3 548 376 225
3 376 633 472
3 225 472 596
3 534 226 350
3 226 596 473
3 350 473 629
3 617 352 423
3 352 535 230
3 423 230 571
3 535 351 228
3 351 629 476
3 228 476 599
3 571 229 421
3 229 599 479
3 421 479 640
3 636 435 394
3 435 577 233
3 394 233 557
3 577 434 231
3 434 618 355
3 231 355 539
3 557 232 395
3 232 539 359
3 395 359 608
3 618 433 354
3 433 576 236
3 354 236 537
3 576 432 234
3 432 640 478
3 234 478 598
3 537 235 356
3 235 598 477
3 356 477 628
3 608 358 397
3 358 538 239
3 397 239 558
3 538 357 237
3 357 628 475
3 237 475 597
3 558 238 398
3 238 597 474
3 398 474 637
