<?xml version='1.0' encoding='utf-8'?>
<VTKFile type="PolyData" version="0.1" byte_order="LittleEndian">
  <PolyData>
    <Piece NumberOfPoints="208" NumberOfVerts="0" NumberOfLines="8" NumberOfStrips="0" NumberOfPolys="0">
      <PointData>
        <DataArray type="Float64" Name="particle_id" format="ascii">1 2 3 4 5 6 7 8 1 2 3 4 5 6 7 8 1 2 3 4 5 6 7 8 1 2 3 4 5 6 7 8 1 2 3 4 5 6 7 8 1 2 3 4 5 6 7 8 1 2 3 4 5 6 7 8 1 2 3 4 5 6 7 8 1 2 3 4 5 6 7 8 1 2 3 4 5 6 7 8 1 2 3 4 5 6 7 8 1 2 3 4 5 6 7 8 1 2 3 4 5 6 7 8 1 2 3 4 5 6 7 8 1 2 3 4 5 6 7 8 1 2 3 4 5 6 7 8 1 2 3 4 5 6 7 8 1 2 3 4 5 6 7 8 1 2 3 4 5 6 7 8 1 2 3 4 5 6 7 8 1 2 3 4 5 6 7 8 1 2 3 4 5 6 7 8 1 2 3 4 5 6 7 8 1 2 3 4 5 6 7 8 1 2 3 4 5 6 7 8 1 2 3 4 5 6 7 8</DataArray>
        <DataArray type="Float64" Name="time_s" format="ascii">0 0 0 0 0 0 0 0 0.00023166997682314683 0.00023166997682314683 0.00023166997682314683 0.00023166997682314683 0.00023166997682314683 0.00023166997682314683 0.00023166997682314683 0.00023166997682314683 0.00046333995364629366 0.00046333995364629366 0.00046333995364629366 0.00046333995364629366 0.00046333995364629366 0.00046333995364629366 0.00046333995364629366 0.00046333995364629366 0.00069500993046944055 0.00069500993046944055 0.00069500993046944055 0.00069500993046944055 0.00069500993046944055 0.00069500993046944055 0.00069500993046944055 0.00069500993046944055 0.00092667990729258733 0.00092667990729258733 0.00092667990729258733 0.00092667990729258733 0.00092667990729258733 0.00092667990729258733 0.00092667990729258733 0.00092667990729258733 0.0011583498841157341 0.0011583498841157341 0.0011583498841157341 0.0011583498841157341 0.0011583498841157341 0.0011583498841157341 0.0011583498841157341 0.0011583498841157341 0.0013900198609388811 0.0013900198609388811 0.0013900198609388811 0.0013900198609388811 0.0013900198609388811 0.0013900198609388811 0.0013900198609388811 0.0013900198609388811 0.0016216898377620279 0.0016216898377620279 0.0016216898377620279 0.0016216898377620279 0.0016216898377620279 0.0016216898377620279 0.0016216898377620279 0.0016216898377620279 0.0018533598145851747 0.0018533598145851747 0.0018533598145851747 0.0018533598145851747 0.0018533598145851747 0.0018533598145851747 0.0018533598145851747 0.0018533598145851747 0.0020850297914083217 0.0020850297914083217 0.0020850297914083217 0.0020850297914083217 0.0020850297914083217 0.0020850297914083217 0.0020850297914083217 0.0020850297914083217 0.0023166997682314682 0.0023166997682314682 0.0023166997682314682 0.0023166997682314682 0.0023166997682314682 0.0023166997682314682 0.0023166997682314682 0.0023166997682314682 0.0025483697450546152 0.0025483697450546152 0.0025483697450546152 0.0025483697450546152 0.0025483697450546152 0.0025483697450546152 0.0025483697450546152 0.0025483697450546152 0.0027800397218777622 0.0027800397218777622 0.0027800397218777622 0.0027800397218777622 0.0027800397218777622 0.0027800397218777622 0.0027800397218777622 0.0027800397218777622 0.0030117096987009088 0.0030117096987009088 0.0030117096987009088 0.0030117096987009088 0.0030117096987009088 0.0030117096987009088 0.0030117096987009088 0.0030117096987009088 0.0032433796755240558 0.0032433796755240558 0.0032433796755240558 0.0032433796755240558 0.0032433796755240558 0.0032433796755240558 0.0032433796755240558 0.0032433796755240558 0.0034750496523472023 0.0034750496523472023 0.0034750496523472023 0.0034750496523472023 0.0034750496523472023 0.0034750496523472023 0.0034750496523472023 0.0034750496523472023 0.0037067196291703493 0.0037067196291703493 0.0037067196291703493 0.0037067196291703493 0.0037067196291703493 0.0037067196291703493 0.0037067196291703493 0.0037067196291703493 0.0039383896059934963 0.0039383896059934963 0.0039383896059934963 0.0039383896059934963 0.0039383896059934963 0.0039383896059934963 0.0039383896059934963 0.0039383896059934963 0.0041700595828166433 0.0041700595828166433 0.0041700595828166433 0.0041700595828166433 0.0041700595828166433 0.0041700595828166433 0.0041700595828166433 0.0041700595828166433 0.0044017295596397894 0.0044017295596397894 0.0044017295596397894 0.0044017295596397894 0.0044017295596397894 0.0044017295596397894 0.0044017295596397894 0.0044017295596397894 0.0046333995364629364 0.0046333995364629364 0.0046333995364629364 0.0046333995364629364 0.0046333995364629364 0.0046333995364629364 0.0046333995364629364 0.0046333995364629364 0.0048650695132860834 0.0048650695132860834 0.0048650695132860834 0.0048650695132860834 0.0048650695132860834 0.0048650695132860834 0.0048650695132860834 0.0048650695132860834 0.0050967394901092304 0.0050967394901092304 0.0050967394901092304 0.0050967394901092304 0.0050967394901092304 0.0050967394901092304 0.0050967394901092304 0.0050967394901092304 0.0053284094669323774 0.0053284094669323774 0.0053284094669323774 0.0053284094669323774 0.0053284094669323774 0.0053284094669323774 0.0053284094669323774 0.0053284094669323774 0.0055600794437555244 0.0055600794437555244 0.0055600794437555244 0.0055600794437555244 0.0055600794437555244 0.0055600794437555244 0.0055600794437555244 0.0055600794437555244 0.005675914432167097 0.005675914432167097 0.005675914432167097 0.005675914432167097 0.005675914432167097 0.005675914432167097 0.005675914432167097 0.005675914432167097</DataArray>
        <DataArray type="Float64" Name="diameter_um" format="ascii">1.301964817375814 1.7843974503349731 1.184279187338301 1.1067794561365052 2.4391238072427157 1.8390512128787446 2.961120865037143 1.5300138469969058 1.301964817375814 1.7843974503349731 1.184279187338301 1.1067794561365052 2.4391238072427157 1.8390512128787446 2.961120865037143 1.5300138469969058 1.301964817375814 1.7843974503349731 1.184279187338301 1.1067794561365052 2.4391238072427157 1.8390512128787446 2.961120865037143 1.5300138469969058 1.301964817375814 1.7843974503349731 1.184279187338301 1.1067794561365052 2.4391238072427157 1.8390512128787446 2.961120865037143 1.5300138469969058 1.301964817375814 1.7843974503349731 1.184279187338301 1.1067794561365052 2.4391238072427157 1.8390512128787446 2.961120865037143 1.5300138469969058 1.301964817375814 1.7843974503349731 1.184279187338301 1.1067794561365052 2.4391238072427157 1.8390512128787446 2.961120865037143 1.5300138469969058 1.301964817375814 1.7843974503349731 1.184279187338301 1.1067794561365052 2.4391238072427157 1.8390512128787446 2.961120865037143 1.5300138469969058 1.301964817375814 1.7843974503349731 1.184279187338301 1.1067794561365052 2.4391238072427157 1.8390512128787446 2.961120865037143 1.5300138469969058 1.301964817375814 1.7843974503349731 1.184279187338301 1.1067794561365052 2.4391238072427157 1.8390512128787446 2.961120865037143 1.5300138469969058 1.301964817375814 1.7843974503349731 1.184279187338301 1.1067794561365052 2.4391238072427157 1.8390512128787446 2.961120865037143 1.5300138469969058 1.301964817375814 1.7843974503349731 1.184279187338301 1.1067794561365052 2.4391238072427157 1.8390512128787446 2.961120865037143 1.5300138469969058 1.301964817375814 1.7843974503349731 1.184279187338301 1.1067794561365052 2.4391238072427157 1.8390512128787446 2.961120865037143 1.5300138469969058 1.301964817375814 1.7843974503349731 1.184279187338301 1.1067794561365052 2.4391238072427157 1.8390512128787446 2.961120865037143 1.5300138469969058 1.301964817375814 1.7843974503349731 1.184279187338301 1.1067794561365052 2.4391238072427157 1.8390512128787446 2.961120865037143 1.5300138469969058 1.301964817375814 1.7843974503349731 1.184279187338301 1.1067794561365052 2.4391238072427157 1.8390512128787446 2.961120865037143 1.5300138469969058 1.301964817375814 1.7843974503349731 1.184279187338301 1.1067794561365052 2.4391238072427157 1.8390512128787446 2.961120865037143 1.5300138469969058 1.301964817375814 1.7843974503349731 1.184279187338301 1.1067794561365052 2.4391238072427157 1.8390512128787446 2.961120865037143 1.5300138469969058 1.301964817375814 1.7843974503349731 1.184279187338301 1.1067794561365052 2.4391238072427157 1.8390512128787446 2.961120865037143 1.5300138469969058 1.301964817375814 1.7843974503349731 1.184279187338301 1.1067794561365052 2.4391238072427157 1.8390512128787446 2.961120865037143 1.5300138469969058 1.301964817375814 1.7843974503349731 1.184279187338301 1.1067794561365052 2.4391238072427157 1.8390512128787446 2.961120865037143 1.5300138469969058 1.301964817375814 1.7843974503349731 1.184279187338301 1.1067794561365052 2.4391238072427157 1.8390512128787446 2.961120865037143 1.5300138469969058 1.301964817375814 1.7843974503349731 1.184279187338301 1.1067794561365052 2.4391238072427157 1.8390512128787446 2.961120865037143 1.5300138469969058 1.301964817375814 1.7843974503349731 1.184279187338301 1.1067794561365052 2.4391238072427157 1.8390512128787446 2.961120865037143 1.5300138469969058 1.301964817375814 1.7843974503349731 1.184279187338301 1.1067794561365052 2.4391238072427157 1.8390512128787446 2.961120865037143 1.5300138469969058 1.301964817375814 1.7843974503349731 1.184279187338301 1.1067794561365052 2.4391238072427157 1.8390512128787446 2.961120865037143 1.5300138469969058 1.301964817375814 1.7843974503349731 1.184279187338301 1.1067794561365052 2.4391238072427157 1.8390512128787446 2.961120865037143 1.5300138469969058</DataArray>
        <DataArray type="Float64" Name="speed_m_s" format="ascii">0.00012653448407158176 0.00010182336063630411 0.00016854891399358576 0.0003414203293925704 7.6727684932856972e-05 0.00011314972628372822 7.0850142296020237e-05 8.8352413987199228e-05 0.00012682049792804749 0.00010202507786295721 0.00016696725081624293 0.00034062896730472888 7.6825394493475928e-05 0.00011259515983384553 7.077925515284313e-05 8.8505551461409137e-05 0.00012712932420804062 0.00010224050822430954 0.00016549470894372577 0.00033993459991285964 7.6927847603565315e-05 0.00011206705193000501 7.0712709526225964e-05 8.8667386537921418e-05 0.00012746103586502522 0.00010246975572245274 0.00016412728699228315 0.00033948657045347011 7.7035068455767405e-05 0.00011156487256935231 7.0650486516536459e-05 8.8837979190763754e-05 0.00012779302049519694 0.00010271293177750903 0.00016271602477219377 0.00033917984841397015 7.7147082450417193e-05 0.00011108811828630765 7.0592568183785982e-05 8.9017392864801541e-05 0.00012808437165209494 0.00010297015535165255 0.00016132381692632135 0.00033791278329446998 7.7263916208768828e-05 0.00011063631112034161 7.0538937536567065e-05 8.9205694526336803e-05 0.00012839927167753452 0.00010318681851545074 0.00015972733418621982 0.00033680117851979114 7.7385597586894348e-05 0.00011015123388004802 7.0489578521489336e-05 8.940295471678536e-05 0.00012873778633269221 0.00010340662640260092 0.00015822678304980485 0.00033552656769698664 7.7512155690268551e-05 0.00010964115073839017 7.0444476013100524e-05 8.957464953793721e-05 0.00012909999302049196 0.00010357060348261388 0.00015681861424148499 0.00033408685894398011 7.7625303741367591e-05 0.00010909447221436148 7.0403615804287794e-05 8.9715981720433114e-05 0.00012947083486753117 0.00010371823334397173 0.00015549953359756286 0.00033316162395579139 7.7708015444304224e-05 0.00010857075531905941 7.0357786987387046e-05 8.9826158139864854e-05 0.00012971568723366556 0.00010388013338985427 0.00015426068589812213 0.00033267569216189794 7.777654303597759e-05 0.00010806954773287761 7.0302362345618454e-05 8.9945419517471252e-05 0.00012998260862705606 0.00010405638376151395 0.00015292383399344119 0.00033159722964194266 7.7850019887889277e-05 0.00010759041785195141 7.0251109157907758e-05 9.0073810862425601e-05 0.00013019241007535893 0.00010424707233372884 0.00015153917573035327 0.0003302357646415556 7.7928464051965003e-05 0.00010713295401773165 7.0184034259731449e-05 9.0211380846021109e-05 0.00013041980590912801 0.00010445229481351829 0.00015023501708741089 0.00032929543393589694 7.8011894861619805e-05 0.00010669676378875723 7.0114385427221944e-05 9.0358181841257294e-05 0.00013066976816407253 0.00010467215484817136 0.00014900858612399017 0.00032824078466933828 7.8100332942122156e-05 0.00010628147325234209 7.0041051401787207e-05 9.0514269965670161e-05 0.00013094231108233737 0.0001049067641427991 0.00014785729999002467 0.00032773848303611301 7.8193800221677674e-05 0.00010585661640186877 6.9954295304477799e-05 9.0679705127476648e-05 0.0001312374587847784 0.00010511029461978477 0.00014657413448112687 0.0003276597008114751 7.8292319943238246e-05 0.00010540052728144968 6.9871717203069932e-05 9.0854551075091777e-05 0.00013155524524756886 0.00010530783395248708 0.00014531876109188647 0.00032678510265083695 7.8395916677051944e-05 0.00010493111668325839 6.9793295261471428e-05 9.1038875450101116e-05 0.00013189571428991745 0.0001055209129690313 0.00014403259894627354 0.00032499052212992425 7.8504616333961941e-05 0.00010448148238274858 6.9719008535259889e-05 9.1232749843758506e-05 0.00013219598794348602 0.00010574964629253444 0.00014279220118265377 0.00032359257217136653 7.8618446179469495e-05 0.00010405126701698582 6.9648836959948146e-05 9.1417144417525514e-05 0.00013246822283585142 0.00010599415768052299 0.00014161786261948636 0.00032199148764258949 7.8737434848572178e-05 0.00010364012912998573 6.9582761339712708e-05 9.1576957766175077e-05 0.0001326986300390448 0.00010625458017441687 0.00014050744979610171 0.00032096288236365962 7.8861612361392851e-05 0.00010317490866183122 6.9520763336572078e-05 9.1746669214862086e-05 0.00013295060246796216 0.00010650969442499298 0.00013945896434140032 0.00032050548437473803 7.899101013961288e-05 0.00010271411681477566 6.946282546000976e-05 9.1926346602516816e-05 0.00013322411492110295 0.00010668941372934789 0.0001384705350784774 0.00031975116412107687 7.9095379166953817e-05 0.00010227210264264399 6.9408931057029038e-05 9.2097310348562261e-05 0.00013351915026027641 0.0001068844077926177 0.00013754041074919921 0.00031849204728688055 7.9200214014897466e-05 0.0001018485305111532 6.935906430263445e-05 9.2226931060760371e-05 0.0001336747358446083 0.00010698766483457179 0.00013709669679545292 0.00031795300279761695 7.9254648617428373e-05 0.00010164355937178648 6.933563657250372e-05 9.2295440515874846e-05</DataArray>
        <DataArray type="Float64" Name="fluid_speed_m_s" format="ascii">0.00012653448407158176 0.00010182336063630411 0.00016854891399358576 0.0003414203293925704 7.6727684932856972e-05 0.00011314972628372822 7.0850142296020237e-05 8.8352413987199228e-05 0.00012682049792804749 0.00010202507786295721 0.00016696725081624293 0.00034062896730472888 7.6825394493475928e-05 0.00011259515983384553 7.077925515284313e-05 8.8505551461409137e-05 0.00012712932420804062 0.00010224050822430954 0.00016549470894372577 0.00033993459991285964 7.6927847603565315e-05 0.00011206705193000501 7.0712709526225964e-05 8.8667386537921418e-05 0.00012746103586502522 0.00010246975572245274 0.00016412728699228315 0.00033948657045347011 7.7035068455767405e-05 0.00011156487256935231 7.0650486516536459e-05 8.8837979190763754e-05 0.00012779302049519694 0.00010271293177750903 0.00016271602477219377 0.00033917984841397015 7.7147082450417193e-05 0.00011108811828630765 7.0592568183785982e-05 8.9017392864801541e-05 0.00012808437165209494 0.00010297015535165255 0.00016132381692632135 0.00033791278329446998 7.7263916208768828e-05 0.00011063631112034161 7.0538937536567065e-05 8.9205694526336803e-05 0.00012839927167753452 0.00010318681851545074 0.00015972733418621982 0.00033680117851979114 7.7385597586894348e-05 0.00011015123388004802 7.0489578521489336e-05 8.940295471678536e-05 0.00012873778633269221 0.00010340662640260092 0.00015822678304980485 0.00033552656769698664 7.7512155690268551e-05 0.00010964115073839017 7.0444476013100524e-05 8.957464953793721e-05 0.00012909999302049196 0.00010357060348261388 0.00015681861424148499 0.00033408685894398011 7.7625303741367591e-05 0.00010909447221436148 7.0403615804287794e-05 8.9715981720433114e-05 0.00012947083486753117 0.00010371823334397173 0.00015549953359756286 0.00033316162395579139 7.7708015444304224e-05 0.00010857075531905941 7.0357786987387046e-05 8.9826158139864854e-05 0.00012971568723366556 0.00010388013338985427 0.00015426068589812213 0.00033267569216189794 7.777654303597759e-05 0.00010806954773287761 7.0302362345618454e-05 8.9945419517471252e-05 0.00012998260862705606 0.00010405638376151395 0.00015292383399344119 0.00033159722964194266 7.7850019887889277e-05 0.00010759041785195141 7.0251109157907758e-05 9.0073810862425601e-05 0.00013019241007535893 0.00010424707233372884 0.00015153917573035327 0.0003302357646415556 7.7928464051965003e-05 0.00010713295401773165 7.0184034259731449e-05 9.0211380846021109e-05 0.00013041980590912801 0.00010445229481351829 0.00015023501708741089 0.00032929543393589694 7.8011894861619805e-05 0.00010669676378875723 7.0114385427221944e-05 9.0358181841257294e-05 0.00013066976816407253 0.00010467215484817136 0.00014900858612399017 0.00032824078466933828 7.8100332942122156e-05 0.00010628147325234209 7.0041051401787207e-05 9.0514269965670161e-05 0.00013094231108233737 0.0001049067641427991 0.00014785729999002467 0.00032773848303611301 7.8193800221677674e-05 0.00010585661640186877 6.9954295304477799e-05 9.0679705127476648e-05 0.0001312374587847784 0.00010511029461978477 0.00014657413448112687 0.0003276597008114751 7.8292319943238246e-05 0.00010540052728144968 6.9871717203069932e-05 9.0854551075091777e-05 0.00013155524524756886 0.00010530783395248708 0.00014531876109188647 0.00032678510265083695 7.8395916677051944e-05 0.00010493111668325839 6.9793295261471428e-05 9.1038875450101116e-05 0.00013189571428991745 0.0001055209129690313 0.00014403259894627354 0.00032499052212992425 7.8504616333961941e-05 0.00010448148238274858 6.9719008535259889e-05 9.1232749843758506e-05 0.00013219598794348602 0.00010574964629253444 0.00014279220118265377 0.00032359257217136653 7.8618446179469495e-05 0.00010405126701698582 6.9648836959948146e-05 9.1417144417525514e-05 0.00013246822283585142 0.00010599415768052299 0.00014161786261948636 0.00032199148764258949 7.8737434848572178e-05 0.00010364012912998573 6.9582761339712708e-05 9.1576957766175077e-05 0.0001326986300390448 0.00010625458017441687 0.00014050744979610171 0.00032096288236365962 7.8861612361392851e-05 0.00010317490866183122 6.9520763336572078e-05 9.1746669214862086e-05 0.00013295060246796216 0.00010650969442499298 0.00013945896434140032 0.00032050548437473803 7.899101013961288e-05 0.00010271411681477566 6.946282546000976e-05 9.1926346602516816e-05 0.00013322411492110295 0.00010668941372934789 0.0001384705350784774 0.00031975116412107687 7.9095379166953817e-05 0.00010227210264264399 6.9408931057029038e-05 9.2097310348562261e-05 0.00013351915026027641 0.0001068844077926177 0.00013754041074919921 0.00031849204728688055 7.9200214014897466e-05 0.0001018485305111532 6.935906430263445e-05 9.2226931060760371e-05 0.0001336747358446083 0.00010698766483457179 0.00013709669679545292 0.00031795300279761695 7.9254648617428373e-05 0.00010164355937178648 6.933563657250372e-05 9.2295440515874846e-05</DataArray>
        <DataArray type="Float64" Name="center_wall_distance_um" format="ascii">1.6577081089211581 1.8987741319011826 1.6053231558696879 1.5671372626086857 2.2201793141113111 1.9765709992536717 2.4993080972639756 1.8940241383534291 1.6546826463417905 1.8962927156162726 1.611190291329395 1.5677042312686638 2.2192526725474617 1.9804142734401935 2.5002836340209451 1.8913237902378708 1.6518420051459159 1.8931741520499279 1.6179107806723765 1.5707979535296084 2.2183218698825828 1.9844288919932562 2.5013860111746684 1.8886069523373343 1.6489718020773068 1.8900904425262373 1.6254429591183925 1.5733523123846358 2.2173868579488669 1.988660049253719 2.5026148893026967 1.8858732443909334 1.6460558169788688 1.8872575813124419 1.6332462616466876 1.5782779609889208 2.2164475881097276 1.9931033277022316 2.5039699366800994 1.8831222828182352 1.6430918474983993 1.8847331494423338 1.6410284467230294 1.5790098578247975 2.215504011247043 1.9977047772033325 2.5054508292714495 1.8803536805654815 1.6400784885928794 1.8825211263234407 1.6487807332359796 1.5757802360243347 2.2145560777483015 2.0023078332511286 2.5070572507290585 1.877567046949709 1.637014871597146 1.8805246904626494 1.6564990028192474 1.5737050652519127 2.2136037374933522 2.0069007706750672 2.508788892397035 1.8748028068889651 1.6339001153113588 1.8775389748836833 1.6641863962758396 1.5724043960284317 2.2126469941779727 2.0114795285323885 2.5106454533214881 1.8722136270085408 1.6307333254734488 1.8748119602039817 1.6718459431650727 1.5688267820088571 2.2116861285233682 2.0160438454748228 2.5121209493786356 1.8698162620308993 1.6275724564542069 1.8723275022977306 1.6794805699937982 1.5657394861700833 2.2107214309238556 2.020084222089169 2.5131519543698038 1.8676122182398001 1.6245857468802076 1.8699046479145511 1.6867878164090628 1.5637442685631604 2.2097528835576825 2.0233146456368512 2.5142515007659059 1.8656027832442086 1.6217807413603487 1.8674960102074096 1.6934076940065648 1.5651372648420179 2.2087804188830664 2.0267746622196925 2.5154191778184787 1.8637892761498795 1.618996106193048 1.8651013867853743 1.7003995450125855 1.5655629836508749 2.2078039688436668 2.0304600832964215 2.5155220011351349 1.8621611045859512 1.6161603989675695 1.862720575895614 1.7080309175450934 1.5633357393070857 2.2068234648508871 2.0343668800261869 2.5153269960108799 1.8605641753304099 1.613272801504362 1.8603533763157476 1.7153718249649628 1.5625024672537362 2.2058388377655 2.0384909292582831 2.5151493126506126 1.8589507027003531 1.6103324860763732 1.8580002455580387 1.7224550127222276 1.5643921291602854 2.2048500178797132 2.0428266805607445 2.5149887377096243 1.8573204084000894 1.6073386149934628 1.8556630586134519 1.7295214423604022 1.5651658874584222 2.2038569348982451 2.0473684524174187 2.5148450627468164 1.8556730113099542 1.6043468751184193 1.8533417913134071 1.7368518061349794 1.5658866150718964 2.2028595179194839 2.0521117001179441 2.5147180869749968 1.8540082273685128 1.6017855123896765 1.8510362842842116 1.7445334415262495 1.567383862618023 2.2018576954164781 2.0569684041325496 2.5146076171797449 1.8523257985131345 1.5988196918089561 1.8487463793418348 1.7525545115915675 1.5692876459876353 2.2008795539150521 2.0618064541399859 2.5145134676414886 1.8506258109111708 1.5956726726307078 1.8464719194050843 1.7609039712531072 1.5676914757500013 2.2000296211662245 2.0666231548035734 2.5144354600610344 1.8479760899640469 1.5929724517612764 1.8442541298284036 1.7666330635908403 1.5658398256350761 2.1993184152824861 2.0710008112332012 2.5143734234879203 1.8452044114328063 1.5907261009860223 1.8423237153634908 1.7724546438383029 1.5623191559713014 2.1987467710278832 2.0749576197923991 2.5143271942521692 1.8426038766457735 1.5889406572993285 1.8406004038718933 1.7788020218567639 1.5569004563658189 2.1983154597923509 2.078902076539817 2.5142966158988016 1.8402208601666696 1.5882229608832075 1.8397467691730649 1.7821690233736078 1.5546766401851713 2.1981526250206893 2.0808698377326413 2.5142871488683092 1.8391115712864461</DataArray>
        <DataArray type="Float64" Name="surface_wall_gap_um" format="ascii">1.006725700233251 1.0065754067336963 1.0131835622005374 1.0137475345404332 1.0006174104899535 1.0570453928142995 1.0187476647454041 1.1290172148549762 1.0037002376538833 1.0040939904487858 1.0190506976602445 1.0143145032004113 0.99969076892610398 1.0608886670008211 1.0197232015023736 1.1263168667394179 1.0008595964580089 1.0009754268824413 1.025771187003226 1.0174082254613559 0.9987599662612251 1.0649032855538838 1.0208255786560969 1.1236000288388814 0.99798939338939963 0.99789171735875082 1.0333033654492421 1.0199625843163831 0.99782495432750895 1.0691344428143466 1.0220544567841252 1.1208663208924805 0.9950734082909618 0.99505885614495559 1.0411066679775371 1.0248882329206683 0.99688568448836967 1.0735777212628594 1.0234095041615281 1.1181153593197823 0.99210943881049229 0.99253442427484717 1.0488888530538789 1.0256201297565448 0.99594210762568525 1.0781791707639603 1.0248903967528777 1.1153467570670286 0.98909607990497239 0.99032240115595438 1.0566411395668291 1.0223905079560822 0.9949941741269438 1.0827822268117564 1.026496818210487 1.1125601234512559 0.98603246290923885 0.98832596529516303 1.064359409150097 1.02031533718366 0.99404183387199407 1.087375164235695 1.0282284598784632 1.1097958833905122 0.98291770662345179 0.98534024971619671 1.0720468026066892 1.019014667960179 0.99308509055661498 1.0919539220930163 1.0300850208029166 1.1072067035100879 0.97975091678554194 0.98261323503649523 1.0797063494959223 1.0154370539406044 0.99212422490201024 1.0965182390354506 1.0315605168600643 1.1048093385324464 0.97659004776629976 0.98012877713024427 1.0873409763246478 1.0123497581018306 0.9911595273024979 1.1005586156497966 1.0325915218512325 1.1026052947413472 0.97360333819230049 0.97770592274706447 1.0946482227399124 1.0103545404949077 0.99019097993632466 1.1037890391974789 1.0336910682473344 1.1005958597457557 0.97079833267244164 0.97529728503992319 1.1012681003374143 1.0117475367737652 0.98921851526170856 1.1072490557803201 1.0348587452999072 1.0987823526514267 0.9680136975051411 0.97290266161788796 1.108259951343435 1.0121732555826222 0.98824206522230884 1.110934476857049 1.0349615686165632 1.0971541810874985 0.96517799027966245 0.97052185072812747 1.1158913238759429 1.0099460112388332 0.98726156122952924 1.1148412735868147 1.0347665634923087 1.0955572518319572 0.96229039281645501 0.96815465114826105 1.1232322312958123 1.0091127391854837 0.98627693414414208 1.1189653228189109 1.0345888801320413 1.0939437792019004 0.95935007738846645 0.96580152039055223 1.1303154190530771 1.0110024010920329 0.98528811425835539 1.1233010741213725 1.034428305191053 1.0923134849016365 0.95635620630555573 0.96346433344596527 1.1373818486912517 1.0117761593901695 0.98429503127688711 1.1278428459780465 1.0342846302282451 1.0906660878115015 0.95336446643051231 0.9611430661459206 1.1447122124658289 1.0124968870036437 0.98329761429812612 1.1325860936785719 1.0341576544564253 1.0890013038700599 0.95080310370176946 0.95883755911672497 1.152393847857099 1.0139941345497703 0.98229579179512017 1.1374427976931771 1.0340471846611736 1.0873188750146818 0.94783728312104909 0.95654765417434806 1.160414917922417 1.0158979179193826 0.98131765029369422 1.1422808477006137 1.0339530351229171 1.0856188874127179 0.94469026394280065 0.95427319423759771 1.1687643775839567 1.0143017476817486 0.98046771754486672 1.1470975483642012 1.0338750275424631 1.0829691664655938 0.94199004307336953 0.9520554046609172 1.1744934699216898 1.0124500975668236 0.97975651166112832 1.1514752047938288 1.0338129909693485 1.0801974879343532 0.93974369229811527 0.95012499019600438 1.1803150501691524 1.0089294279030487 0.97918486740652533 1.1554320133530267 1.0337667617335979 1.0775969531473206 0.93795824861142141 0.94840167870440673 1.1866624281876135 1.0035107282975662 0.97875355617099324 1.1593764701004448 1.0337361833802299 1.0752139366682167 0.93724055219530056 0.94754804400557824 1.1900294297044574 1.0012869121169186 0.97859072139933134 1.1613442312932689 1.0337267163497379 1.0741046477879932</DataArray>
      </PointData>
      <CellData />
      <Points>
        <DataArray type="Float64" NumberOfComponents="3" format="ascii">0.00015635185239884058 0.00013556108230037159 0.00012892459424045609 0.00015395306222911273 0.00013416178803469703 0.00012872469505964546 0.00014195911138047352 0.00012596592162146024 0.00012352731635856845 0.00010337856948401742 5.8000200145838068e-05 0.00013792005737693551 0.0001511544736977636 0.00013176299786496918 0.00012852479587883479 0.00014335840564614811 0.00012636571998308154 0.00012452681226262171 0.0001459570949966866 0.00012756511506794546 0.00012692560243234957 0.0001527536671442488 0.00013296239294983311 0.00012872469505964546 0.00015637845410314253 0.00013557258571374447 0.00012892920523087845 0.00015397226820509674 0.00013417543392233279 0.00012872626692586565 0.00014199055887141067 0.00012597561898565232 0.0001235479874017923 0.00010336177601391887 5.8026203265747221e-05 0.00013784737861422076 0.00015116781797308335 0.00013177471540171267 0.0001285257944902718 0.00014337840078509906 0.00012637268189662844 0.00012454215750098781 0.00014596873799401389 0.00012757233385147788 0.00012693462860935347 0.00015276941423521804 0.00013297545720501099 0.00012872571359001002 0.00015640515283008667 0.00013558401889451948 0.00012893386888202307 0.00015399152522016187 0.00013418909056769074 0.00012872784746274649 0.00014202168945675106 0.00012598521786464249 0.0001235685217123113 0.00010334469216158432 5.8052747213889415e-05 0.00013777513390573573 0.00015118118067956109 0.00013178644734432361 0.00012852679073047842 0.00014339827837366091 0.00012637963073269565 0.00012455744811739293 0.00014598037388279414 0.00012757956419054127 0.00012694362573735231 0.00015278519833448174 0.00013298853376179673 0.00012872673587412792 0.00015643195313926427 0.00013559538345205279 0.0001289385858794457 0.00015401083588680419 0.00013420275974858811 0.00012872943692358318 0.00014205252424267628 0.0001259947250092047 0.00012358893048755335 0.00010332734502904464 5.8079784456259693e-05 0.00013770329809090369 0.00015119456265258376 0.00013179819440295947 0.00012852778471165291 0.00014341804341747193 0.00012638656784569335 0.00012457268723517666 0.00014599200340608144 0.00012758680647274639 0.0001269525942858108 0.00015280102108471011 0.00013300162378649351 0.00012872776201828062 0.00015645885906632581 0.00013560668053974657 0.00012894335679796426 0.00015403020283960179 0.0001342164432545944 0.00012873103556363733 0.00014208307217911708 0.00012600414540487763 0.00012360921782885668 0.00010330972021190416 5.8107336519681991e-05 0.00013763179168479136 0.00015120796473196699 0.00013180995729148031 0.00012852877654622339 0.00014343770081980158 0.0001263934945730319 0.00012458787791785468 0.00014600362730372282 0.00012759406108579948 0.00012696153471999011 0.00015281688414067149 0.00013301472845278004 0.00012872879212939869 0.00015648586412935153 0.0001356179027768937 0.00012894817988627502 0.00015404962873665328 0.00013423014288799706 0.00012873264364026706 0.00014211332786504794 0.00012601348171763951 0.00012362937922164399 0.000103291862243772 5.813533493704919e-05 0.00013756073788971106 0.00015122138776216813 0.00013182173672763011 0.00012852976634687531 0.00014345725538658226 0.00012640041223631294 0.0001246030231721934 0.00014601524631252644 0.00012760132841758504 0.00012697044750106001 0.00015283278916989506 0.00013302784894217689 0.00012872982631510191 0.00015651296868095935 0.00013562904815391015 0.00012895305489784735 0.00015406911214660272 0.00013424385727490052 0.00012873426128221462 0.00014214327191505751 0.00012602272825525457 0.00012364939738055089 0.00010327380866099431 5.8163720426605835e-05 0.00013749018135620258 0.00015123483259250182 0.00013183353343322008 0.0001285307542265794 0.00014347670620268627 0.00012640732111145192 0.00012461812305029381 0.00014602686116642788 0.0001276086088562483 0.00012697933308620897 0.00015284873785334358 0.00013304098644451956 0.0001287308646837397 0.00015654017746926909 0.00013564011814801966 0.0001289579825628232 0.00015408864792128101 0.00013425758215191973 0.00012873588851339978 0.00014217289898510314 0.00012603188347566039 0.00012366926552063288 0.00010325557026561578 5.819247511597523e-05 0.0001374201520172275 0.00015124830007735797 0.00013184534813431397 0.00012853174029861978 0.00014349604924587396 0.00012641422054962407 0.0001246331752379083 0.00014603847259665476 0.00012761590279027741 0.0001269881919287527 0.00015286472978452343 0.00013305414035827951 0.00012873190727122956 0.0001565674952651243 0.00013565111421773678 0.00012896296362230509 0.00015410823408120681 0.00013427131606638594 0.00012873752517037022 0.00014220222741719244 0.00012604095304119696 0.00012368899397337333 0.00010323716890168629 5.8221564652618943e-05 0.00013735065486830179 0.00015126179022626043 0.00013185718078712782 0.00012853272463799538 0.0001435152761796489 0.00012642110696627618 0.00012464817037614932 0.00014605008133188949 0.00012762321060858558 0.00012699702447824065 0.00015288075969845496 0.00013306730590317224 0.00012873295393531862 0.00015659492686471895 0.00013566203780362849 0.00012896799882873575 0.00015412785972208716 0.00013428505130868925 0.00012873917022013996 0.00014223127486930458 0.00012604994243523241 0.00012370859271276549 0.00010321861201292054 5.8250979252726209e-05 0.00013728164281436429 0.00015127529871692064 0.00013186902738969496 0.00012853370713946136 0.00014353438866692729 0.00012642798046134598 0.0001246631086715125 0.00014606168779176959 0.0001276305325564584 0.00012700583096456931 0.00015289682055913401 0.00013308047647478421 0.00012873400434524628 0.00015662245604996806 0.00013567288318240407 0.00012897308475233403 0.00015414752674614051 0.00013429878904826288 0.00012874082386329537 0.00014226005836416014 0.00012605885697581322 0.00012372807138168537 0.00010319987515229139 5.8280759788765389e-05 0.00013721301005343583 0.00015128882083360534 0.00013188088349285997 0.00012853468775898908 0.00014355339103955568 0.00012643484213775697 0.00012467799288894905 0.0001460732896346708 0.00012763786758101785 0.00012701460966999545 0.00015291291199333873 0.00013309365141931967 0.00012873505850776701 0.00015665007285996745 0.00013568364689564539 0.00012897821916596372 0.00015416723792212951 0.0001343125310528328 0.0001287424863840935 0.0001422885768293264 0.00012606769929234012 0.00012374742984370504 0.00010318097515105449 5.8310883334400162e-05 0.00013714474619686931 0.00015130235666526803 0.00013189274908859496 0.00012853566658686423 0.00014357228754187062 0.00012644169308546129 0.00012469282574137567 0.00014608488686467064 0.00012764521573009315 0.00012702336052504521 0.00015292903571369299 0.00013310683195057386 0.00012873611653753102 0.0001566777748734027 0.00013569432483940237 0.00012898340060140656 0.00015418699603659129 0.00013432627909796524 0.00012874415806869225 0.00014231681163978102 0.00012607646488163403 0.00012376665579887417 0.0001031619629746026 5.8341273670339621e-05 0.00013707699260214224 0.00015131590709415913 0.00013190462490553554 0.00012853664373372795 0.00014359108233462229 0.00012644853438228599 0.00012470760989211676 0.00014609647903028415 0.00012765257653898042 0.00012703208299452327 0.00015294519344230306 0.00013312001928741268 0.0001287371785496819 0.00015670555792144774 0.00013570491134358266 0.00012898862705196896 0.00015420680389536303 0.00013434003496802456 0.00012874583920530181 0.00014234476937269804 0.00012608515521914229 0.00012378575171720244 0.00010314282594453647 5.8371954005219529e-05 0.00013700969272602609 0.00015132947300594782 0.00013191651167500888 0.0001285376193102909 0.00014360977949875003 0.00012645536709475665 0.00012472234795725734 0.000146108063974187 0.00012765994830255816 0.00012704077515066287 0.00015296138691145723 0.00013313321465426291 0.00012873824465990072 0.00015673342653806457 0.00013571540772054294 0.00012899389918272181 0.00015422666432512912 0.00013435380045714236 0.00012874753008433807 0.00014237246555297525 0.0001260937751468172 0.0001238047260863791 0.00010312357638737511 5.8402909151694386e-05 0.00013694282901349455 0.00015134305528995053 0.00013192841013122251 0.00012853859342736111 0.00014362838303901766 0.00012646219227890041 0.0001247370425079117 0.00014611964207739166 0.0001276673311691361 0.00012704943718076575 0.00015297761786433323 0.00013314641928160702 0.00012873931498445058 0.00015676138526561411 0.00013572581525817879 0.00012899921766864494 0.00015424658017499114 0.00013436757737019875 0.00012874923099857779 0.0001423999151674366 0.00012610232936222161 0.00012382358712229909 0.00010310420650349026 5.843415602562832e-05 0.00013687634204151135 0.0001513566548393617 0.00013194032101145485 0.000128539566195872 0.00014364689560198191 0.00012646901045734778 0.00012475169506850027 0.00014613121114974594 0.00012767472355361441 0.00012705806717153761 0.00015299388805571458 0.00013315963440648393 0.00012874038964022126 0.00015678943865700428 0.00013573613522068685 0.00012900458319489529 0.00015426655150339901 0.00013438136525541788 0.00012875094217399134 0.00014242711784768079 0.00012611081811768446 0.0001238423314378922 0.0001030846861682607 5.8465746665946889e-05 0.00013681012329095022 0.00015137027255148619 0.00013195224505624709 0.00012854053772691073 0.00014366531236233661 0.00012647581927782098 0.0001247663015036077 0.00014614277093184301 0.00012768212517764676 0.0001270666647970463 0.00015301019925271632 0.00013317286127299528 0.00012874146874477437 0.00015681759127790455 0.00013574636884917712 0.00012900999645712449 0.00015428657246152123 0.00013439515886469849 0.00012875266371003749 0.00014245405811960993 0.0001261192373029552 0.00012386094454795531 0.0001030650388668838 5.8497648662805814e-05 0.00013674420798396141 0.0001513839093279743 0.00013196418300959715 0.00012854150813174629 0.00014368362754564842 0.00012648261744894085 0.00012478085871011041 0.00014615432212379024 0.00012768953641432992 0.00012707523051621919 0.00015302655323552085 0.00013318610113281849 0.00012874255241638905 0.00015684584770895739 0.00013575651736226664 0.00012901545816180145 0.00015430664548537321 0.00013440895958862628 0.0001287543959306124 0.00014248074067424446 0.00012612759002562316 0.00012387943015698902 0.00010304532717346483 5.8529764430200876e-05 0.00013667878702633779 0.00015139756607505884 0.00013197613561915521 0.00012854247752185806 0.00014370184297412362 0.00012648940555608064 0.0001247953679303908 0.00014616586542205029 0.0001276969576363169 0.00012708376478358835 0.00015304295179812435 0.00013319935524572644 0.00012874364077410778 0.00015687420801057129 0.00013576657808289132 0.00012902096728078898 0.00015432677362221659 0.00013442276930103838 0.00012875613917746249 0.00014250716177371153 0.00012613587807560041 0.00012389778773435481 0.00010302556495305921 5.8562073344809521e-05 0.00013661390448963838 0.00015141124370379475 0.00013198810363642156 0.00012854344600896441 0.00014371996243285775 0.00012649618461313004 0.00012480983145845171 0.00014617740151959651 0.00012770438921589421 0.00012709226804939885 0.00015305939620109048 0.00013321262441347515 0.00012874473392155496 0.00015690266610514323 0.00013577654356468024 0.00012902652065660311 0.00015434695994425104 0.00013443658988717547 0.00012875789379530986 0.00014253333408110924 0.00012614410532763904 0.00012391602465165535 0.00010300575966612086 5.8594566829118909e-05 0.00013654954279347439 0.00015142494313030136 0.00013200008781694622 0.00012854441370505138 0.00014373798963653847 0.00012650295562299693 0.00012482425154948014 0.00014618893110606668 0.00012771183152505852 0.00012710074075971491 0.0001530758812732068 0.00013322590397058841 0.00012874583177478229 0.0001569312105236031 0.00013578640916333531 0.00012903211586689811 0.00015436720755043811 0.0001344504232447816 0.00012875966013205074 0.0001425592701798515 0.00012615227559634878 0.00012393414821819631 0.00010298590436613282 5.8627259219618358e-05 0.00013648565202577844 0.0001514386652760074 0.000132012088920531 0.00012854538072240175 0.000143755923429128 0.0001265097176685779 0.00012483862570542736 0.00014620045486791477 0.00012771928493559282 0.0001271091833565246 0.00015309240695850329 0.00013323919362981043 0.00012874693440700203 0.00015695984128014077 0.00013579617451041107 0.00012903775268167611 0.00015438751921967401 0.00013446427104710196 0.00012876143850468951 0.00014258498224212435 0.00012616039259496237 0.00012395216552047272 0.00010296596556786209 5.8660207136333839e-05 0.00013642211993061812 0.00015145241106789882 0.00013202410771143383 0.00012854634717362405 0.00014377375838727451 0.00012651646814384622 0.00012485294733942693 0.00014621197348856066 0.00012772674981914231 0.00012711759627784255 0.00015310897511014549 0.00013325249472835002 0.00012874804194893175 0.00015698856268198848 0.00013580584071987964 0.00012904343169051696 0.00015440788399039205 0.00013447812555737019 0.00012876322788080318 0.00014261048205464546 0.00012616845994232784 0.00012397008343661772 0.00010294594158249491 5.8693415204442837e-05 0.0001363589123163956 0.0001514661792483278 0.00013203614295279102 0.00012854731306257463 0.0001437914979398778 0.00012652320797289964 0.00012486721864135185 0.00014622348764853848 0.0001277342265472897 0.00012712597995781107 0.0001531255871529329 0.00013326580823874479 0.00012874915450527831 0.00015701737903776254 0.0001358154088823255 0.00012904915348816448 0.00015442829792002499 0.00013449198377329312 0.00012876502791954664 0.00014263578104290909 0.00012617648116953556 0.00012398790865003262 0.00010292585933190526 5.872684040115615e-05 0.00013629608647253109 0.00015147996696278756 0.00013204819195100206 0.00012854827831195137 0.00014380914559613208 0.00012652993812788208 0.00012488144190630899 0.000146234998025643 0.00012774171549163033 0.00012713433482679944 0.00015314223632516459 0.00013327912822953158 0.00012875027168436591 0.0001570318241706505 0.00013582015653045845 0.00012905203062011668 0.00015443852427079032 0.00013449891481941468 0.00012876593204576325 0.00014264835870528888 0.00012618047556910451 0.00012399678853171556 0.00010291580537128335 5.8743619661613108e-05 0.00013626484526225589 0.0001514868684344662 0.00013205422185003654 0.00012854876073108501 0.00014381793604191653 0.00012653329987858422 0.00012488853623145469 0.00014624075200671532 0.0001277454646610185 0.00012713850159065893 0.00015315057416741566 0.00013328579001785937 0.00012875083197266444</DataArray>
      </Points>
      <Lines>
        <DataArray type="Int64" Name="connectivity" format="ascii">0 8 16 24 32 40 48 56 64 72 80 88 96 104 112 120 128 136 144 152 160 168 176 184 192 200 1 9 17 25 33 41 49 57 65 73 81 89 97 105 113 121 129 137 145 153 161 169 177 185 193 201 2 10 18 26 34 42 50 58 66 74 82 90 98 106 114 122 130 138 146 154 162 170 178 186 194 202 3 11 19 27 35 43 51 59 67 75 83 91 99 107 115 123 131 139 147 155 163 171 179 187 195 203 4 12 20 28 36 44 52 60 68 76 84 92 100 108 116 124 132 140 148 156 164 172 180 188 196 204 5 13 21 29 37 45 53 61 69 77 85 93 101 109 117 125 133 141 149 157 165 173 181 189 197 205 6 14 22 30 38 46 54 62 70 78 86 94 102 110 118 126 134 142 150 158 166 174 182 190 198 206 7 15 23 31 39 47 55 63 71 79 87 95 103 111 119 127 135 143 151 159 167 175 183 191 199 207</DataArray>
        <DataArray type="Int64" Name="offsets" format="ascii">26 52 78 104 130 156 182 208</DataArray>
      </Lines>
      <Polys>
        <DataArray type="Int64" Name="connectivity" format="ascii" />
        <DataArray type="Int64" Name="offsets" format="ascii" />
      </Polys>
    </Piece>
  </PolyData>
</VTKFile>