OFF
642 1280 0
-3.8182973861694336 -1.5589141845703125 -0.13878154754638672
-3.7386188507080078 -1.720606803894043 0.11159324645996094
-3.9114809036254883 -1.1273288726806641 0.0748291015625
-3.4149436950683594 1.4256916046142578 -0.52805137634277344
-3.6606245040893555 0.971893310546875 -0.08611297607421875
-3.4383182525634766 1.369938850402832 -0.102142333984375
3.4947299957275391 -1.6077585220336914 -0.38515949249267578
3.6976652145385742 -1.2167158126831055 -0.22540473937988281
3.511225700378418 -1.4872913360595703 -0.065578460693359375
3.7807111740112305 1.4313516616821289 -0.029600143432617188
3.663884162902832 1.3576469421386719 0.18380546569824219
3.942138671875 0.97651386260986328 -0.12133216857910156
-1.8615493774414062 0.03980255126953125 1.0551347732543945
-1.6968746185302734 -0.53664302825927734 1.0746774673461914
-1.3096408843994141 -0.070943832397460938 0.92846584320068359
1.4426059722900391 0.25869083404541016 0.73690032958984375
0.857940673828125 0.1546783447265625 0.45751380920410156
1.4763307571411133 -0.19374847412109375 0.6763153076171875
-1.169342041015625 -0.47388553619384766 -1.0149755477905273
-1.4138193130493164 0.17571926116943359 -0.90167999267578125
-0.85424041748046875 0.11182594299316406 -0.7460784912109375
1.6085424423217773 -0.19160747528076172 -0.93985843658447266
0.99329948425292969 -0.0809326171875 -0.72668933868408203
1.6185903549194336 0.40707778930664062 -0.88300132751464844
0.25038337707519531 -3.6479167938232422 0.69137287139892578
-0.32867813110351562 -3.5542831420898438 0.51037788391113281
-0.066280364990234375 -3.8577499389648438 0.42232322692871094
0.28600120544433594 -3.5527563095092773 -0.77465248107910156
-0.23192501068115234 -3.6114883422851562 -0.52254962921142578
-0.085396766662597656 -3.4267492294311523 -0.82088470458984375
0.073211669921875 3.4114856719970703 0.75356388092041016
-0.091403007507324219 3.6181144714355469 0.47085475921630859
-0.55766201019287109 3.327641487121582 0.72334384918212891
0.60136795043945312 3.5381240844726562 -0.64194965362548828
-0.068570137023925781 3.5374813079833984 -0.69362449645996094
0.16672801971435547 3.7515735626220703 -0.40750980377197266
-2.3565101623535156 -2.1512470245361328 1.1013765335083008
-2.7004022598266602 -2.3218660354614258 1.0609970092773438
-2.1718711853027344 -2.6629276275634766 0.88022804260253906
2.0905532836914062 -2.0394115447998047 0.78997611999511719
1.8634881973266602 -2.5228548049926758 0.77334308624267578
2.4805192947387695 -2.1550312042236328 0.65006542205810547
-2.0430116653442383 2.2920513153076172 1.0591163635253906
-2.6897945404052734 1.9676380157470703 0.82409095764160156
-2.2873506546020508 1.79229736328125 0.96162128448486328
2.1869888305664062 2.3580589294433594 1.0217466354370117
2.2232036590576172 1.6895132064819336 1.0887022018432617
2.5254297256469727 1.9787569046020508 0.93511390686035156
-2.2451076507568359 -2.2112293243408203 -1.0612211227416992
-2.6660499572753906 -1.8128490447998047 -0.83145046234130859
-2.3017587661743164 -1.6140546798706055 -1.0950374603271484
2.0961112976074219 -2.4198322296142578 -1.1838235855102539
2.4810085296630859 -1.9481906890869141 -1.2531661987304688
2.6427669525146484 -2.1831140518188477 -0.98092174530029297
-1.7233390808105469 2.4879255294799805 -1.2691135406494141
-2.0630350112915039 1.9458150863647461 -1.2996330261230469
-2.4311504364013672 2.0421638488769531 -1.2839879989624023
2.1001548767089844 2.6018552780151367 -0.91215229034423828
2.6251487731933594 2.1953544616699219 -0.96304225921630859
2.4831571578979492 1.9826154708862305 -1.1462697982788086
-4.0033597946166992 -0.50759601593017578 0.43055534362792969
-3.7686672210693359 -1.3015308380126953 0.62518882751464844
-3.8229551315307617 -0.82552528381347656 0.65633678436279297
-3.651921272277832 -0.40785980224609375 -0.67393302917480469
-3.6478195190429688 -0.97548961639404297 -0.49901485443115234
-3.8885898590087891 -0.48076057434082031 -0.37065505981445312
-3.2266998291015625 -2.3160228729248047 -0.082219123840332031
-2.9546833038330078 -2.6885013580322266 -0.043541908264160156
-3.1726799011230469 -2.5388078689575195 0.18218612670898438
-3.5252752304077148 0.94885444641113281 0.56928730010986328
-3.8713359832763672 0.37247276306152344 0.4625244140625
-3.6919231414794922 0.46778392791748047 0.6844940185546875
-2.5150489807128906 2.5094385147094727 -0.29558372497558594
-2.9447975158691406 2.1006793975830078 -0.46088981628417969
-2.8463525772094727 2.250147819519043 -0.067996978759765625
-3.4849052429199219 0.94089126586914062 -0.75051021575927734
-3.5927705764770508 0.48924160003662109 -0.67357063293457031
-3.7699651718139648 0.50451755523681641 -0.46631336212158203
3.5028619766235352 -1.1567001342773438 0.28600215911865234
3.73052978515625 -0.54928970336914062 0.35144710540771484
3.5181484222412109 -0.54823589324951172 0.63332843780517578
2.5487251281738281 -2.9065151214599609 -0.26288795471191406
2.8662881851196289 -2.5079708099365234 -0.3241729736328125
2.7999992370605469 -2.529475212097168 -0.025679588317871094
3.5514621734619141 -1.1009359359741211 -0.83608436584472656
3.8019065856933594 -0.47525691986083984 -0.71083354949951172
3.8927164077758789 -0.48029994964599609 -0.47879981994628906
3.8035478591918945 0.30893898010253906 0.35170841217041016
3.7365798950195312 0.90179634094238281 0.43580341339111328
3.6088848114013672 0.49705410003662109 0.63242912292480469
3.8169956207275391 0.68101978302001953 -0.79948139190673828
3.8814258575439453 1.1751203536987305 -0.64722728729248047
4.0235691070556641 0.58282566070556641 -0.48473739624023438
3.1666059494018555 2.4520454406738281 -0.16090202331542969
2.8118362426757812 2.6182022094726562 0.11863803863525391
3.1760902404785156 2.2985105514526367 0.15380001068115234
-0.56821537017822266 -0.91424655914306641 0.687469482421875
-1.0678834915161133 -1.1775531768798828 0.87818813323974609
-0.47720241546630859 -1.4647006988525391 0.6805877685546875
-0.60625839233398438 1.3524398803710938 0.68798828125
-1.1808147430419922 1.0536584854125977 0.98456192016601562
-0.73807334899902344 0.82708549499511719 0.57467555999755859
-2.6265201568603516 -0.019013404846191406 1.0848894119262695
-3.0809831619262695 -0.34809303283691406 1.1206464767456055
-2.626673698425293 -0.58955860137939453 1.0152816772460938
0.99049663543701172 -1.1785163879394531 0.52594566345214844
0.46160984039306641 -0.857177734375 0.49242210388183594
0.41855239868164062 -1.3599395751953125 0.54200267791748047
2.8595600128173828 -0.10781192779541016 0.91690826416015625
2.5154628753662109 0.28444766998291016 0.97082614898681641
2.4356813430786133 -0.31006717681884766 0.95966148376464844
0.813079833984375 1.3315763473510742 0.76432418823242188
0.31292533874511719 1.4623899459838867 0.62541103363037109
0.22151088714599609 0.77100086212158203 0.42113685607910156
-0.36988449096679688 0.74608516693115234 -0.60242271423339844
-0.90100383758544922 1.1509580612182617 -0.92071533203125
-0.46226978302001953 1.2934484481811523 -0.92474555969238281
-0.36907768249511719 -1.5827550888061523 -0.91505813598632812
-0.82299709320068359 -1.4789562225341797 -1.0198421478271484
-0.51674938201904297 -1.0113983154296875 -0.56286144256591797
-2.031886100769043 -0.37551021575927734 -0.98499011993408203
-2.5207586288452148 0.012429237365722656 -0.93459796905517578
-2.1862392425537109 0.31289863586425781 -0.94614982604980469
1.2893171310424805 1.1893386840820312 -0.87897491455078125
0.62092208862304688 0.74271774291992188 -0.54811000823974609
0.64429759979248047 1.2540273666381836 -0.74905586242675781
2.961827278137207 0.016629219055175781 -1.2463531494140625
2.4717378616333008 -0.15463638305664062 -1.2124185562133789
2.5531158447265625 0.36014652252197266 -1.1398696899414062
1.0063362121582031 -1.0950288772583008 -0.97463321685791016
0.64584255218505859 -1.5224733352661133 -0.9887542724609375
0.42368412017822266 -0.98680019378662109 -0.67975425720214844
-1.1085710525512695 -3.6242656707763672 0.11831283569335938
-1.3581676483154297 -3.4911947250366211 0.38770771026611328
-1.5579395294189453 -3.4593982696533203 0.093407630920410156
1.2682590484619141 -3.6009311676025391 0.33325099945068359
1.0294647216796875 -3.6134958267211914 0.56467819213867188
0.75351047515869141 -3.8410377502441406 0.35184288024902344
0.18871593475341797 -2.9825420379638672 0.92792701721191406
-0.033105850219726562 -2.6061210632324219 0.95648956298828125
-0.26343536376953125 -2.9695224761962891 0.93904590606689453
-1.2120609283447266 -3.3877239227294922 -0.56788444519042969
-0.95611858367919922 -3.7169609069824219 -0.23116970062255859
-1.5047016143798828 -3.4152259826660156 -0.3845062255859375
0.22248935699462891 -2.9083805084228516 -1.3323822021484375
0.64142036437988281 -3.0411624908447266 -1.3568820953369141
-0.18150806427001953 -3.1061115264892578 -1.159602165222168
1.0295820236206055 -3.674774169921875 -0.53474998474121094
1.1336631774902344 -3.6717863082885742 -0.23433303833007812
0.62969779968261719 -3.8110895156860352 -0.24456691741943359
-1.3768758773803711 3.3097734451293945 0.37163162231445312
-0.92263412475585938 3.5863552093505859 0.16683197021484375
-1.4838075637817383 3.3184165954589844 0.063915252685546875
0.028290748596191406 2.5860729217529297 1.1285791397094727
0.29787158966064453 2.9671993255615234 1.0208559036254883
-0.41717815399169922 2.8174304962158203 1.1189498901367188
1.1149454116821289 3.4467992782592773 0.63494873046875
1.40093994140625 3.4161806106567383 0.34927463531494141
0.97089385986328125 3.5483779907226562 0.43139839172363281
-0.77368450164794922 3.6853866577148438 -0.37421131134033203
-1.0379295349121094 3.5428686141967773 -0.61873435974121094
-1.3513145446777344 3.4128284454345703 -0.42901420593261719
1.4181337356567383 3.4216451644897461 -0.16024112701416016
1.3041353225708008 3.3656692504882812 -0.43967056274414062
0.96652412414550781 3.5816831588745117 -0.089498519897460938
0.46849441528320312 2.9135704040527344 -1.1449680328369141
0.17652797698974609 2.6476573944091797 -1.1142702102661133
-0.092465400695800781 3.1464729309082031 -0.98051071166992188
-2.1627120971679688 -2.9166126251220703 0.70720958709716797
-2.784998893737793 -2.8186769485473633 0.51206493377685547
-2.4051666259765625 -3.0542144775390625 0.49700164794921875
-0.83710384368896484 -2.3117942810058594 1.0574531555175781
-1.4899368286132812 -2.0281200408935547 1.0560693740844727
-1.25164794921875 -2.5123119354248047 1.0184307098388672
-2.8307437896728516 -1.2377414703369141 1.0668926239013672
-3.2926902770996094 -1.01312255859375 1.1300783157348633
-3.1015911102294922 -1.5443716049194336 0.91441059112548828
2.4583044052124023 -2.7062950134277344 0.32878684997558594
1.880650520324707 -3.0457668304443359 0.4587860107421875
2.1487216949462891 -3.0366249084472656 0.28126335144042969
2.9449195861816406 -0.87447452545166016 0.71812629699707031
2.5740852355957031 -1.1528005599975586 0.90295124053955078
2.8882522583007812 -1.1863889694213867 0.64835643768310547
1.2309074401855469 -2.1572685241699219 0.88075351715087891
0.72569084167480469 -2.1330251693725586 0.88729572296142578
0.93181228637695312 -2.5586233139038086 0.99608707427978516
-2.8975648880004883 0.89193058013916016 1.0769100189208984
-3.0671052932739258 1.2647256851196289 0.84753513336181641
-3.2418127059936523 0.69830226898193359 1.0602684020996094
-0.96033954620361328 2.1595792770385742 1.0205726623535156
-1.286290168762207 2.456573486328125 1.0560674667358398
-1.4302158355712891 1.8474216461181641 0.96957969665527344
-2.0771636962890625 2.7477569580078125 0.54095935821533203
-2.1699075698852539 2.7273330688476562 0.21246623992919922
-2.4172487258911133 2.4342670440673828 0.54305839538574219
3.0094890594482422 1.2382545471191406 0.83536911010742188
2.7447595596313477 0.98123645782470703 0.89997482299804688
3.2433996200561523 0.77136135101318359 0.76810455322265625
2.2550840377807617 2.7948989868164062 0.44874477386474609
2.031494140625 2.9322214126586914 0.66406822204589844
2.5153779983520508 2.5455951690673828 0.61038780212402344
1.2889909744262695 2.541539192199707 1.0219755172729492
0.91886615753173828 2.1837139129638672 1.0938720703125
1.3914690017700195 2.0845441818237305 1.1076679229736328
-2.4961109161376953 -0.97885417938232422 -0.92830181121826172
-3.0554637908935547 -1.1474428176879883 -0.88702106475830078
-2.8422870635986328 -0.75656318664550781 -0.90030384063720703
-0.78778553009033203 -2.4932785034179688 -1.1086130142211914
-1.259577751159668 -2.496429443359375 -1.071965217590332
-1.3156013488769531 -2.1210241317749023 -1.1837711334228516
-2.1299982070922852 -2.8424263000488281 -0.74768161773681641
-2.3256702423095703 -2.877833366394043 -0.38012599945068359
-2.5337314605712891 -2.5906858444213867 -0.52803993225097656
3.2026100158691406 -1.222900390625 -1.1709728240966797
2.9073553085327148 -1.0861902236938477 -1.2400426864624023
3.2542400360107422 -0.66276264190673828 -1.2311067581176758
2.0351676940917969 -3.3448162078857422 -0.55253314971923828
1.8720941543579102 -3.2716217041015625 -0.78510284423828125
2.4379587173461914 -2.7614231109619141 -0.79328727722167969
1.3468618392944336 -2.4071016311645508 -1.4000101089477539
1.0104446411132812 -2.1387710571289062 -1.3235416412353516
1.5668697357177734 -1.8565378189086914 -1.3029184341430664
-2.9292612075805664 1.173518180847168 -1.2715606689453125
-2.6062698364257812 1.0183162689208984 -1.2875223159790039
-2.9352006912231445 0.63497638702392578 -1.0721778869628906
-2.0068550109863281 2.9685688018798828 -0.72396087646484375
-1.9458703994750977 2.7954826354980469 -1.0118436813354492
-2.3399896621704102 2.6462640762329102 -0.91469573974609375
-0.7383270263671875 2.4965553283691406 -1.1266288757324219
-0.49818897247314453 2.1651573181152344 -1.0496377944946289
-1.1547060012817383 2.0982837677001953 -1.1493606567382812
2.9450397491455078 1.0535478591918945 -1.0579814910888672
3.2939395904541016 1.3964414596557617 -0.83992671966552734
3.2998313903808594 0.81215858459472656 -1.0273237228393555
1.0117979049682617 2.0552158355712891 -1.1410713195800781
1.2215557098388672 2.4375505447387695 -1.1095190048217773
1.5591392517089844 1.9261970520019531 -1.1561851501464844
2.1498584747314453 2.9792337417602539 -0.67024517059326172
2.2504348754882812 2.9427728652954102 -0.35119247436523438
2.6471996307373047 2.7146387100219727 -0.39432907104492188
-3.9931755065917969 -0.64401149749755859 -0.069132804870605469
-4.0799579620361328 -0.52646160125732422 0.19097995758056641
-3.6938419342041016 -1.4181060791015625 -0.34451484680175781
-3.5052719116210938 -1.850804328918457 -0.33589553833007812
-3.3849153518676758 -2.2404584884643555 0.27944374084472656
-3.6740741729736328 -1.6959028244018555 0.43056678771972656
-3.1943264007568359 1.9255504608154297 -0.1289215087890625
-3.3991403579711914 1.4670124053955078 0.2451019287109375
-3.1549577713012695 1.8668479919433594 -0.82538604736328125
-3.2952709197998047 1.3287343978881836 -0.75648117065429688
-3.8516607284545898 0.43513774871826172 -0.16358757019042969
-3.7948398590087891 0.61672306060791016 0.16419506072998047
3.1331624984741211 -2.174560546875 -0.070862770080566406
3.425445556640625 -1.569666862487793 0.14406776428222656
3.2101354598999023 -2.1134233474731445 -0.58229827880859375
3.5142059326171875 -1.4692058563232422 -0.66338157653808594
3.8662509918212891 -0.72485733032226562 -0.30013370513916016
3.8612070083618164 -0.66586208343505859 0.017516136169433594
4.0413188934326172 0.45449161529541016 -0.18594264984130859
4.0136795043945312 0.32351493835449219 0.074726104736328125
3.6170101165771484 1.6459531784057617 -0.36421966552734375
3.4504032135009766 2.2307891845703125 -0.29430675506591797
3.3521194458007812 1.8658628463745117 0.31390953063964844
3.6094045639038086 1.4189262390136719 0.47796630859375
-0.75107955932617188 0.20693016052246094 0.58228206634521484
-0.54306125640869141 -0.28063011169433594 0.51900672912597656
-1.689326286315918 0.61400508880615234 1.0308437347412109
-2.1960792541503906 0.44157028198242188 1.0130100250244141
-2.2996540069580078 -0.79022979736328125 1.0208358764648438
-1.4895124435424805 -1.0008420944213867 0.967803955078125
1.9046602249145508 -0.49343776702880859 0.85623741149902344
1.4636545181274414 -0.85067367553710938 0.63687229156494141
1.9436187744140625 0.63989925384521484 1.0064773559570312
1.3890876770019531 0.85365676879882812 0.86351490020751953
0.40282440185546875 0.38968086242675781 0.42691230773925781
0.43421649932861328 -0.40486621856689453 0.44765281677246094
-0.49656295776367188 -0.42772865295410156 -0.37369728088378906
-0.337799072265625 0.1541748046875 -0.44148540496826172
-1.1547079086303711 -1.2083044052124023 -1.0795526504516602
-1.6149959564208984 -0.69027996063232422 -1.1281356811523438
-1.8885116577148438 0.61492252349853516 -1.0569095611572266
-1.4309597015380859 0.79848384857177734 -0.84808635711669922
2.1681900024414062 0.46262359619140625 -0.97019100189208984
1.8610258102416992 0.98348522186279297 -0.91422176361083984
2.0898885726928711 -0.59704399108886719 -1.1978187561035156
1.653533935546875 -0.90611743927001953 -1.0512886047363281
0.64595508575439453 -0.51903629302978516 -0.60968494415283203
0.67585849761962891 0.18200206756591797 -0.57231044769287109
0.19931125640869141 -3.9506425857543945 0.22034645080566406
-0.46466350555419922 -3.8841114044189453 0.18502998352050781
0.97845840454101562 -3.4096593856811523 0.74313735961914062
0.42146492004394531 -3.4340715408325195 0.935943603515625
-0.52909469604492188 -3.2537155151367188 0.86993026733398438
-0.91234016418457031 -3.3336381912231445 0.54476165771484375
-0.53249740600585938 -3.2499990463256836 -0.96272850036621094
-0.81195068359375 -3.3683652877807617 -0.73826694488525391
0.78756046295166016 -3.3184394836425781 -1.1413993835449219
0.88915443420410156 -3.5534858703613281 -0.81901168823242188
0.13770389556884766 -3.8708724975585938 -0.3320465087890625
-0.49301433563232422 -3.8454570770263672 -0.31138992309570312
-0.76758193969726562 3.0950479507446289 0.94114494323730469
-1.2620820999145508 3.2331171035766602 0.6921844482421875
0.45902442932128906 3.211334228515625 0.94357585906982422
0.85252189636230469 3.3250255584716797 0.81358528137207031
0.27259731292724609 3.6575717926025391 0.31831932067871094
-0.47314071655273438 3.6784210205078125 0.32545948028564453
0.37542915344238281 3.7237224578857422 -0.080171585083007812
-0.22028923034667969 3.8019495010375977 -0.20788955688476562
1.0503034591674805 3.2931060791015625 -0.67169857025146484
0.70575618743896484 3.1953868865966797 -1.0124387741088867
-0.45874214172363281 3.2130441665649414 -0.82740020751953125
-0.8168487548828125 3.4983386993408203 -0.76057815551757812
-1.4932613372802734 -2.7391204833984375 0.95843410491943359
-1.6948060989379883 -2.9298171997070312 0.76442241668701172
-2.0033359527587891 -1.8599586486816406 1.1438579559326172
-2.4470310211181641 -1.5779056549072266 1.0583209991455078
-3.0794267654418945 -1.9906272888183594 0.86690139770507812
-3.0009012222290039 -2.4247350692749023 0.72711944580078125
2.8300609588623047 -1.7804136276245117 0.66399860382080078
2.6973609924316406 -2.3070812225341797 0.48506927490234375
2.1946277618408203 -1.549260139465332 0.862030029296875
1.6231231689453125 -1.7883405685424805 0.81470298767089844
1.295598030090332 -2.6659259796142578 0.89651966094970703
1.6130895614624023 -2.9772491455078125 0.77877235412597656
-1.840785026550293 1.7018327713012695 1.0463085174560547
-2.4788608551025391 1.2703304290771484 1.0736989974975586
-1.4160633087158203 2.7536945343017578 1.0877485275268555
-1.9533653259277344 2.6531782150268555 0.89468669891357422
-2.8187170028686523 2.1537160873413086 0.52664566040039062
-2.9614391326904297 1.6653308868408203 0.58040428161621094
2.7090530395507812 2.2218990325927734 0.802825927734375
2.9776411056518555 1.697962760925293 0.83545780181884766
1.8503189086914062 2.8404598236083984 0.86751842498779297
1.6719417572021484 2.5895299911499023 1.0045051574707031
1.7469606399536133 1.6713657379150391 1.0934514999389648
2.3809995651245117 1.2217044830322266 1.0474214553833008
-1.7405853271484375 -1.7878503799438477 -1.1573705673217773
-2.130589485168457 -1.2325534820556641 -1.0347156524658203
-1.6204433441162109 -2.6033840179443359 -1.0188741683959961
-1.9453020095825195 -2.7179327011108398 -0.90152072906494141
-2.88653564453125 -2.1930341720581055 -0.57475090026855469
-3.0684881210327148 -1.5262155532836914 -0.76343345642089844
2.8248147964477539 -2.334132194519043 -0.81957244873046875
3.0385379791259766 -1.8408288955688477 -0.97672462463378906
1.8548660278320312 -3.0227680206298828 -1.0652294158935547
1.5867223739624023 -2.7627220153808594 -1.2721376419067383
1.9966697692871094 -1.6915950775146484 -1.3026609420776367
2.5668916702270508 -1.3926858901977539 -1.3675994873046875
-2.5295677185058594 2.3093690872192383 -1.0720996856689453
-2.8668842315673828 1.7492141723632812 -1.2003450393676758
-1.5333137512207031 2.8429965972900391 -1.1168994903564453
-1.0782079696655273 2.695612907409668 -1.087977409362793
-1.6377573013305664 1.7643623352050781 -1.1379461288452148
-2.144047737121582 1.3904972076416016 -1.2134695053100586
2.0857858657836914 1.7747745513916016 -1.1483707427978516
2.6917362213134766 1.3913326263427734 -1.0951108932495117
1.5016555786132812 2.6590557098388672 -1.0554389953613281
1.8390007019042969 2.9345550537109375 -0.92474174499511719
2.8960552215576172 2.4017648696899414 -0.72427654266357422
3.1338071823120117 1.7952404022216797 -0.77808570861816406
-3.8378944396972656 -0.17458152770996094 0.8035125732421875
-3.6739835739135742 -0.73993492126464844 0.88164901733398438
-3.9792461395263672 0.02895355224609375 0.24340438842773438
-3.3994646072387695 -1.7554569244384766 0.71860313415527344
-3.9288063049316406 -0.011209487915039062 -0.31315898895263672
-3.4709587097167969 0.0082387924194335938 -0.80938816070556641
-3.2784137725830078 -0.49718379974365234 -0.75407123565673828
-3.3879022598266602 -1.352635383605957 -0.64139270782470703
-3.1522426605224609 -2.5015373229980469 0.43437004089355469
-3.1035938262939453 -2.2743587493896484 -0.37551975250244141
-2.5169868469238281 -2.9388198852539062 -0.19556140899658203
-2.5887365341186523 -3.0174503326416016 0.13664627075195312
-3.5024127960205078 0.37425136566162109 0.8957672119140625
-3.1656894683837891 1.4966907501220703 0.55498600006103516
-2.7960147857666016 2.2846384048461914 0.25287818908691406
-2.1907272338867188 2.7906284332275391 -0.21768379211425781
-2.2594823837280273 2.7741079330444336 -0.53283786773681641
-2.9183664321899414 2.1926021575927734 -0.78449344635009766
-3.188807487487793 1.3160667419433594 -1.0853080749511719
-3.3171844482421875 0.47916412353515625 -0.84610843658447266
3.2614812850952148 -0.73325729370117188 0.75167179107666016
3.5221118927001953 -0.11202239990234375 0.76157569885253906
3.1995296478271484 -1.5512313842773438 0.41386985778808594
3.9169778823852539 -0.15864753723144531 0.16821575164794922
2.7059192657470703 -2.4022483825683594 0.18283653259277344
2.2655563354492188 -3.1343307495117188 0.0067415237426757812
2.2188949584960938 -3.2972202301025391 -0.35425090789794922
2.8344402313232422 -2.5365476608276367 -0.60749912261962891
4.0556735992431641 0.14230060577392578 -0.34598636627197266
3.29010009765625 -1.5172901153564453 -0.92472553253173828
3.6481180191040039 -0.33804893493652344 -1.008418083190918
3.8788127899169922 -0.00528717041015625 -0.82666873931884766
3.4587688446044922 0.40749645233154297 0.77333164215087891
3.3383960723876953 1.4217844009399414 0.68952751159667969
3.6433219909667969 0.40615653991699219 -0.98716259002685547
3.6313838958740234 1.4328603744506836 -0.63579368591308594
2.9943408966064453 2.2229146957397461 0.55560302734375
3.1390380859375 2.3596382141113281 -0.52890872955322266
2.403656005859375 2.83404541015625 -0.068082809448242188
2.280949592590332 2.8117446899414062 0.21921348571777344
0.010455131530761719 -1.5730991363525391 0.64177608489990234
-0.66632270812988281 -1.8617334365844727 1.0362129211425781
-0.0033979415893554688 -0.58989524841308594 0.44579887390136719
-1.6935491561889648 -1.5177679061889648 1.1049976348876953
-0.36921501159667969 0.46074581146240234 0.35813522338867188
-0.13980770111083984 1.5757780075073242 0.75411415100097656
-0.48497676849365234 1.975346565246582 0.98387336730957031
-1.6277379989624023 1.2556066513061523 1.1344804763793945
-2.4762659072875977 -1.2043743133544922 1.0265817642211914
-2.5878791809082031 0.71528339385986328 1.0367813110351562
-3.2483806610107422 0.047092437744140625 1.1416702270507812
-3.4295291900634766 -0.6216583251953125 1.0456867218017578
0.5296783447265625 -1.8167715072631836 0.68511009216308594
1.3867502212524414 -1.3799676895141602 0.72341537475585938
2.1929702758789062 -0.85599231719970703 0.87191867828369141
3.0746726989746094 -0.47507190704345703 0.87658786773681641
3.1820755004882812 0.22823619842529297 0.96004390716552734
2.3884048461914062 0.68961811065673828 1.0150985717773438
1.3219852447509766 1.3872900009155273 0.9375
0.55810260772705078 1.8620758056640625 1.030482292175293
0.16369152069091797 1.3234968185424805 -0.95313072204589844
-0.24780178070068359 1.7991113662719727 -1.0839271545410156
0.19061756134033203 0.30924224853515625 -0.45127582550048828
-1.3526487350463867 1.4116935729980469 -1.0028667449951172
-0.040780067443847656 -0.61294651031494141 -0.45990467071533203
0.074872970581054688 -1.7716522216796875 -1.022984504699707
-0.35742855072021484 -2.2228889465332031 -1.1808099746704102
-1.3369121551513672 -1.6853084564208984 -1.1806535720825195
-2.1747941970825195 0.96288299560546875 -1.2264938354492188
-1.9976520538330078 -0.92451667785644531 -1.1220216751098633
-2.8610305786132812 -0.38941192626953125 -0.93681526184082031
-2.8380012512207031 0.29610443115234375 -0.93819332122802734
0.74132061004638672 1.6893491744995117 -1.0384492874145508
1.8370609283447266 1.3811435699462891 -1.0491809844970703
2.4799699783325195 0.88720607757568359 -1.0895595550537109
3.2275066375732422 0.36281013488769531 -1.1106042861938477
3.3134126663208008 -0.17887210845947266 -1.2453289031982422
2.6328744888305664 -0.75980186462402344 -1.2891426086425781
1.7112827301025391 -1.2663211822509766 -1.1798419952392578
0.77921295166015625 -1.9372138977050781 -1.2779636383056641
-1.8177461624145508 -3.3699522018432617 -0.14175987243652344
-2.1183023452758789 -3.3133382797241211 0.167816162109375
-0.62447547912597656 -3.8708772659301758 -0.017910957336425781
-1.4815511703491211 -3.1943035125732422 0.6609344482421875
0.34858417510986328 -3.9726705551147461 -0.036579132080078125
1.4466171264648438 -3.6246681213378906 0.057638168334960938
1.7446012496948242 -3.3188867568969727 0.19451141357421875
1.3675203323364258 -3.2157268524169922 0.67610073089599609
-0.97478771209716797 -2.9342060089111328 0.95709896087646484
0.65030002593994141 -2.9720287322998047 0.99112796783447266
0.28526878356933594 -2.3032875061035156 0.96088790893554688
-0.25797748565673828 -2.343348503112793 1.053502082824707
-1.9347705841064453 -3.2393894195556641 -0.36645412445068359
-1.4739761352539062 -3.1310720443725586 -0.75630283355712891
-0.92287731170654297 -2.9116964340209961 -1.0209903717041016
-0.11618328094482422 -2.6470146179199219 -1.2595996856689453
0.54531955718994141 -2.3933687210083008 -1.2935876846313477
1.1601676940917969 -2.8866806030273438 -1.2727861404418945
1.3955507278442383 -3.4639110565185547 -0.77789020538330078
1.6578226089477539 -3.4582004547119141 -0.24283123016357422
-1.890650749206543 3.0181369781494141 0.053081512451171875
-1.5117111206054688 3.3083076477050781 -0.20462989807128906
-1.6892261505126953 2.9560699462890625 0.68149280548095703
-0.54473114013671875 3.6504087448120117 -0.024929046630859375
-0.89247894287109375 2.7739324569702148 1.0397071838378906
-0.28750896453857422 2.3272342681884766 1.0370054244995117
0.47323703765869141 2.2713184356689453 1.1626605987548828
0.92521572113037109 2.8825626373291016 0.93410778045654297
0.56319713592529297 3.67999267578125 0.14830112457275391
1.4208288192749023 3.125640869140625 0.77475166320800781
1.835174560546875 3.1437177658081055 0.28235816955566406
1.4299001693725586 3.3669986724853516 0.10228157043457031
-1.7414455413818359 3.1875743865966797 -0.53569412231445312
-1.1932697296142578 3.1736555099487305 -0.96617889404296875
1.9109706878662109 3.1721010208129883 -0.25356960296630859
1.5921821594238281 3.169163703918457 -0.73852157592773438
-0.59538650512695312 2.8408107757568359 -1.0082197189331055
1.0075206756591797 2.8733234405517578 -1.1292057037353516
0.60659503936767578 2.3624153137207031 -1.1934843063354492
0.023360252380371094 2.3340787887573242 -1.0384988784790039
-3.8283605575561523 -0.90821075439453125 -0.33125877380371094
-3.4803314208984375 -2.082697868347168 -0.080267906188964844
-3.9181690216064453 -1.0818939208984375 0.37899112701416016
-3.2320632934570312 1.784571647644043 -0.41319561004638672
-3.6174163818359375 1.0215034484863281 -0.45177078247070312
-3.6245479583740234 0.86695575714111328 0.29749965667724609
3.2208356857299805 -2.0786466598510742 -0.25117301940917969
3.6598348617553711 -1.0072860717773438 -0.56821346282958984
3.7440805435180664 -0.96750068664550781 0.097569465637207031
3.9175024032592773 1.1168355941772461 -0.4111480712890625
3.4231042861938477 2.0543460845947266 -0.03641510009765625
3.9124383926391602 0.75810813903808594 0.21302413940429688
-1.1962356567382812 0.46781826019287109 0.81981182098388672
-2.2672672271728516 -0.19808578491210938 1.0437965393066406
-0.98569965362548828 -0.59747982025146484 0.82773208618164062
2.0373001098632812 0.14338302612304688 0.90630340576171875
0.88752174377441406 0.84549617767333984 0.65930938720703125
1.0073947906494141 -0.50702476501464844 0.47608757019042969
-0.77829360961914062 -0.66306686401367188 -0.70110034942626953
-1.7426071166992188 -0.14581871032714844 -1.0633821487426758
-0.89205169677734375 0.64000797271728516 -0.72678756713867188
2.0604667663574219 -0.0083246231079101562 -1.1752204895019531
1.1841745376586914 -0.6610107421875 -0.78991508483886719
1.1415557861328125 0.64778041839599609 -0.73329353332519531
0.49067020416259766 -3.7868833541870117 0.50804233551025391
-0.0083875656127929688 -3.3810558319091797 0.86505985260009766
-0.74097251892089844 -3.5877656936645508 0.29467487335205078
0.26856613159179688 -3.3218097686767578 -1.1903095245361328
0.41724872589111328 -3.7487649917602539 -0.51298141479492188
-0.78481960296630859 -3.5107545852661133 -0.47405529022216797
-0.13832950592041016 3.0545177459716797 0.97926712036132812
0.52859115600585938 3.4835605621337891 0.54443836212158203
-0.85425376892089844 3.4461040496826172 0.53530120849609375
0.82746505737304688 3.5993061065673828 -0.31266593933105469
0.23642539978027344 3.3531627655029297 -0.95348644256591797
-0.35295009613037109 3.7782812118530273 -0.5544281005859375
-1.7849512100219727 -2.4333000183105469 1.1155986785888672
-2.7891998291015625 -1.7245922088623047 0.979888916015625
-2.6176567077636719 -2.6352958679199219 0.81386089324951172
2.5432710647583008 -1.5358257293701172 0.76263809204101562
1.6565732955932617 -2.2466974258422852 0.8832855224609375
2.1704273223876953 -2.7113027572631836 0.56016826629638672
-1.7055807113647461 2.145869255065918 1.0857954025268555
-2.3657140731811523 2.3674144744873047 0.84693050384521484
-2.743743896484375 1.4850368499755859 0.90785789489746094
2.333827018737793 2.5634660720825195 0.79831695556640625
1.8510293960571289 2.1788196563720703 1.1529541015625
2.7621879577636719 1.5240106582641602 0.95313358306884766
-1.8422145843505859 -2.1203746795654297 -1.1345329284667969
-2.5179328918457031 -2.3397293090820312 -0.76157283782958984
-2.6382846832275391 -1.291874885559082 -0.86272525787353516
2.2752628326416016 -2.7150564193725586 -0.94572830200195312
1.8387155532836914 -2.1425094604492188 -1.2846050262451172
2.8935365676879883 -1.5360050201416016 -1.2008647918701172
-2.0786304473876953 2.4267807006835938 -1.197148323059082
-1.3267698287963867 2.302393913269043 -1.1612758636474609
-2.6121435165405273 1.3884258270263672 -1.2972726821899414
1.8439388275146484 2.2778167724609375 -1.0962543487548828
2.4874324798583984 2.6891632080078125 -0.70731925964355469
2.929234504699707 1.5590629577636719 -0.98440933227539062
-3.8863563537597656 -0.066503524780273438 0.56528186798095703
-3.480036735534668 -1.2800636291503906 0.87148761749267578
-3.7801227569580078 -0.070009231567382812 -0.5240020751953125
-3.3308048248291016 -0.88865852355957031 -0.74949359893798828
-2.8332920074462891 -2.6177549362182617 -0.30995082855224609
-2.8825750350952148 -2.8308420181274414 0.20496082305908203
-3.3866081237792969 0.99568748474121094 0.81891155242919922
-2.4737777709960938 2.4908390045166016 0.0692901611328125
-2.5922451019287109 2.4645347595214844 -0.62813377380371094
-3.2343330383300781 0.95389842987060547 -1.0189390182495117
3.2937660217285156 -1.1812658309936523 0.48867034912109375
3.66082763671875 -0.086185455322265625 0.45876026153564453
2.4412784576416016 -2.8435173034667969 0.031489372253417969
2.4783420562744141 -2.8822364807128906 -0.61175441741943359
3.460301399230957 -0.82517814636230469 -1.0274782180786133
3.939661979675293 0.18762111663818359 -0.5540313720703125
3.4702768325805664 1.0180587768554688 0.61031436920166016
3.5474929809570312 0.97725677490234375 -0.92010498046875
2.8896884918212891 2.6221885681152344 -0.17414379119873047
2.7824363708496094 2.5127248764038086 0.30433750152587891
-0.15169620513916016 -1.0706663131713867 0.55277729034423828
-1.2003574371337891 -1.6275453567504883 1.0096645355224609
-0.12851619720458984 1.0321617126464844 0.49603462219238281
-0.9984283447265625 1.5763015747070312 0.95935153961181641
-2.9340047836303711 0.24676704406738281 1.1849784851074219
-3.0010166168212891 -0.78481483459472656 1.0727167129516602
1.0593423843383789 -1.6818208694458008 0.74474048614501953
2.6421842575073242 -0.70921993255615234 0.90125465393066406
2.931971549987793 0.40848731994628906 0.85765838623046875
0.98644065856933594 1.7934808731079102 0.96546363830566406
0.080465316772460938 0.91652202606201172 -0.64607810974121094
-0.87446212768554688 1.7385997772216797 -1.0812854766845703
0.037109375 -1.279541015625 -0.64740753173828125
-0.81585407257080078 -2.0350122451782227 -1.115447998046875
-2.4041671752929688 -0.55118274688720703 -1.0501871109008789
-2.4814138412475586 0.59716415405273438 -1.1762409210205078
1.2648887634277344 1.5974159240722656 -0.96045494079589844
2.8873157501220703 0.58648777008056641 -1.1747493743896484
2.9149007797241211 -0.49371528625488281 -1.2596235275268555
1.2545566558837891 -1.5550374984741211 -1.1213369369506836
-1.3157329559326172 -3.6120767593383789 -0.15266323089599609
-1.8817844390869141 -3.2195196151733398 0.42773628234863281
0.94686698913574219 -3.7982311248779297 0.03595733642578125
1.4938459396362305 -3.3510274887084961 0.49474906921386719
0.51513862609863281 -2.5987949371337891 1.0518312454223633
-0.65158939361572266 -2.7432289123535156 0.99796199798583984
-1.8789339065551758 -3.1141738891601562 -0.63411808013916016
-0.57146549224853516 -2.848444938659668 -1.1366071701049805
0.88875865936279297 -2.6279048919677734 -1.3465404510498047
1.5348606109619141 -3.5091981887817383 -0.49586677551269531
-1.7436456680297852 3.0409812927246094 0.35296058654785156
-1.0278892517089844 3.5084953308105469 -0.10648155212402344
-0.688690185546875 2.4738912582397461 1.0649929046630859
0.61995029449462891 2.6412010192871094 1.0484380722045898
1.7603206634521484 3.2204008102416992 0.56332015991210938
1.0531511306762695 3.6527786254882812 0.13105583190917969
-1.4837417602539062 3.100407600402832 -0.83334255218505859
1.767303466796875 3.1656522750854492 -0.52103710174560547
0.82532024383544922 2.6161737442016602 -1.2170696258544922
-0.26439476013183594 2.6873931884765625 -0.98224639892578125
-3.9668560028076172 -0.073343276977539062 -0.040036201477050781
-3.3053531646728516 -1.7177181243896484 -0.56064033508300781
-3.286097526550293 -2.1142396926879883 0.56313323974609375
-3.1331624984741211 1.923762321472168 0.21216487884521484
-3.0435810089111328 1.8452892303466797 -1.0400552749633789
3.0880165100097656 -2.0014982223510742 0.29920196533203125
3.2259120941162109 -1.9579257965087891 -0.81210613250732422
4.0236549377441406 -0.17686557769775391 -0.13559722900390625
3.3182601928710938 1.9756059646606445 -0.57222747802734375
3.153203010559082 1.829319953918457 0.63436698913574219
-0.065234184265136719 0.024854660034179688 0.39300823211669922
-2.1178359985351562 1.0413007736206055 1.0658340454101562
-2.010981559753418 -1.2168912887573242 1.0470609664916992
1.8973865509033203 -1.2979602813720703 0.84583282470703125
1.937403678894043 1.2082929611206055 1.0386877059936523
0.18425655364990234 -0.21790313720703125 -0.31352519989013672
-1.6011495590209961 -1.3016242980957031 -1.2030735015869141
-1.7346820831298828 1.1699113845825195 -1.0350675582885742
2.3551445007324219 1.2346830368041992 -1.0209941864013672
2.2399349212646484 -1.0594596862792969 -1.2671012878417969
-0.16903495788574219 -3.9428510665893555 -0.056470870971679688
1.0023193359375 -3.048828125 0.90362930297851562
-1.1172294616699219 -3.135289192199707 0.80568885803222656
-1.2413415908813477 -3.0201091766357422 -0.90724754333496094
1.3298187255859375 -3.2649860382080078 -1.0684108734130859
-1.3006362915039062 3.0063915252685547 0.98295783996582031
1.2585620880126953 2.9567909240722656 0.91815567016601562
-0.083963394165039062 3.7351579666137695 0.075608253479003906
1.3334131240844727 2.963653564453125 -0.90561866760253906
-0.89136123657226562 3.0593929290771484 -0.99164390563964844
-3.5381145477294922 -0.13950824737548828 0.98081016540527344
-3.1165533065795898 -0.12935161590576172 -0.93761157989501953
-2.2013044357299805 -3.2181463241577148 -0.063821792602539062
-1.9027328491210938 3.0455541610717773 -0.28385543823242188
3.3233671188354492 -0.085768699645996094 0.87469005584716797
1.8604040145874023 -3.38604736328125 -0.056341171264648438
3.5797672271728516 0.068472862243652344 -1.1122817993164062
1.9535360336303711 3.0997304916381836 0.023214340209960938
-0.11136436462402344 -1.9921598434448242 0.93152904510498047
0.0051164627075195312 1.9612083435058594 1.0311403274536133
0.23988533020019531 1.8823204040527344 -1.147212028503418
0.23242855072021484 -2.1668567657470703 -1.1899995803833008
3 0 1 2
3 3 4 5
3 6 7 8
3 9 10 11
3 12 13 14
3 15 16 17
3 18 19 20
3 21 22 23
3 24 25 26
3 27 28 29
3 30 31 32
3 33 34 35
3 36 37 38
3 39 40 41
3 42 43 44
3 45 46 47
3 48 49 50
3 51 52 53
3 54 55 56
3 57 58 59
3 60 61 62
3 63 64 65
3 66 67 68
3 69 70 71
3 72 73 74
3 75 76 77
3 78 79 80
3 81 82 83
3 84 85 86
3 87 88 89
3 90 91 92
3 93 94 95
3 96 97 98
3 99 100 101
3 102 103 104
3 105 106 107
3 108 109 110
3 111 112 113
3 114 115 116
3 117 118 119
3 120 121 122
3 123 124 125
3 126 127 128
3 129 130 131
3 132 133 134
3 135 136 137
3 138 139 140
3 141 142 143
3 144 145 146
3 147 148 149
3 150 151 152
3 153 154 155
3 156 157 158
3 159 160 161
3 162 163 164
3 165 166 167
3 168 169 170
3 171 172 173
3 174 175 176
3 177 178 179
3 180 181 182
3 183 184 185
3 186 187 188
3 189 190 191
3 192 193 194
3 195 196 197
3 198 199 200
3 201 202 203
3 204 205 206
3 207 208 209
3 210 211 212
3 213 214 215
3 216 217 218
3 219 220 221
3 222 223 224
3 225 226 227
3 228 229 230
3 231 232 233
3 234 235 236
3 237 238 239
3 240 2 241
3 242 243 0
3 1 244 245
3 246 5 247
3 248 249 3
3 4 250 251
3 252 8 253
3 254 255 6
3 7 256 257
3 258 11 259
3 260 261 9
3 10 262 263
3 264 14 265
3 266 267 12
3 13 268 269
3 270 17 271
3 272 273 15
3 16 274 275
3 276 20 277
3 278 279 18
3 19 280 281
3 282 23 283
3 284 285 21
3 22 286 287
3 288 26 289
3 290 291 24
3 25 292 293
3 294 29 295
3 296 297 27
3 28 298 299
3 300 32 301
3 302 303 30
3 31 304 305
3 306 35 307
3 308 309 33
3 34 310 311
3 312 38 313
3 314 315 36
3 37 316 317
3 318 41 319
3 320 321 39
3 40 322 323
3 324 44 325
3 326 327 42
3 43 328 329
3 330 47 331
3 332 333 45
3 46 334 335
3 336 50 337
3 338 339 48
3 49 340 341
3 342 53 343
3 344 345 51
3 52 346 347
3 348 56 349
3 350 351 54
3 55 352 353
3 354 59 355
3 356 357 57
3 58 358 359
3 360 62 361
3 362 241 60
3 61 245 363
3 364 65 240
3 365 366 63
3 64 367 242
3 244 68 368
3 243 369 66
3 67 370 371
3 372 71 360
3 373 247 69
3 70 251 362
3 374 74 246
3 375 376 72
3 73 377 248
3 250 77 364
3 249 378 75
3 76 379 365
3 380 80 381
3 382 253 78
3 79 257 383
3 384 83 252
3 385 386 81
3 82 387 254
3 256 86 388
3 255 389 84
3 85 390 391
3 381 89 392
3 383 259 87
3 88 263 393
3 388 92 258
3 391 394 90
3 91 395 260
3 262 95 396
3 261 397 93
3 94 398 399
3 400 98 401
3 402 265 96
3 97 269 403
3 404 101 264
3 405 406 99
3 100 407 266
3 268 104 408
3 267 409 102
3 103 410 411
3 412 107 400
3 413 271 105
3 106 275 402
3 414 110 270
3 415 416 108
3 109 417 272
3 274 113 404
3 273 418 111
3 112 419 405
3 420 116 421
3 422 277 114
3 115 281 423
3 424 119 276
3 425 426 117
3 118 427 278
3 280 122 428
3 279 429 120
3 121 430 431
3 432 125 420
3 433 283 123
3 124 287 422
3 434 128 282
3 435 436 126
3 127 437 284
3 286 131 424
3 285 438 129
3 130 439 425
3 440 134 441
3 442 289 132
3 133 293 443
3 444 137 288
3 445 446 135
3 136 447 290
3 292 140 448
3 291 449 138
3 139 450 451
3 452 143 440
3 453 295 141
3 142 299 442
3 454 146 294
3 455 456 144
3 145 457 296
3 298 149 444
3 297 458 147
3 148 459 445
3 460 152 461
3 462 301 150
3 151 305 463
3 464 155 300
3 465 466 153
3 154 467 302
3 304 158 468
3 303 469 156
3 157 470 471
3 461 161 472
3 463 307 159
3 160 311 473
3 468 164 306
3 471 474 162
3 163 475 308
3 310 167 476
3 309 477 165
3 166 478 479
3 441 170 371
3 443 313 168
3 169 317 368
3 448 173 312
3 451 401 171
3 172 403 314
3 316 176 363
3 315 408 174
3 175 411 361
3 385 179 446
3 384 319 177
3 178 323 447
3 382 182 318
3 380 415 180
3 181 414 320
3 322 185 449
3 321 413 183
3 184 412 450
3 410 188 372
3 409 325 186
3 187 329 373
3 407 191 324
3 406 465 189
3 190 464 326
3 328 194 374
3 327 462 192
3 193 460 375
3 392 197 416
3 393 331 195
3 196 335 417
3 396 200 330
3 399 470 198
3 199 469 332
3 334 203 418
3 333 467 201
3 202 466 419
3 430 206 366
3 429 337 204
3 205 341 367
3 427 209 336
3 426 455 207
3 208 454 338
3 340 212 369
3 339 453 210
3 211 452 370
3 390 215 436
3 389 343 213
3 214 347 437
3 387 218 342
3 386 459 216
3 217 458 344
3 346 221 438
3 345 457 219
3 220 456 439
3 379 224 431
3 378 349 222
3 223 353 428
3 377 227 348
3 376 472 225
3 226 473 350
3 352 230 423
3 351 476 228
3 229 479 421
3 435 233 394
3 434 355 231
3 232 359 395
3 433 236 354
3 432 478 234
3 235 477 356
3 358 239 397
3 357 475 237
3 238 474 398
3 480 0 2
3 0 481 1
3 2 1 482
3 483 3 5
3 3 484 4
3 5 4 485
3 486 6 8
3 6 487 7
3 8 7 488
3 489 9 11
3 9 490 10
3 11 10 491
3 492 12 14
3 12 493 13
3 14 13 494
3 495 15 17
3 15 496 16
3 17 16 497
3 498 18 20
3 18 499 19
3 20 19 500
3 501 21 23
3 21 502 22
3 23 22 503
3 504 24 26
3 24 505 25
3 26 25 506
3 507 27 29
3 27 508 28
3 29 28 509
3 510 30 32
3 30 511 31
3 32 31 512
3 513 33 35
3 33 514 34
3 35 34 515
3 516 36 38
3 36 517 37
3 38 37 518
3 519 39 41
3 39 520 40
3 41 40 521
3 522 42 44
3 42 523 43
3 44 43 524
3 525 45 47
3 45 526 46
3 47 46 527
3 528 48 50
3 48 529 49
3 50 49 530
3 531 51 53
3 51 532 52
3 53 52 533
3 534 54 56
3 54 535 55
3 56 55 536
3 537 57 59
3 57 538 58
3 59 58 539
3 540 60 62
3 60 482 61
3 62 61 541
3 542 63 65
3 63 543 64
3 65 64 480
3 481 66 68
3 66 544 67
3 68 67 545
3 546 69 71
3 69 485 70
3 71 70 540
3 547 72 74
3 72 548 73
3 74 73 483
3 484 75 77
3 75 549 76
3 77 76 542
3 550 78 80
3 78 488 79
3 80 79 551
3 552 81 83
3 81 553 82
3 83 82 486
3 487 84 86
3 84 554 85
3 86 85 555
3 551 87 89
3 87 491 88
3 89 88 556
3 555 90 92
3 90 557 91
3 92 91 489
3 490 93 95
3 93 558 94
3 95 94 559
3 560 96 98
3 96 494 97
3 98 97 561
3 562 99 101
3 99 563 100
3 101 100 492
3 493 102 104
3 102 564 103
3 104 103 565
3 566 105 107
3 105 497 106
3 107 106 560
3 567 108 110
3 108 568 109
3 110 109 495
3 496 111 113
3 111 569 112
3 113 112 562
3 570 114 116
3 114 500 115
3 116 115 571
3 572 117 119
3 117 573 118
3 119 118 498
3 499 120 122
3 120 574 121
3 122 121 575
3 576 123 125
3 123 503 124
3 125 124 570
3 577 126 128
3 126 578 127
3 128 127 501
3 502 129 131
3 129 579 130
3 131 130 572
3 580 132 134
3 132 506 133
3 134 133 581
3 582 135 137
3 135 583 136
3 137 136 504
3 505 138 140
3 138 584 139
3 140 139 585
3 586 141 143
3 141 509 142
3 143 142 580
3 587 144 146
3 144 588 145
3 146 145 507
3 508 147 149
3 147 589 148
3 149 148 582
3 590 150 152
3 150 512 151
3 152 151 591
3 592 153 155
3 153 593 154
3 155 154 510
3 511 156 158
3 156 594 157
3 158 157 595
3 591 159 161
3 159 515 160
3 161 160 596
3 595 162 164
3 162 597 163
3 164 163 513
3 514 165 167
3 165 598 166
3 167 166 599
3 581 168 170
3 168 518 169
3 170 169 545
3 585 171 173
3 171 561 172
3 173 172 516
3 517 174 176
3 174 565 175
3 176 175 541
3 552 177 179
3 177 521 178
3 179 178 583
3 550 180 182
3 180 567 181
3 182 181 519
3 520 183 185
3 183 566 184
3 185 184 584
3 564 186 188
3 186 524 187
3 188 187 546
3 563 189 191
3 189 592 190
3 191 190 522
3 523 192 194
3 192 590 193
3 194 193 547
3 556 195 197
3 195 527 196
3 197 196 568
3 559 198 200
3 198 594 199
3 200 199 525
3 526 201 203
3 201 593 202
3 203 202 569
3 574 204 206
3 204 530 205
3 206 205 543
3 573 207 209
3 207 587 208
3 209 208 528
3 529 210 212
3 210 586 211
3 212 211 544
3 554 213 215
3 213 533 214
3 215 214 578
3 553 216 218
3 216 589 217
3 218 217 531
3 532 219 221
3 219 588 220
3 221 220 579
3 549 222 224
3 222 536 223
3 224 223 575
3 548 225 227
3 225 596 226
3 227 226 534
3 535 228 230
3 228 599 229
3 230 229 571
3 577 231 233
3 231 539 232
3 233 232 557
3 576 234 236
3 234 598 235
3 236 235 537
3 538 237 239
3 237 597 238
3 239 238 558
3 600 240 241
3 240 480 2
3 241 2 482
3 480 242 0
3 242 601 243
3 0 243 481
3 482 1 245
3 1 481 244
3 245 244 602
3 603 246 247
3 246 483 5
3 247 5 485
3 483 248 3
3 248 604 249
3 3 249 484
3 485 4 251
3 4 484 250
3 251 250 600
3 605 252 253
3 252 486 8
3 253 8 488
3 486 254 6
3 254 606 255
3 6 255 487
3 488 7 257
3 7 487 256
3 257 256 607
3 607 258 259
3 258 489 11
3 259 11 491
3 489 260 9
3 260 608 261
3 9 261 490
3 491 10 263
3 10 490 262
3 263 262 609
3 610 264 265
3 264 492 14
3 265 14 494
3 492 266 12
3 266 611 267
3 12 267 493
3 494 13 269
3 13 493 268
3 269 268 612
3 613 270 271
3 270 495 17
3 271 17 497
3 495 272 15
3 272 614 273
3 15 273 496
3 497 16 275
3 16 496 274
3 275 274 610
3 615 276 277
3 276 498 20
3 277 20 500
3 498 278 18
3 278 616 279
3 18 279 499
3 500 19 281
3 19 499 280
3 281 280 617
3 618 282 283
3 282 501 23
3 283 23 503
3 501 284 21
3 284 619 285
3 21 285 502
3 503 22 287
3 22 502 286
3 287 286 615
3 620 288 289
3 288 504 26
3 289 26 506
3 504 290 24
3 290 621 291
3 24 291 505
3 506 25 293
3 25 505 292
3 293 292 622
3 623 294 295
3 294 507 29
3 295 29 509
3 507 296 27
3 296 624 297
3 27 297 508
3 509 28 299
3 28 508 298
3 299 298 620
3 625 300 301
3 300 510 32
3 301 32 512
3 510 302 30
3 302 626 303
3 30 303 511
3 512 31 305
3 31 511 304
3 305 304 627
3 627 306 307
3 306 513 35
3 307 35 515
3 513 308 33
3 308 628 309
3 33 309 514
3 515 34 311
3 34 514 310
3 311 310 629
3 622 312 313
3 312 516 38
3 313 38 518
3 516 314 36
3 314 612 315
3 36 315 517
3 518 37 317
3 37 517 316
3 317 316 602
3 605 318 319
3 318 519 41
3 319 41 521
3 519 320 39
3 320 613 321
3 39 321 520
3 521 40 323
3 40 520 322
3 323 322 621
3 611 324 325
3 324 522 44
3 325 44 524
3 522 326 42
3 326 625 327
3 42 327 523
3 524 43 329
3 43 523 328
3 329 328 603
3 609 330 331
3 330 525 47
3 331 47 527
3 525 332 45
3 332 626 333
3 45 333 526
3 527 46 335
3 46 526 334
3 335 334 614
3 616 336 337
3 336 528 50
3 337 50 530
3 528 338 48
3 338 623 339
3 48 339 529
3 530 49 341
3 49 529 340
3 341 340 601
3 606 342 343
3 342 531 53
3 343 53 533
3 531 344 51
3 344 624 345
3 51 345 532
3 533 52 347
3 52 532 346
3 347 346 619
3 604 348 349
3 348 534 56
3 349 56 536
3 534 350 54
3 350 629 351
3 54 351 535
3 536 55 353
3 55 535 352
3 353 352 617
3 618 354 355
3 354 537 59
3 355 59 539
3 537 356 57
3 356 628 357
3 57 357 538
3 539 58 359
3 58 538 358
3 359 358 608
3 630 360 361
3 360 540 62
3 361 62 541
3 540 362 60
3 362 600 241
3 60 241 482
3 541 61 363
3 61 482 245
3 363 245 602
3 600 364 240
3 364 542 65
3 240 65 480
3 542 365 63
3 365 631 366
3 63 366 543
3 480 64 242
3 64 543 367
3 242 367 601
3 602 244 368
3 244 481 68
3 368 68 545
3 481 243 66
3 243 601 369
3 66 369 544
3 545 67 371
3 67 544 370
3 371 370 632
3 630 372 360
3 372 546 71
3 360 71 540
3 546 373 69
3 373 603 247
3 69 247 485
3 540 70 362
3 70 485 251
3 362 251 600
3 603 374 246
3 374 547 74
3 246 74 483
3 547 375 72
3 375 633 376
3 72 376 548
3 483 73 248
3 73 548 377
3 248 377 604
3 600 250 364
3 250 484 77
3 364 77 542
3 484 249 75
3 249 604 378
3 75 378 549
3 542 76 365
3 76 549 379
3 365 379 631
3 634 380 381
3 380 550 80
3 381 80 551
3 550 382 78
3 382 605 253
3 78 253 488
3 551 79 383
3 79 488 257
3 383 257 607
3 605 384 252
3 384 552 83
3 252 83 486
3 552 385 81
3 385 635 386
3 81 386 553
3 486 82 254
3 82 553 387
3 254 387 606
3 607 256 388
3 256 487 86
3 388 86 555
3 487 255 84
3 255 606 389
3 84 389 554
3 555 85 391
3 85 554 390
3 391 390 636
3 634 381 392
3 381 551 89
3 392 89 556
3 551 383 87
3 383 607 259
3 87 259 491
3 556 88 393
3 88 491 263
3 393 263 609
3 607 388 258
3 388 555 92
3 258 92 489
3 555 391 90
3 391 636 394
3 90 394 557
3 489 91 260
3 91 557 395
3 260 395 608
3 609 262 396
3 262 490 95
3 396 95 559
3 490 261 93
3 261 608 397
3 93 397 558
3 559 94 399
3 94 558 398
3 399 398 637
3 638 400 401
3 400 560 98
3 401 98 561
3 560 402 96
3 402 610 265
3 96 265 494
3 561 97 403
3 97 494 269
3 403 269 612
3 610 404 264
3 404 562 101
3 264 101 492
3 562 405 99
3 405 639 406
3 99 406 563
3 492 100 266
3 100 563 407
3 266 407 611
3 612 268 408
3 268 493 104
3 408 104 565
3 493 267 102
3 267 611 409
3 102 409 564
3 565 103 411
3 103 564 410
3 411 410 630
3 638 412 400
3 412 566 107
3 400 107 560
3 566 413 105
3 413 613 271
3 105 271 497
3 560 106 402
3 106 497 275
3 402 275 610
3 613 414 270
3 414 567 110
3 270 110 495
3 567 415 108
3 415 634 416
3 108 416 568
3 495 109 272
3 109 568 417
3 272 417 614
3 610 274 404
3 274 496 113
3 404 113 562
3 496 273 111
3 273 614 418
3 111 418 569
3 562 112 405
3 112 569 419
3 405 419 639
3 640 420 421
3 420 570 116
3 421 116 571
3 570 422 114
3 422 615 277
3 114 277 500
3 571 115 423
3 115 500 281
3 423 281 617
3 615 424 276
3 424 572 119
3 276 119 498
3 572 425 117
3 425 641 426
3 117 426 573
3 498 118 278
3 118 573 427
3 278 427 616
3 617 280 428
3 280 499 122
3 428 122 575
3 499 279 120
3 279 616 429
3 120 429 574
3 575 121 431
3 121 574 430
3 431 430 631
3 640 432 420
3 432 576 125
3 420 125 570
3 576 433 123
3 433 618 283
3 123 283 503
3 570 124 422
3 124 503 287
3 422 287 615
3 618 434 282
3 434 577 128
3 282 128 501
3 577 435 126
3 435 636 436
3 126 436 578
3 501 127 284
3 127 578 437
3 284 437 619
3 615 286 424
3 286 502 131
3 424 131 572
3 502 285 129
3 285 619 438
3 129 438 579
3 572 130 425
3 130 579 439
3 425 439 641
3 632 440 441
3 440 580 134
3 441 134 581
3 580 442 132
3 442 620 289
3 132 289 506
3 581 133 443
3 133 506 293
3 443 293 622
3 620 444 288
3 444 582 137
3 288 137 504
3 582 445 135
3 445 635 446
3 135 446 583
3 504 136 290
3 136 583 447
3 290 447 621
3 622 292 448
3 292 505 140
3 448 140 585
3 505 291 138
3 291 621 449
3 138 449 584
3 585 139 451
3 139 584 450
3 451 450 638
3 632 452 440
3 452 586 143
3 440 143 580
3 586 453 141
3 453 623 295
3 141 295 509
3 580 142 442
3 142 509 299
3 442 299 620
3 623 454 294
3 454 587 146
3 294 146 507
3 587 455 144
3 455 641 456
3 144 456 588
3 507 145 296
3 145 588 457
3 296 457 624
3 620 298 444
3 298 508 149
3 444 149 582
3 508 297 147
3 297 624 458
3 147 458 589
3 582 148 445
3 148 589 459
3 445 459 635
3 633 460 461
3 460 590 152
3 461 152 591
3 590 462 150
3 462 625 301
3 150 301 512
3 591 151 463
3 151 512 305
3 463 305 627
3 625 464 300
3 464 592 155
3 300 155 510
3 592 465 153
3 465 639 466
3 153 466 593
3 510 154 302
3 154 593 467
3 302 467 626
3 627 304 468
3 304 511 158
3 468 158 595
3 511 303 156
3 303 626 469
3 156 469 594
3 595 157 471
3 157 594 470
3 471 470 637
3 633 461 472
3 461 591 161
3 472 161 596
3 591 463 159
3 463 627 307
3 159 307 515
3 596 160 473
3 160 515 311
3 473 311 629
3 627 468 306
3 468 595 164
3 306 164 513
3 595 471 162
3 471 637 474
3 162 474 597
3 513 163 308
3 163 597 475
3 308 475 628
3 629 310 476
3 310 514 167
3 476 167 599
3 514 309 165
3 309 628 477
3 165 477 598
3 599 166 479
3 166 598 478
3 479 478 640
3 632 441 371
3 441 581 170
3 371 170 545
3 581 443 168
3 443 622 313
3 168 313 518
3 545 169 368
3 169 518 317
3 368 317 602
3 622 448 312
3 448 585 173
3 312 173 516
3 585 451 171
3 451 638 401
3 171 401 561
3 516 172 314
3 172 561 403
3 314 403 612
3 602 316 363
3 316 517 176
3 363 176 541
3 517 315 174
3 315 612 408
3 174 408 565
3 541 175 361
3 175 565 411
3 361 411 630
3 635 385 446
3 385 552 179
3 446 179 583
3 552 384 177
3 384 605 319
3 177 319 521
3 583 178 447
3 178 521 323
3 447 323 621
3 605 382 318
3 382 550 182
3 318 182 519
3 550 380 180
3 380 634 415
3 180 415 567
3 519 181 320
3 181 567 414
3 320 414 613
3 621 322 449
3 322 520 185
3 449 185 584
3 520 321 183
3 321 613 413
3 183 413 566
3 584 184 450
3 184 566 412
3 450 412 638
3 630 410 372
3 410 564 188
3 372 188 546
3 564 409 186
3 409 611 325
3 186 325 524
3 546 187 373
3 187 524 329
3 373 329 603
3 611 407 324
3 407 563 191
3 324 191 522
3 563 406 189
3 406 639 465
3 189 465 592
3 522 190 326
3 190 592 464
3 326 464 625
3 603 328 374
3 328 523 194
3 374 194 547
3 523 327 192
3 327 625 462
3 192 462 590
3 547 193 375
3 193 590 460
3 375 460 633
3 634 392 416
3 392 556 197
3 416 197 568
3 556 393 195
3 393 609 331
3 195 331 527
3 568 196 417
3 196 527 335
3 417 335 614
3 609 396 330
3 396 559 200
3 330 200 525
3 559 399 198
3 399 637 470
3 198 470 594
3 525 199 332
3 199 594 469
3 332 469 626
3 614 334 418
3 334 526 203
3 418 203 569
3 526 333 201
3 333 626 467
3 201 467 593
3 569 202 419
3 202 593 466
3 419 466 639
3 631 430 366
3 430 574 206
3 366 206 543
3 574 429 204
3 429 616 337
3 204 337 530
3 543 205 367
3 205 530 341
3 367 341 601
3 616 427 336
3 427 573 209
3 336 209 528
3 573 426 207
3 426 641 455
3 207 455 587
3 528 208 338
3 208 587 454
3 338 454 623
3 601 340 369
3 340 529 212
3 369 212 544
3 529 339 210
3 339 623 453
3 210 453 586
3 544 211 370
3 211 586 452
3 370 452 632
3 636 390 436
3 390 554 215
3 436 215 578
3 554 389 213
3 389 606 343
3 213 343 533
3 578 214 437
3 214 533 347
3 437 347 619
3 606 387 342
3 387 553 218
3 342 218 531
3 553 386 216
3 386 635 459
3 216 459 589
3 531 217 344
3 217 589 458
3 344 458 624
3 619 346 438
3 346 532 221
3 438 221 579
3 532 345 219
3 345 624 457
3 219 457 588
3 579 220 439
3 220 588 456
3 439 456 641
3 631 379 431
3 379 549 224
3 431 224 575
3 549 378 222
3 378 604 349
3 222 349 536
3 575 223 428
3 223 536 353
3 428 353 617
3 604 377 348
3 377 548 227
3 348 227 534
3 548 376 225
3 376 633 472
3 225 472 596
3 534 226 350
3 226 596 473
3 350 473 629
3 617 352 423
3 352 535 230
3 423 230 571
3 535 351 228
3 351 629 476
3 228 476 599
3 571 229 421
3 229 599 479
3 421 479 640
3 636 435 394
3 435 577 233
3 394 233 557
3 577 434 231
3 434 618 355
3 231 355 539
3 557 232 395
3 232 539 359
3 395 359 608
3 618 433 354
3 433 576 236
3 354 236 537
3 576 432 234
3 432 640 478
3 234 478 598
3 537 235 356
3 235 598 477
3 356 477 628
3 608 358 397
3 358 538 239
3 397 239 558
3 538 357 237
3 357 628 475
3 237 475 597
3 558 238 398
3 238 597 474
3 398 474 637
