OFF
642 1280 0
-3.6998405456542969 -1.4581775665283203 -0.10469627380371094
-3.5629348754882812 -1.6344423294067383 0.108062744140625
-4.0116477012634277 -1.0687999725341797 0.075044631958007812
-3.4766845703125 1.4382781982421875 -0.35454559326171875
-3.7019309997558594 0.91775989532470703 -0.049412727355957031
-3.5247077941894531 1.2686357498168945 -0.0018835067749023438
3.6027669906616211 -1.6427946090698242 -0.24724197387695312
3.8547067642211914 -1.1863479614257812 -0.16864585876464844
3.4793462753295898 -1.6188287734985352 0.010865211486816406
3.5139141082763672 1.4261417388916016 -0.11638259887695312
3.4688558578491211 1.3587617874145508 0.12870121002197266
3.807499885559082 0.89387226104736328 -0.13572883605957031
-1.5737581253051758 0.18203926086425781 0.74931144714355469
-1.6490364074707031 -0.60085678100585938 0.75934028625488281
-1.2037811279296875 -0.12163639068603516 0.62500858306884766
1.5575952529907227 0.42114448547363281 0.48487567901611328
0.97035598754882812 0.12847709655761719 0.32761287689208984
1.4408369064331055 -0.17308235168457031 0.50337409973144531
-1.2471933364868164 -0.46093654632568359 -0.71225547790527344
-1.5084362030029297 0.162109375 -0.73783111572265625
-1.0442276000976562 0.054617881774902344 -0.50319576263427734
1.7678928375244141 -0.26746273040771484 -1.005213737487793
1.0828084945678711 -0.21726799011230469 -0.82183551788330078
1.5636367797851562 0.29768180847167969 -1.005157470703125
0.35060787200927734 -3.5266294479370117 0.80021190643310547
-0.38318157196044922 -3.4835910797119141 0.73405361175537109
0.12536811828613281 -3.7036561965942383 0.56476879119873047
0.30912876129150391 -3.5149345397949219 -0.56101131439208984
-0.067274093627929688 -3.6282901763916016 -0.35368537902832031
-0.29147148132324219 -3.3256263732910156 -0.55373096466064453
0.17722702026367188 3.5158767700195312 0.82428073883056641
-0.074622154235839844 3.7483711242675781 0.66169452667236328
-0.53351306915283203 3.4561023712158203 0.88540935516357422
0.38447952270507812 3.536595344543457 -0.6402435302734375
-0.14034652709960938 3.5424232482910156 -0.62581825256347656
0.0070333480834960938 3.7308835983276367 -0.32469940185546875
-2.3862056732177734 -1.8817634582519531 1.2107009887695312
-2.7631330490112305 -2.1021203994750977 1.1590147018432617
-2.1544179916381836 -2.5146322250366211 1.2738399505615234
2.2074680328369141 -1.8878984451293945 0.87528228759765625
2.0099716186523438 -2.4795494079589844 0.82860374450683594
2.5180644989013672 -2.0311698913574219 0.69810009002685547
-2.1995296478271484 2.2138395309448242 1.1484546661376953
-2.6981315612792969 1.9453439712524414 0.85313987731933594
-2.3474760055541992 1.721705436706543 1.1238546371459961
2.0884475708007812 2.5268478393554688 0.88565826416015625
2.1877403259277344 1.9615335464477539 0.9577178955078125
2.5882358551025391 2.1612682342529297 0.95000743865966797
-2.1564064025878906 -2.3368730545043945 -1.0138425827026367
-2.5611515045166016 -1.9912500381469727 -0.7588043212890625
-2.2745437622070312 -1.7580814361572266 -0.97216129302978516
2.0817966461181641 -2.5225038528442383 -1.0559930801391602
2.2108078002929688 -2.0138301849365234 -1.1030187606811523
2.6623439788818359 -2.177393913269043 -0.92657089233398438
-1.8387031555175781 2.4074535369873047 -1.0859880447387695
-2.0796394348144531 1.930328369140625 -1.1507120132446289
-2.3695096969604492 2.1229658126831055 -1.0177516937255859
1.9304914474487305 2.4626560211181641 -1.1166648864746094
2.5700016021728516 2.1389427185058594 -0.99937725067138672
2.339268684387207 1.9622249603271484 -1.2242145538330078
-3.9993324279785156 -0.46006584167480469 0.42950153350830078
-3.7511062622070312 -1.1002340316772461 0.59111595153808594
-3.8134059906005859 -0.62172794342041016 0.66126155853271484
-3.6929550170898438 -0.48326778411865234 -0.82133769989013672
-3.6733684539794922 -0.99780368804931641 -0.56496524810791016
-3.9567699432373047 -0.48213291168212891 -0.47412586212158203
-3.0098171234130859 -2.4590549468994141 0.0080547332763671875
-2.7060585021972656 -2.7902593612670898 0.18518257141113281
-3.0174684524536133 -2.6081371307373047 0.32537651062011719
-3.5228748321533203 0.85152339935302734 0.57676601409912109
-3.8558578491210938 0.31381702423095703 0.22974967956542969
-3.7334766387939453 0.41117382049560547 0.58001708984375
-2.6785345077514648 2.6734704971313477 -0.11615276336669922
-3.0368843078613281 2.2014331817626953 -0.44324302673339844
-3.0396356582641602 2.2947282791137695 -0.03823089599609375
-3.5361089706420898 0.95915031433105469 -0.69118881225585938
-3.5715427398681641 0.35792446136474609 -0.74332714080810547
-3.8041610717773438 0.46125411987304688 -0.62691211700439453
3.5737056732177734 -0.99857997894287109 0.36591720581054688
3.7520866394042969 -0.59020042419433594 0.37728786468505859
3.4845066070556641 -0.29992008209228516 0.58173084259033203
2.6842622756958008 -2.8744182586669922 -0.12656307220458984
3.0190334320068359 -2.4999904632568359 -0.21459770202636719
2.8681125640869141 -2.5270185470581055 0.12866115570068359
3.6490030288696289 -1.1328144073486328 -0.81091213226318359
3.77154541015625 -0.61029720306396484 -0.82551288604736328
3.9354705810546875 -0.60594081878662109 -0.53080654144287109
3.7620601654052734 0.33565139770507812 0.31034564971923828
3.6060943603515625 0.93224811553955078 0.44222164154052734
3.5860481262207031 0.52011966705322266 0.62340164184570312
3.8268423080444336 0.4964447021484375 -0.71315860748291016
3.8904905319213867 0.95454216003417969 -0.59706401824951172
4.0394725799560547 0.35806846618652344 -0.44333934783935547
3.0003738403320312 2.4942169189453125 -0.32074928283691406
2.66754150390625 2.7250165939331055 -0.052076339721679688
2.9482860565185547 2.4266119003295898 0.018040657043457031
-0.55386924743652344 -0.77243995666503906 0.61931991577148438
-1.1217737197875977 -1.1709699630737305 0.77631282806396484
-0.64421939849853516 -1.3685331344604492 0.6737823486328125
-0.54582977294921875 1.3782167434692383 0.92384815216064453
-1.0060386657714844 1.1592435836791992 0.97233390808105469
-0.62451362609863281 0.96412086486816406 0.6696319580078125
-2.4805068969726562 0.020997047424316406 1.0828409194946289
-2.9933300018310547 0.0158233642578125 1.1770620346069336
-2.6149921417236328 -0.39693355560302734 1.0421476364135742
0.95671558380126953 -1.1675519943237305 0.61552524566650391
0.49406147003173828 -0.76256752014160156 0.46695327758789062
0.47150230407714844 -1.2991495132446289 0.58460330963134766
2.6572170257568359 0.028347015380859375 0.93200397491455078
2.3606529235839844 0.34937191009521484 0.99449253082275391
2.2894248962402344 -0.26002693176269531 0.87006282806396484
0.90114212036132812 1.3847789764404297 0.72648334503173828
0.42361259460449219 1.4753150939941406 0.67937660217285156
0.47388458251953125 0.93028640747070312 0.53877067565917969
-0.41981601715087891 0.65107822418212891 -0.572601318359375
-0.949249267578125 1.2262840270996094 -0.88933753967285156
-0.43172836303710938 1.2061882019042969 -0.85607242584228516
-0.32178306579589844 -1.6011152267456055 -0.92055988311767578
-0.76448822021484375 -1.4370298385620117 -0.92167568206787109
-0.30580234527587891 -1.0093584060668945 -0.59693050384521484
-2.2025947570800781 -0.33631992340087891 -0.88492584228515625
-2.6201076507568359 -0.08837127685546875 -0.88535404205322266
-2.3474178314208984 0.32872867584228516 -0.88879203796386719
1.1118965148925781 1.1431798934936523 -1.0731678009033203
0.51296329498291016 0.64673900604248047 -0.80591487884521484
0.65826416015625 1.2579574584960938 -1.0593204498291016
2.9746417999267578 0.062349319458007812 -1.2772397994995117
2.6511392593383789 -0.13146114349365234 -1.2171297073364258
2.5138368606567383 0.46852588653564453 -1.3827409744262695
1.2756137847900391 -1.0626335144042969 -0.9640655517578125
0.7945404052734375 -1.3693752288818359 -1.0244541168212891
0.61479949951171875 -0.80748844146728516 -0.62982368469238281
-0.93211174011230469 -3.5685491561889648 0.31924629211425781
-1.2991781234741211 -3.3738803863525391 0.59604644775390625
-1.3569240570068359 -3.4552202224731445 0.35546779632568359
1.3114385604858398 -3.6297264099121094 0.5203399658203125
1.0410804748535156 -3.4118213653564453 0.67764472961425781
0.91239452362060547 -3.8019294738769531 0.42440128326416016
0.23757553100585938 -2.8583583831787109 0.98077774047851562
-0.26195240020751953 -2.6882400512695312 1.1106548309326172
-0.20244026184082031 -2.9791698455810547 1.1179847717285156
-1.2605476379394531 -3.3805503845214844 -0.30387306213378906
-0.83963394165039062 -3.6651325225830078 -0.091017723083496094
-1.4021625518798828 -3.4165277481079102 -0.091862678527832031
0.18497657775878906 -2.8988056182861328 -1.2103109359741211
0.53076553344726562 -3.0811395645141602 -1.0876979827880859
-0.23649978637695312 -3.0382137298583984 -0.94670867919921875
1.1550979614257812 -3.6415042877197266 -0.47719955444335938
1.2606897354125977 -3.7300395965576172 -0.10301399230957031
0.75263595581054688 -3.8349094390869141 -0.15533924102783203
-1.3653984069824219 3.4217720031738281 0.51197052001953125
-0.92415332794189453 3.7297382354736328 0.39100456237792969
-1.4565811157226562 3.404301643371582 0.22119235992431641
-0.032720565795898438 2.6744098663330078 1.0955715179443359
0.32952690124511719 2.9937648773193359 0.99748516082763672
-0.32773113250732422 2.9104824066162109 1.0724105834960938
1.3675613403320312 3.6092557907104492 0.47055625915527344
1.4324550628662109 3.712158203125 0.12876796722412109
1.0189018249511719 3.7689332962036133 0.38242912292480469
-0.76133155822753906 3.6157550811767578 -0.12968730926513672
-0.93359947204589844 3.4503908157348633 -0.3507537841796875
-1.3378543853759766 3.2570953369140625 -0.23169898986816406
1.2846393585205078 3.6180133819580078 -0.26363372802734375
1.0488834381103516 3.5329055786132812 -0.46032142639160156
0.72781753540039062 3.7974834442138672 -0.025439262390136719
0.35563182830810547 3.0604324340820312 -1.197627067565918
0.14569854736328125 2.6791515350341797 -1.2695245742797852
-0.16944217681884766 3.0800914764404297 -0.99175071716308594
-2.1076574325561523 -2.8795986175537109 1.0214052200317383
-2.6368160247802734 -2.633880615234375 0.84726238250732422
-2.4189243316650391 -2.8822212219238281 0.72595405578613281
-0.85480690002441406 -2.3284769058227539 1.05389404296875
-1.4760246276855469 -2.0994033813476562 1.0754680633544922
-1.3195571899414062 -2.5498619079589844 1.1875057220458984
-2.8812026977539062 -1.0627012252807617 1.1375045776367188
-3.1822566986083984 -0.87791061401367188 1.1371545791625977
-3.0844345092773438 -1.37396240234375 0.91213321685791016
2.5918560028076172 -2.7191619873046875 0.46020698547363281
1.9919319152832031 -3.049565315246582 0.60408115386962891
2.1206779479980469 -3.175105094909668 0.40725994110107422
3.0531826019287109 -0.68941879272460938 0.73536109924316406
2.6182727813720703 -1.0359735488891602 0.86512660980224609
2.8870668411254883 -1.0504302978515625 0.70924758911132812
1.2375354766845703 -1.9643402099609375 0.86860847473144531
0.63102531433105469 -2.0834875106811523 0.86204147338867188
1.0141487121582031 -2.3299522399902344 0.94132709503173828
-2.860626220703125 1.0094375610351562 1.1705694198608398
-3.1326026916503906 1.4035816192626953 0.82140541076660156
-3.1615705490112305 0.87218761444091797 1.1016416549682617
-1.0507211685180664 2.1523122787475586 1.133580207824707
-1.3860597610473633 2.4372215270996094 1.0940036773681641
-1.6009044647216797 1.821141242980957 1.1599235534667969
-2.3030738830566406 2.7676753997802734 0.60689544677734375
-2.3991527557373047 2.8100872039794922 0.29989337921142578
-2.6179161071777344 2.4909477233886719 0.54654502868652344
3.038665771484375 1.3069677352905273 0.85490036010742188
2.6455011367797852 1.1834049224853516 0.99688243865966797
3.0643196105957031 0.91936206817626953 0.87868022918701172
2.2768611907958984 2.9798421859741211 0.32681941986083984
2.0914735794067383 3.0582284927368164 0.54371929168701172
2.5392599105834961 2.6493911743164062 0.53951835632324219
1.22247314453125 2.7567958831787109 0.93121051788330078
0.85752296447753906 2.4067964553833008 0.93474388122558594
1.2382116317749023 2.2407493591308594 0.89483547210693359
-2.4870023727416992 -1.0788192749023438 -0.99949836730957031
-2.9628448486328125 -1.2533111572265625 -0.91238594055175781
-2.9407835006713867 -0.83257484436035156 -0.97508621215820312
-0.69314956665039062 -2.4829673767089844 -1.1570606231689453
-1.2234220504760742 -2.4708099365234375 -1.1255903244018555
-1.230687141418457 -2.1356420516967773 -1.1487312316894531
-2.0728731155395508 -2.908146858215332 -0.62518215179443359
-2.303309440612793 -2.8755407333374023 -0.21444797515869141
-2.5220508575439453 -2.6533117294311523 -0.43715286254882812
3.2020053863525391 -1.5034217834472656 -1.0396556854248047
2.9089212417602539 -1.2545852661132812 -1.2337236404418945
3.2043361663818359 -0.85198593139648438 -1.1993532180786133
2.0814170837402344 -3.2958822250366211 -0.32320404052734375
1.9335975646972656 -3.2876901626586914 -0.5764312744140625
2.5244302749633789 -2.8847551345825195 -0.64839935302734375
1.3743820190429688 -2.5892934799194336 -1.278019905090332
1.0352935791015625 -2.2018918991088867 -1.2478036880493164
1.430267333984375 -2.0958614349365234 -1.1338558197021484
-2.9707193374633789 1.1248703002929688 -1.0274267196655273
-2.5434513092041016 1.1312475204467773 -1.18536376953125
-2.8474864959716797 0.67605113983154297 -0.87508773803710938
-1.9886856079101562 2.8345127105712891 -0.47957229614257812
-1.8185939788818359 2.7711944580078125 -0.86563968658447266
-2.3014307022094727 2.6662998199462891 -0.70061969757080078
-0.78156852722167969 2.4805097579956055 -1.1218461990356445
-0.56106281280517578 2.2198514938354492 -1.0539073944091797
-1.1496143341064453 2.0334568023681641 -1.2147121429443359
2.8972291946411133 1.0554742813110352 -1.1211214065551758
3.2017784118652344 1.2527961730957031 -0.88251304626464844
3.2585210800170898 0.76593399047851562 -0.96960544586181641
0.9271392822265625 2.2096138000488281 -1.286005973815918
1.1553783416748047 2.5417041778564453 -1.3389673233032227
1.4913253784179688 1.934351921081543 -1.3064241409301758
1.993678092956543 2.8757476806640625 -0.80157089233398438
2.0335197448730469 3.0295352935791016 -0.55958843231201172
2.5847225189208984 2.6774129867553711 -0.55826950073242188
-4.1275005340576172 -0.63672161102294922 -0.1448822021484375
-4.151792049407959 -0.48182392120361328 0.12479686737060547
-3.5810098648071289 -1.4119148254394531 -0.35196685791015625
-3.343104362487793 -1.9879856109619141 -0.20400238037109375
-3.2674875259399414 -2.2156438827514648 0.30282974243164062
-3.4907722473144531 -1.6511096954345703 0.45198249816894531
-3.3653640747070312 1.8459196090698242 -0.023271560668945312
-3.4328041076660156 1.3221712112426758 0.27888202667236328
-3.2249345779418945 1.9257793426513672 -0.64948368072509766
-3.3316469192504883 1.4132585525512695 -0.63964271545410156
-3.8573055267333984 0.49357318878173828 -0.36865901947021484
-3.913874626159668 0.45671558380126953 -0.014665603637695312
3.155609130859375 -2.0967006683349609 0.10898876190185547
3.4779052734375 -1.4578371047973633 0.25339317321777344
3.2745656967163086 -2.1747312545776367 -0.42377758026123047
3.4768733978271484 -1.6637182235717773 -0.52319240570068359
3.9548015594482422 -0.74249553680419922 -0.31537723541259766
3.9271507263183594 -0.56829166412353516 0.10904121398925781
4.0501060485839844 0.41300201416015625 -0.17621421813964844
3.9426651000976562 0.3816375732421875 0.062428474426269531
3.5171394348144531 1.5057315826416016 -0.39883899688720703
3.2750921249389648 2.0923919677734375 -0.42513275146484375
3.2169532775878906 1.9496974945068359 0.17789649963378906
3.4082574844360352 1.4541921615600586 0.37413406372070312
-0.7751312255859375 0.29426097869873047 0.53557968139648438
-0.48956203460693359 -0.15800285339355469 0.33994007110595703
-1.4384088516235352 0.69269466400146484 0.99879550933837891
-2.0098724365234375 0.41752338409423828 1.0866880416870117
-2.2740573883056641 -0.71714401245117188 0.91342926025390625
-1.5550708770751953 -1.1357784271240234 0.85697269439697266
1.7690258026123047 -0.58709430694580078 0.73853111267089844
1.2811260223388672 -0.731231689453125 0.54760360717773438
1.9453134536743164 0.76348972320556641 0.67163372039794922
1.4278469085693359 1.1004772186279297 0.53683662414550781
0.48054885864257812 0.467437744140625 0.35411167144775391
0.31472969055175781 -0.14448738098144531 0.34401321411132812
-0.42485618591308594 -0.37676811218261719 -0.29282760620117188
-0.57093715667724609 0.23755741119384766 -0.33381271362304688
-1.1763544082641602 -1.1049461364746094 -0.87175369262695312
-1.7052249908447266 -0.71548748016357422 -0.94931697845458984
-1.9088535308837891 0.50837039947509766 -0.95814704895019531
-1.538844108581543 0.82920169830322266 -0.80157089233398438
1.9983959197998047 0.60581779479980469 -1.2233257293701172
1.5196466445922852 0.92718601226806641 -1.1881904602050781
2.3335304260253906 -0.55422592163085938 -1.2071723937988281
1.7886381149291992 -0.77965450286865234 -1.0819854736328125
0.47740840911865234 -0.33252334594726562 -0.58267402648925781
0.67763137817382812 0.17118167877197266 -0.76985740661621094
0.3211669921875 -3.8477516174316406 0.25304412841796875
-0.27934169769287109 -3.7632036209106445 0.40770435333251953
0.93440151214599609 -3.2563743591308594 0.83367347717285156
0.54577159881591797 -3.0945453643798828 0.97123432159423828
-0.59795856475830078 -3.2027711868286133 1.1510457992553711
-0.98646640777587891 -3.2890415191650391 0.86564254760742188
-0.71381950378417969 -3.0939693450927734 -0.72899246215820312
-0.99157333374023438 -3.2774744033813477 -0.44597911834716797
0.69559574127197266 -3.241851806640625 -0.86541271209716797
0.88269996643066406 -3.5481185913085938 -0.70580101013183594
0.14851760864257812 -3.8032398223876953 -0.096599578857421875
-0.444488525390625 -3.7687101364135742 -0.18184185028076172
-0.78573226928710938 3.1899633407592773 0.94859218597412109
-1.3071088790893555 3.2758893966674805 0.74650764465332031
0.40519905090332031 3.3032321929931641 0.90441036224365234
0.87907505035400391 3.5628232955932617 0.71462726593017578
0.26101779937744141 3.8089370727539062 0.48240852355957031
-0.52254295349121094 3.8111991882324219 0.50138187408447266
0.34645175933837891 3.8033208847045898 -0.095900535583496094
-0.27954483032226562 3.7836341857910156 -0.061008453369140625
0.93354034423828125 3.3361835479736328 -0.71716594696044922
0.56515026092529297 3.3092250823974609 -1.0532979965209961
-0.49044513702392578 3.1924867630004883 -0.83519840240478516
-0.85752487182617188 3.3429489135742188 -0.69518661499023438
-1.5775156021118164 -2.7511501312255859 1.2296972274780273
-1.8554258346557617 -2.8383045196533203 1.1265954971313477
-1.9706764221191406 -1.7564897537231445 1.0652379989624023
-2.6208524703979492 -1.3817310333251953 1.1261959075927734
-3.1936540603637695 -1.8275518417358398 0.80326271057128906
-3.0243206024169922 -2.2543468475341797 0.83463478088378906
2.8930797576904297 -1.6314868927001953 0.68163681030273438
2.7674379348754883 -2.2245683670043945 0.62327384948730469
2.1466693878173828 -1.4798002243041992 0.92299747467041016
1.7357387542724609 -1.9099874496459961 0.88178634643554688
1.2737741470336914 -2.5932903289794922 0.86809062957763672
1.7583885192871094 -2.8822650909423828 0.79532718658447266
-1.9884300231933594 1.5033197402954102 1.2634105682373047
-2.4668722152709961 1.1098060607910156 1.1937589645385742
-1.6465606689453125 2.6335697174072266 1.1008930206298828
-2.0869636535644531 2.6644306182861328 0.98279380798339844
-2.8385200500488281 2.1812028884887695 0.59768486022949219
-3.0634822845458984 1.7266988754272461 0.69196796417236328
2.7893228530883789 2.2821750640869141 0.75562858581542969
3.0038118362426758 1.756016731262207 0.82792949676513672
1.7250881195068359 3.0572233200073242 0.71512699127197266
1.607208251953125 2.7996578216552734 0.82873821258544922
1.6485834121704102 1.8813457489013672 0.85168361663818359
2.3141565322875977 1.5991287231445312 0.92350482940673828
-1.709111213684082 -1.8391380310058594 -1.1040287017822266
-2.1384763717651367 -1.4345779418945312 -0.96242141723632812
-1.5314598083496094 -2.6907243728637695 -1.0385055541992188
-1.8766803741455078 -2.8140039443969727 -0.87038230895996094
-2.8438081741333008 -2.2247333526611328 -0.58630752563476562
-3.066014289855957 -1.6913785934448242 -0.77685451507568359
2.7429103851318359 -2.4076471328735352 -0.82059574127197266
3.1766910552978516 -1.7957992553710938 -0.8190765380859375
1.871861457824707 -3.108698844909668 -0.87373161315917969
1.6256847381591797 -2.8598670959472656 -1.0988483428955078
1.8552007675170898 -1.7405290603637695 -1.2113876342773438
2.4169425964355469 -1.4872074127197266 -1.2979192733764648
-2.642822265625 2.2899532318115234 -0.93267250061035156
-2.9480228424072266 1.6645832061767578 -0.98395252227783203
-1.554621696472168 2.6844863891601562 -1.0498027801513672
-1.0782794952392578 2.5904159545898438 -1.0817136764526367
-1.6829280853271484 1.7046928405761719 -1.1296463012695312
-2.2509803771972656 1.4092254638671875 -1.1543865203857422
1.9590997695922852 1.7296905517578125 -1.398615837097168
2.5042648315429688 1.367431640625 -1.2408590316772461
1.414546012878418 2.7183551788330078 -1.2605867385864258
1.7516384124755859 2.7509355545043945 -1.0532321929931641
2.7580356597900391 2.3527746200561523 -0.76795291900634766
2.9649276733398438 1.6749649047851562 -0.87896156311035156
-3.714167594909668 0.019535064697265625 0.80777740478515625
-3.6186323165893555 -0.60025787353515625 0.89795589447021484
-4.001129150390625 -0.078922271728515625 0.11844635009765625
-3.4526815414428711 -1.4994497299194336 0.68603420257568359
-4.0078096389770508 0.0007457733154296875 -0.45644283294677734
-3.4877176284790039 -0.055960655212402344 -0.92228412628173828
-3.3488273620605469 -0.56941413879394531 -0.89255046844482422
-3.3686466217041016 -1.4138193130493164 -0.61918544769287109
-2.9812211990356445 -2.5389156341552734 0.5728302001953125
-2.9641637802124023 -2.2810754776000977 -0.34285545349121094
-2.3083257675170898 -2.9387550354003906 -0.01735687255859375
-2.3996906280517578 -2.9364776611328125 0.45721530914306641
-3.572819709777832 0.41439533233642578 0.86278057098388672
-3.2904224395751953 1.4266805648803711 0.54787063598632812
-2.9590854644775391 2.2415370941162109 0.29461956024169922
-2.2492856979370117 2.8578348159790039 0.041059494018554688
-2.3786411285400391 2.7747535705566406 -0.27828216552734375
-2.8811817169189453 2.4451322555541992 -0.64003467559814453
-3.1769170761108398 1.4169797897338867 -0.88866996765136719
-3.2180824279785156 0.47010040283203125 -0.80880928039550781
3.2216243743896484 -0.33323478698730469 0.73133182525634766
3.4646825790405273 0.059673309326171875 0.71695327758789062
3.226140022277832 -1.2725515365600586 0.5204010009765625
3.8561763763427734 -0.039258956909179688 0.20431232452392578
2.8582248687744141 -2.2693748474121094 0.37953758239746094
2.3577613830566406 -3.0974836349487305 0.11129379272460938
2.31781005859375 -3.2087011337280273 -0.13173675537109375
2.8613491058349609 -2.5256099700927734 -0.59355354309082031
4.0025348663330078 -0.13734626770019531 -0.33876514434814453
3.4128026962280273 -1.5442905426025391 -0.74452590942382812
3.575653076171875 -0.46429347991943359 -1.0179347991943359
3.8327369689941406 -0.02397918701171875 -0.90655422210693359
3.3388204574584961 0.55825424194335938 0.78935146331787109
3.2914791107177734 1.4735565185546875 0.58411026000976562
3.7099761962890625 0.26467990875244141 -1.015716552734375
3.5822134017944336 1.2642192840576172 -0.60193061828613281
2.9389562606811523 2.2666130065917969 0.41286468505859375
3.0198459625244141 2.3455791473388672 -0.60108089447021484
2.2476015090942383 2.9490127563476562 -0.21725749969482422
2.3245019912719727 2.9031887054443359 0.11102485656738281
-0.18417453765869141 -1.4163436889648438 0.8111572265625
-0.70441627502441406 -1.8581829071044922 0.90300655364990234
-0.032912254333496094 -0.50639820098876953 0.40962505340576172
-1.6443386077880859 -1.5831880569458008 0.97697067260742188
-0.25386333465576172 0.54234600067138672 0.44776344299316406
-0.083446502685546875 1.5995454788208008 0.94243812561035156
-0.6252593994140625 1.939122200012207 1.0531005859375
-1.5905246734619141 1.2091255187988281 1.1675214767456055
-2.5331659317016602 -0.93555545806884766 1.060359001159668
-2.4660816192626953 0.60460472106933594 1.1494483947753906
-3.2438163757324219 0.34042930603027344 1.0551509857177734
-3.2470541000366211 -0.45428276062011719 1.0975761413574219
0.35700798034667969 -1.7495155334472656 0.69932651519775391
1.4252967834472656 -1.4170207977294922 0.804779052734375
2.2027931213378906 -0.94694709777832031 0.81742572784423828
2.9503278732299805 -0.20585918426513672 0.82725143432617188
2.9462852478027344 0.50008106231689453 0.9556732177734375
2.3013420104980469 0.91091632843017578 0.9673614501953125
1.3476991653442383 1.5865774154663086 0.80818367004394531
0.47900581359863281 1.9914922714233398 1.0164222717285156
0.093973159790039062 1.3939285278320312 -1.0523147583007812
-0.39008617401123047 1.7454509735107422 -1.0239181518554688
0.0979156494140625 0.41309356689453125 -0.44801044464111328
-1.3974428176879883 1.3596076965332031 -0.97634601593017578
0.0054569244384765625 -0.51042842864990234 -0.45446205139160156
0.19938278198242188 -1.5348873138427734 -1.0058059692382812
-0.23694610595703125 -2.1159353256225586 -1.2605037689208984
-1.3036327362060547 -1.5939359664916992 -1.122410774230957
-2.1314630508422852 0.86605262756347656 -1.1775732040405273
-2.0584278106689453 -0.95589923858642578 -1.0450220108032227
-2.9628429412841797 -0.39400672912597656 -1.0046253204345703
-2.9355354309082031 0.16555118560791016 -0.82762813568115234
0.80366039276123047 1.7288761138916016 -1.1819028854370117
1.7512044906616211 1.2917032241821289 -1.3478679656982422
2.4304342269897461 0.89684104919433594 -1.3156261444091797
3.2554912567138672 0.35539627075195312 -1.1114578247070312
3.2488021850585938 -0.28388404846191406 -1.2912454605102539
2.6644926071166992 -0.88292598724365234 -1.3058900833129883
1.6688642501831055 -1.3177661895751953 -1.1942472457885742
0.69961261749267578 -1.9038667678833008 -1.1863622665405273
-1.6698246002197266 -3.3089485168457031 0.18036746978759766
-1.8601741790771484 -3.2719211578369141 0.48483467102050781
-0.55438518524169922 -3.8285579681396484 0.13013839721679688
-1.5294170379638672 -3.1244649887084961 0.99283885955810547
0.49102401733398438 -3.9464263916015625 0.10491180419921875
1.5183582305908203 -3.7182388305664062 0.27818775177001953
1.8074092864990234 -3.4117374420166016 0.33229923248291016
1.5062856674194336 -3.1295995712280273 0.69867897033691406
-1.0718116760253906 -3.0098514556884766 1.2828197479248047
0.78103733062744141 -2.7115869522094727 0.94875431060791016
0.18079090118408203 -2.2637014389038086 0.9882049560546875
-0.32188796997070312 -2.3410940170288086 1.0558528900146484
-1.8323307037353516 -3.1865596771240234 -0.099889755249023438
-1.5525274276733398 -3.0079469680786133 -0.60415363311767578
-0.89537429809570312 -2.9057207107543945 -0.96756172180175781
-0.088972091674804688 -2.5832271575927734 -1.2665643692016602
0.62944698333740234 -2.4286212921142578 -1.2785568237304688
1.2181320190429688 -3.075139045715332 -0.99960994720458984
1.5743484497070312 -3.5030450820922852 -0.64718818664550781
1.7015619277954102 -3.5718574523925781 -0.041785240173339844
-1.8738269805908203 3.1161231994628906 0.27096080780029297
-1.5041961669921875 3.2686271667480469 -0.045592308044433594
-1.7793903350830078 3.0377464294433594 0.80953407287597656
-0.57751941680908203 3.7431125640869141 0.14292240142822266
-0.86909198760986328 2.8878631591796875 1.0415315628051758
-0.45726680755615234 2.3505363464355469 1.0314464569091797
0.26332950592041016 2.4099760055541992 1.0394449234008789
0.89031505584716797 3.125432014465332 0.91753768920898438
0.51313972473144531 3.8822011947631836 0.2570037841796875
1.5325250625610352 3.3417272567749023 0.64420795440673828
1.8319931030273438 3.3433380126953125 0.14081668853759766
1.572300910949707 3.5384712219238281 -0.12408256530761719
-1.8355627059936523 2.9581451416015625 -0.25983047485351562
-1.301548957824707 3.0436239242553711 -0.65113639831542969
1.8336048126220703 3.2703619003295898 -0.44740390777587891
1.4802284240722656 3.11163330078125 -0.847442626953125
-0.73950767517089844 2.8946456909179688 -0.99087905883789062
0.81313800811767578 2.9599008560180664 -1.2035102844238281
0.46096992492675781 2.2863979339599609 -1.2401456832885742
-0.11976909637451172 2.3151445388793945 -1.0320520401000977
-3.8408412933349609 -0.87724208831787109 -0.33480358123779297
-3.2916393280029297 -2.1339530944824219 0.030232429504394531
-3.9341001510620117 -1.0803108215332031 0.29553794860839844
-3.3020658493041992 1.8285560607910156 -0.27380084991455078
-3.6744089126586914 0.98422431945800781 -0.42942428588867188
-3.6460285186767578 0.70571136474609375 0.31982231140136719
3.2572259902954102 -2.1033039093017578 -0.10145473480224609
3.7897739410400391 -1.1302595138549805 -0.54971981048583984
3.8439226150512695 -1.0605669021606445 0.16891288757324219
3.8648519515991211 0.91809654235839844 -0.37003040313720703
3.1760520935058594 2.1477260589599609 -0.14970016479492188
3.7209386825561523 0.80771350860595703 0.21333885192871094
-1.0196018218994141 0.68615341186523438 0.70236873626708984
-2.0682659149169922 -0.12218189239501953 0.93511009216308594
-0.93329524993896484 -0.58956432342529297 0.56324863433837891
1.9948272705078125 0.13273239135742188 0.83292388916015625
1.0945062637329102 0.80246448516845703 0.47357463836669922
0.88855361938476562 -0.54713821411132812 0.33164596557617188
-0.73437118530273438 -0.70465946197509766 -0.58472919464111328
-1.909703254699707 -0.16830635070800781 -0.85025882720947266
-0.94207954406738281 0.71639251708984375 -0.70232391357421875
2.1644468307495117 0.10527801513671875 -1.1856508255004883
1.1836585998535156 -0.65508270263671875 -0.8133697509765625
1.093353271484375 0.56412696838378906 -0.82528972625732422
0.62758731842041016 -3.6661624908447266 0.55735874176025391
-0.0013942718505859375 -3.3090171813964844 0.93443393707275391
-0.64276313781738281 -3.5339241027832031 0.53586196899414062
0.14905834197998047 -3.3067703247070312 -0.8235931396484375
0.51124095916748047 -3.7461967468261719 -0.33360767364501953
-0.70252418518066406 -3.4934406280517578 -0.33492374420166016
-0.084305763244628906 3.162165641784668 0.99407958984375
0.56043434143066406 3.7342758178710938 0.59014606475830078
-0.82394790649414062 3.6090087890625 0.68841171264648438
0.63044166564941406 3.6995487213134766 -0.33856964111328125
0.15628147125244141 3.4171047210693359 -0.92819023132324219
-0.54423427581787109 3.5844316482543945 -0.41313648223876953
-1.7906379699707031 -2.3116369247436523 1.3360710144042969
-2.8860864639282227 -1.6767683029174805 1.0383758544921875
-2.5544624328613281 -2.4936647415161133 1.1373500823974609
2.6062107086181641 -1.4736204147338867 0.81142807006835938
1.768559455871582 -2.2767887115478516 0.89880847930908203
2.3900661468505859 -2.6619462966918945 0.62478256225585938
-1.8330020904541016 2.0456533432006836 1.2157125473022461
-2.4183273315429688 2.3880748748779297 0.93581581115722656
-2.7828044891357422 1.5502204895019531 1.0572614669799805
2.2961740493774414 2.6640043258666992 0.733489990234375
1.6864204406738281 2.3331336975097656 0.92430400848388672
2.81231689453125 1.6149826049804688 0.96991348266601562
-1.8181028366088867 -2.1974802017211914 -1.0770473480224609
-2.4499530792236328 -2.4794750213623047 -0.74267101287841797
-2.712158203125 -1.510838508605957 -0.8679656982421875
2.3265323638916016 -2.8138446807861328 -0.83623886108398438
1.7393083572387695 -2.3579883575439453 -1.1935691833496094
2.707179069519043 -1.7029609680175781 -1.1321496963500977
-2.1718282699584961 2.4851551055908203 -0.89058685302734375
-1.4240865707397461 2.2118444442749023 -1.1490392684936523
-2.6342573165893555 1.521820068359375 -1.098175048828125
1.6354732513427734 2.3249950408935547 -1.3127536773681641
2.2901439666748047 2.6388988494873047 -0.86115264892578125
2.8827066421508789 1.4304370880126953 -1.06756591796875
-3.837773323059082 -0.048893928527832031 0.49527549743652344
-3.4527683258056641 -1.0832023620605469 0.83548450469970703
-3.8481369018554688 -0.13469028472900391 -0.64611530303955078
-3.3357963562011719 -0.94729423522949219 -0.80567455291748047
-2.7281274795532227 -2.6826505661010742 -0.15727519989013672
-2.7722530364990234 -2.7251701354980469 0.52776241302490234
-3.3525142669677734 0.95471096038818359 0.83804130554199219
-2.6731443405151367 2.5566978454589844 0.16804027557373047
-2.71319580078125 2.5946893692016602 -0.43439388275146484
-3.2582693099975586 0.95750331878662109 -0.85646343231201172
3.3381071090698242 -0.85995960235595703 0.53080654144287109
3.6608848571777344 -0.088665962219238281 0.43672561645507812
2.589238166809082 -2.8350543975830078 0.17898178100585938
2.6380014419555664 -2.8597469329833984 -0.48785400390625
3.3999509811401367 -1.0890178680419922 -1.0025558471679688
3.9444580078125 -0.019008636474609375 -0.60945796966552734
3.3836803436279297 1.0685253143310547 0.67004966735839844
3.5219841003417969 0.79489421844482422 -0.81249237060546875
2.6277141571044922 2.6630115509033203 -0.34155654907226562
2.6845455169677734 2.6575183868408203 0.24708652496337891
-0.084669113159179688 -1.0176162719726562 0.65951061248779297
-1.2300481796264648 -1.6846551895141602 0.89691925048828125
-0.10212802886962891 1.0033903121948242 0.62492179870605469
-1.1589040756225586 1.6441612243652344 1.1020374298095703
-2.8255729675292969 0.39717674255371094 1.1914596557617188
-2.9515047073364258 -0.55129051208496094 1.17315673828125
0.89708137512207031 -1.7146387100219727 0.88730716705322266
2.6077775955200195 -0.54869270324707031 0.80523014068603516
2.6513710021972656 0.67896080017089844 1.0418672561645508
0.86708164215087891 1.928192138671875 0.81525230407714844
0.086466789245605469 0.89710044860839844 -0.83157634735107422
-0.91972446441650391 1.8255043029785156 -1.0497894287109375
0.25636196136474609 -1.0795059204101562 -0.7346343994140625
-0.736358642578125 -1.9383392333984375 -1.1566762924194336
-2.5503330230712891 -0.57744312286376953 -1.0287418365478516
-2.5913190841674805 0.59305667877197266 -1.0351438522338867
1.2401409149169922 1.6316404342651367 -1.2588434219360352
2.9257526397705078 0.61134243011474609 -1.2225151062011719
2.9414768218994141 -0.53304672241210938 -1.281336784362793
1.1996316909790039 -1.5819778442382812 -1.205866813659668
-1.1607332229614258 -3.5196094512939453 0.10288715362548828
-1.8582191467285156 -3.1616687774658203 0.76651668548583984
1.0133209228515625 -3.9057950973510742 0.10095405578613281
1.6472663879394531 -3.3728761672973633 0.57899951934814453
0.39118766784667969 -2.5738468170166016 0.98948478698730469
-0.81383419036865234 -2.7635250091552734 1.2177200317382812
-1.78192138671875 -3.0935869216918945 -0.315093994140625
-0.48018264770507812 -2.8291339874267578 -1.1266565322875977
0.92194271087646484 -2.7636880874633789 -1.2128314971923828
1.6267147064208984 -3.6051445007324219 -0.31699943542480469
-1.8307609558105469 3.1680355072021484 0.56018924713134766
-1.0423450469970703 3.5412654876708984 0.087332725524902344
-0.81975841522216797 2.5715217590332031 1.0839395523071289
0.57838535308837891 2.7847118377685547 0.97729015350341797
1.7951374053955078 3.3997974395751953 0.40557098388671875
1.0830745697021484 3.8781156539916992 0.072970390319824219
-1.5768041610717773 2.9642562866210938 -0.47802734375
1.500239372253418 3.2908782958984375 -0.63488483428955078
0.59932041168212891 2.6887636184692383 -1.3660850524902344
-0.38659286499023438 2.7173871994018555 -1.0389213562011719
-4.01214599609375 -0.019651412963867188 -0.20932674407958984
-3.2995109558105469 -1.8281335830688477 -0.47486591339111328
-3.2441654205322266 -2.1234149932861328 0.57205009460449219
-3.1825046539306641 1.866455078125 0.24120521545410156
-3.0744285583496094 2.0177335739135742 -0.89294910430908203
3.2173652648925781 -1.7430305480957031 0.3812103271484375
3.1709127426147461 -2.1115894317626953 -0.65216350555419922
3.9740009307861328 -0.13231277465820312 -0.056921958923339844
3.2176332473754883 1.804081916809082 -0.68802165985107422
3.1072416305541992 1.9251480102539062 0.52964878082275391
-0.04357147216796875 0.17153739929199219 0.39476966857910156
-2.0457572937011719 0.89637088775634766 1.2216920852661133
-2.1439599990844727 -1.2343530654907227 0.96762466430664062
1.7849321365356445 -1.2215337753295898 0.81690406799316406
1.9239282608032227 1.4023370742797852 0.78782749176025391
0.035214424133300781 0.077149391174316406 -0.34625625610351562
-1.7112112045288086 -1.2721824645996094 -1.0818376541137695
-1.8190784454345703 1.1745357513427734 -1.1105937957763672
2.1961221694946289 1.0848627090454102 -1.2594375610351562
2.1232461929321289 -1.1614751815795898 -1.2011451721191406
-0.14220142364501953 -3.865025520324707 0.107208251953125
1.0418081283569336 -2.9405956268310547 0.86705970764160156
-1.2218208312988281 -3.1463298797607422 1.0876026153564453
-1.2343235015869141 -2.972442626953125 -0.77907180786132812
1.331873893737793 -3.4150218963623047 -0.85956764221191406
-1.3935728073120117 2.9476146697998047 1.0267362594604492
1.2151012420654297 3.2299108505249023 0.85749530792236328
-0.031518936157226562 3.8490810394287109 0.23099136352539062
1.1708211898803711 3.0546169281005859 -1.0315799713134766
-1.1225643157958984 2.9299736022949219 -0.88594722747802734
-3.4145727157592773 -0.051410675048828125 0.96368980407714844
-3.2188129425048828 -0.13997745513916016 -0.92265701293945312
-2.0579051971435547 -3.129826545715332 0.29151153564453125
-1.8820486068725586 3.0306606292724609 0.0001201629638671875
3.1771230697631836 0.22086334228515625 0.95313167572021484
1.9431591033935547 -3.3795928955078125 0.082593917846679688
3.4588336944580078 0.002483367919921875 -1.1676034927368164
1.9451084136962891 3.2134485244750977 -0.11424541473388672
-0.18608665466308594 -1.8812284469604492 0.93835735321044922
0.018280029296875 2.0995235443115234 1.123448371887207
0.16753673553466797 1.8676414489746094 -1.1563177108764648
0.24468517303466797 -2.1329383850097656 -1.2225465774536133
3 0 1 2
3 3 4 5
3 6 7 8
3 9 10 11
3 12 13 14
3 15 16 17
3 18 19 20
3 21 22 23
3 24 25 26
3 27 28 29
3 30 31 32
3 33 34 35
3 36 37 38
3 39 40 41
3 42 43 44
3 45 46 47
3 48 49 50
3 51 52 53
3 54 55 56
3 57 58 59
3 60 61 62
3 63 64 65
3 66 67 68
3 69 70 71
3 72 73 74
3 75 76 77
3 78 79 80
3 81 82 83
3 84 85 86
3 87 88 89
3 90 91 92
3 93 94 95
3 96 97 98
3 99 100 101
3 102 103 104
3 105 106 107
3 108 109 110
3 111 112 113
3 114 115 116
3 117 118 119
3 120 121 122
3 123 124 125
3 126 127 128
3 129 130 131
3 132 133 134
3 135 136 137
3 138 139 140
3 141 142 143
3 144 145 146
3 147 148 149
3 150 151 152
3 153 154 155
3 156 157 158
3 159 160 161
3 162 163 164
3 165 166 167
3 168 169 170
3 171 172 173
3 174 175 176
3 177 178 179
3 180 181 182
3 183 184 185
3 186 187 188
3 189 190 191
3 192 193 194
3 195 196 197
3 198 199 200
3 201 202 203
3 204 205 206
3 207 208 209
3 210 211 212
3 213 214 215
3 216 217 218
3 219 220 221
3 222 223 224
3 225 226 227
3 228 229 230
3 231 232 233
3 234 235 236
3 237 238 239
3 240 2 241
3 242 243 0
3 1 244 245
3 246 5 247
3 248 249 3
3 4 250 251
3 252 8 253
3 254 255 6
3 7 256 257
3 258 11 259
3 260 261 9
3 10 262 263
3 264 14 265
3 266 267 12
3 13 268 269
3 270 17 271
3 272 273 15
3 16 274 275
3 276 20 277
3 278 279 18
3 19 280 281
3 282 23 283
3 284 285 21
3 22 286 287
3 288 26 289
3 290 291 24
3 25 292 293
3 294 29 295
3 296 297 27
3 28 298 299
3 300 32 301
3 302 303 30
3 31 304 305
3 306 35 307
3 308 309 33
3 34 310 311
3 312 38 313
3 314 315 36
3 37 316 317
3 318 41 319
3 320 321 39
3 40 322 323
3 324 44 325
3 326 327 42
3 43 328 329
3 330 47 331
3 332 333 45
3 46 334 335
3 336 50 337
3 338 339 48
3 49 340 341
3 342 53 343
3 344 345 51
3 52 346 347
3 348 56 349
3 350 351 54
3 55 352 353
3 354 59 355
3 356 357 57
3 58 358 359
3 360 62 361
3 362 241 60
3 61 245 363
3 364 65 240
3 365 366 63
3 64 367 242
3 244 68 368
3 243 369 66
3 67 370 371
3 372 71 360
3 373 247 69
3 70 251 362
3 374 74 246
3 375 376 72
3 73 377 248
3 250 77 364
3 249 378 75
3 76 379 365
3 380 80 381
3 382 253 78
3 79 257 383
3 384 83 252
3 385 386 81
3 82 387 254
3 256 86 388
3 255 389 84
3 85 390 391
3 381 89 392
3 383 259 87
3 88 263 393
3 388 92 258
3 391 394 90
3 91 395 260
3 262 95 396
3 261 397 93
3 94 398 399
3 400 98 401
3 402 265 96
3 97 269 403
3 404 101 264
3 405 406 99
3 100 407 266
3 268 104 408
3 267 409 102
3 103 410 411
3 412 107 400
3 413 271 105
3 106 275 402
3 414 110 270
3 415 416 108
3 109 417 272
3 274 113 404
3 273 418 111
3 112 419 405
3 420 116 421
3 422 277 114
3 115 281 423
3 424 119 276
3 425 426 117
3 118 427 278
3 280 122 428
3 279 429 120
3 121 430 431
3 432 125 420
3 433 283 123
3 124 287 422
3 434 128 282
3 435 436 126
3 127 437 284
3 286 131 424
3 285 438 129
3 130 439 425
3 440 134 441
3 442 289 132
3 133 293 443
3 444 137 288
3 445 446 135
3 136 447 290
3 292 140 448
3 291 449 138
3 139 450 451
3 452 143 440
3 453 295 141
3 142 299 442
3 454 146 294
3 455 456 144
3 145 457 296
3 298 149 444
3 297 458 147
3 148 459 445
3 460 152 461
3 462 301 150
3 151 305 463
3 464 155 300
3 465 466 153
3 154 467 302
3 304 158 468
3 303 469 156
3 157 470 471
3 461 161 472
3 463 307 159
3 160 311 473
3 468 164 306
3 471 474 162
3 163 475 308
3 310 167 476
3 309 477 165
3 166 478 479
3 441 170 371
3 443 313 168
3 169 317 368
3 448 173 312
3 451 401 171
3 172 403 314
3 316 176 363
3 315 408 174
3 175 411 361
3 385 179 446
3 384 319 177
3 178 323 447
3 382 182 318
3 380 415 180
3 181 414 320
3 322 185 449
3 321 413 183
3 184 412 450
3 410 188 372
3 409 325 186
3 187 329 373
3 407 191 324
3 406 465 189
3 190 464 326
3 328 194 374
3 327 462 192
3 193 460 375
3 392 197 416
3 393 331 195
3 196 335 417
3 396 200 330
3 399 470 198
3 199 469 332
3 334 203 418
3 333 467 201
3 202 466 419
3 430 206 366
3 429 337 204
3 205 341 367
3 427 209 336
3 426 455 207
3 208 454 338
3 340 212 369
3 339 453 210
3 211 452 370
3 390 215 436
3 389 343 213
3 214 347 437
3 387 218 342
3 386 459 216
3 217 458 344
3 346 221 438
3 345 457 219
3 220 456 439
3 379 224 431
3 378 349 222
3 223 353 428
3 377 227 348
3 376 472 225
3 226 473 350
3 352 230 423
3 351 476 228
3 229 479 421
3 435 233 394
3 434 355 231
3 232 359 395
3 433 236 354
3 432 478 234
3 235 477 356
3 358 239 397
3 357 475 237
3 238 474 398
3 480 0 2
3 0 481 1
3 2 1 482
3 483 3 5
3 3 484 4
3 5 4 485
3 486 6 8
3 6 487 7
3 8 7 488
3 489 9 11
3 9 490 10
3 11 10 491
3 492 12 14
3 12 493 13
3 14 13 494
3 495 15 17
3 15 496 16
3 17 16 497
3 498 18 20
3 18 499 19
3 20 19 500
3 501 21 23
3 21 502 22
3 23 22 503
3 504 24 26
3 24 505 25
3 26 25 506
3 507 27 29
3 27 508 28
3 29 28 509
3 510 30 32
3 30 511 31
3 32 31 512
3 513 33 35
3 33 514 34
3 35 34 515
3 516 36 38
3 36 517 37
3 38 37 518
3 519 39 41
3 39 520 40
3 41 40 521
3 522 42 44
3 42 523 43
3 44 43 524
3 525 45 47
3 45 526 46
3 47 46 527
3 528 48 50
3 48 529 49
3 50 49 530
3 531 51 53
3 51 532 52
3 53 52 533
3 534 54 56
3 54 535 55
3 56 55 536
3 537 57 59
3 57 538 58
3 59 58 539
3 540 60 62
3 60 482 61
3 62 61 541
3 542 63 65
3 63 543 64
3 65 64 480
3 481 66 68
3 66 544 67
3 68 67 545
3 546 69 71
3 69 485 70
3 71 70 540
3 547 72 74
3 72 548 73
3 74 73 483
3 484 75 77
3 75 549 76
3 77 76 542
3 550 78 80
3 78 488 79
3 80 79 551
3 552 81 83
3 81 553 82
3 83 82 486
3 487 84 86
3 84 554 85
3 86 85 555
3 551 87 89
3 87 491 88
3 89 88 556
3 555 90 92
3 90 557 91
3 92 91 489
3 490 93 95
3 93 558 94
3 95 94 559
3 560 96 98
3 96 494 97
3 98 97 561
3 562 99 101
3 99 563 100
3 101 100 492
3 493 102 104
3 102 564 103
3 104 103 565
3 566 105 107
3 105 497 106
3 107 106 560
3 567 108 110
3 108 568 109
3 110 109 495
3 496 111 113
3 111 569 112
3 113 112 562
3 570 114 116
3 114 500 115
3 116 115 571
3 572 117 119
3 117 573 118
3 119 118 498
3 499 120 122
3 120 574 121
3 122 121 575
3 576 123 125
3 123 503 124
3 125 124 570
3 577 126 128
3 126 578 127
3 128 127 501
3 502 129 131
3 129 579 130
3 131 130 572
3 580 132 134
3 132 506 133
3 134 133 581
3 582 135 137
3 135 583 136
3 137 136 504
3 505 138 140
3 138 584 139
3 140 139 585
3 586 141 143
3 141 509 142
3 143 142 580
3 587 144 146
3 144 588 145
3 146 145 507
3 508 147 149
3 147 589 148
3 149 148 582
3 590 150 152
3 150 512 151
3 152 151 591
3 592 153 155
3 153 593 154
3 155 154 510
3 511 156 158
3 156 594 157
3 158 157 595
3 591 159 161
3 159 515 160
3 161 160 596
3 595 162 164
3 162 597 163
3 164 163 513
3 514 165 167
3 165 598 166
3 167 166 599
3 581 168 170
3 168 518 169
3 170 169 545
3 585 171 173
3 171 561 172
3 173 172 516
3 517 174 176
3 174 565 175
3 176 175 541
3 552 177 179
3 177 521 178
3 179 178 583
3 550 180 182
3 180 567 181
3 182 181 519
3 520 183 185
3 183 566 184
3 185 184 584
3 564 186 188
3 186 524 187
3 188 187 546
3 563 189 191
3 189 592 190
3 191 190 522
3 523 192 194
3 192 590 193
3 194 193 547
3 556 195 197
3 195 527 196
3 197 196 568
3 559 198 200
3 198 594 199
3 200 199 525
3 526 201 203
3 201 593 202
3 203 202 569
3 574 204 206
3 204 530 205
3 206 205 543
3 573 207 209
3 207 587 208
3 209 208 528
3 529 210 212
3 210 586 211
3 212 211 544
3 554 213 215
3 213 533 214
3 215 214 578
3 553 216 218
3 216 589 217
3 218 217 531
3 532 219 221
3 219 588 220
3 221 220 579
3 549 222 224
3 222 536 223
3 224 223 575
3 548 225 227
3 225 596 226
3 227 226 534
3 535 228 230
3 228 599 229
3 230 229 571
3 577 231 233
3 231 539 232
3 233 232 557
3 576 234 236
3 234 598 235
3 236 235 537
3 538 237 239
3 237 597 238
3 239 238 558
3 600 240 241
3 240 480 2
3 241 2 482
3 480 242 0
3 242 601 243
3 0 243 481
3 482 1 245
3 1 481 244
3 245 244 602
3 603 246 247
3 246 483 5
3 247 5 485
3 483 248 3
3 248 604 249
3 3 249 484
3 485 4 251
3 4 484 250
3 251 250 600
3 605 252 253
3 252 486 8
3 253 8 488
3 486 254 6
3 254 606 255
3 6 255 487
3 488 7 257
3 7 487 256
3 257 256 607
3 607 258 259
3 258 489 11
3 259 11 491
3 489 260 9
3 260 608 261
3 9 261 490
3 491 10 263
3 10 490 262
3 263 262 609
3 610 264 265
3 264 492 14
3 265 14 494
3 492 266 12
3 266 611 267
3 12 267 493
3 494 13 269
3 13 493 268
3 269 268 612
3 613 270 271
3 270 495 17
3 271 17 497
3 495 272 15
3 272 614 273
3 15 273 496
3 497 16 275
3 16 496 274
3 275 274 610
3 615 276 277
3 276 498 20
3 277 20 500
3 498 278 18
3 278 616 279
3 18 279 499
3 500 19 281
3 19 499 280
3 281 280 617
3 618 282 283
3 282 501 23
3 283 23 503
3 501 284 21
3 284 619 285
3 21 285 502
3 503 22 287
3 22 502 286
3 287 286 615
3 620 288 289
3 288 504 26
3 289 26 506
3 504 290 24
3 290 621 291
3 24 291 505
3 506 25 293
3 25 505 292
3 293 292 622
3 623 294 295
3 294 507 29
3 295 29 509
3 507 296 27
3 296 624 297
3 27 297 508
3 509 28 299
3 28 508 298
3 299 298 620
3 625 300 301
3 300 510 32
3 301 32 512
3 510 302 30
3 302 626 303
3 30 303 511
3 512 31 305
3 31 511 304
3 305 304 627
3 627 306 307
3 306 513 35
3 307 35 515
3 513 308 33
3 308 628 309
3 33 309 514
3 515 34 311
3 34 514 310
3 311 310 629
3 622 312 313
3 312 516 38
3 313 38 518
3 516 314 36
3 314 612 315
3 36 315 517
3 518 37 317
3 37 517 316
3 317 316 602
3 605 318 319
3 318 519 41
3 319 41 521
3 519 320 39
3 320 613 321
3 39 321 520
3 521 40 323
3 40 520 322
3 323 322 621
3 611 324 325
3 324 522 44
3 325 44 524
3 522 326 42
3 326 625 327
3 42 327 523
3 524 43 329
3 43 523 328
3 329 328 603
3 609 330 331
3 330 525 47
3 331 47 527
3 525 332 45
3 332 626 333
3 45 333 526
3 527 46 335
3 46 526 334
3 335 334 614
3 616 336 337
3 336 528 50
3 337 50 530
3 528 338 48
3 338 623 339
3 48 339 529
3 530 49 341
3 49 529 340
3 341 340 601
3 606 342 343
3 342 531 53
3 343 53 533
3 531 344 51
3 344 624 345
3 51 345 532
3 533 52 347
3 52 532 346
3 347 346 619
3 604 348 349
3 348 534 56
3 349 56 536
3 534 350 54
3 350 629 351
3 54 351 535
3 536 55 353
3 55 535 352
3 353 352 617
3 618 354 355
3 354 537 59
3 355 59 539
3 537 356 57
3 356 628 357
3 57 357 538
3 539 58 359
3 58 538 358
3 359 358 608
3 630 360 361
3 360 540 62
3 361 62 541
3 540 362 60
3 362 600 241
3 60 241 482
3 541 61 363
3 61 482 245
3 363 245 602
3 600 364 240
3 364 542 65
3 240 65 480
3 542 365 63
3 365 631 366
3 63 366 543
3 480 64 242
3 64 543 367
3 242 367 601
3 602 244 368
3 244 481 68
3 368 68 545
3 481 243 66
3 243 601 369
3 66 369 544
3 545 67 371
3 67 544 370
3 371 370 632
3 630 372 360
3 372 546 71
3 360 71 540
3 546 373 69
3 373 603 247
3 69 247 485
3 540 70 362
3 70 485 251
3 362 251 600
3 603 374 246
3 374 547 74
3 246 74 483
3 547 375 72
3 375 633 376
3 72 376 548
3 483 73 248
3 73 548 377
3 248 377 604
3 600 250 364
3 250 484 77
3 364 77 542
3 484 249 75
3 249 604 378
3 75 378 549
3 542 76 365
3 76 549 379
3 365 379 631
3 634 380 381
3 380 550 80
3 381 80 551
3 550 382 78
3 382 605 253
3 78 253 488
3 551 79 383
3 79 488 257
3 383 257 607
3 605 384 252
3 384 552 83
3 252 83 486
3 552 385 81
3 385 635 386
3 81 386 553
3 486 82 254
3 82 553 387
3 254 387 606
3 607 256 388
3 256 487 86
3 388 86 555
3 487 255 84
3 255 606 389
3 84 389 554
3 555 85 391
3 85 554 390
3 391 390 636
3 634 381 392
3 381 551 89
3 392 89 556
3 551 383 87
3 383 607 259
3 87 259 491
3 556 88 393
3 88 491 263
3 393 263 609
3 607 388 258
3 388 555 92
3 258 92 489
3 555 391 90
3 391 636 394
3 90 394 557
3 489 91 260
3 91 557 395
3 260 395 608
3 609 262 396
3 262 490 95
3 396 95 559
3 490 261 93
3 261 608 397
3 93 397 558
3 559 94 399
3 94 558 398
3 399 398 637
3 638 400 401
3 400 560 98
3 401 98 561
3 560 402 96
3 402 610 265
3 96 265 494
3 561 97 403
3 97 494 269
3 403 269 612
3 610 404 264
3 404 562 101
3 264 101 492
3 562 405 99
3 405 639 406
3 99 406 563
3 492 100 266
3 100 563 407
3 266 407 611
3 612 268 408
3 268 493 104
3 408 104 565
3 493 267 102
3 267 611 409
3 102 409 564
3 565 103 411
3 103 564 410
3 411 410 630
3 638 412 400
3 412 566 107
3 400 107 560
3 566 413 105
3 413 613 271
3 105 271 497
3 560 106 402
3 106 497 275
3 402 275 610
3 613 414 270
3 414 567 110
3 270 110 495
3 567 415 108
3 415 634 416
3 108 416 568
3 495 109 272
3 109 568 417
3 272 417 614
3 610 274 404
3 274 496 113
3 404 113 562
3 496 273 111
3 273 614 418
3 111 418 569
3 562 112 405
3 112 569 419
3 405 419 639
3 640 420 421
3 420 570 116
3 421 116 571
3 570 422 114
3 422 615 277
3 114 277 500
3 571 115 423
3 115 500 281
3 423 281 617
3 615 424 276
3 424 572 119
3 276 119 498
3 572 425 117
3 425 641 426
3 117 426 573
3 498 118 278
3 118 573 427
3 278 427 616
3 617 280 428
3 280 499 122
3 428 122 575
3 499 279 120
3 279 616 429
3 120 429 574
3 575 121 431
3 121 574 430
3 431 430 631
3 640 432 420
3 432 576 125
3 420 125 570
3 576 433 123
3 433 618 283
3 123 283 503
3 570 124 422
3 124 503 287
3 422 287 615
3 618 434 282
3 434 577 128
3 282 128 501
3 577 435 126
3 435 636 436
3 126 436 578
3 501 127 284
3 127 578 437
3 284 437 619
3 615 286 424
3 286 502 131
3 424 131 572
3 502 285 129
3 285 619 438
3 129 438 579
3 572 130 425
3 130 579 439
3 425 439 641
3 632 440 441
3 440 580 134
3 441 134 581
3 580 442 132
3 442 620 289
3 132 289 506
3 581 133 443
3 133 506 293
3 443 293 622
3 620 444 288
3 444 582 137
3 288 137 504
3 582 445 135
3 445 635 446
3 135 446 583
3 504 136 290
3 136 583 447
3 290 447 621
3 622 292 448
3 292 505 140
3 448 140 585
3 505 291 138
3 291 621 449
3 138 449 584
3 585 139 451
3 139 584 450
3 451 450 638
3 632 452 440
3 452 586 143
3 440 143 580
3 586 453 141
3 453 623 295
3 141 295 509
3 580 142 442
3 142 509 299
3 442 299 620
3 623 454 294
3 454 587 146
3 294 146 507
3 587 455 144
3 455 641 456
3 144 456 588
3 507 145 296
3 145 588 457
3 296 457 624
3 620 298 444
3 298 508 149
3 444 149 582
3 508 297 147
3 297 624 458
3 147 458 589
3 582 148 445
3 148 589 459
3 445 459 635
3 633 460 461
3 460 590 152
3 461 152 591
3 590 462 150
3 462 625 301
3 150 301 512
3 591 151 463
3 151 512 305
3 463 305 627
3 625 464 300
3 464 592 155
3 300 155 510
3 592 465 153
3 465 639 466
3 153 466 593
3 510 154 302
3 154 593 467
3 302 467 626
3 627 304 468
3 304 511 158
3 468 158 595
3 511 303 156
3 303 626 469
3 156 469 594
3 595 157 471
3 157 594 470
3 471 470 637
3 633 461 472
3 461 591 161
3 472 161 596
3 591 463 159
3 463 627 307
3 159 307 515
3 596 160 473
3 160 515 311
3 473 311 629
3 627 468 306
3 468 595 164
3 306 164 513
3 595 471 162
3 471 637 474
3 162 474 597
3 513 163 308
3 163 597 475
3 308 475 628
3 629 310 476
3 310 514 167
3 476 167 599
3 514 309 165
3 309 628 477
3 165 477 598
3 599 166 479
3 166 598 478
3 479 478 640
3 632 441 371
3 441 581 170
3 371 170 545
3 581 443 168
3 443 622 313
3 168 313 518
3 545 169 368
3 169 518 317
3 368 317 602
3 622 448 312
3 448 585 173
3 312 173 516
3 585 451 171
3 451 638 401
3 171 401 561
3 516 172 314
3 172 561 403
3 314 403 612
3 602 316 363
3 316 517 176
3 363 176 541
3 517 315 174
3 315 612 408
3 174 408 565
3 541 175 361
3 175 565 411
3 361 411 630
3 635 385 446
3 385 552 179
3 446 179 583
3 552 384 177
3 384 605 319
3 177 319 521
3 583 178 447
3 178 521 323
3 447 323 621
3 605 382 318
3 382 550 182
3 318 182 519
3 550 380 180
3 380 634 415
3 180 415 567
3 519 181 320
3 181 567 414
3 320 414 613
3 621 322 449
3 322 520 185
3 449 185 584
3 520 321 183
3 321 613 413
3 183 413 566
3 584 184 450
3 184 566 412
3 450 412 638
3 630 410 372
3 410 564 188
3 372 188 546
3 564 409 186
3 409 611 325
3 186 325 524
3 546 187 373
3 187 524 329
3 373 329 603
3 611 407 324
3 407 563 191
3 324 191 522
3 563 406 189
3 406 639 465
3 189 465 592
3 522 190 326
3 190 592 464
3 326 464 625
3 603 328 374
3 328 523 194
3 374 194 547
3 523 327 192
3 327 625 462
3 192 462 590
3 547 193 375
3 193 590 460
3 375 460 633
3 634 392 416
3 392 556 197
3 416 197 568
3 556 393 195
3 393 609 331
3 195 331 527
3 568 196 417
3 196 527 335
3 417 335 614
3 609 396 330
3 396 559 200
3 330 200 525
3 559 399 198
3 399 637 470
3 198 470 594
3 525 199 332
3 199 594 469
3 332 469 626
3 614 334 418
3 334 526 203
3 418 203 569
3 526 333 201
3 333 626 467
3 201 467 593
3 569 202 419
3 202 593 466
3 419 466 639
3 631 430 366
3 430 574 206
3 366 206 543
3 574 429 204
3 429 616 337
3 204 337 530
3 543 205 367
3 205 530 341
3 367 341 601
3 616 427 336
3 427 573 209
3 336 209 528
3 573 426 207
3 426 641 455
3 207 455 587
3 528 208 338
3 208 587 454
3 338 454 623
3 601 340 369
3 340 529 212
3 369 212 544
3 529 339 210
3 339 623 453
3 210 453 586
3 544 211 370
3 211 586 452
3 370 452 632
3 636 390 436
3 390 554 215
3 436 215 578
3 554 389 213
3 389 606 343
3 213 343 533
3 578 214 437
3 214 533 347
3 437 347 619
3 606 387 342
3 387 553 218
3 342 218 531
3 553 386 216
3 386 635 459
3 216 459 589
3 531 217 344
3 217 589 458
3 344 458 624
3 619 346 438
3 346 532 221
3 438 221 579
3 532 345 219
3 345 624 457
3 219 457 588
3 579 220 439
3 220 588 456
3 439 456 641
3 631 379 431
3 379 549 224
3 431 224 575
3 549 378 222
3 378 604 349
3 222 349 536
3 575 223 428
3 223 536 353
3 428 353 617
3 604 377 348
3 377 548 227
3 348 227 534
3 548 376 225
3 376 633 472
3 225 472 596
3 534 226 350
3 226 596 473
3 350 473 629
3 617 352 423
3 352 535 230
3 423 230 571
3 535 351 228
3 351 629 476
3 228 476 599
3 571 229 421
3 229 599 479
3 421 479 640
3 636 435 394
3 435 577 233
3 394 233 557
3 577 434 231
3 434 618 355
3 231 355 539
3 557 232 395
3 232 539 359
3 395 359 608
3 618 433 354
3 433 576 236
3 354 236 537
3 576 432 234
3 432 640 478
3 234 478 598
3 537 235 356
3 235 598 477
3 356 477 628
3 608 358 397
3 358 538 239
3 397 239 558
3 538 357 237
3 357 628 475
3 237 475 597
3 558 238 398
3 238 597 474
3 398 474 637
