OFF
642 1280 0
-3.4761447906494141 -1.5211172103881836 -0.37319660186767578
-3.3919029235839844 -1.6204319000244141 -0.050958633422851562
-3.6959114074707031 -1.1376953125 -0.14195728302001953
-3.6231422424316406 1.4506196975708008 -0.089916229248046875
-3.8591070175170898 1.0213432312011719 -0.018033027648925781
-3.7271585464477539 1.4184551239013672 0.21521282196044922
3.5072212219238281 -1.3985319137573242 -0.49245738983154297
3.7859268188476562 -1.0542850494384766 -0.39267826080322266
3.4298305511474609 -1.4724531173706055 -0.15654468536376953
3.7505760192871094 1.5824918746948242 -0.17456531524658203
3.6829137802124023 1.634674072265625 0.0961761474609375
3.9026670455932617 1.0044641494750977 -0.13206768035888672
-1.5428028106689453 0.12864398956298828 0.95997714996337891
-1.476348876953125 -0.42075252532958984 0.89372634887695312
-0.80721473693847656 0.017396926879882812 0.69174385070800781
1.5517139434814453 0.29363441467285156 0.68423652648925781
0.92563724517822266 0.16744232177734375 0.39007186889648438
1.6497020721435547 -0.21993350982666016 0.68695831298828125
-1.493107795715332 -0.4730682373046875 -0.84150028228759766
-1.6566991806030273 0.32416152954101562 -0.78038787841796875
-1.1344194412231445 0.0045442581176757812 -0.64055347442626953
1.675349235534668 -0.090412139892578125 -1.0433826446533203
1.0887136459350586 -0.0046205520629882812 -0.82401847839355469
1.5261144638061523 0.47333717346191406 -0.97828960418701172
0.45759487152099609 -3.5021457672119141 0.51965713500976562
-0.14630031585693359 -3.3682107925415039 0.39581394195556641
0.18775844573974609 -3.6481971740722656 0.22812080383300781
0.33293342590332031 -3.4891128540039062 -1.1135711669921875
0.18795394897460938 -3.7573947906494141 -0.91041851043701172
-0.17916679382324219 -3.4913539886474609 -1.1111001968383789
0.48685550689697266 3.5991096496582031 0.70575237274169922
0.30211067199707031 3.8056917190551758 0.49957275390625
-0.26054191589355469 3.6301279067993164 0.79296207427978516
0.47662925720214844 3.6736154556274414 -0.75560855865478516
-0.10654640197753906 3.7576198577880859 -0.74030971527099609
0.34888839721679688 3.9493541717529297 -0.52257728576660156
-1.9421329498291016 -1.9761314392089844 0.88397312164306641
-2.2150201797485352 -2.1344985961914062 0.74677276611328125
-1.8096389770507812 -2.5832319259643555 0.88316154479980469
2.402979850769043 -1.8770503997802734 0.70825004577636719
2.1342687606811523 -2.3841142654418945 0.6626129150390625
2.6525812149047852 -2.1704826354980469 0.57288742065429688
-1.8465337753295898 2.2072458267211914 1.149662971496582
-2.5232467651367188 2.0536794662475586 0.93787670135498047
-2.179901123046875 1.8211631774902344 1.0531902313232422
2.2191352844238281 2.5000152587890625 1.0814933776855469
2.5605897903442383 1.9815959930419922 1.0142412185668945
2.694401741027832 2.3226547241210938 0.99294662475585938
-2.0289840698242188 -2.4572782516479492 -1.3108539581298828
-2.3868494033813477 -2.0468606948852539 -1.0640878677368164
-2.1884946823120117 -1.8934860229492188 -1.2705202102661133
1.8777446746826172 -2.2177104949951172 -1.3664102554321289
2.1290836334228516 -1.772068977355957 -1.4633502960205078
2.4932737350463867 -2.131403923034668 -1.2449159622192383
-1.5068721771240234 2.5632362365722656 -0.74861526489257812
-1.9726028442382812 2.0469264984130859 -0.90506172180175781
-2.2734289169311523 2.1467456817626953 -0.83777904510498047
2.4433012008666992 2.6024818420410156 -0.91654491424560547
2.8870515823364258 2.1181163787841797 -0.88414573669433594
2.5372838973999023 2.0343923568725586 -1.1230678558349609
-3.8103713989257812 -0.62038898468017578 0.33471488952636719
-3.471043586730957 -1.0766267776489258 0.42265510559082031
-3.5924396514892578 -0.56113433837890625 0.60771369934082031
-3.6731967926025391 -0.40265750885009766 -0.86384201049804688
-3.591069221496582 -0.85094928741455078 -0.73577499389648438
-3.8537712097167969 -0.48813819885253906 -0.4621429443359375
-2.8383302688598633 -2.5196819305419922 -0.36771392822265625
-2.5897140502929688 -2.8006420135498047 -0.1804656982421875
-2.8787460327148438 -2.4569358825683594 -0.10169792175292969
-3.7800941467285156 0.87010955810546875 0.55870342254638672
-3.9365243911743164 0.36303806304931641 0.35488510131835938
-3.7856779098510742 0.45425033569335938 0.65977287292480469
-2.5955772399902344 2.5585470199584961 0.17455673217773438
-2.9157342910766602 2.265965461730957 -0.11251926422119141
-3.0741729736328125 2.2532520294189453 0.29002666473388672
-3.5435457229614258 0.92580699920654297 -0.44197750091552734
-3.6791114807128906 0.42822837829589844 -0.63128185272216797
-3.9059638977050781 0.50476932525634766 -0.43892574310302734
3.6162567138671875 -0.81761550903320312 0.042325019836425781
3.836033821105957 -0.36145496368408203 0.021059036254882812
3.680729866027832 -0.26561260223388672 0.351318359375
2.838963508605957 -2.6752223968505859 -0.36775779724121094
3.1096401214599609 -2.2446126937866211 -0.47601890563964844
2.9853487014770508 -2.450221061706543 -0.095142364501953125
3.576075553894043 -0.95924472808837891 -1.0137748718261719
3.6645107269287109 -0.3632965087890625 -1.0692014694213867
3.8278293609619141 -0.34147262573242188 -0.86499977111816406
3.988978385925293 0.65973758697509766 0.31093120574951172
3.75018310546875 1.0756053924560547 0.53411293029785156
3.7775707244873047 0.50460147857666016 0.47549629211425781
3.6289653778076172 0.662353515625 -0.83171367645263672
3.6921491622924805 1.0111551284790039 -0.657562255859375
3.8731613159179688 0.54968929290771484 -0.60095882415771484
3.197021484375 2.5545005798339844 0.080464363098144531
2.8264141082763672 2.8479099273681641 0.021866798400878906
3.1801881790161133 2.6077890396118164 0.31722640991210938
-0.34078025817871094 -1.0151233673095703 0.63842105865478516
-0.93060970306396484 -0.99182224273681641 0.80226325988769531
-0.36152458190917969 -1.4531717300415039 0.79188156127929688
-0.58345890045166016 1.3340311050415039 0.60796356201171875
-1.1790065765380859 1.1234188079833984 0.93415069580078125
-0.63658809661865234 0.86381149291992188 0.63469028472900391
-2.6026544570922852 0.30132484436035156 0.91505146026611328
-2.9470453262329102 0.11542797088623047 0.85023593902587891
-2.5568141937255859 -0.33069801330566406 0.82870101928710938
1.1591472625732422 -1.1126708984375 0.63662815093994141
0.64715576171875 -0.73828887939453125 0.53043174743652344
0.63677883148193359 -1.2300176620483398 0.73758316040039062
2.8950614929199219 0.071969985961914062 0.90370559692382812
2.548365592956543 0.42887401580810547 0.85812950134277344
2.5578317642211914 -0.12893199920654297 0.84122753143310547
1.1986408233642578 1.3577613830566406 0.5972442626953125
0.58635330200195312 1.3839311599731445 0.66117382049560547
0.60168075561523438 0.92795372009277344 0.43931293487548828
-0.40486526489257812 0.72356796264648438 -0.68052101135253906
-0.80876255035400391 1.2696437835693359 -0.81502056121826172
-0.35009860992431641 1.4043102264404297 -0.613983154296875
-0.39891815185546875 -1.5225896835327148 -0.98930072784423828
-0.85742664337158203 -1.2348976135253906 -0.90593147277832031
-0.42198944091796875 -1.0387554168701172 -0.66559028625488281
-2.3621082305908203 -0.35634326934814453 -0.99484348297119141
-2.802973747253418 0.089760780334472656 -1.078862190246582
-2.4309024810791016 0.27643299102783203 -1.0754108428955078
1.1055011749267578 1.31195068359375 -0.92064952850341797
0.57361412048339844 0.86363315582275391 -0.7655487060546875
0.55898761749267578 1.4100160598754883 -0.84242534637451172
2.7859382629394531 -0.010493278503417969 -1.4237356185913086
2.4717130661010742 -0.11138248443603516 -1.3283481597900391
2.4953012466430664 0.54233837127685547 -1.3833427429199219
0.96525192260742188 -1.0374784469604492 -0.92593669891357422
0.37103271484375 -1.320307731628418 -1.1147480010986328
0.52635860443115234 -0.71721076965332031 -0.71825313568115234
-0.57122516632080078 -3.6373138427734375 -0.19511127471923828
-0.83721351623535156 -3.4722805023193359 0.089652061462402344
-1.1262874603271484 -3.4970245361328125 -0.024759292602539062
1.4533824920654297 -3.5619029998779297 0.056344032287597656
1.2047805786132812 -3.6689033508300781 0.28197574615478516
1.0293655395507812 -3.8098316192626953 -0.032558441162109375
0.52011299133300781 -2.9520463943481445 0.76201057434082031
0.10427188873291016 -2.6354398727416992 0.77847576141357422
-0.1514129638671875 -2.9290084838867188 0.76061916351318359
-1.0064182281494141 -3.5937957763671875 -0.91279220581054688
-0.73409366607666016 -3.7717208862304688 -0.71621322631835938
-1.2423429489135742 -3.5581827163696289 -0.55498313903808594
0.17464351654052734 -2.7672214508056641 -1.5951499938964844
0.57179069519042969 -2.9546833038330078 -1.3964309692382812
-0.24895954132080078 -3.0508584976196289 -1.4847450256347656
1.3152437210083008 -3.3717937469482422 -0.74394035339355469
1.4379386901855469 -3.4532032012939453 -0.46592426300048828
0.92202472686767578 -3.7123680114746094 -0.53396415710449219
-1.027745246887207 3.5254087448120117 0.46483516693115234
-0.68021965026855469 3.7905340194702148 0.23449325561523438
-1.2337026596069336 3.5613107681274414 0.25334453582763672
0.15633106231689453 2.8034458160400391 1.1011810302734375
0.32323932647705078 3.102783203125 1.0734682083129883
-0.23215198516845703 3.1799335479736328 1.0122480392456055
1.4789409637451172 3.4215841293334961 0.46778583526611328
1.5159416198730469 3.5197906494140625 0.14213657379150391
1.0918092727661133 3.7096157073974609 0.16682910919189453
-0.55035495758056641 3.8796329498291016 -0.2233123779296875
-0.88847732543945312 3.7295684814453125 -0.44172573089599609
-1.1974601745605469 3.6338396072387695 -0.26481533050537109
1.5887746810913086 3.542236328125 -0.44346332550048828
1.2107276916503906 3.6103992462158203 -0.59836864471435547
1.0378341674804688 3.7781476974487305 -0.26040458679199219
0.59330940246582031 3.108983039855957 -1.0024423599243164
0.25652503967285156 2.7395925521850586 -0.91743755340576172
0.10348224639892578 3.1618413925170898 -0.92320442199707031
-1.8492202758789062 -2.8298768997192383 0.42087078094482422
-2.3507270812988281 -2.6945991516113281 0.26527309417724609
-1.9350147247314453 -2.947688102722168 0.23576259613037109
-0.76251602172851562 -2.0212774276733398 1.1098918914794922
-1.2057981491088867 -2.0495824813842773 1.076960563659668
-0.97360515594482422 -2.4269552230834961 1.0460271835327148
-2.5384426116943359 -1.1034259796142578 0.81114768981933594
-2.9981317520141602 -1.1118803024291992 0.68054962158203125
-2.7332630157470703 -1.3442220687866211 0.67471122741699219
2.4225225448608398 -2.9602718353271484 0.34868717193603516
2.0584049224853516 -3.0703105926513672 0.51297855377197266
2.2692289352416992 -3.1919622421264648 0.19511985778808594
3.0581474304199219 -0.78847122192382812 0.63503646850585938
2.606785774230957 -1.1377773284912109 0.87696266174316406
3.049260139465332 -1.1032276153564453 0.63896846771240234
1.3868370056152344 -1.9820442199707031 0.77261924743652344
0.92917060852050781 -2.0896759033203125 0.87948989868164062
1.4000577926635742 -2.4022245407104492 0.85796642303466797
-2.8180170059204102 1.0675897598266602 1.0021238327026367
-3.1255378723144531 1.3245267868041992 0.96021556854248047
-3.2403926849365234 0.89936733245849609 0.98721027374267578
-0.77321243286132812 2.3323268890380859 1.0994014739990234
-0.94898605346679688 2.6597795486450195 1.125920295715332
-1.2138595581054688 2.04962158203125 1.0003547668457031
-1.8561716079711914 2.9155902862548828 0.78390312194824219
-2.1690540313720703 2.8512687683105469 0.55237293243408203
-2.2777109146118164 2.5587158203125 0.89287757873535156
3.2414827346801758 1.4223861694335938 0.74943923950195312
2.8929128646850586 1.3076906204223633 0.89863014221191406
3.1778860092163086 0.90650558471679688 0.83402252197265625
2.3132638931274414 3.1125640869140625 0.37912654876708984
2.1190624237060547 3.0860166549682617 0.640106201171875
2.6800880432128906 2.8204669952392578 0.57417583465576172
1.2108001708984375 2.5301284790039062 1.1068191528320312
0.85243129730224609 2.0929908752441406 0.92649364471435547
1.4054985046386719 2.1010599136352539 0.95308017730712891
-2.7235317230224609 -0.99050617218017578 -1.1612462997436523
-3.0870113372802734 -1.1210803985595703 -1.0396842956542969
-3.1082906723022461 -0.62027835845947266 -1.1081666946411133
-0.79015636444091797 -2.3717546463012695 -1.4210348129272461
-1.3149042129516602 -2.5369062423706055 -1.5193157196044922
-1.2775650024414062 -2.057063102722168 -1.3253450393676758
-2.0214595794677734 -3.1123619079589844 -0.89666366577148438
-2.0898771286010742 -3.1937112808227539 -0.61867523193359375
-2.4200820922851562 -2.7816734313964844 -0.71160411834716797
3.0194177627563477 -1.2912979125976562 -1.2611474990844727
2.576869010925293 -1.2043352127075195 -1.2860021591186523
3.0755329132080078 -0.80327415466308594 -1.2806110382080078
2.305816650390625 -2.8891773223876953 -0.62603759765625
2.1562995910644531 -2.7344579696655273 -0.96597862243652344
2.5940837860107422 -2.5522117614746094 -0.82483100891113281
1.2196273803710938 -2.4061098098754883 -1.5135087966918945
0.77327632904052734 -2.0477743148803711 -1.4841413497924805
1.1631374359130859 -1.7952861785888672 -1.379115104675293
-2.9798431396484375 1.4137353897094727 -0.73463916778564453
-2.6803245544433594 1.2211647033691406 -0.95503997802734375
-3.0412130355834961 0.84176731109619141 -0.86776924133300781
-2.0225563049316406 3.0908699035644531 -0.27651214599609375
-1.8110008239746094 3.0220241546630859 -0.61088466644287109
-2.2180557250976562 2.8534584045410156 -0.49191951751708984
-0.80925750732421875 2.6811923980712891 -0.91638851165771484
-0.59427165985107422 2.4689149856567383 -0.81777763366699219
-1.0413398742675781 2.1124382019042969 -0.90591049194335938
2.6777563095092773 1.160252571105957 -1.2555904388427734
3.0343990325927734 1.351588249206543 -1.0982093811035156
3.1622076034545898 0.91728973388671875 -1.1865053176879883
1.0726709365844727 2.2820024490356445 -1.0959320068359375
1.3584632873535156 2.5986595153808594 -1.1351156234741211
1.7163982391357422 2.1232080459594727 -1.1400518417358398
2.2641210556030273 2.9593276977539062 -0.73977947235107422
2.2622776031494141 3.0652170181274414 -0.53926944732666016
2.8812999725341797 2.5700359344482422 -0.42543601989746094
-3.8728866577148438 -0.67562103271484375 -0.22970771789550781
-3.8956623077392578 -0.57794475555419922 0.050747871398925781
-3.4245510101318359 -1.5273056030273438 -0.6849822998046875
-3.2191801071166992 -2.0727043151855469 -0.56151485443115234
-3.1590690612792969 -2.1029224395751953 0.041733741760253906
-3.2801990509033203 -1.5722904205322266 0.30513858795166016
-3.3241424560546875 1.958552360534668 0.39932346343994141
-3.6758127212524414 1.2967195510864258 0.45965671539306641
-3.1714601516723633 1.9642210006713867 -0.2233734130859375
-3.4200935363769531 1.4440879821777344 -0.33485031127929688
-3.9858951568603516 0.51196670532226562 -0.21897792816162109
-4.0919046401977539 0.45378398895263672 0.04923248291015625
3.2275667190551758 -2.0197515487670898 0.015752792358398438
3.4117250442504883 -1.349635124206543 0.0707550048828125
3.2280750274658203 -1.8813924789428711 -0.57137298583984375
3.4441766738891602 -1.3066329956054688 -0.78546714782714844
3.9554014205932617 -0.36525630950927734 -0.62397480010986328
3.8511085510253906 -0.55778980255126953 -0.33227825164794922
4.0241336822509766 0.46984100341796875 -0.31781959533691406
4.1133155822753906 0.66066074371337891 0.11382007598876953
3.5730819702148438 1.4711322784423828 -0.46924018859863281
3.4286327362060547 2.1433267593383789 -0.20299816131591797
3.5063400268554688 2.1507377624511719 0.35039710998535156
3.7819881439208984 1.5825319290161133 0.41925907135009766
-0.40835285186767578 0.34961795806884766 0.47759246826171875
-0.36531734466552734 -0.33125495910644531 0.41474819183349609
-1.5493364334106445 0.79679679870605469 1.0553150177001953
-2.0814371109008789 0.42447376251220703 1.0359792709350586
-2.0306501388549805 -0.61727523803710938 0.82855129241943359
-1.3903694152832031 -0.85648250579833984 0.92325115203857422
2.1218509674072266 -0.44129276275634766 0.74574089050292969
1.583104133605957 -0.86366367340087891 0.71963119506835938
2.0863304138183594 0.71930027008056641 0.71938419342041016
1.5795583724975586 0.96882820129394531 0.61082267761230469
0.52524280548095703 0.45932388305664062 0.27364253997802734
0.55146217346191406 -0.26503372192382812 0.33583831787109375
-0.57315254211425781 -0.41998004913330078 -0.53153324127197266
-0.66029739379882812 0.15100479125976562 -0.58556365966796875
-1.3891716003417969 -1.1197910308837891 -0.97440147399902344
-1.9812374114990234 -0.68225669860839844 -0.94808769226074219
-2.0631809234619141 0.65199375152587891 -0.91086769104003906
-1.4630365371704102 0.98068618774414062 -0.78362178802490234
1.9428567886352539 0.74763298034667969 -1.2979736328125
1.4937963485717773 1.0092496871948242 -1.0781288146972656
2.0406150817871094 -0.44328022003173828 -1.2343578338623047
1.5694408416748047 -0.92333412170410156 -1.0771322250366211
0.68882274627685547 -0.29703330993652344 -0.77382659912109375
0.50239753723144531 0.35022735595703125 -0.70924568176269531
0.47216129302978516 -3.80877685546875 -0.021937370300292969
-0.11832141876220703 -3.7300424575805664 -0.16960906982421875
1.0941190719604492 -3.4790468215942383 0.52939224243164062
0.66425609588623047 -3.2536563873291016 0.70600032806396484
-0.35350608825683594 -3.1365795135498047 0.66404056549072266
-0.61580848693847656 -3.349268913269043 0.34966182708740234
-0.46999263763427734 -3.2715578079223633 -1.3491859436035156
-0.76786899566650391 -3.4489574432373047 -1.1067924499511719
0.8188323974609375 -3.1695899963378906 -1.2778434753417969
0.99356937408447266 -3.4799671173095703 -1.0509366989135742
0.39093208312988281 -3.8850507736206055 -0.55458831787109375
-0.19644737243652344 -3.8644781112670898 -0.74052715301513672
-0.60563278198242188 3.3410053253173828 0.96358680725097656
-0.90315628051757812 3.5109062194824219 0.74536514282226562
0.72038173675537109 3.2692031860351562 0.92157459259033203
1.1316976547241211 3.3643379211425781 0.63517665863037109
0.48385524749755859 3.8621158599853516 0.29001903533935547
-0.12033843994140625 3.8429603576660156 0.25090885162353516
0.55809688568115234 3.93328857421875 -0.24765110015869141
0.0066385269165039062 3.9877967834472656 -0.21178627014160156
1.1292934417724609 3.4147567749023438 -0.88849925994873047
0.69663047790527344 3.3475494384765625 -0.93930816650390625
-0.31847000122070312 3.398015022277832 -0.82453823089599609
-0.68566513061523438 3.680354118347168 -0.68631076812744141
-1.3171577453613281 -2.7092075347900391 0.78306865692138672
-1.43121337890625 -3.0109767913818359 0.65371131896972656
-1.6666736602783203 -1.6064071655273438 0.90598678588867188
-2.1820077896118164 -1.3917264938354492 0.80864334106445312
-2.7031230926513672 -1.8048772811889648 0.61020755767822266
-2.4893388748168945 -2.2677745819091797 0.50640773773193359
2.99334716796875 -1.6781816482543945 0.58305168151855469
2.7679243087768555 -2.4389591217041016 0.38826179504394531
2.3372983932495117 -1.3711566925048828 0.84556007385253906
2.0060825347900391 -1.7474956512451172 0.73146724700927734
1.5345783233642578 -2.6860256195068359 0.77773761749267578
1.8003568649291992 -2.9228582382202148 0.66046524047851562
-1.8253164291381836 1.6905431747436523 0.99937629699707031
-2.2982091903686523 1.2939729690551758 1.0911140441894531
-1.1536750793457031 2.8464345932006836 1.1924514770507812
-1.6450510025024414 2.7380771636962891 1.0841875076293945
-2.7369251251220703 2.2378559112548828 0.77867794036865234
-2.9117202758789062 1.7135353088378906 0.84173774719238281
2.9214210510253906 2.4768342971801758 0.87236118316650391
3.301483154296875 1.9567384719848633 0.80827617645263672
1.7547407150268555 2.9274940490722656 0.86349582672119141
1.569178581237793 2.6511726379394531 1.0920248031616211
1.9635219573974609 1.9200553894042969 0.94899940490722656
2.6053085327148438 1.5465230941772461 0.96558666229248047
-1.7370538711547852 -1.8979425430297852 -1.3818273544311523
-2.2369098663330078 -1.4303970336914062 -1.188847541809082
-1.5660905838012695 -2.8106622695922852 -1.3390321731567383
-1.7344017028808594 -3.0482501983642578 -1.1114845275878906
-2.6109476089477539 -2.307164192199707 -0.86777877807617188
-2.7779865264892578 -1.7360448837280273 -0.99101829528808594
2.7787437438964844 -2.1966552734375 -1.0465660095214844
3.0231571197509766 -1.6758909225463867 -1.1297187805175781
1.9466571807861328 -2.6899843215942383 -1.1886835098266602
1.5518026351928711 -2.6467876434326172 -1.3766136169433594
1.6483631134033203 -1.6349468231201172 -1.3937454223632812
2.230987548828125 -1.4250125885009766 -1.3714447021484375
-2.5165081024169922 2.4133167266845703 -0.642547607421875
-2.8633937835693359 1.9067277908325195 -0.64461517333984375
-1.4980888366699219 2.9652299880981445 -0.83820056915283203
-1.0308694839477539 2.8823318481445312 -0.84330081939697266
-1.582362174987793 1.790186882019043 -0.88451385498046875
-2.1388187408447266 1.4964570999145508 -0.90971469879150391
2.1463909149169922 1.8490772247314453 -1.1939325332641602
2.5648822784423828 1.5699787139892578 -1.190699577331543
1.675288200378418 2.7889194488525391 -1.1727161407470703
2.0478096008300781 2.9452724456787109 -1.0180435180664062
3.0214576721191406 2.3272743225097656 -0.58127498626708984
3.1936531066894531 1.7617006301879883 -0.73159885406494141
-3.6306352615356445 -0.018529891967773438 0.78445911407470703
-3.2855854034423828 -0.54986476898193359 0.80136394500732422
-3.9594488143920898 -0.10028553009033203 0.17731952667236328
-3.0845813751220703 -1.4862060546875 0.54757213592529297
-4.0832943916320801 -0.00014972686767578125 -0.36627006530761719
-3.660430908203125 0.058483123779296875 -0.87819194793701172
-3.3942623138427734 -0.47407913208007812 -1.0213623046875
-3.2308712005615234 -1.4802742004394531 -0.87498664855957031
-2.7407770156860352 -2.4163236618041992 0.25625991821289062
-2.8229827880859375 -2.3928937911987305 -0.6289520263671875
-2.1048250198364258 -3.1274394989013672 -0.29255485534667969
-2.2217569351196289 -2.9105739593505859 0.027539253234863281
-3.57183837890625 0.38621902465820312 0.84087753295898438
-3.4106559753417969 1.4586563110351562 0.72747516632080078
-2.8107509613037109 2.4112834930419922 0.61458969116210938
-2.2182931900024414 3.0402812957763672 0.239013671875
-2.2617988586425781 2.93212890625 -0.057409286499023438
-2.7636165618896484 2.4033536911010742 -0.39239692687988281
-3.2397232055664062 1.5382547378540039 -0.49495506286621094
-3.397796630859375 0.55521583557128906 -0.78474903106689453
3.3222589492797852 -0.40972995758056641 0.58772563934326172
3.6028375625610352 0.10393238067626953 0.60098743438720703
3.2941226959228516 -1.1840839385986328 0.37669658660888672
4.0432090759277344 0.10070133209228516 0.011176109313964844
2.9261655807495117 -2.3184928894042969 0.15940380096435547
2.4935998916625977 -3.0025157928466797 -0.046451568603515625
2.4230527877807617 -2.9752826690673828 -0.32300949096679688
2.9665184020996094 -2.2032909393310547 -0.77106189727783203
3.9455928802490234 0.11151218414306641 -0.49444866180419922
3.2640600204467773 -1.3780393600463867 -1.0245494842529297
3.4098892211914062 -0.30476951599121094 -1.232722282409668
3.5651388168334961 0.1494140625 -1.0965862274169922
3.5513553619384766 0.56968021392822266 0.66072368621826172
3.5131797790527344 1.5431308746337891 0.61866188049316406
3.4001922607421875 0.54721546173095703 -1.1975431442260742
3.3608570098876953 1.5056228637695312 -0.65810871124267578
3.1122989654541016 2.4784870147705078 0.62450122833251953
3.2398004531860352 2.4063653945922852 -0.27312946319580078
2.4645137786865234 2.9441642761230469 -0.22682571411132812
2.3971023559570312 3.0433845520019531 0.10667324066162109
0.11366653442382812 -1.4929628372192383 0.88117122650146484
-0.27219772338867188 -1.8065824508666992 0.99605178833007812
0.14722824096679688 -0.54005146026611328 0.40585231781005859
-1.2830009460449219 -1.4649600982666016 0.987548828125
-0.042902946472167969 0.593902587890625 0.41047859191894531
-0.092377662658691406 1.4517784118652344 0.70349788665771484
-0.45275211334228516 1.9563093185424805 0.84888648986816406
-1.5010967254638672 1.5462331771850586 0.97748374938964844
-2.3044605255126953 -0.85426712036132812 0.84950923919677734
-2.449925422668457 0.85093402862548828 0.98450756072998047
-3.2089576721191406 0.46707057952880859 0.96319770812988281
-2.9954462051391602 -0.48650741577148438 0.83384037017822266
0.57208061218261719 -1.7766246795654297 0.85190868377685547
1.6831130981445312 -1.5262174606323242 0.80154514312744141
2.3974113464355469 -0.72373199462890625 0.87422275543212891
3.1114482879638672 -0.19185733795166016 0.77761363983154297
3.1089000701904297 0.47822856903076172 0.86733341217041016
2.4459133148193359 1.0073318481445312 0.83824729919433594
1.7453536987304688 1.5936479568481445 0.73396015167236328
0.49338245391845703 1.8119630813598633 0.80949497222900391
0.13737106323242188 1.7816457748413086 -0.80322360992431641
-0.371673583984375 2.0114917755126953 -0.75794601440429688
0.02220916748046875 0.51213169097900391 -0.52880668640136719
-1.2365999221801758 1.5152740478515625 -0.92859268188476562
-0.030887603759765625 -0.41538429260253906 -0.58177566528320312
-0.0099897384643554688 -1.6360235214233398 -1.1052036285400391
-0.40824794769287109 -2.0081167221069336 -1.3975925445556641
-1.2774801254272461 -1.4933252334594727 -1.1569633483886719
-2.2852563858032227 0.98676300048828125 -0.98809242248535156
-2.2632827758789062 -0.9346771240234375 -1.1633157730102539
-3.1881532669067383 -0.05001068115234375 -1.1589527130126953
-2.9956579208374023 0.4310150146484375 -0.95458507537841797
0.84809494018554688 1.8904933929443359 -0.92222976684570312
1.7115983963012695 1.5360126495361328 -1.2282781600952148
2.2366905212402344 0.97497749328613281 -1.3064260482788086
2.9673652648925781 0.57284927368164062 -1.3650932312011719
3.0500965118408203 -0.20191287994384766 -1.3192415237426758
2.4349298477172852 -0.77923870086669922 -1.2951469421386719
1.5123472213745117 -1.2216796875 -1.1695222854614258
0.55225181579589844 -1.7137918472290039 -1.3141078948974609
-1.3448476791381836 -3.4896907806396484 -0.24516201019287109
-1.5783805847167969 -3.308135986328125 0.091629981994628906
-0.43454456329345703 -3.8153038024902344 -0.48352813720703125
-1.0996627807617188 -3.1768884658813477 0.46048641204833984
0.54359722137451172 -3.9064426422119141 -0.2968902587890625
1.5242452621459961 -3.5426902770996094 -0.23869419097900391
1.9624595642089844 -3.297607421875 -0.10082912445068359
1.5320034027099609 -3.3088264465332031 0.47355079650878906
-0.72155952453613281 -2.7991237640380859 0.92578125
1.027435302734375 -2.809666633605957 0.77252960205078125
0.49946498870849609 -2.360682487487793 0.82961368560791016
-0.21594905853271484 -2.3104400634765625 0.8649139404296875
-1.6917181015014648 -3.3727645874023438 -0.44332218170166016
-1.3581085205078125 -3.3257846832275391 -1.030970573425293
-0.99048137664794922 -2.9827642440795898 -1.4855451583862305
-0.19387435913085938 -2.5289440155029297 -1.5872831344604492
0.36660861968994141 -2.282649040222168 -1.5264110565185547
1.0730009078979492 -2.7916460037231445 -1.3268594741821289
1.6482353210449219 -3.1116008758544922 -1.0082550048828125
1.8485622406005859 -3.2057876586914062 -0.52714729309082031
-1.7552976608276367 3.231414794921875 0.39789295196533203
-1.2564411163330078 3.523076057434082 0.076337814331054688
-1.5106945037841797 3.1666250228881836 0.796966552734375
-0.40982532501220703 3.9477663040161133 -0.0041761398315429688
-0.69555282592773438 3.0974750518798828 1.044581413269043
-0.18457317352294922 2.4034223556518555 0.96835613250732422
0.29969120025634766 2.408808708190918 0.96748733520507812
0.90256404876708984 2.8534183502197266 1.0809869766235352
0.71382904052734375 3.9669027328491211 0.046979904174804688
1.4968767166137695 3.2041711807250977 0.72379684448242188
1.8947238922119141 3.3382625579833984 0.1915283203125
1.7437982559204102 3.473292350769043 -0.12220859527587891
-1.6371212005615234 3.3913364410400391 -0.071286201477050781
-1.3261613845825195 3.3434877395629883 -0.63302707672119141
2.0447216033935547 3.2813425064086914 -0.46555614471435547
1.6862478256225586 3.2943267822265625 -1.0067930221557617
-0.54647445678710938 3.1016950607299805 -0.86795902252197266
1.1246938705444336 3.0424032211303711 -1.1754226684570312
0.58179092407226562 2.4419965744018555 -0.99874019622802734
-0.058582305908203125 2.4124555587768555 -0.78413963317871094
-3.6721458435058594 -1.0030622482299805 -0.47663307189941406
-3.1997919082641602 -2.1394233703613281 -0.30274581909179688
-3.6530952453613281 -1.1617088317871094 0.18484210968017578
-3.3860321044921875 1.9389810562133789 0.072716712951660156
-3.7395086288452148 0.92488956451416016 -0.28092098236083984
-3.8941335678100586 0.80692195892333984 0.26175785064697266
3.2856826782226562 -2.0168056488037109 -0.24785804748535156
3.8045444488525391 -0.80149078369140625 -0.71642971038818359
3.7794160842895508 -0.84832954406738281 -0.13962078094482422
3.8750400543212891 0.93947982788085938 -0.43873310089111328
3.5118961334228516 2.0882730484008789 0.0685882568359375
3.9042959213256836 1.1268444061279297 0.22712898254394531
-1.0694084167480469 0.58518886566162109 0.84620761871337891
-2.1290369033813477 -0.023960113525390625 0.89054107666015625
-0.79511928558349609 -0.53522872924804688 0.65058994293212891
2.1906700134277344 0.23642539978027344 0.74703311920166016
1.1495637893676758 0.81945228576660156 0.48182296752929688
1.1241598129272461 -0.53083896636962891 0.46422958374023438
-0.98398208618164062 -0.61208915710449219 -0.66166305541992188
-2.0176763534545898 -0.068703651428222656 -0.83683109283447266
-1.0370121002197266 0.61870956420898438 -0.80889987945556641
2.1072092056274414 0.26789665222167969 -1.2094287872314453
1.2292671203613281 -0.54102706909179688 -0.89864730834960938
1.0090513229370117 0.60015964508056641 -0.82517814636230469
0.68956184387207031 -3.7121658325195312 0.29008102416992188
0.22288894653320312 -3.1565570831298828 0.67314624786376953
-0.36417579650878906 -3.585418701171875 0.055782318115234375
0.20561122894287109 -3.1779975891113281 -1.3475637435913086
0.68668174743652344 -3.7077560424804688 -0.80295562744140625
-0.43133163452148438 -3.6516294479370117 -0.95648765563964844
0.18385505676269531 3.4271316528320312 0.93430900573730469
0.96563148498535156 3.6317329406738281 0.40320205688476562
-0.47417163848876953 3.7224702835083008 0.50455093383789062
0.94198226928710938 3.7672004699707031 -0.58866596221923828
0.24710941314697266 3.4577751159667969 -0.98240280151367188
-0.23683547973632812 3.9379348754882812 -0.42271709442138672
-1.4802675247192383 -2.2523078918457031 0.98858833312988281
-2.5057277679443359 -1.6157436370849609 0.68757820129394531
-2.0716705322265625 -2.59356689453125 0.57262325286865234
2.7297506332397461 -1.4778833389282227 0.76029872894287109
1.8561792373657227 -2.12188720703125 0.79670906066894531
2.3057088851928711 -2.7237091064453125 0.55940914154052734
-1.4165477752685547 2.1995029449462891 1.1404895782470703
-2.0916881561279297 2.4082822799682617 1.0780086517333984
-2.6704416275024414 1.5053329467773438 1.0317802429199219
2.2737531661987305 2.8110408782958984 0.85279941558837891
1.8365898132324219 2.2920083999633789 1.1229839324951172
3.0328865051269531 1.8570795059204102 0.91088199615478516
-1.655853271484375 -2.3494205474853516 -1.4144868850708008
-2.184046745300293 -2.6301994323730469 -1.08636474609375
-2.6473484039306641 -1.3495941162109375 -1.1353092193603516
2.3438529968261719 -2.4088802337646484 -1.1703968048095703
1.4968385696411133 -2.0889654159545898 -1.3945541381835938
2.7068157196044922 -1.6742286682128906 -1.2942008972167969
-2.0393047332763672 2.6220293045043945 -0.70522022247314453
-1.2836427688598633 2.3204755783081055 -0.84364986419677734
-2.545135498046875 1.5706701278686523 -0.90605735778808594
2.0673799514770508 2.4478206634521484 -1.0972700119018555
2.7264900207519531 2.6056995391845703 -0.70770549774169922
2.9235191345214844 1.6720457077026367 -0.96639919281005859
-3.8013038635253906 -0.21590232849121094 0.53869533538818359
-3.2831153869628906 -1.0314702987670898 0.63996410369873047
-3.9042205810546875 -0.059820175170898438 -0.59622955322265625
-3.364354133605957 -0.90953922271728516 -0.96802806854248047
-2.4413471221923828 -2.9456872940063477 -0.46970081329345703
-2.5768842697143555 -2.6589527130126953 0.056156158447265625
-3.5754880905151367 0.93478012084960938 0.81704425811767578
-2.4512424468994141 2.6738061904907227 0.46045875549316406
-2.5757331848144531 2.638484001159668 -0.19369888305664062
-3.2053909301757812 1.0626010894775391 -0.6700592041015625
3.4833278656005859 -0.74195003509521484 0.31472396850585938
3.8917484283447266 0.048412322998046875 0.24182033538818359
2.6746835708618164 -2.7611675262451172 0.076188087463378906
2.7681951522827148 -2.5877237319946289 -0.58524703979492188
3.3299264907836914 -0.87771892547607422 -1.2074613571166992
3.746002197265625 0.17884540557861328 -0.82336616516113281
3.4661855697631836 1.0150871276855469 0.68100929260253906
3.4063453674316406 1.1606636047363281 -0.87866497039794922
2.8040475845336914 2.7264080047607422 -0.26364803314208984
2.8612346649169922 2.879185676574707 0.35646343231201172
0.11334323883056641 -0.97105789184570312 0.62514781951904297
-0.89465236663818359 -1.5907382965087891 0.95247077941894531
-0.027480125427246094 0.94602870941162109 0.49227523803710938
-0.90377140045166016 1.6447277069091797 0.8391571044921875
-2.9010543823242188 0.57746696472167969 0.99441909790039062
-2.7353420257568359 -0.66263008117675781 0.78817272186279297
1.1535243988037109 -1.5392780303955078 0.86238670349121094
2.7886114120483398 -0.64070415496826172 0.79262638092041016
2.8221111297607422 0.79793930053710938 0.96479415893554688
1.1594562530517578 1.7269496917724609 0.75514125823974609
0.068756103515625 1.1309242248535156 -0.58502578735351562
-0.80258655548095703 1.8031578063964844 -0.90412521362304688
0.074454307556152344 -0.96738529205322266 -0.71675300598144531
-0.90260028839111328 -1.904719352722168 -1.2579565048217773
-2.8025083541870117 -0.4093017578125 -1.1568098068237305
-2.6181430816650391 0.68194866180419922 -1.1260108947753906
1.2879247665405273 1.8326244354248047 -1.0719375610351562
2.6828908920288086 0.79942512512207031 -1.3214654922485352
2.7336645126342773 -0.62472915649414062 -1.2942581176757812
1.0205678939819336 -1.3889455795288086 -1.2597360610961914
-0.85155487060546875 -3.6301488876342773 -0.35907268524169922
-1.3106651306152344 -3.2802238464355469 0.22634792327880859
1.0516777038574219 -3.7791595458984375 -0.30960464477539062
1.8171920776367188 -3.3017091751098633 0.32858467102050781
0.90167617797851562 -2.5224647521972656 0.84326744079589844
-0.44968700408935547 -2.6214723587036133 0.96213626861572266
-1.478093147277832 -3.3744163513183594 -0.81951332092285156
-0.68675994873046875 -2.8212976455688477 -1.5389537811279297
0.77097797393798828 -2.5285263061523438 -1.4181251525878906
1.8978586196899414 -3.1133747100830078 -0.80269432067871094
-1.5347347259521484 3.237548828125 0.53825664520263672
-0.88000011444091797 3.8020553588867188 -0.0021028518676757812
-0.38111400604248047 2.7646350860595703 1.0500812530517578
0.66408824920654297 2.5466251373291016 1.0292682647705078
1.9081249237060547 3.2594003677368164 0.50575637817382812
1.3230381011962891 3.6756362915039062 -0.17542266845703125
-1.5890893936157227 3.3228244781494141 -0.38505935668945312
1.7851018905639648 3.3345947265625 -0.80491447448730469
0.85481357574462891 2.8163661956787109 -1.0742244720458984
-0.30171775817871094 2.8221378326416016 -0.90548896789550781
-4.0661787986755371 -0.014456748962402344 -0.12084293365478516
-2.9764003753662109 -1.9478111267089844 -0.81709194183349609
-2.9392232894897461 -2.0374050140380859 0.34418964385986328
-3.2522115707397461 1.848689079284668 0.64514446258544922
-2.9560937881469727 2.0619983673095703 -0.42339801788330078
3.1644096374511719 -1.8400602340698242 0.37595844268798828
3.1188020706176758 -1.8203468322753906 -0.82932662963867188
4.0946998596191406 0.028450965881347656 -0.22070121765136719
3.3350334167480469 2.0332260131835938 -0.41264724731445312
3.5219860076904297 2.0357933044433594 0.58434677124023438
0.11272621154785156 0.031588554382324219 0.33576488494873047
-1.9686670303344727 0.97932910919189453 1.0798377990722656
-1.8077812194824219 -1.2064609527587891 0.81307029724121094
2.0158014297485352 -1.1079740524291992 0.86766815185546875
2.0934038162231445 1.336054801940918 0.89562129974365234
0.066370964050292969 0.04302215576171875 -0.54910659790039062
-1.7748165130615234 -1.3712005615234375 -1.2727479934692383
-1.7169609069824219 1.2778034210205078 -0.91925621032714844
2.121516227722168 1.2908802032470703 -1.1910791397094727
2.0623989105224609 -1.0846157073974609 -1.2738790512084961
0.038793563842773438 -3.8281545639038086 -0.41678333282470703
1.2540903091430664 -3.1539850234985352 0.64095687866210938
-0.7897491455078125 -3.0715408325195312 0.73716545104980469
-1.0813732147216797 -3.1860332489013672 -1.2958879470825195
1.3766937255859375 -3.1017951965332031 -1.1821403503417969
-1.1736106872558594 3.1776542663574219 0.94393730163574219
1.2482919692993164 3.0183248519897461 0.90551376342773438
0.17336082458496094 3.939579963684082 0.049839019775390625
1.4295358657836914 3.1568450927734375 -1.1597423553466797
-0.90633773803710938 3.273101806640625 -0.69080066680908203
-3.2917270660400391 -0.064291954040527344 0.94884490966796875
-3.4360866546630859 0.17770195007324219 -1.0521650314331055
-1.72357177734375 -3.2531566619873047 -0.15676403045654297
-1.8451623916625977 3.2621059417724609 0.12367534637451172
3.3748779296875 0.1945648193359375 0.73501205444335938
1.9311542510986328 -3.2587528228759766 -0.32200431823730469
3.2735366821289062 0.24593734741210938 -1.3275871276855469
2.1324348449707031 3.1884078979492188 -0.11188220977783203
0.18014812469482422 -1.9557399749755859 0.8856048583984375
0.0074367523193359375 1.9817562103271484 0.86014461517333984
0.29056262969970703 2.1403255462646484 -0.85951709747314453
0.10146999359130859 -2.0573749542236328 -1.3666667938232422
3 0 1 2
3 3 4 5
3 6 7 8
3 9 10 11
3 12 13 14
3 15 16 17
3 18 19 20
3 21 22 23
3 24 25 26
3 27 28 29
3 30 31 32
3 33 34 35
3 36 37 38
3 39 40 41
3 42 43 44
3 45 46 47
3 48 49 50
3 51 52 53
3 54 55 56
3 57 58 59
3 60 61 62
3 63 64 65
3 66 67 68
3 69 70 71
3 72 73 74
3 75 76 77
3 78 79 80
3 81 82 83
3 84 85 86
3 87 88 89
3 90 91 92
3 93 94 95
3 96 97 98
3 99 100 101
3 102 103 104
3 105 106 107
3 108 109 110
3 111 112 113
3 114 115 116
3 117 118 119
3 120 121 122
3 123 124 125
3 126 127 128
3 129 130 131
3 132 133 134
3 135 136 137
3 138 139 140
3 141 142 143
3 144 145 146
3 147 148 149
3 150 151 152
3 153 154 155
3 156 157 158
3 159 160 161
3 162 163 164
3 165 166 167
3 168 169 170
3 171 172 173
3 174 175 176
3 177 178 179
3 180 181 182
3 183 184 185
3 186 187 188
3 189 190 191
3 192 193 194
3 195 196 197
3 198 199 200
3 201 202 203
3 204 205 206
3 207 208 209
3 210 211 212
3 213 214 215
3 216 217 218
3 219 220 221
3 222 223 224
3 225 226 227
3 228 229 230
3 231 232 233
3 234 235 236
3 237 238 239
3 240 2 241
3 242 243 0
3 1 244 245
3 246 5 247
3 248 249 3
3 4 250 251
3 252 8 253
3 254 255 6
3 7 256 257
3 258 11 259
3 260 261 9
3 10 262 263
3 264 14 265
3 266 267 12
3 13 268 269
3 270 17 271
3 272 273 15
3 16 274 275
3 276 20 277
3 278 279 18
3 19 280 281
3 282 23 283
3 284 285 21
3 22 286 287
3 288 26 289
3 290 291 24
3 25 292 293
3 294 29 295
3 296 297 27
3 28 298 299
3 300 32 301
3 302 303 30
3 31 304 305
3 306 35 307
3 308 309 33
3 34 310 311
3 312 38 313
3 314 315 36
3 37 316 317
3 318 41 319
3 320 321 39
3 40 322 323
3 324 44 325
3 326 327 42
3 43 328 329
3 330 47 331
3 332 333 45
3 46 334 335
3 336 50 337
3 338 339 48
3 49 340 341
3 342 53 343
3 344 345 51
3 52 346 347
3 348 56 349
3 350 351 54
3 55 352 353
3 354 59 355
3 356 357 57
3 58 358 359
3 360 62 361
3 362 241 60
3 61 245 363
3 364 65 240
3 365 366 63
3 64 367 242
3 244 68 368
3 243 369 66
3 67 370 371
3 372 71 360
3 373 247 69
3 70 251 362
3 374 74 246
3 375 376 72
3 73 377 248
3 250 77 364
3 249 378 75
3 76 379 365
3 380 80 381
3 382 253 78
3 79 257 383
3 384 83 252
3 385 386 81
3 82 387 254
3 256 86 388
3 255 389 84
3 85 390 391
3 381 89 392
3 383 259 87
3 88 263 393
3 388 92 258
3 391 394 90
3 91 395 260
3 262 95 396
3 261 397 93
3 94 398 399
3 400 98 401
3 402 265 96
3 97 269 403
3 404 101 264
3 405 406 99
3 100 407 266
3 268 104 408
3 267 409 102
3 103 410 411
3 412 107 400
3 413 271 105
3 106 275 402
3 414 110 270
3 415 416 108
3 109 417 272
3 274 113 404
3 273 418 111
3 112 419 405
3 420 116 421
3 422 277 114
3 115 281 423
3 424 119 276
3 425 426 117
3 118 427 278
3 280 122 428
3 279 429 120
3 121 430 431
3 432 125 420
3 433 283 123
3 124 287 422
3 434 128 282
3 435 436 126
3 127 437 284
3 286 131 424
3 285 438 129
3 130 439 425
3 440 134 441
3 442 289 132
3 133 293 443
3 444 137 288
3 445 446 135
3 136 447 290
3 292 140 448
3 291 449 138
3 139 450 451
3 452 143 440
3 453 295 141
3 142 299 442
3 454 146 294
3 455 456 144
3 145 457 296
3 298 149 444
3 297 458 147
3 148 459 445
3 460 152 461
3 462 301 150
3 151 305 463
3 464 155 300
3 465 466 153
3 154 467 302
3 304 158 468
3 303 469 156
3 157 470 471
3 461 161 472
3 463 307 159
3 160 311 473
3 468 164 306
3 471 474 162
3 163 475 308
3 310 167 476
3 309 477 165
3 166 478 479
3 441 170 371
3 443 313 168
3 169 317 368
3 448 173 312
3 451 401 171
3 172 403 314
3 316 176 363
3 315 408 174
3 175 411 361
3 385 179 446
3 384 319 177
3 178 323 447
3 382 182 318
3 380 415 180
3 181 414 320
3 322 185 449
3 321 413 183
3 184 412 450
3 410 188 372
3 409 325 186
3 187 329 373
3 407 191 324
3 406 465 189
3 190 464 326
3 328 194 374
3 327 462 192
3 193 460 375
3 392 197 416
3 393 331 195
3 196 335 417
3 396 200 330
3 399 470 198
3 199 469 332
3 334 203 418
3 333 467 201
3 202 466 419
3 430 206 366
3 429 337 204
3 205 341 367
3 427 209 336
3 426 455 207
3 208 454 338
3 340 212 369
3 339 453 210
3 211 452 370
3 390 215 436
3 389 343 213
3 214 347 437
3 387 218 342
3 386 459 216
3 217 458 344
3 346 221 438
3 345 457 219
3 220 456 439
3 379 224 431
3 378 349 222
3 223 353 428
3 377 227 348
3 376 472 225
3 226 473 350
3 352 230 423
3 351 476 228
3 229 479 421
3 435 233 394
3 434 355 231
3 232 359 395
3 433 236 354
3 432 478 234
3 235 477 356
3 358 239 397
3 357 475 237
3 238 474 398
3 480 0 2
3 0 481 1
3 2 1 482
3 483 3 5
3 3 484 4
3 5 4 485
3 486 6 8
3 6 487 7
3 8 7 488
3 489 9 11
3 9 490 10
3 11 10 491
3 492 12 14
3 12 493 13
3 14 13 494
3 495 15 17
3 15 496 16
3 17 16 497
3 498 18 20
3 18 499 19
3 20 19 500
3 501 21 23
3 21 502 22
3 23 22 503
3 504 24 26
3 24 505 25
3 26 25 506
3 507 27 29
3 27 508 28
3 29 28 509
3 510 30 32
3 30 511 31
3 32 31 512
3 513 33 35
3 33 514 34
3 35 34 515
3 516 36 38
3 36 517 37
3 38 37 518
3 519 39 41
3 39 520 40
3 41 40 521
3 522 42 44
3 42 523 43
3 44 43 524
3 525 45 47
3 45 526 46
3 47 46 527
3 528 48 50
3 48 529 49
3 50 49 530
3 531 51 53
3 51 532 52
3 53 52 533
3 534 54 56
3 54 535 55
3 56 55 536
3 537 57 59
3 57 538 58
3 59 58 539
3 540 60 62
3 60 482 61
3 62 61 541
3 542 63 65
3 63 543 64
3 65 64 480
3 481 66 68
3 66 544 67
3 68 67 545
3 546 69 71
3 69 485 70
3 71 70 540
3 547 72 74
3 72 548 73
3 74 73 483
3 484 75 77
3 75 549 76
3 77 76 542
3 550 78 80
3 78 488 79
3 80 79 551
3 552 81 83
3 81 553 82
3 83 82 486
3 487 84 86
3 84 554 85
3 86 85 555
3 551 87 89
3 87 491 88
3 89 88 556
3 555 90 92
3 90 557 91
3 92 91 489
3 490 93 95
3 93 558 94
3 95 94 559
3 560 96 98
3 96 494 97
3 98 97 561
3 562 99 101
3 99 563 100
3 101 100 492
3 493 102 104
3 102 564 103
3 104 103 565
3 566 105 107
3 105 497 106
3 107 106 560
3 567 108 110
3 108 568 109
3 110 109 495
3 496 111 113
3 111 569 112
3 113 112 562
3 570 114 116
3 114 500 115
3 116 115 571
3 572 117 119
3 117 573 118
3 119 118 498
3 499 120 122
3 120 574 121
3 122 121 575
3 576 123 125
3 123 503 124
3 125 124 570
3 577 126 128
3 126 578 127
3 128 127 501
3 502 129 131
3 129 579 130
3 131 130 572
3 580 132 134
3 132 506 133
3 134 133 581
3 582 135 137
3 135 583 136
3 137 136 504
3 505 138 140
3 138 584 139
3 140 139 585
3 586 141 143
3 141 509 142
3 143 142 580
3 587 144 146
3 144 588 145
3 146 145 507
3 508 147 149
3 147 589 148
3 149 148 582
3 590 150 152
3 150 512 151
3 152 151 591
3 592 153 155
3 153 593 154
3 155 154 510
3 511 156 158
3 156 594 157
3 158 157 595
3 591 159 161
3 159 515 160
3 161 160 596
3 595 162 164
3 162 597 163
3 164 163 513
3 514 165 167
3 165 598 166
3 167 166 599
3 581 168 170
3 168 518 169
3 170 169 545
3 585 171 173
3 171 561 172
3 173 172 516
3 517 174 176
3 174 565 175
3 176 175 541
3 552 177 179
3 177 521 178
3 179 178 583
3 550 180 182
3 180 567 181
3 182 181 519
3 520 183 185
3 183 566 184
3 185 184 584
3 564 186 188
3 186 524 187
3 188 187 546
3 563 189 191
3 189 592 190
3 191 190 522
3 523 192 194
3 192 590 193
3 194 193 547
3 556 195 197
3 195 527 196
3 197 196 568
3 559 198 200
3 198 594 199
3 200 199 525
3 526 201 203
3 201 593 202
3 203 202 569
3 574 204 206
3 204 530 205
3 206 205 543
3 573 207 209
3 207 587 208
3 209 208 528
3 529 210 212
3 210 586 211
3 212 211 544
3 554 213 215
3 213 533 214
3 215 214 578
3 553 216 218
3 216 589 217
3 218 217 531
3 532 219 221
3 219 588 220
3 221 220 579
3 549 222 224
3 222 536 223
3 224 223 575
3 548 225 227
3 225 596 226
3 227 226 534
3 535 228 230
3 228 599 229
3 230 229 571
3 577 231 233
3 231 539 232
3 233 232 557
3 576 234 236
3 234 598 235
3 236 235 537
3 538 237 239
3 237 597 238
3 239 238 558
3 600 240 241
3 240 480 2
3 241 2 482
3 480 242 0
3 242 601 243
3 0 243 481
3 482 1 245
3 1 481 244
3 245 244 602
3 603 246 247
3 246 483 5
3 247 5 485
3 483 248 3
3 248 604 249
3 3 249 484
3 485 4 251
3 4 484 250
3 251 250 600
3 605 252 253
3 252 486 8
3 253 8 488
3 486 254 6
3 254 606 255
3 6 255 487
3 488 7 257
3 7 487 256
3 257 256 607
3 607 258 259
3 258 489 11
3 259 11 491
3 489 260 9
3 260 608 261
3 9 261 490
3 491 10 263
3 10 490 262
3 263 262 609
3 610 264 265
3 264 492 14
3 265 14 494
3 492 266 12
3 266 611 267
3 12 267 493
3 494 13 269
3 13 493 268
3 269 268 612
3 613 270 271
3 270 495 17
3 271 17 497
3 495 272 15
3 272 614 273
3 15 273 496
3 497 16 275
3 16 496 274
3 275 274 610
3 615 276 277
3 276 498 20
3 277 20 500
3 498 278 18
3 278 616 279
3 18 279 499
3 500 19 281
3 19 499 280
3 281 280 617
3 618 282 283
3 282 501 23
3 283 23 503
3 501 284 21
3 284 619 285
3 21 285 502
3 503 22 287
3 22 502 286
3 287 286 615
3 620 288 289
3 288 504 26
3 289 26 506
3 504 290 24
3 290 621 291
3 24 291 505
3 506 25 293
3 25 505 292
3 293 292 622
3 623 294 295
3 294 507 29
3 295 29 509
3 507 296 27
3 296 624 297
3 27 297 508
3 509 28 299
3 28 508 298
3 299 298 620
3 625 300 301
3 300 510 32
3 301 32 512
3 510 302 30
3 302 626 303
3 30 303 511
3 512 31 305
3 31 511 304
3 305 304 627
3 627 306 307
3 306 513 35
3 307 35 515
3 513 308 33
3 308 628 309
3 33 309 514
3 515 34 311
3 34 514 310
3 311 310 629
3 622 312 313
3 312 516 38
3 313 38 518
3 516 314 36
3 314 612 315
3 36 315 517
3 518 37 317
3 37 517 316
3 317 316 602
3 605 318 319
3 318 519 41
3 319 41 521
3 519 320 39
3 320 613 321
3 39 321 520
3 521 40 323
3 40 520 322
3 323 322 621
3 611 324 325
3 324 522 44
3 325 44 524
3 522 326 42
3 326 625 327
3 42 327 523
3 524 43 329
3 43 523 328
3 329 328 603
3 609 330 331
3 330 525 47
3 331 47 527
3 525 332 45
3 332 626 333
3 45 333 526
3 527 46 335
3 46 526 334
3 335 334 614
3 616 336 337
3 336 528 50
3 337 50 530
3 528 338 48
3 338 623 339
3 48 339 529
3 530 49 341
3 49 529 340
3 341 340 601
3 606 342 343
3 342 531 53
3 343 53 533
3 531 344 51
3 344 624 345
3 51 345 532
3 533 52 347
3 52 532 346
3 347 346 619
3 604 348 349
3 348 534 56
3 349 56 536
3 534 350 54
3 350 629 351
3 54 351 535
3 536 55 353
3 55 535 352
3 353 352 617
3 618 354 355
3 354 537 59
3 355 59 539
3 537 356 57
3 356 628 357
3 57 357 538
3 539 58 359
3 58 538 358
3 359 358 608
3 630 360 361
3 360 540 62
3 361 62 541
3 540 362 60
3 362 600 241
3 60 241 482
3 541 61 363
3 61 482 245
3 363 245 602
3 600 364 240
3 364 542 65
3 240 65 480
3 542 365 63
3 365 631 366
3 63 366 543
3 480 64 242
3 64 543 367
3 242 367 601
3 602 244 368
3 244 481 68
3 368 68 545
3 481 243 66
3 243 601 369
3 66 369 544
3 545 67 371
3 67 544 370
3 371 370 632
3 630 372 360
3 372 546 71
3 360 71 540
3 546 373 69
3 373 603 247
3 69 247 485
3 540 70 362
3 70 485 251
3 362 251 600
3 603 374 246
3 374 547 74
3 246 74 483
3 547 375 72
3 375 633 376
3 72 376 548
3 483 73 248
3 73 548 377
3 248 377 604
3 600 250 364
3 250 484 77
3 364 77 542
3 484 249 75
3 249 604 378
3 75 378 549
3 542 76 365
3 76 549 379
3 365 379 631
3 634 380 381
3 380 550 80
3 381 80 551
3 550 382 78
3 382 605 253
3 78 253 488
3 551 79 383
3 79 488 257
3 383 257 607
3 605 384 252
3 384 552 83
3 252 83 486
3 552 385 81
3 385 635 386
3 81 386 553
3 486 82 254
3 82 553 387
3 254 387 606
3 607 256 388
3 256 487 86
3 388 86 555
3 487 255 84
3 255 606 389
3 84 389 554
3 555 85 391
3 85 554 390
3 391 390 636
3 634 381 392
3 381 551 89
3 392 89 556
3 551 383 87
3 383 607 259
3 87 259 491
3 556 88 393
3 88 491 263
3 393 263 609
3 607 388 258
3 388 555 92
3 258 92 489
3 555 391 90
3 391 636 394
3 90 394 557
3 489 91 260
3 91 557 395
3 260 395 608
3 609 262 396
3 262 490 95
3 396 95 559
3 490 261 93
3 261 608 397
3 93 397 558
3 559 94 399
3 94 558 398
3 399 398 637
3 638 400 401
3 400 560 98
3 401 98 561
3 560 402 96
3 402 610 265
3 96 265 494
3 561 97 403
3 97 494 269
3 403 269 612
3 610 404 264
3 404 562 101
3 264 101 492
3 562 405 99
3 405 639 406
3 99 406 563
3 492 100 266
3 100 563 407
3 266 407 611
3 612 268 408
3 268 493 104
3 408 104 565
3 493 267 102
3 267 611 409
3 102 409 564
3 565 103 411
3 103 564 410
3 411 410 630
3 638 412 400
3 412 566 107
3 400 107 560
3 566 413 105
3 413 613 271
3 105 271 497
3 560 106 402
3 106 497 275
3 402 275 610
3 613 414 270
3 414 567 110
3 270 110 495
3 567 415 108
3 415 634 416
3 108 416 568
3 495 109 272
3 109 568 417
3 272 417 614
3 610 274 404
3 274 496 113
3 404 113 562
3 496 273 111
3 273 614 418
3 111 418 569
3 562 112 405
3 112 569 419
3 405 419 639
3 640 420 421
3 420 570 116
3 421 116 571
3 570 422 114
3 422 615 277
3 114 277 500
3 571 115 423
3 115 500 281
3 423 281 617
3 615 424 276
3 424 572 119
3 276 119 498
3 572 425 117
3 425 641 426
3 117 426 573
3 498 118 278
3 118 573 427
3 278 427 616
3 617 280 428
3 280 499 122
3 428 122 575
3 499 279 120
3 279 616 429
3 120 429 574
3 575 121 431
3 121 574 430
3 431 430 631
3 640 432 420
3 432 576 125
3 420 125 570
3 576 433 123
3 433 618 283
3 123 283 503
3 570 124 422
3 124 503 287
3 422 287 615
3 618 434 282
3 434 577 128
3 282 128 501
3 577 435 126
3 435 636 436
3 126 436 578
3 501 127 284
3 127 578 437
3 284 437 619
3 615 286 424
3 286 502 131
3 424 131 572
3 502 285 129
3 285 619 438
3 129 438 579
3 572 130 425
3 130 579 439
3 425 439 641
3 632 440 441
3 440 580 134
3 441 134 581
3 580 442 132
3 442 620 289
3 132 289 506
3 581 133 443
3 133 506 293
3 443 293 622
3 620 444 288
3 444 582 137
3 288 137 504
3 582 445 135
3 445 635 446
3 135 446 583
3 504 136 290
3 136 583 447
3 290 447 621
3 622 292 448
3 292 505 140
3 448 140 585
3 505 291 138
3 291 621 449
3 138 449 584
3 585 139 451
3 139 584 450
3 451 450 638
3 632 452 440
3 452 586 143
3 440 143 580
3 586 453 141
3 453 623 295
3 141 295 509
3 580 142 442
3 142 509 299
3 442 299 620
3 623 454 294
3 454 587 146
3 294 146 507
3 587 455 144
3 455 641 456
3 144 456 588
3 507 145 296
3 145 588 457
3 296 457 624
3 620 298 444
3 298 508 149
3 444 149 582
3 508 297 147
3 297 624 458
3 147 458 589
3 582 148 445
3 148 589 459
3 445 459 635
3 633 460 461
3 460 590 152
3 461 152 591
3 590 462 150
3 462 625 301
3 150 301 512
3 591 151 463
3 151 512 305
3 463 305 627
3 625 464 300
3 464 592 155
3 300 155 510
3 592 465 153
3 465 639 466
3 153 466 593
3 510 154 302
3 154 593 467
3 302 467 626
3 627 304 468
3 304 511 158
3 468 158 595
3 511 303 156
3 303 626 469
3 156 469 594
3 595 157 471
3 157 594 470
3 471 470 637
3 633 461 472
3 461 591 161
3 472 161 596
3 591 463 159
3 463 627 307
3 159 307 515
3 596 160 473
3 160 515 311
3 473 311 629
3 627 468 306
3 468 595 164
3 306 164 513
3 595 471 162
3 471 637 474
3 162 474 597
3 513 163 308
3 163 597 475
3 308 475 628
3 629 310 476
3 310 514 167
3 476 167 599
3 514 309 165
3 309 628 477
3 165 477 598
3 599 166 479
3 166 598 478
3 479 478 640
3 632 441 371
3 441 581 170
3 371 170 545
3 581 443 168
3 443 622 313
3 168 313 518
3 545 169 368
3 169 518 317
3 368 317 602
3 622 448 312
3 448 585 173
3 312 173 516
3 585 451 171
3 451 638 401
3 171 401 561
3 516 172 314
3 172 561 403
3 314 403 612
3 602 316 363
3 316 517 176
3 363 176 541
3 517 315 174
3 315 612 408
3 174 408 565
3 541 175 361
3 175 565 411
3 361 411 630
3 635 385 446
3 385 552 179
3 446 179 583
3 552 384 177
3 384 605 319
3 177 319 521
3 583 178 447
3 178 521 323
3 447 323 621
3 605 382 318
3 382 550 182
3 318 182 519
3 550 380 180
3 380 634 415
3 180 415 567
3 519 181 320
3 181 567 414
3 320 414 613
3 621 322 449
3 322 520 185
3 449 185 584
3 520 321 183
3 321 613 413
3 183 413 566
3 584 184 450
3 184 566 412
3 450 412 638
3 630 410 372
3 410 564 188
3 372 188 546
3 564 409 186
3 409 611 325
3 186 325 524
3 546 187 373
3 187 524 329
3 373 329 603
3 611 407 324
3 407 563 191
3 324 191 522
3 563 406 189
3 406 639 465
3 189 465 592
3 522 190 326
3 190 592 464
3 326 464 625
3 603 328 374
3 328 523 194
3 374 194 547
3 523 327 192
3 327 625 462
3 192 462 590
3 547 193 375
3 193 590 460
3 375 460 633
3 634 392 416
3 392 556 197
3 416 197 568
3 556 393 195
3 393 609 331
3 195 331 527
3 568 196 417
3 196 527 335
3 417 335 614
3 609 396 330
3 396 559 200
3 330 200 525
3 559 399 198
3 399 637 470
3 198 470 594
3 525 199 332
3 199 594 469
3 332 469 626
3 614 334 418
3 334 526 203
3 418 203 569
3 526 333 201
3 333 626 467
3 201 467 593
3 569 202 419
3 202 593 466
3 419 466 639
3 631 430 366
3 430 574 206
3 366 206 543
3 574 429 204
3 429 616 337
3 204 337 530
3 543 205 367
3 205 530 341
3 367 341 601
3 616 427 336
3 427 573 209
3 336 209 528
3 573 426 207
3 426 641 455
3 207 455 587
3 528 208 338
3 208 587 454
3 338 454 623
3 601 340 369
3 340 529 212
3 369 212 544
3 529 339 210
3 339 623 453
3 210 453 586
3 544 211 370
3 211 586 452
3 370 452 632
3 636 390 436
3 390 554 215
3 436 215 578
3 554 389 213
3 389 606 343
3 213 343 533
3 578 214 437
3 214 533 347
3 437 347 619
3 606 387 342
3 387 553 218
3 342 218 531
3 553 386 216
3 386 635 459
3 216 459 589
3 531 217 344
3 217 589 458
3 344 458 624
3 619 346 438
3 346 532 221
3 438 221 579
3 532 345 219
3 345 624 457
3 219 457 588
3 579 220 439
3 220 588 456
3 439 456 641
3 631 379 431
3 379 549 224
3 431 224 575
3 549 378 222
3 378 604 349
3 222 349 536
3 575 223 428
3 223 536 353
3 428 353 617
3 604 377 348
3 377 548 227
3 348 227 534
3 548 376 225
3 376 633 472
3 225 472 596
3 534 226 350
3 226 596 473
3 350 473 629
3 617 352 423
3 352 535 230
3 423 230 571
3 535 351 228
3 351 629 476
3 228 476 599
3 571 229 421
3 229 599 479
3 421 479 640
3 636 435 394
3 435 577 233
3 394 233 557
3 577 434 231
3 434 618 355
3 231 355 539
3 557 232 395
3 232 539 359
3 395 359 608
3 618 433 354
3 433 576 236
3 354 236 537
3 576 432 234
3 432 640 478
3 234 478 598
3 537 235 356
3 235 598 477
3 356 477 628
3 608 358 397
3 358 538 239
3 397 239 558
3 538 357 237
3 357 628 475
3 237 475 597
3 558 238 398
3 238 597 474
3 398 474 637
