OFF
642 1280 0
-3.8984241485595703 -1.387232780456543 -0.080655097961425781
-3.7398538589477539 -1.6532411575317383 0.19436836242675781
-3.9789104461669922 -1.0191097259521484 0.083370208740234375
-3.4576921463012695 1.5013418197631836 -0.34141635894775391
-3.7086257934570312 1.0152778625488281 -0.10514640808105469
-3.4150485992431641 1.4108467102050781 0.011030197143554688
3.6387157440185547 -1.4285011291503906 -0.34568309783935547
3.8452978134155273 -1.0972108840942383 -0.16082668304443359
3.5299491882324219 -1.533473014831543 -0.059643745422363281
3.7354068756103516 1.5185890197753906 -0.18954753875732422
3.6817855834960938 1.5069122314453125 0.021201133728027344
3.9265098571777344 0.88861656188964844 -0.1197357177734375
-1.6197223663330078 0.088822364807128906 0.72221565246582031
-1.6879825592041016 -0.48129463195800781 0.835601806640625
-1.0993490219116211 -0.33622169494628906 0.60343742370605469
1.3865280151367188 0.43145179748535156 0.49667739868164062
0.90814685821533203 0.015104293823242188 0.44013023376464844
1.4229459762573242 -0.17276668548583984 0.56134319305419922
-1.3035850524902344 -0.33516788482666016 -0.91586589813232422
-1.3855228424072266 0.21373367309570312 -0.80619144439697266
-0.91210746765136719 0.046690940856933594 -0.54120922088623047
1.5928306579589844 -0.36626338958740234 -0.96975517272949219
0.97919559478759766 -0.12529945373535156 -0.83170890808105469
1.5691690444946289 0.2245941162109375 -0.91529941558837891
0.35388278961181641 -3.532404899597168 0.69974899291992188
-0.25618648529052734 -3.539642333984375 0.63522624969482422
-0.033652305603027344 -3.8439464569091797 0.44602012634277344
0.27406120300292969 -3.5286798477172852 -0.63430213928222656
-0.11609840393066406 -3.7057723999023438 -0.38301563262939453
-0.16995811462402344 -3.4939098358154297 -0.57454013824462891
0.27074432373046875 3.4523544311523438 0.76460075378417969
0.069196701049804688 3.6508369445800781 0.57168865203857422
-0.51750755310058594 3.2755489349365234 0.78791427612304688
0.52507209777832031 3.5427885055541992 -0.68132972717285156
-0.12163543701171875 3.6377458572387695 -0.70304965972900391
0.24125194549560547 3.8585262298583984 -0.43330097198486328
-2.3664941787719727 -2.121434211730957 1.1657867431640625
-2.7904329299926758 -2.2978639602661133 1.1210060119628906
-2.1137266159057617 -2.7049694061279297 1.0925159454345703
2.0616836547851562 -1.8704795837402344 0.89034557342529297
2.0719509124755859 -2.4561986923217773 0.67721176147460938
2.4521656036376953 -1.9477729797363281 0.64531707763671875
-2.1780567169189453 2.2265033721923828 1.0794124603271484
-2.7376422882080078 1.924870491027832 0.98323249816894531
-2.2733707427978516 1.7603626251220703 1.1209716796875
2.1566877365112305 2.6763010025024414 1.1136512756347656
2.3032703399658203 2.1147212982177734 1.1403408050537109
2.7784652709960938 2.1411819458007812 0.97076034545898438
-2.1459665298461914 -2.3627986907958984 -0.87948513031005859
-2.6254901885986328 -1.9496994018554688 -0.79004192352294922
-2.2464885711669922 -1.8185157775878906 -0.98491096496582031
2.1863059997558594 -2.4443073272705078 -1.1544179916381836
2.3854026794433594 -1.8552484512329102 -1.1541481018066406
2.7785778045654297 -1.9837064743041992 -1.0403633117675781
-1.6930465698242188 2.5462179183959961 -1.0123729705810547
-1.9870290756225586 2.0335578918457031 -1.1496410369873047
-2.3491725921630859 2.0903530120849609 -0.97408390045166016
2.132904052734375 2.4704771041870117 -0.78622531890869141
2.5576562881469727 2.0802249908447266 -0.70194339752197266
2.4079113006591797 1.9064044952392578 -0.92822647094726562
-3.9956951141357422 -0.37775802612304688 0.3018798828125
-3.8166570663452148 -1.1010046005249023 0.6464385986328125
-3.8069000244140625 -0.67587852478027344 0.55583858489990234
-3.7564783096313477 -0.45144844055175781 -0.77171993255615234
-3.7153215408325195 -0.95404052734375 -0.57518196105957031
-4.0513515472412109 -0.40901660919189453 -0.45338058471679688
-3.2250814437866211 -2.4782733917236328 -0.0030393600463867188
-2.9623689651489258 -2.8660449981689453 0.21263217926025391
-3.2417259216308594 -2.5279636383056641 0.20217418670654297
-3.5677785873413086 0.93360328674316406 0.55278778076171875
-3.7632331848144531 0.39789199829101562 0.30417633056640625
-3.6022129058837891 0.52223682403564453 0.68192577362060547
-2.6276645660400391 2.6832427978515625 -0.16261386871337891
-2.9279060363769531 2.3260746002197266 -0.33442783355712891
-2.9074125289916992 2.333643913269043 0.03467559814453125
-3.5227632522583008 0.94171047210693359 -0.73304462432861328
-3.7069549560546875 0.36137771606445312 -0.69791221618652344
-3.8628101348876953 0.50740528106689453 -0.54537010192871094
3.5270395278930664 -1.0716705322265625 0.37988853454589844
3.7307510375976562 -0.64696502685546875 0.28560829162597656
3.4478378295898438 -0.47413349151611328 0.60900306701660156
2.6897621154785156 -2.7995128631591797 -0.33018302917480469
3.0759811401367188 -2.3572368621826172 -0.32512569427490234
3.0187282562255859 -2.3471164703369141 -0.017235755920410156
3.7049531936645508 -1.1766443252563477 -0.88964557647705078
3.8123092651367188 -0.66241645812988281 -0.92483997344970703
4.0419540405273438 -0.56161212921142578 -0.58968544006347656
3.7852287292480469 0.35621070861816406 0.26977825164794922
3.6879987716674805 0.92376136779785156 0.39571475982666016
3.5540685653686523 0.40688323974609375 0.52502155303955078
3.8687171936035156 0.42385101318359375 -0.82525253295898438
3.9184608459472656 0.89471435546875 -0.65778923034667969
4.1108894348144531 0.34405517578125 -0.56751537322998047
3.2397346496582031 2.5429525375366211 -0.15456199645996094
2.7859706878662109 2.88214111328125 0.24424266815185547
3.1766996383666992 2.5620975494384766 0.15545654296875
-0.48924922943115234 -0.8511962890625 0.65018081665039062
-1.1448698043823242 -1.3436403274536133 0.89491653442382812
-0.50421905517578125 -1.2949018478393555 0.73188304901123047
-0.5222015380859375 1.2779932022094727 0.65550518035888672
-1.0027294158935547 0.91881847381591797 0.60934734344482422
-0.52853107452392578 0.80396747589111328 0.40470027923583984
-2.4793052673339844 0.14202880859375 0.98909950256347656
-2.9912967681884766 -0.14714622497558594 1.0404834747314453
-2.5684041976928711 -0.38439464569091797 0.93324565887451172
0.8862762451171875 -1.2280368804931641 0.72976493835449219
0.42265987396240234 -0.79914283752441406 0.55679702758789062
0.49913597106933594 -1.4018478393554688 0.79177379608154297
2.7160720825195312 0.013231277465820312 0.90138053894042969
2.4399452209472656 0.49629974365234375 0.86261653900146484
2.3348884582519531 -0.073357582092285156 0.83719158172607422
0.95270538330078125 1.4871091842651367 0.80153274536132812
0.5333709716796875 1.5035266876220703 0.58991146087646484
0.38873958587646484 0.85021400451660156 0.37218570709228516
-0.48728466033935547 0.8283233642578125 -0.63275718688964844
-0.96454811096191406 1.2927055358886719 -0.88136863708496094
-0.41084003448486328 1.3894939422607422 -0.90724849700927734
-0.42829132080078125 -1.4555788040161133 -0.77389907836914062
-0.89704704284667969 -1.4193868637084961 -0.8989715576171875
-0.40934848785400391 -0.89770889282226562 -0.60924720764160156
-2.2276268005371094 -0.42674541473388672 -0.91259574890136719
-2.8114242553710938 -0.17057228088378906 -0.914215087890625
-2.3680286407470703 0.13036060333251953 -0.95184993743896484
1.1932468414306641 1.1698722839355469 -0.97639751434326172
0.50700664520263672 0.85292434692382812 -0.81685352325439453
0.65308475494384766 1.3948888778686523 -1.0940685272216797
2.9085941314697266 0.029039382934570312 -1.2729215621948242
2.5030508041381836 -0.22434329986572266 -1.2146749496459961
2.485382080078125 0.27898788452148438 -1.2004890441894531
1.0800800323486328 -1.2330570220947266 -0.98045921325683594
0.60237693786621094 -1.5111846923828125 -1.046630859375
0.54039859771728516 -0.95288658142089844 -0.72410774230957031
-0.94418811798095703 -3.653019905090332 0.30410957336425781
-1.1746244430541992 -3.5390920639038086 0.54830074310302734
-1.3290262222290039 -3.5584421157836914 0.37538814544677734
1.3264989852905273 -3.5204124450683594 0.38093185424804688
1.0014171600341797 -3.4746599197387695 0.62990283966064453
0.94122314453125 -3.7101173400878906 0.34808921813964844
0.23746871948242188 -2.9442434310913086 1.0128021240234375
-0.15639686584472656 -2.5629682540893555 1.0314369201660156
-0.23550224304199219 -2.9395484924316406 1.0598182678222656
-1.2012786865234375 -3.5148487091064453 -0.31858158111572266
-0.90906620025634766 -3.7830486297607422 -0.09932708740234375
-1.4854936599731445 -3.5368995666503906 -0.10315704345703125
0.18304061889648438 -2.8826713562011719 -1.087275505065918
0.46263980865478516 -3.0953083038330078 -1.0468626022338867
-0.34192371368408203 -3.1290569305419922 -0.91807746887207031
1.1509275436401367 -3.5906333923339844 -0.48586845397949219
1.2702960968017578 -3.6298866271972656 -0.20227813720703125
0.75624847412109375 -3.8415374755859375 -0.20870399475097656
-1.1707210540771484 3.470118522644043 0.51986408233642578
-0.77211761474609375 3.6756000518798828 0.27229785919189453
-1.2165412902832031 3.5418539047241211 0.17302608489990234
0.073336601257324219 2.626556396484375 0.91891860961914062
0.38280773162841797 2.9701995849609375 0.85985565185546875
-0.35495758056640625 2.8094196319580078 0.93386745452880859
1.276275634765625 3.6680126190185547 0.60552883148193359
1.5150947570800781 3.7095794677734375 0.29458332061767578
1.0922889709472656 3.7521524429321289 0.41077899932861328
-0.61217594146728516 3.685328483581543 -0.24186325073242188
-0.96449089050292969 3.5762777328491211 -0.46828460693359375
-1.3963432312011719 3.5453214645385742 -0.32256889343261719
1.5117931365966797 3.6017465591430664 -0.21980094909667969
1.3022003173828125 3.4939517974853516 -0.43922805786132812
1.0148906707763672 3.7591323852539062 -0.11271762847900391
0.34880352020263672 3.0028896331787109 -1.1026821136474609
0.18221759796142578 2.7264480590820312 -1.1878185272216797
-0.18714046478271484 3.1918983459472656 -0.93452644348144531
-2.1540737152099609 -3.0620079040527344 0.89441680908203125
-2.7149543762207031 -2.9014167785644531 0.73923015594482422
-2.4759416580200195 -3.1243705749511719 0.65261077880859375
-0.88965702056884766 -2.2593498229980469 1.1168346405029297
-1.6311702728271484 -2.0446090698242188 1.1836967468261719
-1.2576484680175781 -2.5095701217651367 1.2469654083251953
-2.9488544464111328 -1.2823019027709961 0.99610042572021484
-3.1908664703369141 -0.96440410614013672 0.94888114929199219
-3.197479248046875 -1.5200471878051758 0.89343833923339844
2.56964111328125 -2.6602859497070312 0.25067520141601562
1.9786720275878906 -3.0032854080200195 0.52168941497802734
2.1817665100097656 -2.9679670333862305 0.25234031677246094
2.7760028839111328 -0.85224342346191406 0.71102428436279297
2.4871807098388672 -1.0265283584594727 0.92194175720214844
2.7595367431640625 -1.1899118423461914 0.76598167419433594
1.3608570098876953 -2.1173191070556641 0.98664951324462891
0.74970054626464844 -2.2346649169921875 1.0209922790527344
1.0928888320922852 -2.5409507751464844 1.05572509765625
-2.8578386306762695 0.99005413055419922 1.1757326126098633
-3.1085996627807617 1.3279848098754883 0.89253616333007812
-3.2029647827148438 0.82469654083251953 1.1152019500732422
-0.98632335662841797 2.056365966796875 1.0185556411743164
-1.2738475799560547 2.4125137329101562 1.0326395034790039
-1.5186252593994141 1.9529895782470703 0.93704986572265625
-2.0232439041137695 2.8371200561523438 0.55347442626953125
-2.2078189849853516 2.8903398513793945 0.254364013671875
-2.4491500854492188 2.5576181411743164 0.43733692169189453
3.0443553924560547 1.3038082122802734 0.77261447906494141
2.7047977447509766 1.0841379165649414 0.88656711578369141
3.143040657043457 0.9134063720703125 0.76694393157958984
2.3087186813354492 3.1494560241699219 0.5960235595703125
2.1248416900634766 3.0677719116210938 0.86725997924804688
2.618220329284668 2.8072719573974609 0.79992198944091797
1.3784980773925781 2.5583477020263672 1.0652675628662109
0.94107627868652344 2.2787752151489258 1.003026008605957
1.3593835830688477 2.0764312744140625 1.0600795745849609
-2.6696834564208984 -1.1078605651855469 -0.97438812255859375
-3.1183881759643555 -1.3914070129394531 -0.77742862701416016
-3.0418882369995117 -0.95045757293701172 -0.94347190856933594
-0.74974250793457031 -2.4694900512695312 -0.94508075714111328
-1.2453765869140625 -2.5786895751953125 -0.94741630554199219
-1.1690492630004883 -2.1082315444946289 -0.94888401031494141
-2.2061004638671875 -2.9072837829589844 -0.57278060913085938
-2.2701377868652344 -2.9960308074951172 -0.23054885864257812
-2.6298151016235352 -2.7107601165771484 -0.33080863952636719
3.2427635192871094 -1.3779754638671875 -1.1065788269042969
2.9541139602661133 -1.1284589767456055 -1.284550666809082
3.2732973098754883 -0.66878890991210938 -1.2564353942871094
2.0625810623168945 -3.1718044281005859 -0.43860816955566406
1.9722318649291992 -3.1705036163330078 -0.70865535736083984
2.5180120468139648 -2.7972640991210938 -0.78799915313720703
1.2686443328857422 -2.4553318023681641 -1.1096334457397461
0.89533424377441406 -2.1892251968383789 -1.0945358276367188
1.4709444046020508 -1.9935474395751953 -1.1201858520507812
-2.853759765625 1.1384086608886719 -0.98412132263183594
-2.5465917587280273 0.9240875244140625 -1.0634384155273438
-3.0156421661376953 0.60798072814941406 -0.94373321533203125
-2.1394147872924805 3.0821971893310547 -0.56410312652587891
-1.8300933837890625 2.9962825775146484 -0.889801025390625
-2.3431320190429688 2.7880649566650391 -0.82441329956054688
-0.77322673797607422 2.5631370544433594 -1.1689662933349609
-0.59695720672607422 2.2880935668945312 -1.0266971588134766
-1.1771640777587891 2.0618247985839844 -1.2305850982666016
2.9637126922607422 0.94178581237792969 -0.94292545318603516
3.2652750015258789 1.3430366516113281 -0.71324920654296875
3.3047323226928711 0.70800876617431641 -0.98520183563232422
0.96819114685058594 2.2140827178955078 -1.2379083633422852
1.2904462814331055 2.5145349502563477 -1.1524028778076172
1.489018440246582 1.9783554077148438 -1.1189975738525391
2.0696544647216797 2.9280605316162109 -0.601715087890625
2.2771244049072266 2.9863090515136719 -0.34101676940917969
2.7252445220947266 2.7139215469360352 -0.29099464416503906
-4.1184806823730469 -0.59452724456787109 -0.19083786010742188
-4.1258864402770996 -0.48284912109375 0.06597137451171875
-3.77374267578125 -1.4125127792358398 -0.31741237640380859
-3.581608772277832 -1.9288797378540039 -0.15934848785400391
-3.4034004211425781 -2.1828422546386719 0.36381149291992188
-3.6627931594848633 -1.6311635971069336 0.51494598388671875
-3.1721553802490234 2.0073394775390625 0.052947044372558594
-3.4016036987304688 1.4169960021972656 0.31472206115722656
-3.1439304351806641 1.923375129699707 -0.58725261688232422
-3.3992156982421875 1.3557271957397461 -0.55617237091064453
-3.8569231033325195 0.46388053894042969 -0.25557136535644531
-3.8409900665283203 0.56035327911376953 0.092213630676269531
3.2515850067138672 -1.9831962585449219 0.056158065795898438
3.4416666030883789 -1.5018777847290039 0.26228237152099609
3.355987548828125 -2.07135009765625 -0.44518280029296875
3.6423721313476562 -1.5081987380981445 -0.62308311462402344
4.0278091430664062 -0.74798202514648438 -0.37220096588134766
3.9212703704833984 -0.53759002685546875 0.034703254699707031
4.0835781097412109 0.46359348297119141 -0.28619480133056641
3.9959793090820312 0.30224227905273438 0.017381668090820312
3.6178684234619141 1.5755481719970703 -0.43801975250244141
3.3766202926635742 2.2142868041992188 -0.36697483062744141
3.3834772109985352 2.0677566528320312 0.23256874084472656
3.6378021240234375 1.3972568511962891 0.29944896697998047
-0.71760654449462891 0.21885204315185547 0.38730144500732422
-0.56260490417480469 -0.28547477722167969 0.36553668975830078
-1.5544919967651367 0.87769222259521484 0.85093975067138672
-2.0170059204101562 0.47737884521484375 0.93779659271240234
-2.2564029693603516 -0.74322032928466797 0.91856098175048828
-1.6814060211181641 -1.0667057037353516 0.8986968994140625
1.7896957397460938 -0.35921573638916016 0.79953384399414062
1.3657493591308594 -0.81827926635742188 0.75429153442382812
1.8257484436035156 0.78885746002197266 0.64608860015869141
1.3630247116088867 1.1016664505004883 0.73497772216796875
0.51370716094970703 0.40349769592285156 0.37693023681640625
0.39772129058837891 -0.23020362854003906 0.412689208984375
-0.36763763427734375 -0.3733978271484375 -0.47646808624267578
-0.40858173370361328 0.27243995666503906 -0.43967914581298828
-1.3648872375488281 -1.0497407913208008 -0.98324012756347656
-1.8537311553955078 -0.61874008178710938 -1.0597648620605469
-1.8930940628051758 0.37008953094482422 -1.0120220184326172
-1.4164590835571289 0.90780925750732422 -0.87071704864501953
2.0932626724243164 0.57665252685546875 -1.0220479965209961
1.6505985260009766 0.82896614074707031 -0.87183475494384766
2.1569595336914062 -0.60142135620117188 -1.2001638412475586
1.6014289855957031 -0.90793991088867188 -1.1439094543457031
0.54727840423583984 -0.41261959075927734 -0.68148326873779297
0.56521415710449219 0.28669261932373047 -0.83888816833496094
0.26905250549316406 -3.9201631546020508 0.14770126342773438
-0.38999652862548828 -3.9053363800048828 0.27919387817382812
0.8956451416015625 -3.3508195877075195 0.87015342712402344
0.57050418853759766 -3.1775264739990234 0.99704647064208984
-0.52409076690673828 -3.2034454345703125 1.0272817611694336
-0.804718017578125 -3.4159784317016602 0.77875041961669922
-0.55246829986572266 -3.347630500793457 -0.76212024688720703
-0.9618682861328125 -3.4030017852783203 -0.53609561920166016
0.65284919738769531 -3.2692356109619141 -0.89438438415527344
1.0662841796875 -3.4654026031494141 -0.75956916809082031
0.26453399658203125 -3.8407917022705078 -0.24328231811523438
-0.45432567596435547 -3.8612861633300781 -0.18599510192871094
-0.83335304260253906 3.0262651443481445 0.94268608093261719
-1.2105684280395508 3.2925529479980469 0.73100376129150391
0.52871417999267578 3.2659168243408203 0.82539558410644531
1.0319252014160156 3.5441398620605469 0.74399089813232422
0.38621044158935547 3.7821121215820312 0.37891960144042969
-0.33039093017578125 3.7872762680053711 0.36070919036865234
0.552734375 3.8601226806640625 -0.047219276428222656
-0.078927040100097656 3.8451099395751953 -0.20028972625732422
1.0454387664794922 3.4353952407836914 -0.63938426971435547
0.57452392578125 3.2437610626220703 -0.9200897216796875
-0.47421836853027344 3.2939958572387695 -0.82478523254394531
-0.92762374877929688 3.4136981964111328 -0.71904277801513672
-1.4852657318115234 -2.8165311813354492 1.1796474456787109
-1.7937030792236328 -3.022552490234375 0.97346782684326172
-2.1213855743408203 -1.7751665115356445 1.1625146865844727
-2.716670036315918 -1.562016487121582 1.0996036529541016
-3.2327251434326172 -2.0012626647949219 0.91019153594970703
-2.9914531707763672 -2.4735240936279297 0.82709503173828125
2.8383455276489258 -1.6320581436157227 0.66287612915039062
2.7085046768188477 -2.1833972930908203 0.52918910980224609
2.1457271575927734 -1.1633939743041992 1.0326566696166992
1.7534866333007812 -1.727015495300293 1.0072994232177734
1.3987560272216797 -2.7129659652709961 0.90978908538818359
1.8426294326782227 -2.8685770034790039 0.72733688354492188
-1.8904857635498047 1.6484909057617188 0.98667144775390625
-2.4661188125610352 1.1506786346435547 1.1417913436889648
-1.5461673736572266 2.6813735961914062 1.068634033203125
-1.9830360412597656 2.7285051345825195 0.89663124084472656
-2.8480501174926758 2.2148962020874023 0.67576217651367188
-3.0647802352905273 1.6778221130371094 0.77595710754394531
2.9502725601196289 2.4190425872802734 0.74810981750488281
3.1305065155029297 1.8680601119995117 0.708892822265625
1.731201171875 3.0509185791015625 0.95012187957763672
1.642970085144043 2.7577877044677734 1.0891456604003906
1.8837480545043945 1.826329231262207 1.1223220825195312
2.5254192352294922 1.5181064605712891 0.94467449188232422
-1.7254037857055664 -1.8476829528808594 -1.0338973999023438
-2.3294200897216797 -1.3749542236328125 -0.95637798309326172
-1.6138744354248047 -2.71527099609375 -0.89027118682861328
-1.9429740905761719 -2.8506984710693359 -0.7288665771484375
-2.9323415756225586 -2.3361186981201172 -0.45020294189453125
-3.074000358581543 -1.7952404022216797 -0.747650146484375
2.8532505035400391 -2.351588249206543 -0.93300056457519531
3.2325067520141602 -1.7694807052612305 -0.90478706359863281
1.8918094635009766 -2.9605617523193359 -0.96836376190185547
1.5683536529541016 -2.7086925506591797 -1.0866975784301758
1.982086181640625 -1.7062864303588867 -1.2051496505737305
2.5282993316650391 -1.3126764297485352 -1.3107500076293945
-2.5169839859008789 2.3579998016357422 -0.8948822021484375
-2.8299131393432617 1.5664234161376953 -0.93203163146972656
-1.5087881088256836 2.8631153106689453 -0.9857025146484375
-1.1564264297485352 2.5760154724121094 -1.1121587753295898
-1.6979169845581055 1.6313867568969727 -1.0980424880981445
-2.2191762924194336 1.2801589965820312 -1.0416774749755859
1.9658317565917969 1.8151826858520508 -1.132659912109375
2.5547676086425781 1.3213529586791992 -0.97068881988525391
1.4055185317993164 2.8019895553588867 -1.0660629272460938
1.7846803665161133 2.8166942596435547 -0.86527156829833984
2.7647895812988281 2.4776401519775391 -0.446533203125
2.9393939971923828 1.7559070587158203 -0.59637260437011719
-3.5343618392944336 0.051990509033203125 0.67678928375244141
-3.6260747909545898 -0.59767627716064453 0.73101997375488281
-3.9204778671264648 0.030120849609375 0.15386962890625
-3.5395717620849609 -1.6992921829223633 0.72814464569091797
-4.0334501266479492 0.047776222229003906 -0.39457035064697266
-3.6440525054931641 -0.00038433074951171875 -0.86331748962402344
-3.4451618194580078 -0.56904983520507812 -0.85216999053955078
-3.4912338256835938 -1.5177831649780273 -0.5156402587890625
-3.1632308959960938 -2.6152324676513672 0.49981594085693359
-3.0745697021484375 -2.4405937194824219 -0.18564319610595703
-2.3900184631347656 -3.0633325576782227 0.027649879455566406
-2.5061159133911133 -3.1659297943115234 0.34806442260742188
-3.3926019668579102 0.47868442535400391 0.93875026702880859
-3.2725028991699219 1.4435901641845703 0.60851097106933594
-2.8826618194580078 2.3390331268310547 0.35305404663085938
-2.154841423034668 2.9448604583740234 -0.0614166259765625
-2.4556369781494141 2.8546543121337891 -0.37790489196777344
-2.8828983306884766 2.3458919525146484 -0.68521499633789062
-3.1544313430786133 1.40777587890625 -0.78685379028320312
-3.3830680847167969 0.48151397705078125 -0.81688213348388672
3.117523193359375 -0.58106422424316406 0.75285911560058594
3.4677877426147461 -0.050868034362792969 0.67798328399658203
3.217010498046875 -1.3951845169067383 0.57970809936523438
3.9305744171142578 -0.11929416656494141 0.17030906677246094
2.8353061676025391 -2.2785320281982422 0.23396873474121094
2.3230123519897461 -3.0607662200927734 0.037885665893554688
2.3172798156738281 -3.1443624496459961 -0.26650047302246094
2.935338020324707 -2.4522476196289062 -0.70233535766601562
4.1360931396484375 0.00060176849365234375 -0.34887504577636719
3.4614782333374023 -1.4988613128662109 -0.83937931060791016
3.6207857131958008 -0.41216087341308594 -1.1546230316162109
3.8472146987915039 -0.085693359375 -0.899444580078125
3.3848133087158203 0.53945446014404297 0.65289497375488281
3.3875341415405273 1.5645103454589844 0.58459949493408203
3.6574535369873047 0.31823921203613281 -1.0692462921142578
3.5572843551635742 1.3717937469482422 -0.60815048217773438
3.1342124938964844 2.5022544860839844 0.4903106689453125
3.1491374969482422 2.3413581848144531 -0.42590808868408203
2.3928356170654297 2.9735565185546875 -0.029404640197753906
2.4794425964355469 3.0121536254882812 0.36863803863525391
-0.080507278442382812 -1.4936180114746094 0.90825462341308594
-0.66811656951904297 -1.7044363021850586 0.95107078552246094
0.014270782470703125 -0.53664779663085938 0.46167564392089844
-1.7616853713989258 -1.4891271591186523 0.99809455871582031
-0.15310573577880859 0.44998359680175781 0.34606075286865234
-0.038079261779785156 1.590397834777832 0.78173732757568359
-0.46053218841552734 1.8626747131347656 0.91266822814941406
-1.4653701782226562 1.4470434188842773 0.94374465942382812
-2.6448650360107422 -1.0275173187255859 0.98741054534912109
-2.4275760650634766 0.70871162414550781 1.0637798309326172
-3.0740222930908203 0.24434566497802734 1.0840435028076172
-3.2795019149780273 -0.54625892639160156 0.88394641876220703
0.47738552093505859 -1.9473762512207031 0.83564186096191406
1.3500804901123047 -1.4630184173583984 0.90139579772949219
2.0812559127807617 -0.65996551513671875 0.90289497375488281
2.9564542770385742 -0.35316944122314453 0.88657379150390625
3.0524959564208984 0.30865764617919922 0.89277553558349609
2.3051719665527344 0.94918918609619141 0.94133377075195312
1.4070138931274414 1.5241527557373047 0.95444869995117188
0.45148468017578125 1.9224576950073242 0.85053825378417969
0.19431400299072266 1.4106874465942383 -0.92424869537353516
-0.404022216796875 1.9119272232055664 -0.93921852111816406
0.10118579864501953 0.37171745300292969 -0.50346183776855469
-1.3969173431396484 1.4428720474243164 -0.98386955261230469
0.086643218994140625 -0.63266181945800781 -0.41435432434082031
-0.015514373779296875 -1.6660041809082031 -0.80389022827148438
-0.19100856781005859 -2.1361017227172852 -0.95690059661865234
-1.3772869110107422 -1.5759172439575195 -1.0072021484375
-2.1774625778198242 0.71390628814697266 -1.0339384078979492
-2.2438573837280273 -0.97544574737548828 -1.0088024139404297
-3.1258563995361328 -0.52162837982177734 -0.88967227935791016
-2.9996204376220703 0.14929676055908203 -0.85791397094726562
0.65661048889160156 1.8980340957641602 -1.2223606109619141
1.7277460098266602 1.3102750778198242 -1.0793685913085938
2.4545745849609375 0.91423416137695312 -1.0436687469482422
3.2004013061523438 0.30322933197021484 -1.1558218002319336
3.262481689453125 -0.22979736328125 -1.3178930282592773
2.6497430801391602 -0.82440948486328125 -1.3071708679199219
1.6913623809814453 -1.3818569183349609 -1.1143693923950195
0.53852939605712891 -1.9579381942749023 -1.0294075012207031
-1.6321029663085938 -3.4582290649414062 0.18042182922363281
-1.8874626159667969 -3.3956375122070312 0.45173740386962891
-0.53586769104003906 -3.9363298416137695 0.071677207946777344
-1.4099388122558594 -3.2619819641113281 0.86722564697265625
0.56801700592041016 -3.9593992233276367 -0.0023717880249023438
1.4860067367553711 -3.5377616882324219 0.12442111968994141
1.785731315612793 -3.2610492706298828 0.25499725341796875
1.5815048217773438 -3.1608877182006836 0.78322792053222656
-0.98450660705566406 -2.8847875595092773 1.1970291137695312
0.74819660186767578 -2.8486785888671875 1.1041326522827148
0.15625858306884766 -2.3688535690307617 1.100067138671875
-0.39397144317626953 -2.2278585433959961 1.0706510543823242
-1.8135910034179688 -3.2913322448730469 -0.17327499389648438
-1.4883155822753906 -3.1738395690917969 -0.63598537445068359
-0.94559860229492188 -3.0567455291748047 -0.88315010070800781
-0.25015735626220703 -2.6620016098022461 -1.0284290313720703
0.50974845886230469 -2.5455904006958008 -1.0732631683349609
1.2136878967285156 -3.006108283996582 -1.0156574249267578
1.5720977783203125 -3.4326934814453125 -0.67538261413574219
1.7556562423706055 -3.4324131011962891 -0.11070728302001953
-1.7548818588256836 3.2719392776489258 0.17517280578613281
-1.4006538391113281 3.5230493545532227 -0.081757545471191406
-1.6572437286376953 3.1110868453979492 0.695526123046875
-0.43777656555175781 3.7239646911621094 0.032074928283691406
-0.922271728515625 2.7119617462158203 1.0060844421386719
-0.29364871978759766 2.3247213363647461 0.92997455596923828
0.41913795471191406 2.3634366989135742 0.97758388519287109
1.028508186340332 2.9176521301269531 0.85405349731445312
0.68789482116699219 3.858942985534668 0.24915599822998047
1.6049213409423828 3.3343896865844727 0.77911281585693359
1.8569087982177734 3.4413318634033203 0.32054996490478516
1.7191257476806641 3.4542789459228516 0.0055379867553710938
-1.8632297515869141 3.2518472671508789 -0.34944343566894531
-1.3582553863525391 3.2712278366088867 -0.73213005065917969
2.0283966064453125 3.2427587509155273 -0.22590827941894531
1.6935386657714844 3.0961742401123047 -0.73502159118652344
-0.88086700439453125 2.9309720993041992 -1.0347251892089844
0.89241886138916016 2.9989376068115234 -1.0522069931030273
0.45726203918457031 2.4221248626708984 -1.2309961318969727
-0.065172195434570312 2.4393291473388672 -1.0626602172851562
-3.8970870971679688 -0.83644771575927734 -0.39704608917236328
-3.5326414108276367 -2.0470256805419922 0.049547195434570312
-3.9579086303710938 -0.98358440399169922 0.34848213195800781
-3.1469049453735352 1.9382486343383789 -0.253265380859375
-3.7554721832275391 0.86413955688476562 -0.42530155181884766
-3.5813846588134766 0.82749271392822266 0.25089645385742188
3.3225784301757812 -1.9050617218017578 -0.20402336120605469
3.8090991973876953 -1.0685901641845703 -0.60542488098144531
3.7235918045043945 -1.0419845581054688 0.16811275482177734
3.9864273071289062 0.9182281494140625 -0.39388656616210938
3.419194221496582 2.2382640838623047 -0.072001457214355469
3.8498153686523438 0.80211734771728516 0.17272567749023438
-1.1699647903442383 0.37507343292236328 0.60126590728759766
-2.1672573089599609 -0.095351219177246094 0.88222599029541016
-1.0585126876831055 -0.87944984436035156 0.7225799560546875
1.9638118743896484 0.29110336303710938 0.73247623443603516
0.91556358337402344 0.83419322967529297 0.57007694244384766
0.91173648834228516 -0.59302902221679688 0.56982803344726562
-0.90124702453613281 -0.76527786254882812 -0.73273468017578125
-1.8635692596435547 -0.15657234191894531 -0.89904880523681641
-0.98103141784667969 0.69856071472167969 -0.72566604614257812
2.0939626693725586 -0.012354850769042969 -1.0945615768432617
1.0172510147094727 -0.69281482696533203 -0.95906639099121094
1.0836753845214844 0.63496494293212891 -0.86397171020507812
0.46883964538574219 -3.76007080078125 0.42155742645263672
0.025865554809570312 -3.2721519470214844 0.88883113861083984
-0.62448310852050781 -3.6581497192382812 0.48558521270751953
0.12371349334716797 -3.3164005279541016 -0.90082168579101562
0.59151172637939453 -3.7259902954101562 -0.46561145782470703
-0.76665019989013672 -3.5435514450073242 -0.32849311828613281
-0.17126083374023438 3.0447978973388672 0.81838703155517578
0.69071102142333984 3.6916627883911133 0.572509765625
-0.64930343627929688 3.5202102661132812 0.62533092498779297
0.77879905700683594 3.7410163879394531 -0.3651275634765625
0.18926239013671875 3.4362287521362305 -0.85927009582519531
-0.39208126068115234 3.7260627746582031 -0.53123569488525391
-1.8191661834716797 -2.3976907730102539 1.331695556640625
-2.9404163360595703 -1.835932731628418 1.0620746612548828
-2.5768661499023438 -2.6915245056152344 1.0161247253417969
2.4147911071777344 -1.47979736328125 0.85859489440917969
1.7564268112182617 -2.3115177154541016 0.874725341796875
2.3732366561889648 -2.6899051666259766 0.44353294372558594
-1.76800537109375 2.1788654327392578 1.0721950531005859
-2.4435863494873047 2.3733863830566406 0.84234523773193359
-2.7168960571289062 1.4958858489990234 1.0549325942993164
2.451899528503418 2.729762077331543 0.97803401947021484
1.8385658264160156 2.2611198425292969 1.1817550659179688
2.9239978790283203 1.629486083984375 0.82490348815917969
-1.693293571472168 -2.1875152587890625 -0.97518062591552734
-2.5502223968505859 -2.4004344940185547 -0.65376853942871094
-2.746485710144043 -1.4761486053466797 -0.85605239868164062
2.3907890319824219 -2.6497631072998047 -1.0104990005493164
1.8366527557373047 -2.2837095260620117 -1.1991462707519531
2.7955894470214844 -1.5599336624145508 -1.2503461837768555
-2.0811710357666016 2.5835800170898438 -0.94185829162597656
-1.4799156188964844 2.1840763092041016 -1.2078208923339844
-2.4567012786865234 1.4683742523193359 -1.0401144027709961
1.7827425003051758 2.36102294921875 -0.99179840087890625
2.3430490493774414 2.7122020721435547 -0.57059192657470703
2.8915491104125977 1.3467702865600586 -0.80136585235595703
-3.72027587890625 -0.040357589721679688 0.49265098571777344
-3.511652946472168 -1.1878299713134766 0.81670188903808594
-3.9487695693969727 -0.10181903839111328 -0.57707405090332031
-3.3835353851318359 -0.99024772644042969 -0.76851654052734375
-2.7189426422119141 -2.879979133605957 -0.064980506896972656
-2.9067096710205078 -2.8746528625488281 0.43190193176269531
-3.3939886093139648 0.91652679443359375 0.84672927856445312
-2.5660057067871094 2.5945663452148438 0.091547966003417969
-2.7034969329833984 2.5640659332275391 -0.51305103302001953
-3.2559623718261719 1.0251216888427734 -0.89205741882324219
3.2450494766235352 -0.96806049346923828 0.62949466705322266
3.6994094848632812 -0.16523551940917969 0.38142299652099609
2.64154052734375 -2.7029047012329102 -0.081528663635253906
2.6500940322875977 -2.7689571380615234 -0.63614845275878906
3.5032711029052734 -1.0119199752807617 -1.0985641479492188
3.9650726318359375 -0.10343456268310547 -0.6269989013671875
3.4472484588623047 1.1973285675048828 0.54345798492431641
3.5667381286621094 0.88289642333984375 -0.86570644378662109
2.852787971496582 2.7534046173095703 -0.055382728576660156
2.7792539596557617 2.885554313659668 0.54697418212890625
0.045254707336425781 -1.0350980758666992 0.71379566192626953
-1.2597312927246094 -1.7556180953979492 1.0717487335205078
-0.0303802490234375 1.1133823394775391 0.43576431274414062
-0.96049118041992188 1.4963531494140625 0.88614463806152344
-2.7726669311523438 0.47017002105712891 1.1598873138427734
-2.9786405563354492 -0.67469882965087891 0.98384380340576172
0.96326732635498047 -1.9866485595703125 0.95150947570800781
2.5429925918579102 -0.6032867431640625 0.87147235870361328
2.9092121124267578 0.53344058990478516 0.88234806060791016
0.9587860107421875 1.9388456344604492 0.89117431640625
0.030820846557617188 0.9140167236328125 -0.72680568695068359
-0.90859317779541016 1.8426532745361328 -1.0698051452636719
0.17753314971923828 -1.2162866592407227 -0.64845085144042969
-0.66483306884765625 -1.9945592880249023 -0.95658588409423828
-2.6702966690063477 -0.59014797210693359 -0.99446010589599609
-2.608912467956543 0.39970016479492188 -1.0779304504394531
1.2034244537353516 1.6945114135742188 -1.1897144317626953
2.8606758117675781 0.54969978332519531 -1.0781478881835938
2.9254074096679688 -0.48774051666259766 -1.3245429992675781
1.1928653717041016 -1.7433910369873047 -1.2369136810302734
-1.1964454650878906 -3.6842412948608398 0.078027725219726562
-1.7930107116699219 -3.2976217269897461 0.66727638244628906
1.0444698333740234 -3.7893943786621094 0.057572364807128906
1.5270118713378906 -3.3262825012207031 0.57648181915283203
0.49248027801513672 -2.6447792053222656 1.144801139831543
-0.61851692199707031 -2.6430730819702148 1.1621150970458984
-1.7953348159790039 -3.1892280578613281 -0.46752166748046875
-0.60839748382568359 -2.8674049377441406 -1.0222883224487305
0.86559486389160156 -2.7878561019897461 -1.0748119354248047
1.6890935897827148 -3.4749031066894531 -0.35530757904052734
-1.6317405700683594 3.2879905700683594 0.40131759643554688
-0.90960597991943359 3.6494855880737305 -0.074778556823730469
-0.70056056976318359 2.4842491149902344 1.0122556686401367
0.70059680938720703 2.7355470657348633 0.91750049591064453
1.7944803237915039 3.4576663970947266 0.60170841217041016
1.2757492065429688 3.8284826278686523 0.070136070251464844
-1.6545047760009766 3.2266101837158203 -0.59785842895507812
1.7645301818847656 3.2319040298461914 -0.44884872436523438
0.77667236328125 2.7345733642578125 -1.2500066757202148
-0.38639450073242188 2.8474607467651367 -1.0092573165893555
-4.0178036689758301 0.052191734313964844 -0.15072727203369141
-3.3746852874755859 -1.9290132522583008 -0.40396690368652344
-3.3330402374267578 -2.214350700378418 0.61098384857177734
-3.1106433868408203 1.9245805740356445 0.37004756927490234
-2.9583539962768555 1.889002799987793 -0.83879470825195312
3.1012668609619141 -1.8434715270996094 0.37897872924804688
3.2910041809082031 -2.0738334655761719 -0.69509410858154297
4.1111869812011719 -0.20137977600097656 -0.12334156036376953
3.2526073455810547 1.8464651107788086 -0.52688884735107422
3.2496166229248047 1.9937820434570312 0.47177600860595703
-0.0942535400390625 -0.015482902526855469 0.34788036346435547
-2.1184768676757812 0.95235443115234375 0.98548221588134766
-2.2714958190917969 -1.2545089721679688 1.0261707305908203
1.7529916763305664 -1.1512994766235352 1.0653543472290039
1.9342250823974609 1.3548345565795898 0.92405414581298828
0.12236785888671875 -0.085432052612304688 -0.36612701416015625
-1.9113922119140625 -1.2799644470214844 -1.0322437286376953
-1.7881984710693359 1.0395240783691406 -0.99463844299316406
2.1960411071777344 1.2093772888183594 -0.96967124938964844
2.1818933486938477 -1.0737113952636719 -1.2360982894897461
-0.027661323547363281 -3.9588279724121094 0.00072002410888671875
1.131129264831543 -3.0321712493896484 0.93621921539306641
-1.0526790618896484 -3.1447734832763672 1.0201263427734375
-1.2819929122924805 -3.0807304382324219 -0.78220748901367188
1.3994417190551758 -3.289154052734375 -0.88140106201171875
-1.3860359191894531 3.007227897644043 1.0339193344116211
1.2285757064819336 3.1484794616699219 0.91857624053955078
0.083868980407714844 3.8636980056762695 0.097625732421875
1.2539739608764648 3.161224365234375 -0.85074996948242188
-1.1782999038696289 3.0289297103881836 -0.90240383148193359
-3.3140287399291992 -0.053572654724121094 0.85534095764160156
-3.3112096786499023 -0.016350746154785156 -0.89413356781005859
-2.02239990234375 -3.2592344284057617 0.17081832885742188
-1.8859100341796875 3.1661949157714844 -0.15791034698486328
3.2508440017700195 0.091513633728027344 0.81675434112548828
1.9070577621459961 -3.335784912109375 0.044098854064941406
3.5061254501342773 0.0098114013671875 -1.2367763519287109
2.1336822509765625 3.2331504821777344 0.083933830261230469
-0.14358997344970703 -1.9152984619140625 1.0376958847045898
0.050293922424316406 2.0238361358642578 0.9124755859375
0.044096946716308594 1.9774618148803711 -1.0051231384277344
0.26286220550537109 -2.289402961730957 -0.98506355285644531
3 0 1 2
3 3 4 5
3 6 7 8
3 9 10 11
3 12 13 14
3 15 16 17
3 18 19 20
3 21 22 23
3 24 25 26
3 27 28 29
3 30 31 32
3 33 34 35
3 36 37 38
3 39 40 41
3 42 43 44
3 45 46 47
3 48 49 50
3 51 52 53
3 54 55 56
3 57 58 59
3 60 61 62
3 63 64 65
3 66 67 68
3 69 70 71
3 72 73 74
3 75 76 77
3 78 79 80
3 81 82 83
3 84 85 86
3 87 88 89
3 90 91 92
3 93 94 95
3 96 97 98
3 99 100 101
3 102 103 104
3 105 106 107
3 108 109 110
3 111 112 113
3 114 115 116
3 117 118 119
3 120 121 122
3 123 124 125
3 126 127 128
3 129 130 131
3 132 133 134
3 135 136 137
3 138 139 140
3 141 142 143
3 144 145 146
3 147 148 149
3 150 151 152
3 153 154 155
3 156 157 158
3 159 160 161
3 162 163 164
3 165 166 167
3 168 169 170
3 171 172 173
3 174 175 176
3 177 178 179
3 180 181 182
3 183 184 185
3 186 187 188
3 189 190 191
3 192 193 194
3 195 196 197
3 198 199 200
3 201 202 203
3 204 205 206
3 207 208 209
3 210 211 212
3 213 214 215
3 216 217 218
3 219 220 221
3 222 223 224
3 225 226 227
3 228 229 230
3 231 232 233
3 234 235 236
3 237 238 239
3 240 2 241
3 242 243 0
3 1 244 245
3 246 5 247
3 248 249 3
3 4 250 251
3 252 8 253
3 254 255 6
3 7 256 257
3 258 11 259
3 260 261 9
3 10 262 263
3 264 14 265
3 266 267 12
3 13 268 269
3 270 17 271
3 272 273 15
3 16 274 275
3 276 20 277
3 278 279 18
3 19 280 281
3 282 23 283
3 284 285 21
3 22 286 287
3 288 26 289
3 290 291 24
3 25 292 293
3 294 29 295
3 296 297 27
3 28 298 299
3 300 32 301
3 302 303 30
3 31 304 305
3 306 35 307
3 308 309 33
3 34 310 311
3 312 38 313
3 314 315 36
3 37 316 317
3 318 41 319
3 320 321 39
3 40 322 323
3 324 44 325
3 326 327 42
3 43 328 329
3 330 47 331
3 332 333 45
3 46 334 335
3 336 50 337
3 338 339 48
3 49 340 341
3 342 53 343
3 344 345 51
3 52 346 347
3 348 56 349
3 350 351 54
3 55 352 353
3 354 59 355
3 356 357 57
3 58 358 359
3 360 62 361
3 362 241 60
3 61 245 363
3 364 65 240
3 365 366 63
3 64 367 242
3 244 68 368
3 243 369 66
3 67 370 371
3 372 71 360
3 373 247 69
3 70 251 362
3 374 74 246
3 375 376 72
3 73 377 248
3 250 77 364
3 249 378 75
3 76 379 365
3 380 80 381
3 382 253 78
3 79 257 383
3 384 83 252
3 385 386 81
3 82 387 254
3 256 86 388
3 255 389 84
3 85 390 391
3 381 89 392
3 383 259 87
3 88 263 393
3 388 92 258
3 391 394 90
3 91 395 260
3 262 95 396
3 261 397 93
3 94 398 399
3 400 98 401
3 402 265 96
3 97 269 403
3 404 101 264
3 405 406 99
3 100 407 266
3 268 104 408
3 267 409 102
3 103 410 411
3 412 107 400
3 413 271 105
3 106 275 402
3 414 110 270
3 415 416 108
3 109 417 272
3 274 113 404
3 273 418 111
3 112 419 405
3 420 116 421
3 422 277 114
3 115 281 423
3 424 119 276
3 425 426 117
3 118 427 278
3 280 122 428
3 279 429 120
3 121 430 431
3 432 125 420
3 433 283 123
3 124 287 422
3 434 128 282
3 435 436 126
3 127 437 284
3 286 131 424
3 285 438 129
3 130 439 425
3 440 134 441
3 442 289 132
3 133 293 443
3 444 137 288
3 445 446 135
3 136 447 290
3 292 140 448
3 291 449 138
3 139 450 451
3 452 143 440
3 453 295 141
3 142 299 442
3 454 146 294
3 455 456 144
3 145 457 296
3 298 149 444
3 297 458 147
3 148 459 445
3 460 152 461
3 462 301 150
3 151 305 463
3 464 155 300
3 465 466 153
3 154 467 302
3 304 158 468
3 303 469 156
3 157 470 471
3 461 161 472
3 463 307 159
3 160 311 473
3 468 164 306
3 471 474 162
3 163 475 308
3 310 167 476
3 309 477 165
3 166 478 479
3 441 170 371
3 443 313 168
3 169 317 368
3 448 173 312
3 451 401 171
3 172 403 314
3 316 176 363
3 315 408 174
3 175 411 361
3 385 179 446
3 384 319 177
3 178 323 447
3 382 182 318
3 380 415 180
3 181 414 320
3 322 185 449
3 321 413 183
3 184 412 450
3 410 188 372
3 409 325 186
3 187 329 373
3 407 191 324
3 406 465 189
3 190 464 326
3 328 194 374
3 327 462 192
3 193 460 375
3 392 197 416
3 393 331 195
3 196 335 417
3 396 200 330
3 399 470 198
3 199 469 332
3 334 203 418
3 333 467 201
3 202 466 419
3 430 206 366
3 429 337 204
3 205 341 367
3 427 209 336
3 426 455 207
3 208 454 338
3 340 212 369
3 339 453 210
3 211 452 370
3 390 215 436
3 389 343 213
3 214 347 437
3 387 218 342
3 386 459 216
3 217 458 344
3 346 221 438
3 345 457 219
3 220 456 439
3 379 224 431
3 378 349 222
3 223 353 428
3 377 227 348
3 376 472 225
3 226 473 350
3 352 230 423
3 351 476 228
3 229 479 421
3 435 233 394
3 434 355 231
3 232 359 395
3 433 236 354
3 432 478 234
3 235 477 356
3 358 239 397
3 357 475 237
3 238 474 398
3 480 0 2
3 0 481 1
3 2 1 482
3 483 3 5
3 3 484 4
3 5 4 485
3 486 6 8
3 6 487 7
3 8 7 488
3 489 9 11
3 9 490 10
3 11 10 491
3 492 12 14
3 12 493 13
3 14 13 494
3 495 15 17
3 15 496 16
3 17 16 497
3 498 18 20
3 18 499 19
3 20 19 500
3 501 21 23
3 21 502 22
3 23 22 503
3 504 24 26
3 24 505 25
3 26 25 506
3 507 27 29
3 27 508 28
3 29 28 509
3 510 30 32
3 30 511 31
3 32 31 512
3 513 33 35
3 33 514 34
3 35 34 515
3 516 36 38
3 36 517 37
3 38 37 518
3 519 39 41
3 39 520 40
3 41 40 521
3 522 42 44
3 42 523 43
3 44 43 524
3 525 45 47
3 45 526 46
3 47 46 527
3 528 48 50
3 48 529 49
3 50 49 530
3 531 51 53
3 51 532 52
3 53 52 533
3 534 54 56
3 54 535 55
3 56 55 536
3 537 57 59
3 57 538 58
3 59 58 539
3 540 60 62
3 60 482 61
3 62 61 541
3 542 63 65
3 63 543 64
3 65 64 480
3 481 66 68
3 66 544 67
3 68 67 545
3 546 69 71
3 69 485 70
3 71 70 540
3 547 72 74
3 72 548 73
3 74 73 483
3 484 75 77
3 75 549 76
3 77 76 542
3 550 78 80
3 78 488 79
3 80 79 551
3 552 81 83
3 81 553 82
3 83 82 486
3 487 84 86
3 84 554 85
3 86 85 555
3 551 87 89
3 87 491 88
3 89 88 556
3 555 90 92
3 90 557 91
3 92 91 489
3 490 93 95
3 93 558 94
3 95 94 559
3 560 96 98
3 96 494 97
3 98 97 561
3 562 99 101
3 99 563 100
3 101 100 492
3 493 102 104
3 102 564 103
3 104 103 565
3 566 105 107
3 105 497 106
3 107 106 560
3 567 108 110
3 108 568 109
3 110 109 495
3 496 111 113
3 111 569 112
3 113 112 562
3 570 114 116
3 114 500 115
3 116 115 571
3 572 117 119
3 117 573 118
3 119 118 498
3 499 120 122
3 120 574 121
3 122 121 575
3 576 123 125
3 123 503 124
3 125 124 570
3 577 126 128
3 126 578 127
3 128 127 501
3 502 129 131
3 129 579 130
3 131 130 572
3 580 132 134
3 132 506 133
3 134 133 581
3 582 135 137
3 135 583 136
3 137 136 504
3 505 138 140
3 138 584 139
3 140 139 585
3 586 141 143
3 141 509 142
3 143 142 580
3 587 144 146
3 144 588 145
3 146 145 507
3 508 147 149
3 147 589 148
3 149 148 582
3 590 150 152
3 150 512 151
3 152 151 591
3 592 153 155
3 153 593 154
3 155 154 510
3 511 156 158
3 156 594 157
3 158 157 595
3 591 159 161
3 159 515 160
3 161 160 596
3 595 162 164
3 162 597 163
3 164 163 513
3 514 165 167
3 165 598 166
3 167 166 599
3 581 168 170
3 168 518 169
3 170 169 545
3 585 171 173
3 171 561 172
3 173 172 516
3 517 174 176
3 174 565 175
3 176 175 541
3 552 177 179
3 177 521 178
3 179 178 583
3 550 180 182
3 180 567 181
3 182 181 519
3 520 183 185
3 183 566 184
3 185 184 584
3 564 186 188
3 186 524 187
3 188 187 546
3 563 189 191
3 189 592 190
3 191 190 522
3 523 192 194
3 192 590 193
3 194 193 547
3 556 195 197
3 195 527 196
3 197 196 568
3 559 198 200
3 198 594 199
3 200 199 525
3 526 201 203
3 201 593 202
3 203 202 569
3 574 204 206
3 204 530 205
3 206 205 543
3 573 207 209
3 207 587 208
3 209 208 528
3 529 210 212
3 210 586 211
3 212 211 544
3 554 213 215
3 213 533 214
3 215 214 578
3 553 216 218
3 216 589 217
3 218 217 531
3 532 219 221
3 219 588 220
3 221 220 579
3 549 222 224
3 222 536 223
3 224 223 575
3 548 225 227
3 225 596 226
3 227 226 534
3 535 228 230
3 228 599 229
3 230 229 571
3 577 231 233
3 231 539 232
3 233 232 557
3 576 234 236
3 234 598 235
3 236 235 537
3 538 237 239
3 237 597 238
3 239 238 558
3 600 240 241
3 240 480 2
3 241 2 482
3 480 242 0
3 242 601 243
3 0 243 481
3 482 1 245
3 1 481 244
3 245 244 602
3 603 246 247
3 246 483 5
3 247 5 485
3 483 248 3
3 248 604 249
3 3 249 484
3 485 4 251
3 4 484 250
3 251 250 600
3 605 252 253
3 252 486 8
3 253 8 488
3 486 254 6
3 254 606 255
3 6 255 487
3 488 7 257
3 7 487 256
3 257 256 607
3 607 258 259
3 258 489 11
3 259 11 491
3 489 260 9
3 260 608 261
3 9 261 490
3 491 10 263
3 10 490 262
3 263 262 609
3 610 264 265
3 264 492 14
3 265 14 494
3 492 266 12
3 266 611 267
3 12 267 493
3 494 13 269
3 13 493 268
3 269 268 612
3 613 270 271
3 270 495 17
3 271 17 497
3 495 272 15
3 272 614 273
3 15 273 496
3 497 16 275
3 16 496 274
3 275 274 610
3 615 276 277
3 276 498 20
3 277 20 500
3 498 278 18
3 278 616 279
3 18 279 499
3 500 19 281
3 19 499 280
3 281 280 617
3 618 282 283
3 282 501 23
3 283 23 503
3 501 284 21
3 284 619 285
3 21 285 502
3 503 22 287
3 22 502 286
3 287 286 615
3 620 288 289
3 288 504 26
3 289 26 506
3 504 290 24
3 290 621 291
3 24 291 505
3 506 25 293
3 25 505 292
3 293 292 622
3 623 294 295
3 294 507 29
3 295 29 509
3 507 296 27
3 296 624 297
3 27 297 508
3 509 28 299
3 28 508 298
3 299 298 620
3 625 300 301
3 300 510 32
3 301 32 512
3 510 302 30
3 302 626 303
3 30 303 511
3 512 31 305
3 31 511 304
3 305 304 627
3 627 306 307
3 306 513 35
3 307 35 515
3 513 308 33
3 308 628 309
3 33 309 514
3 515 34 311
3 34 514 310
3 311 310 629
3 622 312 313
3 312 516 38
3 313 38 518
3 516 314 36
3 314 612 315
3 36 315 517
3 518 37 317
3 37 517 316
3 317 316 602
3 605 318 319
3 318 519 41
3 319 41 521
3 519 320 39
3 320 613 321
3 39 321 520
3 521 40 323
3 40 520 322
3 323 322 621
3 611 324 325
3 324 522 44
3 325 44 524
3 522 326 42
3 326 625 327
3 42 327 523
3 524 43 329
3 43 523 328
3 329 328 603
3 609 330 331
3 330 525 47
3 331 47 527
3 525 332 45
3 332 626 333
3 45 333 526
3 527 46 335
3 46 526 334
3 335 334 614
3 616 336 337
3 336 528 50
3 337 50 530
3 528 338 48
3 338 623 339
3 48 339 529
3 530 49 341
3 49 529 340
3 341 340 601
3 606 342 343
3 342 531 53
3 343 53 533
3 531 344 51
3 344 624 345
3 51 345 532
3 533 52 347
3 52 532 346
3 347 346 619
3 604 348 349
3 348 534 56
3 349 56 536
3 534 350 54
3 350 629 351
3 54 351 535
3 536 55 353
3 55 535 352
3 353 352 617
3 618 354 355
3 354 537 59
3 355 59 539
3 537 356 57
3 356 628 357
3 57 357 538
3 539 58 359
3 58 538 358
3 359 358 608
3 630 360 361
3 360 540 62
3 361 62 541
3 540 362 60
3 362 600 241
3 60 241 482
3 541 61 363
3 61 482 245
3 363 245 602
3 600 364 240
3 364 542 65
3 240 65 480
3 542 365 63
3 365 631 366
3 63 366 543
3 480 64 242
3 64 543 367
3 242 367 601
3 602 244 368
3 244 481 68
3 368 68 545
3 481 243 66
3 243 601 369
3 66 369 544
3 545 67 371
3 67 544 370
3 371 370 632
3 630 372 360
3 372 546 71
3 360 71 540
3 546 373 69
3 373 603 247
3 69 247 485
3 540 70 362
3 70 485 251
3 362 251 600
3 603 374 246
3 374 547 74
3 246 74 483
3 547 375 72
3 375 633 376
3 72 376 548
3 483 73 248
3 73 548 377
3 248 377 604
3 600 250 364
3 250 484 77
3 364 77 542
3 484 249 75
3 249 604 378
3 75 378 549
3 542 76 365
3 76 549 379
3 365 379 631
3 634 380 381
3 380 550 80
3 381 80 551
3 550 382 78
3 382 605 253
3 78 253 488
3 551 79 383
3 79 488 257
3 383 257 607
3 605 384 252
3 384 552 83
3 252 83 486
3 552 385 81
3 385 635 386
3 81 386 553
3 486 82 254
3 82 553 387
3 254 387 606
3 607 256 388
3 256 487 86
3 388 86 555
3 487 255 84
3 255 606 389
3 84 389 554
3 555 85 391
3 85 554 390
3 391 390 636
3 634 381 392
3 381 551 89
3 392 89 556
3 551 383 87
3 383 607 259
3 87 259 491
3 556 88 393
3 88 491 263
3 393 263 609
3 607 388 258
3 388 555 92
3 258 92 489
3 555 391 90
3 391 636 394
3 90 394 557
3 489 91 260
3 91 557 395
3 260 395 608
3 609 262 396
3 262 490 95
3 396 95 559
3 490 261 93
3 261 608 397
3 93 397 558
3 559 94 399
3 94 558 398
3 399 398 637
3 638 400 401
3 400 560 98
3 401 98 561
3 560 402 96
3 402 610 265
3 96 265 494
3 561 97 403
3 97 494 269
3 403 269 612
3 610 404 264
3 404 562 101
3 264 101 492
3 562 405 99
3 405 639 406
3 99 406 563
3 492 100 266
3 100 563 407
3 266 407 611
3 612 268 408
3 268 493 104
3 408 104 565
3 493 267 102
3 267 611 409
3 102 409 564
3 565 103 411
3 103 564 410
3 411 410 630
3 638 412 400
3 412 566 107
3 400 107 560
3 566 413 105
3 413 613 271
3 105 271 497
3 560 106 402
3 106 497 275
3 402 275 610
3 613 414 270
3 414 567 110
3 270 110 495
3 567 415 108
3 415 634 416
3 108 416 568
3 495 109 272
3 109 568 417
3 272 417 614
3 610 274 404
3 274 496 113
3 404 113 562
3 496 273 111
3 273 614 418
3 111 418 569
3 562 112 405
3 112 569 419
3 405 419 639
3 640 420 421
3 420 570 116
3 421 116 571
3 570 422 114
3 422 615 277
3 114 277 500
3 571 115 423
3 115 500 281
3 423 281 617
3 615 424 276
3 424 572 119
3 276 119 498
3 572 425 117
3 425 641 426
3 117 426 573
3 498 118 278
3 118 573 427
3 278 427 616
3 617 280 428
3 280 499 122
3 428 122 575
3 499 279 120
3 279 616 429
3 120 429 574
3 575 121 431
3 121 574 430
3 431 430 631
3 640 432 420
3 432 576 125
3 420 125 570
3 576 433 123
3 433 618 283
3 123 283 503
3 570 124 422
3 124 503 287
3 422 287 615
3 618 434 282
3 434 577 128
3 282 128 501
3 577 435 126
3 435 636 436
3 126 436 578
3 501 127 284
3 127 578 437
3 284 437 619
3 615 286 424
3 286 502 131
3 424 131 572
3 502 285 129
3 285 619 438
3 129 438 579
3 572 130 425
3 130 579 439
3 425 439 641
3 632 440 441
3 440 580 134
3 441 134 581
3 580 442 132
3 442 620 289
3 132 289 506
3 581 133 443
3 133 506 293
3 443 293 622
3 620 444 288
3 444 582 137
3 288 137 504
3 582 445 135
3 445 635 446
3 135 446 583
3 504 136 290
3 136 583 447
3 290 447 621
3 622 292 448
3 292 505 140
3 448 140 585
3 505 291 138
3 291 621 449
3 138 449 584
3 585 139 451
3 139 584 450
3 451 450 638
3 632 452 440
3 452 586 143
3 440 143 580
3 586 453 141
3 453 623 295
3 141 295 509
3 580 142 442
3 142 509 299
3 442 299 620
3 623 454 294
3 454 587 146
3 294 146 507
3 587 455 144
3 455 641 456
3 144 456 588
3 507 145 296
3 145 588 457
3 296 457 624
3 620 298 444
3 298 508 149
3 444 149 582
3 508 297 147
3 297 624 458
3 147 458 589
3 582 148 445
3 148 589 459
3 445 459 635
3 633 460 461
3 460 590 152
3 461 152 591
3 590 462 150
3 462 625 301
3 150 301 512
3 591 151 463
3 151 512 305
3 463 305 627
3 625 464 300
3 464 592 155
3 300 155 510
3 592 465 153
3 465 639 466
3 153 466 593
3 510 154 302
3 154 593 467
3 302 467 626
3 627 304 468
3 304 511 158
3 468 158 595
3 511 303 156
3 303 626 469
3 156 469 594
3 595 157 471
3 157 594 470
3 471 470 637
3 633 461 472
3 461 591 161
3 472 161 596
3 591 463 159
3 463 627 307
3 159 307 515
3 596 160 473
3 160 515 311
3 473 311 629
3 627 468 306
3 468 595 164
3 306 164 513
3 595 471 162
3 471 637 474
3 162 474 597
3 513 163 308
3 163 597 475
3 308 475 628
3 629 310 476
3 310 514 167
3 476 167 599
3 514 309 165
3 309 628 477
3 165 477 598
3 599 166 479
3 166 598 478
3 479 478 640
3 632 441 371
3 441 581 170
3 371 170 545
3 581 443 168
3 443 622 313
3 168 313 518
3 545 169 368
3 169 518 317
3 368 317 602
3 622 448 312
3 448 585 173
3 312 173 516
3 585 451 171
3 451 638 401
3 171 401 561
3 516 172 314
3 172 561 403
3 314 403 612
3 602 316 363
3 316 517 176
3 363 176 541
3 517 315 174
3 315 612 408
3 174 408 565
3 541 175 361
3 175 565 411
3 361 411 630
3 635 385 446
3 385 552 179
3 446 179 583
3 552 384 177
3 384 605 319
3 177 319 521
3 583 178 447
3 178 521 323
3 447 323 621
3 605 382 318
3 382 550 182
3 318 182 519
3 550 380 180
3 380 634 415
3 180 415 567
3 519 181 320
3 181 567 414
3 320 414 613
3 621 322 449
3 322 520 185
3 449 185 584
3 520 321 183
3 321 613 413
3 183 413 566
3 584 184 450
3 184 566 412
3 450 412 638
3 630 410 372
3 410 564 188
3 372 188 546
3 564 409 186
3 409 611 325
3 186 325 524
3 546 187 373
3 187 524 329
3 373 329 603
3 611 407 324
3 407 563 191
3 324 191 522
3 563 406 189
3 406 639 465
3 189 465 592
3 522 190 326
3 190 592 464
3 326 464 625
3 603 328 374
3 328 523 194
3 374 194 547
3 523 327 192
3 327 625 462
3 192 462 590
3 547 193 375
3 193 590 460
3 375 460 633
3 634 392 416
3 392 556 197
3 416 197 568
3 556 393 195
3 393 609 331
3 195 331 527
3 568 196 417
3 196 527 335
3 417 335 614
3 609 396 330
3 396 559 200
3 330 200 525
3 559 399 198
3 399 637 470
3 198 470 594
3 525 199 332
3 199 594 469
3 332 469 626
3 614 334 418
3 334 526 203
3 418 203 569
3 526 333 201
3 333 626 467
3 201 467 593
3 569 202 419
3 202 593 466
3 419 466 639
3 631 430 366
3 430 574 206
3 366 206 543
3 574 429 204
3 429 616 337
3 204 337 530
3 543 205 367
3 205 530 341
3 367 341 601
3 616 427 336
3 427 573 209
3 336 209 528
3 573 426 207
3 426 641 455
3 207 455 587
3 528 208 338
3 208 587 454
3 338 454 623
3 601 340 369
3 340 529 212
3 369 212 544
3 529 339 210
3 339 623 453
3 210 453 586
3 544 211 370
3 211 586 452
3 370 452 632
3 636 390 436
3 390 554 215
3 436 215 578
3 554 389 213
3 389 606 343
3 213 343 533
3 578 214 437
3 214 533 347
3 437 347 619
3 606 387 342
3 387 553 218
3 342 218 531
3 553 386 216
3 386 635 459
3 216 459 589
3 531 217 344
3 217 589 458
3 344 458 624
3 619 346 438
3 346 532 221
3 438 221 579
3 532 345 219
3 345 624 457
3 219 457 588
3 579 220 439
3 220 588 456
3 439 456 641
3 631 379 431
3 379 549 224
3 431 224 575
3 549 378 222
3 378 604 349
3 222 349 536
3 575 223 428
3 223 536 353
3 428 353 617
3 604 377 348
3 377 548 227
3 348 227 534
3 548 376 225
3 376 633 472
3 225 472 596
3 534 226 350
3 226 596 473
3 350 473 629
3 617 352 423
3 352 535 230
3 423 230 571
3 535 351 228
3 351 629 476
3 228 476 599
3 571 229 421
3 229 599 479
3 421 479 640
3 636 435 394
3 435 577 233
3 394 233 557
3 577 434 231
3 434 618 355
3 231 355 539
3 557 232 395
3 232 539 359
3 395 359 608
3 618 433 354
3 433 576 236
3 354 236 537
3 576 432 234
3 432 640 478
3 234 478 598
3 537 235 356
3 235 598 477
3 356 477 628
3 608 358 397
3 358 538 239
3 397 239 558
3 538 357 237
3 357 628 475
3 237 475 597
3 558 238 398
3 238 597 474
3 398 474 637
